<svg width="35" height="27" viewBox="0 0 35 27" fill="none" xmlns="http://www.w3.org/2000/svg">
<path d="M14.4134 14.8628C14.2821 14.6633 14.0855 14.5297 13.8499 14.4784L13.6381 14.4545C13.4876 14.4545 13.3441 14.4918 13.2006 14.5706C12.9801 14.6989 12.8296 14.9176 12.7835 15.172C12.6453 15.8078 12.3921 16.2692 12.0351 16.5411C11.719 16.7785 11.2815 16.8981 10.7395 16.8981C10.025 16.8981 9.47487 16.6589 9.05774 16.17C8.58757 15.6165 8.34838 14.7928 8.34838 13.7194C8.34838 12.6735 8.58928 11.8533 9.05597 11.291C9.48998 10.7853 10.0406 10.5391 10.7395 10.5391C11.2796 10.5391 11.7241 10.6587 12.0607 10.8961C12.4212 11.1458 12.6452 11.5215 12.7444 12.026C12.8027 12.3795 12.9923 12.5732 13.1288 12.6618C13.2688 12.761 13.4315 12.8141 13.5989 12.8141L13.7955 12.7901C14.0248 12.737 14.2109 12.6122 14.341 12.4209C14.4745 12.2208 14.5253 11.9939 14.4879 11.7425C14.3304 10.9066 13.96 10.2264 13.379 9.71889C12.714 9.14959 11.8273 8.86084 10.7406 8.86084C9.50864 8.86084 8.49829 9.32049 7.74114 10.2265C6.9857 11.1183 6.60303 12.2926 6.60303 13.7195C6.60303 15.1772 6.9857 16.3597 7.73937 17.2317C8.4948 18.1254 9.50454 18.5786 10.7406 18.5786C11.8256 18.5786 12.7146 18.2659 13.379 17.654C13.9361 17.15 14.3222 16.4611 14.5294 15.6031C14.6082 15.2559 14.5073 15.0069 14.4134 14.8628Z" fill="#718FAB"/>
<path d="M22.9253 10.3956C22.1501 9.37709 21.0476 8.86084 19.6499 8.86084C18.2452 8.86084 17.1393 9.37709 16.3599 10.4008C15.7071 11.2758 15.377 12.3935 15.377 13.7194C15.377 15.0453 15.7065 16.16 16.3616 17.0299C17.1392 18.0571 18.2452 18.578 19.6498 18.578C21.0475 18.578 22.15 18.0565 22.9241 17.0333C23.5938 16.1636 23.9338 15.0494 23.9338 13.7194C23.9338 12.3894 23.5955 11.2706 22.9253 10.3956ZM21.5655 16.0095C21.128 16.6144 20.501 16.9084 19.6499 16.9084C18.7936 16.9084 18.1665 16.6144 17.736 16.013C17.3311 15.4454 17.1241 14.6749 17.1241 13.7193C17.1241 12.7575 17.3294 11.9862 17.736 11.4239C18.1665 10.8225 18.7936 10.5285 19.6499 10.5285C20.501 10.5285 21.128 10.8225 21.5673 11.4274C21.9792 11.9932 22.1874 12.7638 22.1874 13.7193C22.1874 14.6667 21.9774 15.4373 21.5655 16.0095Z" fill="#718FAB"/>
<path d="M29.1886 20.0246C29.0206 19.8572 28.7949 19.7651 28.5505 19.7651H26.4178C26.556 19.6029 26.8331 19.355 27.4024 18.9992L27.5424 18.9C28.1491 18.5138 28.5335 18.2181 28.747 17.9701C29.1232 17.5432 29.3128 16.9925 29.3128 16.3362C29.3128 15.7144 29.101 15.1777 28.684 14.7437C27.7576 13.7865 25.972 13.7935 25.0696 14.749C24.6595 15.1795 24.4507 15.7144 24.4507 16.3368V16.5503C24.4507 16.8752 24.5843 17.0905 24.7173 17.2375C25.0626 17.5793 25.6879 17.5571 25.9854 17.2596C26.1768 17.0852 26.2829 16.8426 26.2829 16.576V16.3368C26.2829 16.1302 26.3529 16.0311 26.4194 15.9605C26.4894 15.8852 26.6055 15.7984 26.8774 15.7984C27.1544 15.7984 27.2775 15.8888 27.351 15.9658C27.4123 16.0305 27.4829 16.1297 27.4829 16.3368C27.4829 16.5777 27.4182 16.762 27.2846 16.9125C27.2006 17.0046 26.9632 17.2181 26.3174 17.6183C25.6612 18.0132 25.1654 18.4589 24.841 18.946C24.4735 19.5013 24.2891 20.154 24.2956 20.8873L24.3008 21.5383H28.551C28.8071 21.5383 29.0433 21.4339 29.1886 21.2717C29.3542 21.1043 29.4447 20.8855 29.4447 20.6516C29.4447 20.4126 29.3542 20.1903 29.1886 20.0246Z" fill="#718FAB"/>
<path d="M29.1637 9.28669C27.4872 3.79401 22.3994 0 16.625 0C11.0979 0 6.18331 3.45919 4.29803 8.63919C1.60125 10.4353 0 13.3969 0 16.625C0 21.9316 4.3184 26.25 9.625 26.25C10.6948 26.25 11.7717 26.0604 12.8257 25.6824C15.8474 26.6035 19.0855 26.3935 21.9549 25.1084C23.2744 25.8569 24.7496 26.25 26.25 26.25C31.0747 26.25 35 22.3247 35 17.5C35 13.7644 32.6743 10.5204 29.1637 9.28669ZM26.25 24.5C24.9241 24.5 23.6197 24.1138 22.4799 23.3806L22.0646 23.114L21.6201 23.331C18.9543 24.6435 15.9017 24.857 13.0754 23.9271L12.7762 23.828L12.4839 23.9423C11.5389 24.3116 10.5764 24.4994 9.625 24.4994C5.28268 24.5 1.75 20.9673 1.75 16.625C1.75 13.9026 3.14651 11.4094 5.48563 9.95456L5.75224 9.78893L5.85313 9.49143C7.41706 4.86035 11.746 1.75 16.625 1.75C21.7688 1.75 26.2844 5.22437 27.6051 10.199L27.7317 10.6756L28.2054 10.8138C31.2229 11.6982 33.25 14.3844 33.25 17.5C33.25 21.3605 30.1105 24.5 26.25 24.5Z" fill="#718FAB"/>
</svg>
