<svg width="35" height="31" viewBox="0 0 35 31" fill="none" xmlns="http://www.w3.org/2000/svg">
<path d="M34.258 29.4716H27.2294C27.3902 29.1341 27.4805 28.7567 27.4805 28.3585C27.4805 27.933 27.3769 27.5314 27.1947 27.1765H30.1148C30.5246 27.1765 30.8568 26.8442 30.8568 26.4344V23.4663C30.8568 23.0565 30.5246 22.7242 30.1148 22.7242H29.5626C29.7994 21.0902 31.4993 9.36735 31.4993 9.36735H32.947C33.3568 9.36735 33.689 9.03506 33.689 8.62531C33.689 8.21557 33.3568 7.88327 32.947 7.88327H30.5994L23.4619 0.647568C23.05 0.229961 22.5001 0 21.9135 0C21.3269 0 20.777 0.229961 20.3651 0.647568L17.4974 3.55462C16.739 3.26286 15.8488 3.41059 15.2238 3.99793L13.2937 5.81178L11.5928 4.60312C10.8393 4.06772 9.82673 4.06766 9.07307 4.60318L4.45703 7.88334H2.05304C1.64322 7.88334 1.311 8.21564 1.311 8.62538C1.311 9.03513 1.64322 9.36742 2.05304 9.36742H3.50123C3.74828 11.0725 5.43792 22.7243 5.43792 22.7243H4.88523C4.47542 22.7243 4.14319 23.0566 4.14319 23.4663V26.4345C4.14319 26.8442 4.47542 27.1765 4.88523 27.1765H7.80527C7.62303 27.5314 7.51953 27.933 7.51953 28.3586C7.51953 28.7567 7.60983 29.1342 7.77062 29.4717H0.742041C0.332227 29.4718 0 29.804 0 30.2138C0 30.6236 0.332227 30.9559 0.742041 30.9559H34.258C34.6678 30.9559 35 30.6236 35 30.2138C35 29.8041 34.6677 29.4716 34.258 29.4716ZM21.4216 1.68978C21.5525 1.55716 21.7271 1.48415 21.9135 1.48415C22.0998 1.48415 22.2745 1.55716 22.4053 1.68978L28.4752 7.84308H22.2943L18.6916 4.4573L21.4216 1.68978ZM16.2401 5.07944C16.5054 4.83027 16.9211 4.83014 17.1864 5.07944L20.1271 7.84314H13.2992L16.2401 5.07944ZM9.93282 5.81294C10.1722 5.64293 10.4939 5.64293 10.7332 5.81294L12.1905 6.84852L11.1321 7.84314H7.07574L9.93282 5.81294ZM5.00063 9.36735H29.9997L29.3809 13.6341H5.61962C5.41317 12.2119 5.20673 10.7896 5.00063 9.36735ZM24.3639 18.4574H28.6817C28.4753 19.8797 28.2688 21.302 28.0628 22.7242H6.93752L6.31873 18.4574H15.9008C16.3106 18.4574 16.6428 18.1251 16.6428 17.7154C16.6428 17.3057 16.3106 16.9734 15.9008 16.9734H6.10354C6.01385 16.355 5.92423 15.7367 5.83475 15.1182H29.1655C29.0758 15.7366 28.9863 16.355 28.8968 16.9734H24.3639C23.9541 16.9734 23.6219 17.3057 23.6219 17.7154C23.6219 18.1251 23.9541 18.4574 24.3639 18.4574ZM5.62721 25.6924V24.2083H29.3728V25.6924H5.62721ZM10.1166 29.4716C9.50284 29.4716 9.00348 28.9723 9.00348 28.3585C9.00348 27.7448 9.50277 27.2454 10.1166 27.2454C10.7304 27.2454 11.2297 27.7447 11.2297 28.3585C11.2297 28.9723 10.7303 29.4716 10.1166 29.4716ZM22.5373 29.4716H12.4627C12.6234 29.1341 12.7137 28.7567 12.7137 28.3585C12.7137 27.933 12.6102 27.5314 12.428 27.1765H22.572C22.3897 27.5313 22.2862 27.9329 22.2862 28.3585C22.2862 28.7567 22.3765 29.1341 22.5373 29.4716ZM24.8834 29.4716C24.2696 29.4716 23.7703 28.9723 23.7703 28.3585C23.7703 27.7448 24.2696 27.2454 24.8834 27.2454C25.4972 27.2454 25.9965 27.7447 25.9965 28.3585C25.9965 28.9723 25.4971 29.4716 24.8834 29.4716Z" fill="#718FAB"/>
</svg>
