<svg width="35" height="35" viewBox="0 0 35 35" fill="none" xmlns="http://www.w3.org/2000/svg">
<path d="M32.6074 15.1758H23.9258V2.39258C23.9258 1.07119 22.8546 0 21.5332 0H2.39258C1.07119 0 0 1.07119 0 2.39258V23.0371C0 23.9181 1.03763 24.3889 1.70064 23.8088L6.87941 19.2773H13.8086V29.4483L10.0074 33.2495C9.71414 33.5428 9.62644 33.9838 9.7851 34.367C9.94383 34.7501 10.3177 35 10.7324 35H32.6074C33.9267 35 35 33.9267 35 32.6074V17.5684C35 16.2491 33.9267 15.1758 32.6074 15.1758ZM6.49414 17.2266C6.24579 17.2266 6.00585 17.3167 5.81895 17.4802L2.05078 20.7774V2.39258C2.05078 2.20384 2.20384 2.05078 2.39258 2.05078H21.5332C21.7219 2.05078 21.875 2.20384 21.875 2.39258V16.8848C21.875 17.0735 21.7219 17.2266 21.5332 17.2266H6.49414ZM32.9492 32.6074C32.9492 32.7959 32.7959 32.9492 32.6074 32.9492H13.2079L15.5591 30.5981C15.7514 30.4058 15.8594 30.145 15.8594 29.873V19.2773H21.5332C22.7385 19.2773 23.7352 18.3859 23.9011 17.2266H32.6074C32.7959 17.2266 32.9492 17.3799 32.9492 17.5684V32.6074Z" fill="#718FAB"/>
<path d="M25.5495 21.4231C25.5442 21.4089 25.5385 21.395 25.5326 21.3812C25.339 20.9312 24.8902 20.6445 24.4003 20.6445C23.9456 20.6445 23.5322 20.9059 23.3345 21.3154C23.3164 21.3529 23.3008 21.3861 23.2878 21.4205L20.2076 29.5081C20.006 30.0373 20.2716 30.6297 20.8009 30.8312C21.3301 31.0328 21.9225 30.7672 22.124 30.238L22.6397 28.8841H26.1732L26.683 30.235C26.8829 30.7649 27.4746 31.0323 28.0044 30.8323C28.5342 30.6323 28.8016 30.0407 28.6017 29.5109L25.5495 21.4231ZM23.4208 26.8334L24.4146 24.2241L25.3993 26.8334H23.4208Z" fill="#718FAB"/>
<path d="M16.0645 8.27148C16.6307 8.27148 17.0898 7.81238 17.0898 7.24609C17.0898 6.6798 16.6307 6.2207 16.0645 6.2207H12.9883V5.19531C12.9883 4.62902 12.5292 4.16992 11.9629 4.16992C11.3966 4.16992 10.9375 4.62902 10.9375 5.19531V6.2207H7.86133C7.29504 6.2207 6.83594 6.6798 6.83594 7.24609C6.83594 7.81238 7.29504 8.27148 7.86133 8.27148H8.26998C8.48347 9.90302 9.19898 11.3788 10.2561 12.5381C9.52533 12.8701 8.71493 13.0566 7.86133 13.0566C7.29504 13.0566 6.83594 13.5157 6.83594 14.082C6.83594 14.6483 7.29504 15.1074 7.86133 15.1074C9.36332 15.1074 10.768 14.6837 11.9629 13.95C13.1577 14.6837 14.5625 15.1074 16.0645 15.1074C16.6307 15.1074 17.0898 14.6483 17.0898 14.082C17.0898 13.5157 16.6307 13.0566 16.0645 13.0566C15.2108 13.0566 14.4004 12.8701 13.6697 12.5381C14.7268 11.3788 15.4424 9.90302 15.6558 8.27148H16.0645ZM11.9629 11.3578C11.1379 10.5348 10.56 9.46552 10.3463 8.27148H13.5794C13.3658 9.46552 12.7879 10.5349 11.9629 11.3578Z" fill="#718FAB"/>
<path d="M7.92969 28.7793H4.85352V25.7031C4.85352 25.1368 4.39441 24.6777 3.82812 24.6777C3.26184 24.6777 2.80273 25.1368 2.80273 25.7031V29.8047C2.80273 30.371 3.26184 30.8301 3.82812 30.8301H7.92969C8.49598 30.8301 8.95508 30.371 8.95508 29.8047C8.95508 29.2384 8.49598 28.7793 7.92969 28.7793Z" fill="#718FAB"/>
<path d="M27.0703 6.2207H30.1465V9.29688C30.1465 9.86316 30.6056 10.3223 31.1719 10.3223C31.7382 10.3223 32.1973 9.86316 32.1973 9.29688V5.19531C32.1973 4.62902 31.7382 4.16992 31.1719 4.16992H27.0703C26.504 4.16992 26.0449 4.62902 26.0449 5.19531C26.0449 5.7616 26.504 6.2207 27.0703 6.2207Z" fill="#718FAB"/>
</svg>
