<svg width="35" height="30" viewBox="0 0 35 30" fill="none" xmlns="http://www.w3.org/2000/svg">
<path d="M25.3038 5.12285C23.0501 5.12285 20.9735 5.8958 19.3251 7.19041C17.9301 6.09478 16.2284 5.37311 14.3722 5.17707V0H12.3208V5.17707C9.52943 5.47192 7.08784 6.95614 5.51295 9.11198L1.02568 6.52126L0 8.29773L4.48433 10.8867C3.94865 12.0892 3.65032 13.4199 3.65032 14.819C3.65032 16.2181 3.94865 17.5487 4.48433 18.7512L0 21.3404L1.02568 23.1168L5.51295 20.5261C7.08784 22.682 9.52943 24.1662 12.3208 24.461V29.6381H14.3722V24.461C16.2284 24.265 17.9301 23.5433 19.3251 22.4477C20.9735 23.7424 23.05 24.5153 25.3038 24.5153C30.6502 24.5153 35 20.1656 35 14.8191C35 9.47254 30.6502 5.12285 25.3038 5.12285ZM25.3038 22.4639C24.6984 22.4639 24.1093 22.3928 23.5441 22.2592L32.7439 13.0594C32.8776 13.6245 32.9486 14.2136 32.9486 14.8191C32.9486 19.0345 29.5191 22.4639 25.3038 22.4639ZM5.70167 14.8191C5.70167 10.6037 9.13112 7.1742 13.3466 7.1742C15.0243 7.1742 16.5771 7.71781 17.8391 8.63757C16.4461 10.3169 15.6075 12.4718 15.6075 14.8191C15.6075 17.1663 16.446 19.3212 17.8391 21.0005C16.5771 21.9203 15.0243 22.4639 13.3466 22.4639C9.13112 22.4639 5.70167 19.0345 5.70167 14.8191ZM25.3038 7.1742C25.9092 7.1742 26.4983 7.24525 27.0635 7.37893L17.8636 16.5788C17.7299 16.0136 17.6589 15.4245 17.6589 14.8191C17.6589 10.6037 21.0883 7.1742 25.3038 7.1742ZM18.6914 18.6521L29.1367 8.20672C30.2867 8.87587 31.247 9.83624 31.9161 10.9862L21.4708 21.4315C20.3209 20.7623 19.3605 19.802 18.6914 18.6521Z" fill="#718FAB"/>
</svg>
