<svg width="35" height="33" viewBox="0 0 35 33" fill="none" xmlns="http://www.w3.org/2000/svg">
<path d="M35 17.2949C35 15.3826 34.2414 13.5507 32.904 12.1983C33.0745 11.6671 33.1607 11.1137 33.1607 10.5474C33.1607 7.56615 30.7353 5.14063 27.7539 5.14063C27.0634 5.14063 26.3854 5.27194 25.7525 5.52412C24.9776 2.35724 22.1159 0 18.7137 0C16.5755 0 14.651 0.931123 13.3235 2.40885C12.1524 0.903301 10.3426 0 8.39959 0C4.9605 0 2.16262 2.79788 2.16262 6.23697C2.16262 6.91489 2.26967 7.57689 2.48138 8.21078C0.898926 9.78319 0 11.9293 0 14.1704C0 15.3434 0.237344 16.4786 0.705264 17.5443C0.817783 17.8006 1.06846 17.9532 1.3315 17.9532C1.42331 17.9532 1.51662 17.9346 1.60604 17.8954C1.95173 17.7436 2.10889 17.3403 1.95713 16.9946C1.56563 16.1032 1.36719 15.153 1.36719 14.1704C1.36719 12.161 2.23036 10.243 3.73543 8.90798C3.95479 8.71343 4.02562 8.40062 3.91152 8.13053C3.65825 7.53109 3.5298 6.89404 3.5298 6.23697C3.5298 3.55182 5.71437 1.36719 8.39959 1.36719C10.0495 1.36719 11.5765 2.20151 12.4729 3.56788C11.8346 4.6468 11.4676 5.90427 11.4676 7.24609V12.4964L9.08318 14.8808V9.09392C9.08318 8.71637 8.77707 8.41032 8.39959 8.41032C8.02211 8.41032 7.716 8.71637 7.716 9.09392V12.411L6.39707 11.0921C6.13006 10.8252 5.69734 10.8252 5.43026 11.0921C5.16332 11.3591 5.16332 11.7919 5.43026 12.0589L7.716 14.3445V21.1691C7.11266 21.1111 6.52237 20.9769 5.95431 20.7662C5.60034 20.6349 5.20687 20.8154 5.07562 21.1695C4.9443 21.5234 5.1249 21.9168 5.4788 22.0481C6.19958 22.3154 6.94948 22.4805 7.716 22.5422V26.7022C7.21848 26.4755 6.67372 26.3562 6.11017 26.3562C3.9725 26.3562 2.23337 28.0954 2.23337 30.233C2.23337 30.804 2.35553 31.3552 2.59643 31.8711C2.70881 32.1118 2.95032 32.2656 3.2159 32.2656H31.5453C31.9227 32.2656 32.2288 31.9595 32.2288 31.582C32.2288 31.2044 31.9227 30.8984 31.5453 30.8984H28.4375V24.5084C32.1136 24.1629 35 21.0599 35 17.2949ZM27.7539 6.50781C29.9813 6.50781 31.7935 8.31995 31.7935 10.5474C31.7935 11.0925 31.687 11.621 31.477 12.1181C31.3629 12.3882 31.4337 12.701 31.6531 12.8956C32.9112 14.0116 33.6328 15.6151 33.6328 17.2949C33.6328 20.3052 31.3581 22.7929 28.4375 23.1328V20.716L30.8167 18.3367C31.0837 18.0698 31.0837 17.6369 30.8167 17.37C30.5497 17.103 30.117 17.103 29.8499 17.37L28.4375 18.7824V14.1073C28.4375 13.7298 28.1314 13.4237 27.7539 13.4237C27.3764 13.4237 27.0703 13.7298 27.0703 14.1073V16.6818L25.9597 15.5712V7.24609C25.9597 7.14048 25.9569 7.03555 25.9525 6.93109C26.5092 6.65342 27.1245 6.50781 27.7539 6.50781ZM25.9137 17.4588L27.0703 18.6154V23.1332C25.891 22.9944 24.7768 22.4998 23.8822 21.7178C24.9873 20.5921 25.7285 19.1084 25.9137 17.4588ZM18.7137 1.36719C21.9553 1.36719 24.5926 4.00449 24.5926 7.24609V16.6447C24.5926 19.655 22.3178 22.1426 19.3972 22.4826V20.0657L21.7766 17.6865C22.0435 17.4195 22.0435 16.9867 21.7766 16.7197C21.5096 16.4528 21.0769 16.4528 20.8098 16.7197L19.3972 18.1323V13.4572C19.3972 13.0797 19.0911 12.7736 18.7137 12.7736C18.3362 12.7736 18.0301 13.0797 18.0301 13.4572V16.0317L17.0828 15.0845C16.8158 14.8175 16.3831 14.8175 16.116 15.0845C15.8491 15.3514 15.8491 15.7843 16.116 16.0513L18.0301 17.9653V22.4827C15.1095 22.1428 12.8347 19.6552 12.8347 16.6448V7.24609C12.8347 4.00449 15.472 1.36719 18.7137 1.36719ZM16.9045 26.3563C16.493 26.3563 16.0841 26.4222 15.6954 26.5495C14.9195 25.2446 13.5185 24.4328 11.9615 24.4328C10.8763 24.4328 9.86009 24.8451 9.08318 25.5314V22.5425C10.5128 22.4292 11.8647 21.9603 13.0542 21.1643C14.2492 22.6576 16.0217 23.6695 18.0301 23.8584V26.5234C17.6736 26.4151 17.2958 26.3563 16.9045 26.3563ZM11.4676 14.4299V16.6447C11.4676 17.8631 11.7703 19.012 12.3038 20.0208C11.3373 20.6695 10.242 21.0591 9.08318 21.1693V16.8144L11.4676 14.4299ZM3.60056 30.2331C3.60056 28.8493 4.72637 27.7235 6.11017 27.7235C6.78617 27.7235 7.42027 27.9887 7.89571 28.4702C8.07167 28.6485 8.33096 28.7162 8.57172 28.6468C8.81241 28.5774 8.99582 28.3819 9.04976 28.1372C9.34835 26.7829 10.5729 25.8001 11.9616 25.8001C13.1922 25.8001 14.2807 26.5397 14.7346 27.6845C14.8069 27.8668 14.954 28.0092 15.1385 28.0757C15.3228 28.1421 15.5271 28.1261 15.6991 28.0317C16.0662 27.8301 16.483 27.7236 16.9045 27.7236C18.2883 27.7236 19.4141 28.8494 19.4141 30.2332C19.4141 30.4607 19.3841 30.6832 19.3248 30.8985H3.68983C3.63043 30.6832 3.60056 30.4605 3.60056 30.2331ZM20.7237 30.8984C20.7615 30.6803 20.7812 30.4583 20.7812 30.2331C20.7812 29.0441 20.2427 27.9788 19.3972 27.2671V23.8584C20.6625 23.7394 21.834 23.2938 22.8266 22.6069C23.9934 23.6878 25.4887 24.3572 27.0703 24.5079V30.8984H20.7237Z" fill="#718FAB"/>
</svg>
