<svg width="20" height="20" viewBox="0 0 20 20" fill="none" xmlns="http://www.w3.org/2000/svg">
<path d="M17.0312 0C16.062 0 15.2734 0.788555 15.2734 1.75781C15.2734 2.15129 15.4034 2.515 15.6227 2.80828L12.7636 5.91043C12.6289 5.87731 12.4884 5.85938 12.3438 5.85938C11.9839 5.85938 11.6491 5.96824 11.3701 6.15453L9.33371 4.62723C9.38586 4.46117 9.41406 4.28461 9.41406 4.10156C9.41406 3.1323 8.62551 2.34375 7.65625 2.34375C6.68699 2.34375 5.89844 3.1323 5.89844 4.10156C5.89844 4.28461 5.92664 4.46117 5.97879 4.62723L3.94238 6.15453C3.66344 5.96824 3.32863 5.85938 2.96875 5.85938C1.99949 5.85938 1.21094 6.64793 1.21094 7.61719C1.21094 8.58644 1.99949 9.375 2.96875 9.375C3.93801 9.375 4.72656 8.58644 4.72656 7.61719C4.72656 7.43414 4.69836 7.25758 4.64621 7.09152L6.68262 5.56422C6.96156 5.75051 7.29637 5.85938 7.65625 5.85938C8.01613 5.85938 8.35094 5.75051 8.62988 5.56422L10.6663 7.09152C10.6141 7.25758 10.5859 7.43414 10.5859 7.61719C10.5859 8.58644 11.3745 9.375 12.3438 9.375C13.313 9.375 14.1016 8.58644 14.1016 7.61719C14.1016 7.22371 13.9716 6.86 13.7523 6.56672L16.6114 3.46457C16.7461 3.4977 16.8866 3.51562 17.0312 3.51562C18.0005 3.51562 18.7891 2.72707 18.7891 1.75781C18.7891 0.788555 18.0005 0 17.0312 0ZM2.96875 8.20312C2.64566 8.20312 2.38281 7.94027 2.38281 7.61719C2.38281 7.2941 2.64566 7.03125 2.96875 7.03125C3.29184 7.03125 3.55469 7.2941 3.55469 7.61719C3.55469 7.94027 3.29184 8.20312 2.96875 8.20312ZM7.65625 4.6875C7.33316 4.6875 7.07031 4.42465 7.07031 4.10156C7.07031 3.77848 7.33316 3.51562 7.65625 3.51562C7.97934 3.51562 8.24219 3.77848 8.24219 4.10156C8.24219 4.42465 7.97934 4.6875 7.65625 4.6875ZM12.3438 8.20312C12.0207 8.20312 11.7578 7.94027 11.7578 7.61719C11.7578 7.2941 12.0207 7.03125 12.3438 7.03125C12.6668 7.03125 12.9297 7.2941 12.9297 7.61719C12.9297 7.94027 12.6668 8.20312 12.3438 8.20312ZM17.0312 2.34375C16.7082 2.34375 16.4453 2.0809 16.4453 1.75781C16.4453 1.43473 16.7082 1.17188 17.0312 1.17188C17.3543 1.17188 17.6172 1.43473 17.6172 1.75781C17.6172 2.0809 17.3543 2.34375 17.0312 2.34375Z" fill="#048ABF"/>
<path d="M19.4141 18.8281H18.8281V7.61719C18.8281 7.29359 18.5658 7.03125 18.2422 7.03125H15.8594C15.5358 7.03125 15.2734 7.29359 15.2734 7.61719V18.8281H14.1016V12.3047C14.1016 11.9811 13.8392 11.7188 13.5156 11.7188H11.1719C10.8483 11.7188 10.5859 11.9811 10.5859 12.3047V18.8281H9.41406V9.96094C9.41406 9.63734 9.15172 9.375 8.82812 9.375H6.48438C6.16078 9.375 5.89844 9.63734 5.89844 9.96094V18.8281H4.72656V13.4766C4.72656 13.153 4.46422 12.8906 4.14062 12.8906H1.75781C1.43422 12.8906 1.17188 13.153 1.17188 13.4766V18.8281H0.585938C0.262344 18.8281 0 19.0905 0 19.4141C0 19.7377 0.262344 20 0.585938 20C1.15922 20 18.4575 20 19.4141 20C19.7377 20 20 19.7377 20 19.4141C20 19.0905 19.7377 18.8281 19.4141 18.8281ZM3.55469 18.8281H2.34375V14.0625H3.55469V18.8281ZM8.24219 18.8281H7.07031V10.5469H8.24219V18.8281ZM12.9297 18.8281H11.7578V12.8906H12.9297V18.8281ZM17.6562 18.8281H16.4453V8.20312H17.6562V18.8281Z" fill="#048ABF"/>
</svg>
