<svg width="160" height="160" viewBox="0 0 160 160" fill="none" xmlns="http://www.w3.org/2000/svg">
<rect x="1" y="1" width="158" height="158" rx="15" stroke="#DBDBDB" stroke-width="2" stroke-dasharray="7 7"/>
<path d="M103.047 78.0469H81.9531V56.9531C81.9531 55.8744 81.0787 55 80 55C78.9213 55 78.0469 55.8744 78.0469 56.9531V78.0469H56.9531C55.8744 78.0469 55 78.9213 55 80C55 81.0787 55.8744 81.9531 56.9531 81.9531H78.0469V103.047C78.0469 104.126 78.9213 105 80 105C81.0787 105 81.9531 104.126 81.9531 103.047V81.9531H103.047C104.126 81.9531 105 81.0787 105 80C105 78.9213 104.126 78.0469 103.047 78.0469Z" fill="#DBDBDB"/>
</svg>
