<svg width="132" height="302" viewBox="0 0 132 302" fill="none" xmlns="http://www.w3.org/2000/svg">
<path d="M70.79 81.4099H0.790039" stroke="#3096CD" stroke-linecap="square"/>
<path d="M70.79 101.41H0.790039" stroke="#3096CD" stroke-linecap="square"/>
<path d="M70.79 121.41H0.790039" stroke="#3096CD" stroke-linecap="square"/>
<path d="M70.79 141.41H0.790039" stroke="#3096CD" stroke-linecap="square"/>
<path d="M70.79 161.41H0.790039" stroke="#3096CD" stroke-linecap="square"/>
<path d="M70.79 181.41H0.790039" stroke="#3096CD" stroke-linecap="square"/>
<path d="M70.79 201.41H0.790039" stroke="#3096CD" stroke-linecap="square"/>
<path d="M70.79 221.41H0.790039" stroke="#3096CD" stroke-linecap="square"/>
<path d="M70.79 241.41H0.790039" stroke="#3096CD" stroke-linecap="square"/>
<path d="M70.79 261.41H0.790039" stroke="#3096CD" stroke-linecap="square"/>
<path d="M70.79 281.41H0.790039" stroke="#3096CD" stroke-linecap="square"/>
<path d="M70.79 301.41H0.790039" stroke="#3096CD" stroke-linecap="square"/>
<path d="M70.79 61.4099H0.790039" stroke="#3096CD" stroke-linecap="square"/>
<path d="M70.79 2.40991V301.41" stroke="#3096CD" stroke-linecap="square"/>
<path d="M70.79 41.4099H0.790039" stroke="#3096CD" stroke-linecap="square"/>
<path d="M70.79 21.4099H0.790039" stroke="#3096CD" stroke-linecap="square"/>
<path d="M70.79 1.43994H0.790039" stroke="#3096CD" stroke-linecap="square"/>
<path d="M122.29 147.41L131.29 151.91L122.29 156.41V152.41H70.29V151.41H122.29V147.41Z" fill="#3096CD"/>
</svg>
