<svg width="132" height="322" viewBox="0 0 132 322" fill="none" xmlns="http://www.w3.org/2000/svg">
<path d="M70.8896 81.4099H0.889648" stroke="#3096CD" stroke-linecap="square"/>
<path d="M70.8896 101.41H0.889648" stroke="#3096CD" stroke-linecap="square"/>
<path d="M70.8896 121.41H0.889648" stroke="#3096CD" stroke-linecap="square"/>
<path d="M70.8896 141.41H0.889648" stroke="#3096CD" stroke-linecap="square"/>
<path d="M70.8896 161.41H0.889648" stroke="#3096CD" stroke-linecap="square"/>
<path d="M70.8896 181.41H0.889648" stroke="#3096CD" stroke-linecap="square"/>
<path d="M70.8896 201.41H0.889648" stroke="#3096CD" stroke-linecap="square"/>
<path d="M70.8896 221.41H0.889648" stroke="#3096CD" stroke-linecap="square"/>
<path d="M70.8896 241.41H0.889648" stroke="#3096CD" stroke-linecap="square"/>
<path d="M70.8896 261.41H0.889648" stroke="#3096CD" stroke-linecap="square"/>
<path d="M70.8896 281.41H0.889648" stroke="#3096CD" stroke-linecap="square"/>
<path d="M70.8896 301.41H0.889648" stroke="#3096CD" stroke-linecap="square"/>
<path d="M70.8896 321.41H0.889648" stroke="#3096CD" stroke-linecap="square"/>
<path d="M70.8896 61.4099H0.889648" stroke="#3096CD" stroke-linecap="square"/>
<path d="M70.8896 1.90991V320.91" stroke="#3096CD" stroke-linecap="square"/>
<path d="M70.8896 41.4099H0.889648" stroke="#3096CD" stroke-linecap="square"/>
<path d="M70.8896 21.4099H0.889648" stroke="#3096CD" stroke-linecap="square"/>
<path d="M70.8896 1.43994H0.889648" stroke="#3096CD" stroke-linecap="square"/>
<path d="M122.39 156.91L131.39 161.41L122.39 165.91V161.91H70.3896V160.91H122.39V156.91Z" fill="#3096CD"/>
</svg>
