<svg width="132" height="342" viewBox="0 0 132 342" fill="none" xmlns="http://www.w3.org/2000/svg">
<path d="M71.3398 81.4099H1.33984" stroke="#3096CD" stroke-linecap="square"/>
<path d="M71.3398 101.41H1.33984" stroke="#3096CD" stroke-linecap="square"/>
<path d="M71.3398 121.41H1.33984" stroke="#3096CD" stroke-linecap="square"/>
<path d="M71.3398 141.41H1.33984" stroke="#3096CD" stroke-linecap="square"/>
<path d="M71.3398 161.41H1.33984" stroke="#3096CD" stroke-linecap="square"/>
<path d="M71.3398 181.41H1.33984" stroke="#3096CD" stroke-linecap="square"/>
<path d="M71.3398 201.41H1.33984" stroke="#3096CD" stroke-linecap="square"/>
<path d="M71.3398 221.41H1.33984" stroke="#3096CD" stroke-linecap="square"/>
<path d="M71.3398 241.41H1.33984" stroke="#3096CD" stroke-linecap="square"/>
<path d="M71.3398 261.41H1.33984" stroke="#3096CD" stroke-linecap="square"/>
<path d="M71.3398 281.41H1.33984" stroke="#3096CD" stroke-linecap="square"/>
<path d="M71.3398 301.41H1.33984" stroke="#3096CD" stroke-linecap="square"/>
<path d="M71.3398 321.41H1.33984" stroke="#3096CD" stroke-linecap="square"/>
<path d="M71.3398 341.41H1.33984" stroke="#3096CD" stroke-linecap="square"/>
<path d="M71.3398 61.4099H1.33984" stroke="#3096CD" stroke-linecap="square"/>
<path d="M71.3398 2.40991V341.41" stroke="#3096CD" stroke-linecap="square"/>
<path d="M71.3398 41.4099H1.33984" stroke="#3096CD" stroke-linecap="square"/>
<path d="M71.3398 21.4099H1.33984" stroke="#3096CD" stroke-linecap="square"/>
<path d="M71.3398 1.43994H1.33984" stroke="#3096CD" stroke-linecap="square"/>
<path d="M122.84 167.41L131.84 171.91L122.84 176.41V172.41H70.8398V171.41H122.84V167.41Z" fill="#3096CD"/>
</svg>
