<svg width="132" height="362" viewBox="0 0 132 362" fill="none" xmlns="http://www.w3.org/2000/svg">
<path d="M71.0195 81.4099H1.01953" stroke="#3096CD" stroke-linecap="square"/>
<path d="M71.0195 101.41H1.01953" stroke="#3096CD" stroke-linecap="square"/>
<path d="M71.0195 121.41H1.01953" stroke="#3096CD" stroke-linecap="square"/>
<path d="M71.0195 141.41H1.01953" stroke="#3096CD" stroke-linecap="square"/>
<path d="M71.0195 161.41H1.01953" stroke="#3096CD" stroke-linecap="square"/>
<path d="M71.0195 181.41H1.01953" stroke="#3096CD" stroke-linecap="square"/>
<path d="M71.0195 201.41H1.01953" stroke="#3096CD" stroke-linecap="square"/>
<path d="M71.0195 221.41H1.01953" stroke="#3096CD" stroke-linecap="square"/>
<path d="M71.0195 241.41H1.01953" stroke="#3096CD" stroke-linecap="square"/>
<path d="M71.0195 261.41H1.01953" stroke="#3096CD" stroke-linecap="square"/>
<path d="M71.0195 281.41H1.01953" stroke="#3096CD" stroke-linecap="square"/>
<path d="M71.0195 301.41H1.01953" stroke="#3096CD" stroke-linecap="square"/>
<path d="M71.0195 321.41H1.01953" stroke="#3096CD" stroke-linecap="square"/>
<path d="M71.0195 341.41H1.01953" stroke="#3096CD" stroke-linecap="square"/>
<path d="M71.0195 361.41H1.01953" stroke="#3096CD" stroke-linecap="square"/>
<path d="M71.0195 61.4099H1.01953" stroke="#3096CD" stroke-linecap="square"/>
<path d="M71.0195 1.90991V360.91" stroke="#3096CD" stroke-linecap="square"/>
<path d="M71.0195 41.4099H1.01953" stroke="#3096CD" stroke-linecap="square"/>
<path d="M71.0195 21.4099H1.01953" stroke="#3096CD" stroke-linecap="square"/>
<path d="M71.0195 1.43994H1.01953" stroke="#3096CD" stroke-linecap="square"/>
<path d="M122.52 176.91L131.52 181.41L122.52 185.91V181.91H70.5195V180.91H122.52V176.91Z" fill="#3096CD"/>
</svg>
