<svg width="132" height="281" viewBox="0 0 132 281" fill="none" xmlns="http://www.w3.org/2000/svg">
<path d="M70.79 80.5H0.790039" stroke="#3096CD" stroke-linecap="square"/>
<path d="M70.79 100.5H0.790039" stroke="#3096CD" stroke-linecap="square"/>
<path d="M70.79 120.5H0.790039" stroke="#3096CD" stroke-linecap="square"/>
<path d="M70.79 140.5H0.790039" stroke="#3096CD" stroke-linecap="square"/>
<path d="M70.79 160.5H0.790039" stroke="#3096CD" stroke-linecap="square"/>
<path d="M70.79 180.5H0.790039" stroke="#3096CD" stroke-linecap="square"/>
<path d="M70.79 200.5H0.790039" stroke="#3096CD" stroke-linecap="square"/>
<path d="M70.79 220.5H0.790039" stroke="#3096CD" stroke-linecap="square"/>
<path d="M70.79 240.5H0.790039" stroke="#3096CD" stroke-linecap="square"/>
<path d="M70.79 260.5H0.790039" stroke="#3096CD" stroke-linecap="square"/>
<path d="M70.79 280.5H0.790039" stroke="#3096CD" stroke-linecap="square"/>
<path d="M70.79 60.5H0.790039" stroke="#3096CD" stroke-linecap="square"/>
<path d="M70.79 1V280" stroke="#3096CD" stroke-linecap="square"/>
<path d="M70.79 40.5H0.790039" stroke="#3096CD" stroke-linecap="square"/>
<path d="M70.79 20.5H0.790039" stroke="#3096CD" stroke-linecap="square"/>
<path d="M70.79 0.52002H0.790039" stroke="#3096CD" stroke-linecap="square"/>
<path d="M122.29 136L131.29 140.5L122.29 145V141H70.29V140H122.29V136Z" fill="#3096CD"/>
</svg>
