<svg width="132" height="382" viewBox="0 0 132 382" fill="none" xmlns="http://www.w3.org/2000/svg">
<path d="M70.5703 81.4099H0.570312" stroke="#3096CD" stroke-linecap="square"/>
<path d="M70.5703 101.41H0.570312" stroke="#3096CD" stroke-linecap="square"/>
<path d="M70.5703 121.41H0.570312" stroke="#3096CD" stroke-linecap="square"/>
<path d="M70.5703 141.41H0.570312" stroke="#3096CD" stroke-linecap="square"/>
<path d="M70.5703 161.41H0.570312" stroke="#3096CD" stroke-linecap="square"/>
<path d="M70.5703 181.41H0.570312" stroke="#3096CD" stroke-linecap="square"/>
<path d="M70.5703 201.41H0.570312" stroke="#3096CD" stroke-linecap="square"/>
<path d="M70.5703 221.41H0.570312" stroke="#3096CD" stroke-linecap="square"/>
<path d="M70.5703 241.41H0.570312" stroke="#3096CD" stroke-linecap="square"/>
<path d="M70.5703 261.41H0.570312" stroke="#3096CD" stroke-linecap="square"/>
<path d="M70.5703 281.41H0.570312" stroke="#3096CD" stroke-linecap="square"/>
<path d="M70.5703 301.41H0.570312" stroke="#3096CD" stroke-linecap="square"/>
<path d="M70.5703 321.41H0.570312" stroke="#3096CD" stroke-linecap="square"/>
<path d="M70.5703 341.41H0.570312" stroke="#3096CD" stroke-linecap="square"/>
<path d="M70.5703 361.41H0.570312" stroke="#3096CD" stroke-linecap="square"/>
<path d="M70.5703 381.41H0.570312" stroke="#3096CD" stroke-linecap="square"/>
<path d="M70.5703 61.4099H0.570312" stroke="#3096CD" stroke-linecap="square"/>
<path d="M70.5703 2.40991V381.41" stroke="#3096CD" stroke-linecap="square"/>
<path d="M70.5703 41.4099H0.570312" stroke="#3096CD" stroke-linecap="square"/>
<path d="M70.5703 21.4099H0.570312" stroke="#3096CD" stroke-linecap="square"/>
<path d="M70.5703 1.43994H0.570312" stroke="#3096CD" stroke-linecap="square"/>
<path d="M122.07 187.41L131.07 191.91L122.07 196.41V192.41H70.0703V191.41H122.07V187.41Z" fill="#3096CD"/>
</svg>
