<?xml version="1.0" encoding="UTF-8"?>
<svg width="82px" height="80px" viewBox="0 0 82 80" version="1.1" xmlns="http://www.w3.org/2000/svg" xmlns:xlink="http://www.w3.org/1999/xlink">
    <title>Group 5</title>
    <g id="arrow" stroke="none" stroke-width="1" fill="none" fill-rule="evenodd">
        <g id="single-line-detail-SUNGROW-Copy" transform="translate(-427.000000, -830.000000)">
            <g id="Group-5" transform="translate(427.000000, 830.000000)">
                <path d="M65.0236098,4.92561835 L65.0236098,3.18103874 C65.0236098,1.42424923 63.5895048,0 61.8205583,0 C60.0516118,0 58.6175067,1.42424923 58.6175067,3.18103874 L58.6175067,4.92561835 L44.0428628,4.92561835 L44.0428628,3.18103874 C44.0428628,1.42424923 42.609481,0 40.8398113,0 C39.0708648,0 37.6367597,1.42424923 37.6367597,3.18103874 L37.6367597,4.92561835 L23.2226661,4.92561835 L23.2226661,3.18103874 C23.2226661,1.42424923 21.7885611,0 20.0196146,0 C18.2506681,0 16.8158398,1.42424923 16.8158398,3.18103874 L16.8158398,4.92561835 L12.8122062,4.92561835 C5.74726816,4.92561835 0,10.6341069 0,17.6497733 L0,67.275845 C0,74.2922297 5.74726816,80 12.8122062,80 L52.8516647,80 C54.6206112,80 56.0547162,78.5757508 56.0547162,76.8189613 C56.0547162,75.0621717 54.6206112,74.3561521 52.8516647,74.3561521 L12.0890065,74.3561521 C8.55689906,74.3561521 5.68290338,71.5019078 5.68290338,67.9940746 L5.68290338,17.6497733 C5.68290338,14.1419401 9.28009878,10.5694663 12.8122062,10.5694663 L16.8158398,10.5694663 L16.8158398,12.3140459 C16.8158398,14.0708354 18.2506681,15.4950846 20.0196146,15.4950846 C21.7885611,15.4950846 23.2226661,14.0708354 23.2226661,12.3140459 L23.2226661,10.5694663 L37.6367597,10.5694663 L37.6367597,12.3140459 C37.6367597,14.0708354 39.0708648,15.4950846 40.8398113,15.4950846 C42.609481,15.4950846 44.0428628,14.0708354 44.0428628,12.3140459 L44.0428628,10.5694663 L58.6175067,10.5694663 L58.6175067,12.3140459 C58.6175067,14.0708354 60.0516118,15.4950846 61.8205583,15.4950846 C63.5895048,15.4950846 65.0236098,14.0708354 65.0236098,12.3140459 L65.0236098,10.5694663 L69.1877938,10.5694663 C72.7199012,10.5694663 76.3178198,14.1419401 76.3178198,17.6497733 L76.3178198,51.4168874 C76.3178198,53.1736769 77.0280019,54.5986443 78.7976716,54.5986443 C80.5666182,54.5986443 82,53.1736769 82,51.4168874 L82,17.6497733 C82,10.6341069 76.2527318,4.92561835 69.1877938,4.92561835 L65.0236098,4.92561835 Z" id="Fill-9-Copy" fill="#CBCBCB"></path>
                <path d="M60,78 L74.2725951,78 C76.8830867,78 79,75.8455848 79,73.187706 L79,59 L60,78 Z" id="Fill-1" fill-opacity="0.4" fill="#1F542B"></path>
                <path d="M63,78 L63,64.133586 C63,61.8504438 64.8506947,60 67.1333352,60 L81,60 L63,78 Z" id="Fill-4" fill="#4AC367"></path>
                <rect id="Rectangle" fill="#FFD15B" x="15" y="29" width="8" height="5" rx="2.5"></rect>
                <rect id="Rectangle-Copy-3" fill="#4AC367" x="15" y="41" width="8" height="5" rx="2.5"></rect>
                <rect id="Rectangle-Copy-4" fill="#4AC367" x="15" y="53" width="8" height="5" rx="2.5"></rect>
                <rect id="Rectangle-Copy" fill="#FFD15B" x="29" y="29" width="36" height="5" rx="2.5"></rect>
                <rect id="Rectangle-Copy-2" fill="#4AC367" x="29" y="41" width="36" height="5" rx="2.5"></rect>
                <rect id="Rectangle-Copy-5" fill="#4AC367" x="29" y="53" width="22" height="5" rx="2.5"></rect>
            </g>
        </g>
    </g>
</svg>