<svg width="94" height="115" viewBox="0 0 94 115" fill="none" xmlns="http://www.w3.org/2000/svg">
<path d="M0.00349445 45.7155C0.00349445 32.8727 -0.00349461 20.0368 0.0104838 7.19391C0.0174731 1.74987 1.72984 0.00525486 7.04165 0.00525486C27.8835 -0.00175162 48.7254 -0.00175162 69.5673 0.00525486C74.4737 0.00525486 76.4517 1.83395 76.4657 6.70345C76.5216 25.6139 76.4936 44.5244 76.4796 63.4349C76.4796 64.9413 76.6334 66.9312 74.5157 66.8331C72.4399 66.742 72.7684 64.7382 72.7684 63.2528C72.7614 44.8117 72.6985 26.3636 72.8243 7.92258C72.8452 4.62953 71.9366 3.44544 68.477 3.46646C48.2152 3.61359 27.9534 3.59958 7.69864 3.48047C4.42768 3.45945 3.51908 4.61552 3.53306 7.76844C3.63091 33.216 3.6309 58.6635 3.52607 84.1111C3.51209 87.3621 4.63037 88.399 7.7895 88.35C17.3368 88.2099 26.8841 88.2799 36.4314 88.322C37.8432 88.329 39.877 87.8385 39.8211 90.1717C39.7652 92.5048 37.6964 91.8743 36.3195 91.8813C26.5416 91.9303 16.7567 91.9233 6.97875 91.8953C1.87661 91.8813 0.0244625 90.0316 0.0174732 84.9448C-0.0104837 71.8637 0.00349445 58.7896 0.00349445 45.7155Z" fill="#0394FF"/>
<path d="M93.687 90.3398C93.687 93.3736 93.729 96.4074 93.6801 99.4412C93.5333 108.396 87.1032 114.869 78.2339 114.961C72.9989 115.017 67.757 115.01 62.5221 114.961C54.8269 114.898 49.3334 110.575 47.4044 103.008C46.0555 97.7036 44.8743 92.3577 43.5673 87.0397C42.3721 82.1772 43.3436 77.8262 47.2506 74.7083C51.0248 71.6955 52.0941 68.0942 51.7726 63.4559C51.4232 58.3482 51.6538 53.1914 51.7097 48.0627C51.7587 43.3894 54.5334 40.1594 58.3355 40.1874C62.2425 40.2154 64.8774 43.3263 64.9054 48.0697C64.9403 54.2564 64.9683 60.4361 64.8844 66.6229C64.8565 68.5637 65.157 69.0681 67.4425 69.3694C71.5312 69.9089 75.4871 71.2401 79.6806 71.7516C82.0849 72.0459 84.3285 73.4472 87.201 73.0618C90.6817 72.5994 93.4145 75.8644 93.6731 79.8441C93.6871 80.0753 93.6801 80.3135 93.6801 80.5447C93.687 83.8027 93.687 87.0748 93.687 90.3398ZM51.7097 75.7803C47.8028 78.5689 46.0764 81.5116 46.985 85.5404C48.2431 91.1035 49.5151 96.6737 50.9409 102.195C52.3807 107.779 56.2457 111.079 61.907 111.31C67.4844 111.534 73.0898 111.569 78.6672 111.303C85.5236 110.981 89.9478 106.055 89.9967 99.1329C90.0317 93.6469 90.0527 88.1608 89.9828 82.6817C89.9548 80.3626 90.8634 77.1396 87.3478 76.7963C83.6785 76.4319 84.1118 79.5919 84.014 82.0091C83.965 83.1652 83.6295 84.1461 82.2457 84.111C80.9107 84.083 80.4914 83.1161 80.4285 81.9741C80.3516 80.4607 80.4634 78.9262 80.2817 77.4339C80.072 75.7173 79.0167 74.6243 77.2204 74.7504C75.6339 74.8625 74.7183 75.8994 74.5785 77.5039C74.4876 78.5479 74.5855 79.6129 74.4457 80.6428C74.3269 81.5186 73.7188 82.1072 72.8032 82.1843C72.0414 82.2473 71.3565 81.911 71.1608 81.1683C70.9231 80.2855 70.8742 79.3536 70.7833 78.4358C70.5597 76.2568 71.5731 73.2019 68.1204 72.9357C64.6468 72.6765 64.9473 75.5561 64.9054 77.9033C64.9054 78.0224 64.8984 78.1345 64.8914 78.2536C64.7936 79.4587 64.2274 80.2995 62.9484 80.2435C61.8232 80.2014 61.3828 79.3817 61.3758 78.3167C61.3689 77.4969 61.3549 76.6842 61.3549 75.8644C61.3549 66.6439 61.3479 57.4233 61.3549 48.2098C61.3549 46.0308 60.8866 43.9779 58.2936 44.0129C55.7355 44.041 55.2463 46.1009 55.2533 48.2659C55.2603 50.8302 55.2533 53.4016 55.2533 55.966C55.2533 64.1356 55.2533 72.3051 55.2533 80.4747C55.2533 81.8199 55.2044 83.2632 53.3941 83.1722C51.9054 83.0951 51.7167 81.7849 51.7028 80.5588C51.6958 79.2205 51.7097 77.8612 51.7097 75.7803Z" fill="#0394FF"/>
<path d="M47.8307 30.5255C43.1759 30.5255 38.5141 30.5255 33.8593 30.5255C32.4195 30.5255 30.7631 30.5115 30.77 28.5847C30.777 26.6229 32.4614 26.735 33.8803 26.735C43.1969 26.735 52.5135 26.749 61.8232 26.728C63.1931 26.728 64.6608 26.8191 64.7517 28.4516C64.8565 30.3434 63.2909 30.5395 61.7952 30.5325C57.1474 30.5185 52.4856 30.5255 47.8307 30.5255Z" fill="#0394FF"/>
<path d="M19.0278 32.2979C14.995 32.2979 11.6752 29.173 11.4305 25.1513C11.2069 21.4799 13.9956 17.9767 17.595 17.3881C18.923 17.1709 20.3488 17.0168 20.7332 18.6703C21.0757 20.1347 19.8735 20.6952 18.6644 20.9194C16.1762 21.3888 15.002 22.9092 15.2746 25.3615C15.4913 27.3513 16.8682 28.5424 18.7972 28.6125C21.0477 28.7036 22.5294 27.4494 22.9278 25.1723C23.1515 23.8621 23.6617 22.7901 25.1155 23.1054C26.7649 23.4627 26.702 24.864 26.4644 26.2023C25.8353 29.7475 22.7181 32.2979 19.0278 32.2979Z" fill="#0394FF"/>
<path d="M19.2859 70.8829C21.3548 70.7288 22.5639 69.4956 22.9273 67.4147C23.151 66.1045 23.6752 65.0255 25.1429 65.3758C26.7854 65.7612 26.6875 67.1905 26.4569 68.5077C25.8279 72.102 22.3123 74.8486 18.629 74.6524C14.8338 74.4422 11.6257 71.1912 11.43 67.3586C11.2483 63.7433 14.1209 60.156 17.6644 59.5674C19.0134 59.3432 20.4182 59.3642 20.7187 61.0178C20.9773 62.4471 19.929 62.9586 18.608 63.1898C16.1548 63.6242 14.9526 65.2287 15.2881 67.6809C15.5747 69.8109 17.0005 70.8899 19.2859 70.8829Z" fill="#0394FF"/>
<path d="M18.8598 53.4925C15.0227 53.4084 11.7867 50.3465 11.4442 46.465C11.1297 42.8776 13.9114 39.1362 17.427 38.5266C18.6641 38.3094 20.1668 37.9731 20.656 39.6617C21.1732 41.4343 19.7893 41.7776 18.4754 42.0579C16.1899 42.5483 15.0716 44.0197 15.2533 46.3178C15.4071 48.3217 16.6791 49.5618 18.6082 49.751C20.8867 49.9682 22.3893 48.7561 22.8786 46.514C23.1791 45.1407 23.5495 43.8095 25.2479 44.2859C26.8485 44.7274 26.6877 46.1917 26.4291 47.5019C25.7302 50.9981 22.4662 53.5695 18.8598 53.4925Z" fill="#0394FF"/>
<path d="M44.3913 19.0628C47.7531 19.0628 51.1079 19.0698 54.4698 19.0628C55.8606 19.0558 57.1956 19.3571 57.1397 21.0246C57.0977 22.4399 55.8886 22.8043 54.6096 22.7973C47.5434 22.7903 40.4773 22.7973 33.4112 22.7973C32.0273 22.7973 30.6644 22.51 30.7483 20.8214C30.8322 19.1399 32.272 19.0628 33.6139 19.0628C37.2064 19.0698 40.7988 19.0628 44.3913 19.0628Z" fill="#0394FF"/>
<path d="M39.0104 43.8799C37.0464 43.887 35.0755 43.901 33.1115 43.8799C31.8534 43.8659 30.7142 43.5366 30.7282 42.0022C30.7421 40.699 31.7626 40.2156 32.8738 40.2016C37.0394 40.1525 41.205 40.1595 45.3706 40.2016C46.4609 40.2156 47.5163 40.5869 47.5722 41.9251C47.6351 43.4736 46.5378 43.8519 45.2658 43.8729C43.176 43.901 41.0932 43.8799 39.0104 43.8799Z" fill="#0394FF"/>
<path d="M39.1776 51.5239C37.2136 51.5239 35.2497 51.5169 33.2857 51.5309C32.0486 51.5379 30.8325 51.3908 30.7346 49.8633C30.6368 48.3289 31.8319 47.9296 33.0551 47.9155C37.1018 47.8665 41.1416 47.8735 45.1884 47.9226C46.3835 47.9366 47.6136 48.2238 47.5577 49.8073C47.5018 51.3767 46.2996 51.5309 45.0695 51.5309C43.1056 51.5169 41.1416 51.5239 39.1776 51.5239Z" fill="#0394FF"/>
<path d="M39.1712 61.4938C41.2679 61.4938 43.3647 61.4798 45.4545 61.5008C46.6007 61.5078 47.5932 61.8301 47.5792 63.2314C47.5652 64.6117 46.5378 64.9971 45.4335 65.0041C41.24 65.0531 37.0534 65.0531 32.8599 65.0111C31.7346 64.9971 30.7212 64.5206 30.7212 63.2034C30.7212 61.8512 31.7276 61.5008 32.8879 61.4938C34.9776 61.4868 37.0744 61.4938 39.1712 61.4938Z" fill="#0394FF"/>
<path d="M37.0249 72.7325C35.5292 72.7255 34.0195 72.8376 32.5378 72.6905C31.4265 72.5854 30.5319 71.8987 30.7206 70.6165C30.8813 69.5375 31.734 69.1662 32.7614 69.1662C35.7598 69.1732 38.7512 69.1662 41.7496 69.1732C42.77 69.1802 43.6297 69.5726 43.7415 70.6796C43.8743 71.9688 42.9727 72.6204 41.8544 72.7045C40.2609 72.8306 38.6394 72.7395 37.0249 72.7325Z" fill="#0394FF"/>
</svg>
