<svg width="94" height="115" viewBox="0 0 94 115" fill="none" xmlns="http://www.w3.org/2000/svg">
<path d="M0.00349445 45.7155C0.00349445 32.8727 -0.00349461 20.0368 0.0104838 7.19391C0.0174731 1.74987 1.72984 0.00525486 7.04165 0.00525486C27.8835 -0.00175162 48.7254 -0.00175162 69.5673 0.00525486C74.4737 0.00525486 76.4517 1.83395 76.4657 6.70345C76.5216 25.6139 76.4936 44.5244 76.4796 63.4349C76.4796 64.9413 76.6334 66.9312 74.5157 66.8331C72.4399 66.742 72.7684 64.7382 72.7684 63.2528C72.7614 44.8117 72.6985 26.3636 72.8243 7.92258C72.8452 4.62953 71.9366 3.44544 68.477 3.46646C48.2152 3.61359 27.9534 3.59958 7.69864 3.48047C4.42768 3.45945 3.51908 4.61552 3.53306 7.76844C3.63091 33.216 3.6309 58.6635 3.52607 84.1111C3.51209 87.3621 4.63037 88.399 7.7895 88.35C17.3368 88.2099 26.8841 88.2799 36.4314 88.322C37.8432 88.329 39.877 87.8385 39.8211 90.1717C39.7652 92.5048 37.6964 91.8743 36.3195 91.8813C26.5416 91.9303 16.7567 91.9233 6.97875 91.8953C1.87661 91.8813 0.0244625 90.0316 0.0174732 84.9448C-0.0104837 71.8637 0.00349445 58.7896 0.00349445 45.7155Z" fill="url(#paint0_linear_3896_5328)"/>
<path d="M0.00349445 45.7155C0.00349445 32.8727 -0.00349461 20.0368 0.0104838 7.19391C0.0174731 1.74987 1.72984 0.00525486 7.04165 0.00525486C27.8835 -0.00175162 48.7254 -0.00175162 69.5673 0.00525486C74.4737 0.00525486 76.4517 1.83395 76.4657 6.70345C76.5216 25.6139 76.4936 44.5244 76.4796 63.4349C76.4796 64.9413 76.6334 66.9312 74.5157 66.8331C72.4399 66.742 72.7684 64.7382 72.7684 63.2528C72.7614 44.8117 72.6985 26.3636 72.8243 7.92258C72.8452 4.62953 71.9366 3.44544 68.477 3.46646C48.2152 3.61359 27.9534 3.59958 7.69864 3.48047C4.42768 3.45945 3.51908 4.61552 3.53306 7.76844C3.63091 33.216 3.6309 58.6635 3.52607 84.1111C3.51209 87.3621 4.63037 88.399 7.7895 88.35C17.3368 88.2099 26.8841 88.2799 36.4314 88.322C37.8432 88.329 39.877 87.8385 39.8211 90.1717C39.7652 92.5048 37.6964 91.8743 36.3195 91.8813C26.5416 91.9303 16.7567 91.9233 6.97875 91.8953C1.87661 91.8813 0.0244625 90.0316 0.0174732 84.9448C-0.0104837 71.8637 0.00349445 58.7896 0.00349445 45.7155Z" fill="black" fill-opacity="0.4"/>
<path d="M93.687 90.3399C93.687 93.3737 93.729 96.4075 93.6801 99.4413C93.5333 108.396 87.1032 114.87 78.2339 114.961C72.9989 115.017 67.757 115.01 62.5221 114.961C54.8269 114.898 49.3334 110.575 47.4044 103.008C46.0555 97.7037 44.8743 92.3577 43.5673 87.0398C42.3721 82.1773 43.3436 77.8263 47.2506 74.7084C51.0248 71.6956 52.0941 68.0943 51.7726 63.456C51.4232 58.3482 51.6538 53.1915 51.7097 48.0627C51.7587 43.3894 54.5334 40.1594 58.3355 40.1874C62.2425 40.2155 64.8774 43.3263 64.9054 48.0697C64.9403 54.2565 64.9683 60.4362 64.8844 66.6229C64.8565 68.5637 65.157 69.0682 67.4425 69.3694C71.5312 69.9089 75.4871 71.2402 79.6806 71.7516C82.0849 72.0459 84.3285 73.4472 87.201 73.0619C90.6817 72.5994 93.4145 75.8644 93.6731 79.8441C93.6871 80.0753 93.6801 80.3136 93.6801 80.5448C93.687 83.8028 93.687 87.0748 93.687 90.3399ZM51.7097 75.7804C47.8028 78.5689 46.0764 81.5117 46.985 85.5404C48.2431 91.1036 49.5151 96.6737 50.9409 102.195C52.3807 107.779 56.2457 111.079 61.907 111.31C67.4844 111.534 73.0898 111.569 78.6672 111.303C85.5236 110.981 89.9478 106.055 89.9967 99.133C90.0317 93.6469 90.0527 88.1608 89.9828 82.6818C89.9548 80.3626 90.8634 77.1396 87.3478 76.7963C83.6785 76.432 84.1118 79.5919 84.014 82.0091C83.965 83.1652 83.6295 84.1461 82.2457 84.1111C80.9107 84.0831 80.4914 83.1162 80.4285 81.9741C80.3516 80.4607 80.4634 78.9263 80.2817 77.4339C80.072 75.7173 79.0167 74.6243 77.2204 74.7504C75.6339 74.8625 74.7183 75.8995 74.5785 77.504C74.4876 78.5479 74.5855 79.6129 74.4457 80.6429C74.3269 81.5187 73.7188 82.1072 72.8032 82.1843C72.0414 82.2474 71.3565 81.911 71.1608 81.1684C70.9231 80.2855 70.8742 79.3537 70.7833 78.4358C70.5597 76.2568 71.5731 73.202 68.1204 72.9357C64.6468 72.6765 64.9473 75.5562 64.9054 77.9033C64.9054 78.0225 64.8984 78.1346 64.8914 78.2537C64.7936 79.4588 64.2274 80.2996 62.9484 80.2435C61.8232 80.2015 61.3828 79.3817 61.3758 78.3167C61.3689 77.497 61.3549 76.6842 61.3549 75.8645C61.3549 66.6439 61.3479 57.4234 61.3549 48.2099C61.3549 46.0308 60.8866 43.9779 58.2936 44.013C55.7355 44.041 55.2463 46.1009 55.2533 48.2659C55.2603 50.8303 55.2533 53.4017 55.2533 55.966C55.2533 64.1356 55.2533 72.3052 55.2533 80.4747C55.2533 81.82 55.2044 83.2633 53.3941 83.1722C51.9054 83.0951 51.7167 81.7849 51.7028 80.5588C51.6958 79.2206 51.7097 77.8613 51.7097 75.7804Z" fill="url(#paint1_linear_3896_5328)"/>
<path d="M93.687 90.3399C93.687 93.3737 93.729 96.4075 93.6801 99.4413C93.5333 108.396 87.1032 114.87 78.2339 114.961C72.9989 115.017 67.757 115.01 62.5221 114.961C54.8269 114.898 49.3334 110.575 47.4044 103.008C46.0555 97.7037 44.8743 92.3577 43.5673 87.0398C42.3721 82.1773 43.3436 77.8263 47.2506 74.7084C51.0248 71.6956 52.0941 68.0943 51.7726 63.456C51.4232 58.3482 51.6538 53.1915 51.7097 48.0627C51.7587 43.3894 54.5334 40.1594 58.3355 40.1874C62.2425 40.2155 64.8774 43.3263 64.9054 48.0697C64.9403 54.2565 64.9683 60.4362 64.8844 66.6229C64.8565 68.5637 65.157 69.0682 67.4425 69.3694C71.5312 69.9089 75.4871 71.2402 79.6806 71.7516C82.0849 72.0459 84.3285 73.4472 87.201 73.0619C90.6817 72.5994 93.4145 75.8644 93.6731 79.8441C93.6871 80.0753 93.6801 80.3136 93.6801 80.5448C93.687 83.8028 93.687 87.0748 93.687 90.3399ZM51.7097 75.7804C47.8028 78.5689 46.0764 81.5117 46.985 85.5404C48.2431 91.1036 49.5151 96.6737 50.9409 102.195C52.3807 107.779 56.2457 111.079 61.907 111.31C67.4844 111.534 73.0898 111.569 78.6672 111.303C85.5236 110.981 89.9478 106.055 89.9967 99.133C90.0317 93.6469 90.0527 88.1608 89.9828 82.6818C89.9548 80.3626 90.8634 77.1396 87.3478 76.7963C83.6785 76.432 84.1118 79.5919 84.014 82.0091C83.965 83.1652 83.6295 84.1461 82.2457 84.1111C80.9107 84.0831 80.4914 83.1162 80.4285 81.9741C80.3516 80.4607 80.4634 78.9263 80.2817 77.4339C80.072 75.7173 79.0167 74.6243 77.2204 74.7504C75.6339 74.8625 74.7183 75.8995 74.5785 77.504C74.4876 78.5479 74.5855 79.6129 74.4457 80.6429C74.3269 81.5187 73.7188 82.1072 72.8032 82.1843C72.0414 82.2474 71.3565 81.911 71.1608 81.1684C70.9231 80.2855 70.8742 79.3537 70.7833 78.4358C70.5597 76.2568 71.5731 73.202 68.1204 72.9357C64.6468 72.6765 64.9473 75.5562 64.9054 77.9033C64.9054 78.0225 64.8984 78.1346 64.8914 78.2537C64.7936 79.4588 64.2274 80.2996 62.9484 80.2435C61.8232 80.2015 61.3828 79.3817 61.3758 78.3167C61.3689 77.497 61.3549 76.6842 61.3549 75.8645C61.3549 66.6439 61.3479 57.4234 61.3549 48.2099C61.3549 46.0308 60.8866 43.9779 58.2936 44.013C55.7355 44.041 55.2463 46.1009 55.2533 48.2659C55.2603 50.8303 55.2533 53.4017 55.2533 55.966C55.2533 64.1356 55.2533 72.3052 55.2533 80.4747C55.2533 81.82 55.2044 83.2633 53.3941 83.1722C51.9054 83.0951 51.7167 81.7849 51.7028 80.5588C51.6958 79.2206 51.7097 77.8613 51.7097 75.7804Z" fill="black" fill-opacity="0.4"/>
<path d="M47.8303 30.5255C43.1754 30.5255 38.5136 30.5255 33.8588 30.5255C32.419 30.5255 30.7626 30.5115 30.7696 28.5847C30.7765 26.6229 32.4609 26.735 33.8798 26.735C43.1964 26.735 52.513 26.749 61.8227 26.728C63.1926 26.728 64.6603 26.8191 64.7512 28.4516C64.856 30.3434 63.2904 30.5396 61.7947 30.5326C57.1469 30.5185 52.4851 30.5255 47.8303 30.5255Z" fill="url(#paint2_linear_3896_5328)"/>
<path d="M47.8303 30.5255C43.1754 30.5255 38.5136 30.5255 33.8588 30.5255C32.419 30.5255 30.7626 30.5115 30.7696 28.5847C30.7765 26.6229 32.4609 26.735 33.8798 26.735C43.1964 26.735 52.513 26.749 61.8227 26.728C63.1926 26.728 64.6603 26.8191 64.7512 28.4516C64.856 30.3434 63.2904 30.5396 61.7947 30.5326C57.1469 30.5185 52.4851 30.5255 47.8303 30.5255Z" fill="black" fill-opacity="0.4"/>
<path d="M19.0278 32.2979C14.995 32.2979 11.6752 29.173 11.4305 25.1513C11.2069 21.4799 13.9956 17.9766 17.595 17.3881C18.923 17.1709 20.3488 17.0167 20.7332 18.6703C21.0757 20.1346 19.8735 20.6951 18.6644 20.9193C16.1762 21.3888 15.002 22.9092 15.2746 25.3615C15.4913 27.3513 16.8682 28.5424 18.7972 28.6125C21.0477 28.7035 22.5294 27.4494 22.9278 25.1723C23.1515 23.8621 23.6617 22.7901 25.1155 23.1054C26.7649 23.4627 26.702 24.864 26.4644 26.2022C25.8353 29.7475 22.7181 32.2979 19.0278 32.2979Z" fill="url(#paint3_linear_3896_5328)"/>
<path d="M19.0278 32.2979C14.995 32.2979 11.6752 29.173 11.4305 25.1513C11.2069 21.4799 13.9956 17.9766 17.595 17.3881C18.923 17.1709 20.3488 17.0167 20.7332 18.6703C21.0757 20.1346 19.8735 20.6951 18.6644 20.9193C16.1762 21.3888 15.002 22.9092 15.2746 25.3615C15.4913 27.3513 16.8682 28.5424 18.7972 28.6125C21.0477 28.7035 22.5294 27.4494 22.9278 25.1723C23.1515 23.8621 23.6617 22.7901 25.1155 23.1054C26.7649 23.4627 26.702 24.864 26.4644 26.2022C25.8353 29.7475 22.7181 32.2979 19.0278 32.2979Z" fill="black" fill-opacity="0.4"/>
<path d="M19.2859 70.8828C21.3548 70.7287 22.5639 69.4955 22.9273 67.4146C23.151 66.1044 23.6752 65.0254 25.1429 65.3757C26.7854 65.7611 26.6875 67.1904 26.4569 68.5076C25.8279 72.1019 22.3123 74.8485 18.629 74.6523C14.8338 74.4421 11.6257 71.1911 11.43 67.3585C11.2483 63.7432 14.1209 60.1559 17.6644 59.5673C19.0134 59.3431 20.4182 59.3641 20.7187 61.0177C20.9773 62.447 19.929 62.9585 18.608 63.1897C16.1548 63.6241 14.9526 65.2286 15.2881 67.6808C15.5747 69.8108 17.0005 70.8898 19.2859 70.8828Z" fill="url(#paint4_linear_3896_5328)"/>
<path d="M19.2859 70.8828C21.3548 70.7287 22.5639 69.4955 22.9273 67.4146C23.151 66.1044 23.6752 65.0254 25.1429 65.3757C26.7854 65.7611 26.6875 67.1904 26.4569 68.5076C25.8279 72.1019 22.3123 74.8485 18.629 74.6523C14.8338 74.4421 11.6257 71.1911 11.43 67.3585C11.2483 63.7432 14.1209 60.1559 17.6644 59.5673C19.0134 59.3431 20.4182 59.3641 20.7187 61.0177C20.9773 62.447 19.929 62.9585 18.608 63.1897C16.1548 63.6241 14.9526 65.2286 15.2881 67.6808C15.5747 69.8108 17.0005 70.8898 19.2859 70.8828Z" fill="black" fill-opacity="0.4"/>
<path d="M18.8598 53.4924C15.0227 53.4083 11.7867 50.3465 11.4442 46.4649C11.1297 42.8776 13.9114 39.1361 17.427 38.5265C18.6641 38.3093 20.1668 37.973 20.656 39.6616C21.1732 41.4342 19.7893 41.7775 18.4754 42.0578C16.1899 42.5483 15.0716 44.0196 15.2533 46.3177C15.4071 48.3216 16.6791 49.5617 18.6082 49.7509C20.8867 49.9681 22.3893 48.756 22.8786 46.5139C23.1791 45.1407 23.5495 43.8094 25.2479 44.2859C26.8485 44.7273 26.6877 46.1916 26.4291 47.5018C25.7302 50.9981 22.4662 53.5695 18.8598 53.4924Z" fill="url(#paint5_linear_3896_5328)"/>
<path d="M18.8598 53.4924C15.0227 53.4083 11.7867 50.3465 11.4442 46.4649C11.1297 42.8776 13.9114 39.1361 17.427 38.5265C18.6641 38.3093 20.1668 37.973 20.656 39.6616C21.1732 41.4342 19.7893 41.7775 18.4754 42.0578C16.1899 42.5483 15.0716 44.0196 15.2533 46.3177C15.4071 48.3216 16.6791 49.5617 18.6082 49.7509C20.8867 49.9681 22.3893 48.756 22.8786 46.5139C23.1791 45.1407 23.5495 43.8094 25.2479 44.2859C26.8485 44.7273 26.6877 46.1916 26.4291 47.5018C25.7302 50.9981 22.4662 53.5695 18.8598 53.4924Z" fill="black" fill-opacity="0.4"/>
<path d="M44.3908 19.0629C47.7526 19.0629 51.1075 19.0699 54.4693 19.0629C55.8601 19.0559 57.1951 19.3571 57.1392 21.0247C57.0972 22.44 55.8881 22.8043 54.6091 22.7973C47.5429 22.7903 40.4768 22.7973 33.4107 22.7973C32.0269 22.7973 30.664 22.5101 30.7478 20.8215C30.8317 19.1399 32.2715 19.0629 33.6134 19.0629C37.2059 19.0699 40.7983 19.0629 44.3908 19.0629Z" fill="url(#paint6_linear_3896_5328)"/>
<path d="M44.3908 19.0629C47.7526 19.0629 51.1075 19.0699 54.4693 19.0629C55.8601 19.0559 57.1951 19.3571 57.1392 21.0247C57.0972 22.44 55.8881 22.8043 54.6091 22.7973C47.5429 22.7903 40.4768 22.7973 33.4107 22.7973C32.0269 22.7973 30.664 22.5101 30.7478 20.8215C30.8317 19.1399 32.2715 19.0629 33.6134 19.0629C37.2059 19.0699 40.7983 19.0629 44.3908 19.0629Z" fill="black" fill-opacity="0.4"/>
<path d="M39.0109 43.8798C37.0469 43.8868 35.0759 43.9009 33.112 43.8798C31.8539 43.8658 30.7147 43.5365 30.7286 42.0021C30.7426 40.6989 31.763 40.2155 32.8743 40.2014C37.0399 40.1524 41.2055 40.1594 45.3711 40.2014C46.4614 40.2155 47.5168 40.5868 47.5727 41.925C47.6356 43.4735 46.5383 43.8518 45.2662 43.8728C43.1765 43.9009 41.0937 43.8798 39.0109 43.8798Z" fill="url(#paint7_linear_3896_5328)"/>
<path d="M39.0109 43.8798C37.0469 43.8868 35.0759 43.9009 33.112 43.8798C31.8539 43.8658 30.7147 43.5365 30.7286 42.0021C30.7426 40.6989 31.763 40.2155 32.8743 40.2014C37.0399 40.1524 41.2055 40.1594 45.3711 40.2014C46.4614 40.2155 47.5168 40.5868 47.5727 41.925C47.6356 43.4735 46.5383 43.8518 45.2662 43.8728C43.1765 43.9009 41.0937 43.8798 39.0109 43.8798Z" fill="black" fill-opacity="0.4"/>
<path d="M39.1781 51.5239C37.2141 51.5239 35.2502 51.5169 33.2862 51.5309C32.0491 51.5379 30.833 51.3908 30.7351 49.8633C30.6373 48.3289 31.8324 47.9296 33.0555 47.9155C37.1023 47.8665 41.1421 47.8735 45.1888 47.9226C46.384 47.9366 47.6141 48.2238 47.5582 49.8073C47.5023 51.3767 46.3001 51.5309 45.07 51.5309C43.106 51.5169 41.1421 51.5239 39.1781 51.5239Z" fill="url(#paint8_linear_3896_5328)"/>
<path d="M39.1781 51.5239C37.2141 51.5239 35.2502 51.5169 33.2862 51.5309C32.0491 51.5379 30.833 51.3908 30.7351 49.8633C30.6373 48.3289 31.8324 47.9296 33.0555 47.9155C37.1023 47.8665 41.1421 47.8735 45.1888 47.9226C46.384 47.9366 47.6141 48.2238 47.5582 49.8073C47.5023 51.3767 46.3001 51.5309 45.07 51.5309C43.106 51.5169 41.1421 51.5239 39.1781 51.5239Z" fill="black" fill-opacity="0.4"/>
<path d="M39.1717 61.4938C41.2684 61.4938 43.3652 61.4798 45.455 61.5008C46.6012 61.5078 47.5937 61.8301 47.5797 63.2314C47.5657 64.6117 46.5383 64.9971 45.434 65.0041C41.2405 65.0531 37.0539 65.0531 32.8604 65.0111C31.7351 64.9971 30.7217 64.5206 30.7217 63.2034C30.7217 61.8512 31.7281 61.5008 32.8883 61.4938C34.9781 61.4868 37.0749 61.4938 39.1717 61.4938Z" fill="url(#paint9_linear_3896_5328)"/>
<path d="M39.1717 61.4938C41.2684 61.4938 43.3652 61.4798 45.455 61.5008C46.6012 61.5078 47.5937 61.8301 47.5797 63.2314C47.5657 64.6117 46.5383 64.9971 45.434 65.0041C41.2405 65.0531 37.0539 65.0531 32.8604 65.0111C31.7351 64.9971 30.7217 64.5206 30.7217 63.2034C30.7217 61.8512 31.7281 61.5008 32.8883 61.4938C34.9781 61.4868 37.0749 61.4938 39.1717 61.4938Z" fill="black" fill-opacity="0.4"/>
<path d="M37.0249 72.7326C35.5292 72.7256 34.0195 72.8377 32.5378 72.6905C31.4265 72.5854 30.5319 71.8988 30.7206 70.6166C30.8813 69.5376 31.734 69.1663 32.7614 69.1663C35.7598 69.1733 38.7512 69.1663 41.7496 69.1733C42.77 69.1803 43.6297 69.5726 43.7415 70.6797C43.8743 71.9689 42.9727 72.6205 41.8544 72.7046C40.2609 72.8307 38.6394 72.7396 37.0249 72.7326Z" fill="url(#paint10_linear_3896_5328)"/>
<path d="M37.0249 72.7326C35.5292 72.7256 34.0195 72.8377 32.5378 72.6905C31.4265 72.5854 30.5319 71.8988 30.7206 70.6166C30.8813 69.5376 31.734 69.1663 32.7614 69.1663C35.7598 69.1733 38.7512 69.1663 41.7496 69.1733C42.77 69.1803 43.6297 69.5726 43.7415 70.6797C43.8743 71.9689 42.9727 72.6205 41.8544 72.7046C40.2609 72.8307 38.6394 72.7396 37.0249 72.7326Z" fill="black" fill-opacity="0.4"/>
<defs>
<linearGradient id="paint0_linear_3896_5328" x1="77.2382" y1="-2.03214" x2="-14.5168" y2="12.3595" gradientUnits="userSpaceOnUse">
<stop stop-color="#02F79C"/>
<stop offset="0.844309" stop-color="#03AEF6"/>
</linearGradient>
<linearGradient id="paint1_linear_3896_5328" x1="94.1928" y1="38.5339" x2="32.9851" y2="46.3414" gradientUnits="userSpaceOnUse">
<stop stop-color="#02F79C"/>
<stop offset="0.844309" stop-color="#03AEF6"/>
</linearGradient>
<linearGradient id="paint2_linear_3896_5328" x1="65.0845" y1="26.6439" x2="54.1973" y2="44.9797" gradientUnits="userSpaceOnUse">
<stop stop-color="#02F79C"/>
<stop offset="0.844309" stop-color="#03AEF6"/>
</linearGradient>
<linearGradient id="paint3_linear_3896_5328" x1="26.7362" y1="16.9237" x2="8.74196" y2="20.3455" gradientUnits="userSpaceOnUse">
<stop stop-color="#02F79C"/>
<stop offset="0.844309" stop-color="#03AEF6"/>
</linearGradient>
<linearGradient id="paint4_linear_3896_5328" x1="26.7318" y1="59.1307" x2="8.734" y2="62.5168" gradientUnits="userSpaceOnUse">
<stop stop-color="#02F79C"/>
<stop offset="0.844309" stop-color="#03AEF6"/>
</linearGradient>
<linearGradient id="paint5_linear_3896_5328" x1="26.7402" y1="38.0102" x2="8.73485" y2="41.4103" gradientUnits="userSpaceOnUse">
<stop stop-color="#02F79C"/>
<stop offset="0.844309" stop-color="#03AEF6"/>
</linearGradient>
<linearGradient id="paint6_linear_3896_5328" x1="57.3959" y1="18.9802" x2="45.709" y2="34.5538" gradientUnits="userSpaceOnUse">
<stop stop-color="#02F79C"/>
<stop offset="0.844309" stop-color="#03AEF6"/>
</linearGradient>
<linearGradient id="paint7_linear_3896_5328" x1="47.738" y1="40.0849" x2="35.7538" y2="50.3072" gradientUnits="userSpaceOnUse">
<stop stop-color="#02F79C"/>
<stop offset="0.844309" stop-color="#03AEF6"/>
</linearGradient>
<linearGradient id="paint8_linear_3896_5328" x1="47.7226" y1="47.8014" x2="35.945" y2="58.0431" gradientUnits="userSpaceOnUse">
<stop stop-color="#02F79C"/>
<stop offset="0.844309" stop-color="#03AEF6"/>
</linearGradient>
<linearGradient id="paint9_linear_3896_5328" x1="47.7427" y1="61.4107" x2="36.2358" y2="71.7057" gradientUnits="userSpaceOnUse">
<stop stop-color="#02F79C"/>
<stop offset="0.844309" stop-color="#03AEF6"/>
</linearGradient>
<linearGradient id="paint10_linear_3896_5328" x1="43.8807" y1="69.0866" x2="32.9373" y2="76.5613" gradientUnits="userSpaceOnUse">
<stop stop-color="#02F79C"/>
<stop offset="0.844309" stop-color="#03AEF6"/>
</linearGradient>
</defs>
</svg>
