<svg width="116" height="115" viewBox="0 0 116 115" fill="none" xmlns="http://www.w3.org/2000/svg">
<path d="M52.4989 23.962C49.8406 32.8275 58.926 34.5518 62.2062 39.7985C62.7172 40.6126 63.7982 40.1982 64.5979 39.8207C66.2417 39.0289 68.2187 38.7255 69.633 39.4285C72.9132 41.0418 74.5274 39.1325 76.4748 37.1566C83.3906 30.1264 90.3731 23.1628 97.3778 16.2139C98.7699 14.8301 99.5696 13.7052 98.7254 11.463C97.2371 7.50381 99.0142 3.38927 102.524 1.258C105.945 -0.814076 110.639 -0.273857 113.446 2.51604C116.245 5.29854 116.815 10.0199 114.779 13.4462C112.676 16.9835 108.611 18.7522 104.597 17.2648C102.243 16.3915 101.073 17.1686 99.577 18.7004C92.3279 26.1007 85.0196 33.4343 77.6447 40.7088C76.186 42.1518 75.5492 43.2693 76.3785 45.4523C77.778 49.1377 76.2971 53.0154 73.2168 55.2651C70.1735 57.4852 65.9159 57.5148 62.8134 55.3539C59.7479 53.2152 58.1411 49.1599 59.511 45.5855C60.3921 43.2841 59.822 41.9668 58.1411 40.546C56.638 39.2805 55.3052 37.8079 53.9206 36.4018C51.2475 33.7007 49.0113 29.8896 44.2206 32.7165C43.9466 32.8793 43.4209 32.8719 43.1321 32.7165C38.6376 30.3188 36.3051 33.5157 33.6765 36.2168C29.0265 40.9752 24.3024 45.6743 19.5412 50.3217C18.2603 51.5723 17.8308 52.6084 18.4824 54.4807C19.9707 58.7358 18.3269 62.8799 14.7135 65.026C11.2333 67.0981 6.62031 66.5283 3.79918 63.6866C0.829954 60.6969 0.326445 56.5009 2.49598 52.8378C4.67291 49.1599 8.64175 47.5614 13.0104 49.0341C14.8542 49.6557 15.913 49.3079 17.1644 48.0276C22.8659 42.2258 28.5526 36.3944 34.454 30.7998C36.2681 29.083 35.5573 27.6547 35.1278 25.8935C34.2689 22.3487 35.2019 19.2628 38.0452 16.9391C40.9922 14.5267 44.3465 14.127 47.7304 15.8439C50.9883 17.4942 52.6396 20.2545 52.4989 23.962ZM49.3075 23.6216C49.2113 20.6393 46.3901 17.99 43.4727 18.1528C40.4517 18.323 38.0008 21.0981 38.1859 24.1396C38.3636 26.9961 41.007 29.49 43.8059 29.4382C46.7604 29.379 49.4038 26.5817 49.3075 23.6216ZM107.093 3.26347C104.101 3.30047 101.517 6.00156 101.598 9.02087C101.672 11.9366 104.116 14.3491 107.041 14.4009C110.143 14.4527 112.713 11.9588 112.735 8.88026C112.75 5.86836 110.099 3.22646 107.093 3.26347ZM15.6761 57.4704C15.7427 54.3918 13.2252 51.8462 10.1227 51.861C7.13122 51.8758 4.75436 54.1624 4.63589 57.1373C4.51001 60.2751 6.87206 62.8577 9.96716 62.9613C12.9882 63.0575 15.6094 60.5415 15.6761 57.4704ZM73.6018 48.1904C73.7055 45.2525 71.0399 42.4996 68.0484 42.4552C65.1977 42.4108 62.6283 44.8085 62.4284 47.702C62.221 50.7361 64.6794 53.452 67.7448 53.5704C70.8325 53.6814 73.4908 51.2393 73.6018 48.1904Z" fill="url(#paint0_linear_3896_5322)"/>
<path d="M52.4989 23.962C49.8406 32.8275 58.926 34.5518 62.2062 39.7985C62.7172 40.6126 63.7982 40.1982 64.5979 39.8207C66.2417 39.0289 68.2187 38.7255 69.633 39.4285C72.9132 41.0418 74.5274 39.1325 76.4748 37.1566C83.3906 30.1264 90.3731 23.1628 97.3778 16.2139C98.7699 14.8301 99.5696 13.7052 98.7254 11.463C97.2371 7.50381 99.0142 3.38927 102.524 1.258C105.945 -0.814076 110.639 -0.273857 113.446 2.51604C116.245 5.29854 116.815 10.0199 114.779 13.4462C112.676 16.9835 108.611 18.7522 104.597 17.2648C102.243 16.3915 101.073 17.1686 99.577 18.7004C92.3279 26.1007 85.0196 33.4343 77.6447 40.7088C76.186 42.1518 75.5492 43.2693 76.3785 45.4523C77.778 49.1377 76.2971 53.0154 73.2168 55.2651C70.1735 57.4852 65.9159 57.5148 62.8134 55.3539C59.7479 53.2152 58.1411 49.1599 59.511 45.5855C60.3921 43.2841 59.822 41.9668 58.1411 40.546C56.638 39.2805 55.3052 37.8079 53.9206 36.4018C51.2475 33.7007 49.0113 29.8896 44.2206 32.7165C43.9466 32.8793 43.4209 32.8719 43.1321 32.7165C38.6376 30.3188 36.3051 33.5157 33.6765 36.2168C29.0265 40.9752 24.3024 45.6743 19.5412 50.3217C18.2603 51.5723 17.8308 52.6084 18.4824 54.4807C19.9707 58.7358 18.3269 62.8799 14.7135 65.026C11.2333 67.0981 6.62031 66.5283 3.79918 63.6866C0.829954 60.6969 0.326445 56.5009 2.49598 52.8378C4.67291 49.1599 8.64175 47.5614 13.0104 49.0341C14.8542 49.6557 15.913 49.3079 17.1644 48.0276C22.8659 42.2258 28.5526 36.3944 34.454 30.7998C36.2681 29.083 35.5573 27.6547 35.1278 25.8935C34.2689 22.3487 35.2019 19.2628 38.0452 16.9391C40.9922 14.5267 44.3465 14.127 47.7304 15.8439C50.9883 17.4942 52.6396 20.2545 52.4989 23.962ZM49.3075 23.6216C49.2113 20.6393 46.3901 17.99 43.4727 18.1528C40.4517 18.323 38.0008 21.0981 38.1859 24.1396C38.3636 26.9961 41.007 29.49 43.8059 29.4382C46.7604 29.379 49.4038 26.5817 49.3075 23.6216ZM107.093 3.26347C104.101 3.30047 101.517 6.00156 101.598 9.02087C101.672 11.9366 104.116 14.3491 107.041 14.4009C110.143 14.4527 112.713 11.9588 112.735 8.88026C112.75 5.86836 110.099 3.22646 107.093 3.26347ZM15.6761 57.4704C15.7427 54.3918 13.2252 51.8462 10.1227 51.861C7.13122 51.8758 4.75436 54.1624 4.63589 57.1373C4.51001 60.2751 6.87206 62.8577 9.96716 62.9613C12.9882 63.0575 15.6094 60.5415 15.6761 57.4704ZM73.6018 48.1904C73.7055 45.2525 71.0399 42.4996 68.0484 42.4552C65.1977 42.4108 62.6283 44.8085 62.4284 47.702C62.221 50.7361 64.6794 53.452 67.7448 53.5704C70.8325 53.6814 73.4908 51.2393 73.6018 48.1904Z" fill="black" fill-opacity="0.4"/>
<path d="M95.8156 74.2838C95.8156 61.8366 95.8674 49.3893 95.7711 36.9495C95.7489 34.6036 96.3043 33.6934 98.8366 33.8044C103.516 34.0116 108.211 33.9894 112.89 33.8118C115.364 33.723 115.993 34.5962 115.986 36.9791C115.912 61.992 115.912 87.0123 115.978 112.025C115.986 114.29 115.297 115.037 113.031 114.963C108.226 114.815 103.413 114.785 98.6071 114.978C96.2006 115.074 95.7637 114.142 95.7785 111.996C95.86 99.4225 95.8156 86.8494 95.8156 74.2838ZM112.816 74.5502C112.816 63.102 112.765 51.6538 112.861 40.2056C112.876 38.0077 112.328 37.0457 109.988 37.2159C107.537 37.3861 105.049 37.4231 102.606 37.2085C99.9473 36.9791 99.0217 37.6821 99.0365 40.5904C99.1698 63.1168 99.1476 85.6432 99.0588 108.162C99.0514 110.619 99.5178 111.774 102.243 111.522C104.686 111.293 107.182 111.307 109.625 111.522C112.298 111.751 112.898 110.656 112.876 108.155C112.742 96.9508 112.816 85.7468 112.816 74.5502Z" fill="url(#paint1_linear_3896_5322)"/>
<path d="M95.8156 74.2838C95.8156 61.8366 95.8674 49.3893 95.7711 36.9495C95.7489 34.6036 96.3043 33.6934 98.8366 33.8044C103.516 34.0116 108.211 33.9894 112.89 33.8118C115.364 33.723 115.993 34.5962 115.986 36.9791C115.912 61.992 115.912 87.0123 115.978 112.025C115.986 114.29 115.297 115.037 113.031 114.963C108.226 114.815 103.413 114.785 98.6071 114.978C96.2006 115.074 95.7637 114.142 95.7785 111.996C95.86 99.4225 95.8156 86.8494 95.8156 74.2838ZM112.816 74.5502C112.816 63.102 112.765 51.6538 112.861 40.2056C112.876 38.0077 112.328 37.0457 109.988 37.2159C107.537 37.3861 105.049 37.4231 102.606 37.2085C99.9473 36.9791 99.0217 37.6821 99.0365 40.5904C99.1698 63.1168 99.1476 85.6432 99.0588 108.162C99.0514 110.619 99.5178 111.774 102.243 111.522C104.686 111.293 107.182 111.307 109.625 111.522C112.298 111.751 112.898 110.656 112.876 108.155C112.742 96.9508 112.816 85.7468 112.816 74.5502Z" fill="black" fill-opacity="0.4"/>
<path d="M53.054 90.2312C53.054 97.4982 52.9726 104.773 53.0984 112.04C53.1355 114.334 52.3802 115.029 50.1366 114.963C45.3311 114.822 40.5181 114.815 35.72 114.963C33.5282 115.029 32.6989 114.504 32.7211 112.129C32.8248 97.4687 32.8174 82.8087 32.7211 68.1488C32.7063 65.8621 33.3505 65.1961 35.6311 65.2775C40.4293 65.4551 45.2496 65.4699 50.0478 65.2775C52.5579 65.1739 53.1503 66.0694 53.1059 68.43C52.9652 75.6897 53.054 82.9641 53.054 90.2312ZM49.6479 90.431C49.6479 86.6199 49.7368 82.8087 49.6183 78.9976C49.5221 75.7267 51.0474 71.4493 48.9815 69.4513C46.9231 67.4532 42.6432 69.1775 39.3778 68.7778C36.4234 68.4226 35.9939 69.7029 36.031 72.3004C36.1791 81.8911 36.0162 91.4818 36.1272 101.073C36.1642 104.462 34.5575 109.117 36.8381 110.908C38.9854 112.602 43.4429 111.263 46.8712 111.5C49.2703 111.662 49.7368 110.663 49.6924 108.51C49.5665 102.479 49.6479 96.4548 49.6479 90.431Z" fill="url(#paint2_linear_3896_5322)"/>
<path d="M53.054 90.2312C53.054 97.4982 52.9726 104.773 53.0984 112.04C53.1355 114.334 52.3802 115.029 50.1366 114.963C45.3311 114.822 40.5181 114.815 35.72 114.963C33.5282 115.029 32.6989 114.504 32.7211 112.129C32.8248 97.4687 32.8174 82.8087 32.7211 68.1488C32.7063 65.8621 33.3505 65.1961 35.6311 65.2775C40.4293 65.4551 45.2496 65.4699 50.0478 65.2775C52.5579 65.1739 53.1503 66.0694 53.1059 68.43C52.9652 75.6897 53.054 82.9641 53.054 90.2312ZM49.6479 90.431C49.6479 86.6199 49.7368 82.8087 49.6183 78.9976C49.5221 75.7267 51.0474 71.4493 48.9815 69.4513C46.9231 67.4532 42.6432 69.1775 39.3778 68.7778C36.4234 68.4226 35.9939 69.7029 36.031 72.3004C36.1791 81.8911 36.0162 91.4818 36.1272 101.073C36.1642 104.462 34.5575 109.117 36.8381 110.908C38.9854 112.602 43.4429 111.263 46.8712 111.5C49.2703 111.662 49.7368 110.663 49.6924 108.51C49.5665 102.479 49.6479 96.4548 49.6479 90.431Z" fill="black" fill-opacity="0.4"/>
<path d="M84.5307 91.1488C84.5307 98.0385 84.4567 104.928 84.5752 111.818C84.6122 114.104 84.1531 115.103 81.5615 114.985C76.6449 114.763 71.7135 114.852 66.7894 114.955C64.8865 114.992 64.2126 114.393 64.22 112.439C64.2867 98.4159 64.3015 84.385 64.2052 70.3615C64.1904 68.0748 65.1826 67.7418 67.0856 67.7788C72.0096 67.8602 76.9337 67.8972 81.8577 67.764C83.968 67.7048 84.6048 68.3856 84.5678 70.4799C84.4567 77.3695 84.5307 84.2592 84.5307 91.1488ZM81.1987 91.1488C81.1987 87.9519 81.2283 84.7476 81.1913 81.5507C81.1543 78.2502 82.3316 73.7212 80.6433 71.9526C78.4812 69.6881 73.9052 71.5603 70.4029 71.1755C68.0112 70.9165 67.5595 71.9378 67.5817 74.106C67.6928 83.0899 67.6039 92.0738 67.641 101.058C67.6558 104.358 66.5377 108.828 68.2259 110.656C70.3806 112.994 74.9641 111.085 78.4664 111.477C80.9025 111.751 81.2949 110.634 81.2505 108.495C81.1098 102.723 81.1987 96.9358 81.1987 91.1488Z" fill="url(#paint3_linear_3896_5322)"/>
<path d="M84.5307 91.1488C84.5307 98.0385 84.4567 104.928 84.5752 111.818C84.6122 114.104 84.1531 115.103 81.5615 114.985C76.6449 114.763 71.7135 114.852 66.7894 114.955C64.8865 114.992 64.2126 114.393 64.22 112.439C64.2867 98.4159 64.3015 84.385 64.2052 70.3615C64.1904 68.0748 65.1826 67.7418 67.0856 67.7788C72.0096 67.8602 76.9337 67.8972 81.8577 67.764C83.968 67.7048 84.6048 68.3856 84.5678 70.4799C84.4567 77.3695 84.5307 84.2592 84.5307 91.1488ZM81.1987 91.1488C81.1987 87.9519 81.2283 84.7476 81.1913 81.5507C81.1543 78.2502 82.3316 73.7212 80.6433 71.9526C78.4812 69.6881 73.9052 71.5603 70.4029 71.1755C68.0112 70.9165 67.5595 71.9378 67.5817 74.106C67.6928 83.0899 67.6039 92.0738 67.641 101.058C67.6558 104.358 66.5377 108.828 68.2259 110.656C70.3806 112.994 74.9641 111.085 78.4664 111.477C80.9025 111.751 81.2949 110.634 81.2505 108.495C81.1098 102.723 81.1987 96.9358 81.1987 91.1488Z" fill="black" fill-opacity="0.4"/>
<path d="M21.4586 96.3438C21.4586 101.635 21.3772 106.934 21.4956 112.217C21.5401 114.267 20.9625 115.022 18.8078 114.963C13.7653 114.815 8.70798 114.815 3.66549 114.963C1.48114 115.029 0.98504 114.223 0.999849 112.203C1.0813 101.494 1.0887 90.7862 0.992445 80.078C0.977636 78.1022 1.59962 77.5842 3.49518 77.6286C8.66355 77.747 13.8393 77.7544 19.0077 77.6286C20.9477 77.5842 21.5401 78.1466 21.4956 80.1002C21.3772 85.5098 21.4586 90.9268 21.4586 96.3438ZM18.1784 96.4252C18.1784 94.7009 18.208 92.9767 18.171 91.2524C18.1118 87.9519 19.2965 83.4526 17.6082 81.6469C15.4535 79.338 10.8775 81.2177 7.37516 80.8551C5.10937 80.6183 4.41334 81.4619 4.45037 83.7338C4.56884 92.1035 4.56884 100.473 4.45037 108.843C4.42075 111.048 5.25746 111.596 7.24929 111.507C10.0778 111.389 12.9212 111.374 15.7423 111.507C17.6897 111.596 18.2821 110.893 18.2154 108.976C18.0895 104.795 18.1784 100.606 18.1784 96.4252Z" fill="url(#paint4_linear_3896_5322)"/>
<path d="M21.4586 96.3438C21.4586 101.635 21.3772 106.934 21.4956 112.217C21.5401 114.267 20.9625 115.022 18.8078 114.963C13.7653 114.815 8.70798 114.815 3.66549 114.963C1.48114 115.029 0.98504 114.223 0.999849 112.203C1.0813 101.494 1.0887 90.7862 0.992445 80.078C0.977636 78.1022 1.59962 77.5842 3.49518 77.6286C8.66355 77.747 13.8393 77.7544 19.0077 77.6286C20.9477 77.5842 21.5401 78.1466 21.4956 80.1002C21.3772 85.5098 21.4586 90.9268 21.4586 96.3438ZM18.1784 96.4252C18.1784 94.7009 18.208 92.9767 18.171 91.2524C18.1118 87.9519 19.2965 83.4526 17.6082 81.6469C15.4535 79.338 10.8775 81.2177 7.37516 80.8551C5.10937 80.6183 4.41334 81.4619 4.45037 83.7338C4.56884 92.1035 4.56884 100.473 4.45037 108.843C4.42075 111.048 5.25746 111.596 7.24929 111.507C10.0778 111.389 12.9212 111.374 15.7423 111.507C17.6897 111.596 18.2821 110.893 18.2154 108.976C18.0895 104.795 18.1784 100.606 18.1784 96.4252Z" fill="black" fill-opacity="0.4"/>
<defs>
<linearGradient id="paint0_linear_3896_5322" x1="117.105" y1="-1.46275" x2="-10.4077" y2="40.1975" gradientUnits="userSpaceOnUse">
<stop stop-color="#02F79C"/>
<stop offset="0.844309" stop-color="#03AEF6"/>
</linearGradient>
<linearGradient id="paint1_linear_3896_5322" x1="116.181" y1="32.0012" x2="91.3925" y2="33.1648" gradientUnits="userSpaceOnUse">
<stop stop-color="#02F79C"/>
<stop offset="0.844309" stop-color="#03AEF6"/>
</linearGradient>
<linearGradient id="paint2_linear_3896_5322" x1="53.3051" y1="64.1712" x2="28.3993" y2="66.0975" gradientUnits="userSpaceOnUse">
<stop stop-color="#02F79C"/>
<stop offset="0.844309" stop-color="#03AEF6"/>
</linearGradient>
<linearGradient id="paint3_linear_3896_5322" x1="84.774" y1="66.7166" x2="59.9025" y2="68.7391" gradientUnits="userSpaceOnUse">
<stop stop-color="#02F79C"/>
<stop offset="0.844309" stop-color="#03AEF6"/>
</linearGradient>
<linearGradient id="paint4_linear_3896_5322" x1="21.6961" y1="76.8008" x2="-3.23689" y2="79.3822" gradientUnits="userSpaceOnUse">
<stop stop-color="#02F79C"/>
<stop offset="0.844309" stop-color="#03AEF6"/>
</linearGradient>
</defs>
</svg>
