<svg width="116" height="115" viewBox="0 0 116 115" fill="none" xmlns="http://www.w3.org/2000/svg">
<path d="M52.4984 23.962C49.8402 32.8275 58.9255 34.5517 62.2058 39.7985C62.7167 40.6125 63.7977 40.1981 64.5974 39.8207C66.2412 39.0289 68.2182 38.7255 69.6325 39.4285C72.9127 41.0418 74.5269 39.1325 76.4743 37.1566C83.3902 30.1264 90.3726 23.1627 97.3773 16.2139C98.7694 14.8301 99.5691 13.7052 98.725 11.4629C97.2366 7.5038 99.0137 3.38926 102.523 1.25798C105.944 -0.814091 110.639 -0.273873 113.445 2.51602C116.244 5.29852 116.814 10.0199 114.778 13.4462C112.675 16.9835 108.61 18.7522 104.597 17.2647C102.242 16.3915 101.072 17.1685 99.5765 18.7004C92.3274 26.1006 85.0192 33.4343 77.6442 40.7088C76.1855 42.1518 75.5487 43.2692 76.3781 45.4523C77.7775 49.1376 76.2966 53.0154 73.2163 55.2651C70.173 57.4851 65.9154 57.5147 62.8129 55.3539C59.7474 53.2152 58.1407 49.1598 59.5105 45.5855C60.3916 43.284 59.8215 41.9668 58.1407 40.5459C56.6375 39.2805 55.3047 37.8079 53.9201 36.4018C51.247 33.7007 49.0108 29.8896 44.2201 32.7165C43.9461 32.8793 43.4204 32.8719 43.1316 32.7165C38.6371 30.3188 36.3046 33.5157 33.676 36.2168C29.026 40.9752 24.3019 45.6743 19.5408 50.3217C18.2598 51.5723 17.8303 52.6084 18.4819 54.4806C19.9702 58.7358 18.3264 62.8799 14.713 65.026C11.2329 67.0981 6.61982 66.5283 3.79869 63.6866C0.829466 60.6968 0.325957 56.5009 2.49549 52.8378C4.67243 49.1599 8.64126 47.5614 13.0099 49.034C14.8537 49.6557 15.9125 49.3079 17.1639 48.0276C22.8654 42.2258 28.5521 36.3944 34.4535 30.7998C36.2676 29.0829 35.5568 27.6547 35.1273 25.8934C34.2684 22.3487 35.2014 19.2628 38.0447 16.9391C40.9917 14.5266 44.346 14.127 47.7299 15.8439C50.9879 17.4941 52.6391 20.2544 52.4984 23.962ZM49.307 23.6216C49.2108 20.6393 46.3896 17.99 43.4722 18.1528C40.4512 18.323 38.0003 21.0981 38.1854 24.1396C38.3631 26.9961 41.0065 29.49 43.8055 29.4382C46.7599 29.379 49.4033 26.5817 49.307 23.6216ZM107.092 3.26345C104.101 3.30045 101.516 6.00155 101.598 9.02085C101.672 11.9366 104.115 14.349 107.04 14.4008C110.143 14.4526 112.712 11.9588 112.734 8.88025C112.749 5.86834 110.098 3.22645 107.092 3.26345ZM15.6756 57.4703C15.7422 54.3918 13.2247 51.8461 10.1222 51.8609C7.13073 51.8757 4.75388 54.1624 4.6354 57.1373C4.50953 60.275 6.87158 62.8577 9.96668 62.9613C12.9877 63.0575 15.6089 60.5414 15.6756 57.4703ZM73.6013 48.1904C73.705 45.2525 71.0394 42.4996 68.0479 42.4552C65.1972 42.4108 62.6278 44.8085 62.4279 47.702C62.2206 50.7361 64.6789 53.452 67.7443 53.5704C70.832 53.6814 73.4903 51.2393 73.6013 48.1904Z" fill="#0394FF"/>
<path d="M95.8151 74.2837C95.8151 61.8365 95.8669 49.3892 95.7707 36.9494C95.7484 34.6035 96.3038 33.6933 98.8361 33.8043C103.516 34.0115 108.21 33.9893 112.89 33.8117C115.363 33.7229 115.992 34.5961 115.985 36.979C115.911 61.9919 115.911 87.0122 115.978 112.025C115.985 114.29 115.296 115.037 113.031 114.963C108.225 114.815 103.412 114.785 98.6066 114.978C96.2001 115.074 95.7632 114.142 95.7781 111.995C95.8595 99.4224 95.8151 86.8494 95.8151 74.2837ZM112.816 74.5501C112.816 63.1019 112.764 51.6537 112.86 40.2055C112.875 38.0077 112.327 37.0456 109.987 37.2158C107.536 37.386 105.049 37.423 102.605 37.2084C99.9468 36.979 99.0212 37.682 99.0361 40.5903C99.1693 63.1167 99.1471 85.6431 99.0583 108.162C99.0509 110.619 99.5174 111.773 102.242 111.522C104.686 111.292 107.181 111.307 109.625 111.522C112.298 111.751 112.897 110.656 112.875 108.155C112.742 96.9507 112.816 85.7467 112.816 74.5501Z" fill="#0394FF"/>
<path d="M53.054 90.2313C53.054 97.4983 52.9726 104.773 53.0984 112.04C53.1355 114.334 52.3802 115.03 50.1366 114.963C45.3311 114.822 40.5181 114.815 35.72 114.963C33.5282 115.03 32.6989 114.504 32.7211 112.129C32.8248 97.4687 32.8174 82.8088 32.7211 68.1489C32.7063 65.8622 33.3505 65.1962 35.6311 65.2776C40.4293 65.4552 45.2496 65.47 50.0478 65.2776C52.5579 65.174 53.1503 66.0694 53.1059 68.4301C52.9652 75.6898 53.054 82.9642 53.054 90.2313ZM49.6479 90.4311C49.6479 86.62 49.7368 82.8088 49.6183 78.9977C49.5221 75.7268 51.0474 71.4494 48.9815 69.4514C46.9231 67.4533 42.6432 69.1776 39.3778 68.7779C36.4234 68.4227 35.9939 69.703 36.031 72.3005C36.1791 81.8912 36.0162 91.4819 36.1272 101.073C36.1642 104.462 34.5575 109.117 36.8381 110.908C38.9854 112.602 43.4429 111.263 46.8712 111.5C49.2703 111.662 49.7368 110.663 49.6924 108.51C49.5665 102.479 49.6479 96.4549 49.6479 90.4311Z" fill="#0394FF"/>
<path d="M84.5307 91.1489C84.5307 98.0385 84.4567 104.928 84.5752 111.818C84.6122 114.104 84.1531 115.104 81.5615 114.985C76.6449 114.763 71.7135 114.852 66.7894 114.956C64.8865 114.993 64.2126 114.393 64.22 112.439C64.2867 98.4159 64.3015 84.385 64.2052 70.3616C64.1904 68.0749 65.1826 67.7419 67.0856 67.7789C72.0096 67.8603 76.9337 67.8973 81.8577 67.7641C83.968 67.7049 84.6048 68.3857 84.5678 70.48C84.4567 77.3696 84.5307 84.2592 84.5307 91.1489ZM81.1987 91.1489C81.1987 87.952 81.2283 84.7477 81.1913 81.5507C81.1543 78.2502 82.3316 73.7213 80.6433 71.9526C78.4812 69.6881 73.9052 71.5604 70.4029 71.1756C68.0112 70.9166 67.5595 71.9378 67.5817 74.1061C67.6928 83.09 67.6039 92.0739 67.641 101.058C67.6558 104.358 66.5377 108.828 68.2259 110.656C70.3806 112.994 74.9641 111.085 78.4664 111.477C80.9025 111.751 81.2949 110.634 81.2505 108.495C81.1098 102.723 81.1987 96.9359 81.1987 91.1489Z" fill="#0394FF"/>
<path d="M21.4586 96.3439C21.4586 101.635 21.3772 106.934 21.4956 112.217C21.5401 114.267 20.9625 115.022 18.8078 114.963C13.7653 114.815 8.70798 114.815 3.66549 114.963C1.48114 115.03 0.98504 114.223 0.999849 112.203C1.0813 101.494 1.0887 90.7863 0.992445 80.0781C0.977636 78.1023 1.59962 77.5843 3.49518 77.6287C8.66355 77.7471 13.8393 77.7545 19.0077 77.6287C20.9477 77.5843 21.5401 78.1467 21.4956 80.1003C21.3772 85.5099 21.4586 90.9269 21.4586 96.3439ZM18.1784 96.4253C18.1784 94.7011 18.208 92.9768 18.171 91.2525C18.1118 87.952 19.2965 83.4527 17.6082 81.647C15.4535 79.3381 10.8775 81.2178 7.37516 80.8552C5.10937 80.6184 4.41334 81.462 4.45037 83.7339C4.56884 92.1036 4.56884 100.473 4.45037 108.843C4.42075 111.048 5.25746 111.596 7.24929 111.507C10.0778 111.389 12.9212 111.374 15.7423 111.507C17.6897 111.596 18.2821 110.893 18.2154 108.976C18.0895 104.795 18.1784 100.606 18.1784 96.4253Z" fill="#0394FF"/>
</svg>
