<svg width="115" height="115" viewBox="0 0 115 115" fill="none" xmlns="http://www.w3.org/2000/svg">
<path d="M46.2798 85.3179C45.2374 83.9846 44.8306 83.458 44.4154 82.9315C43.7459 82.0907 42.551 81.3349 43.6611 80.0779C44.9154 78.6597 45.8984 79.7127 46.873 80.5535C46.9832 80.6469 47.0679 80.7574 47.1781 80.8508C53.856 86.6853 53.856 87.4156 47.2289 93.1992C46.195 94.1079 45.1188 95.5602 43.712 93.972C42.4747 92.5877 44.0171 91.7469 44.7544 90.8127C45.1527 90.3032 45.5594 89.7936 46.4154 88.715C40.5594 88.715 35.4069 88.6131 30.2544 88.7575C27.6442 88.8339 26.3391 88.1375 26.3984 85.2585C26.5255 78.7616 26.4323 72.2561 26.4408 65.7592C26.4408 64.4853 26.373 62.8717 28.0255 62.7698C30.0849 62.6424 29.8899 64.4598 29.8984 65.8272C29.9238 71.1946 30.0086 76.5704 29.8645 81.9378C29.7967 84.4262 30.4238 85.5133 33.1442 85.3689C37.1781 85.1566 41.2459 85.3179 46.2798 85.3179Z" fill="url(#paint0_linear_3896_5340)"/>
<path d="M46.2798 85.3179C45.2374 83.9846 44.8306 83.458 44.4154 82.9315C43.7459 82.0907 42.551 81.3349 43.6611 80.0779C44.9154 78.6597 45.8984 79.7127 46.873 80.5535C46.9832 80.6469 47.0679 80.7574 47.1781 80.8508C53.856 86.6853 53.856 87.4156 47.2289 93.1992C46.195 94.1079 45.1188 95.5602 43.712 93.972C42.4747 92.5877 44.0171 91.7469 44.7544 90.8127C45.1527 90.3032 45.5594 89.7936 46.4154 88.715C40.5594 88.715 35.4069 88.6131 30.2544 88.7575C27.6442 88.8339 26.3391 88.1375 26.3984 85.2585C26.5255 78.7616 26.4323 72.2561 26.4408 65.7592C26.4408 64.4853 26.373 62.8717 28.0255 62.7698C30.0849 62.6424 29.8899 64.4598 29.8984 65.8272C29.9238 71.1946 30.0086 76.5704 29.8645 81.9378C29.7967 84.4262 30.4238 85.5133 33.1442 85.3689C37.1781 85.1566 41.2459 85.3179 46.2798 85.3179Z" fill="black" fill-opacity="0.4"/>
<path d="M68.9837 29.886C69.7379 31.007 70.0091 31.4487 70.3227 31.8648C71.1023 32.9179 72.8481 33.8776 71.1193 35.3298C69.4837 36.7056 68.6023 34.9052 67.6701 34.0474C61.1532 28.0855 61.1701 28.0006 67.8227 22.0472C68.865 21.113 69.9498 19.7032 71.3481 21.2149C72.5854 22.5483 71.1108 23.4485 70.3481 24.3912C69.9328 24.9008 69.5515 25.4358 68.7379 26.5144C74.526 26.5144 79.6786 26.6503 84.8226 26.4634C87.7803 26.353 88.8227 27.3891 88.7464 30.3446C88.5938 36.6972 88.704 43.0667 88.6955 49.4193C88.6955 50.8715 88.6786 52.604 86.721 52.4597C85.0769 52.3323 85.2549 50.6677 85.2549 49.4108C85.2464 44.0434 85.1447 38.6675 85.2972 33.3001C85.365 30.8287 84.7803 29.6907 82.043 29.835C77.9582 30.0389 73.865 29.886 68.9837 29.886Z" fill="url(#paint1_linear_3896_5340)"/>
<path d="M68.9837 29.886C69.7379 31.007 70.0091 31.4487 70.3227 31.8648C71.1023 32.9179 72.8481 33.8776 71.1193 35.3298C69.4837 36.7056 68.6023 34.9052 67.6701 34.0474C61.1532 28.0855 61.1701 28.0006 67.8227 22.0472C68.865 21.113 69.9498 19.7032 71.3481 21.2149C72.5854 22.5483 71.1108 23.4485 70.3481 24.3912C69.9328 24.9008 69.5515 25.4358 68.7379 26.5144C74.526 26.5144 79.6786 26.6503 84.8226 26.4634C87.7803 26.353 88.8227 27.3891 88.7464 30.3446C88.5938 36.6972 88.704 43.0667 88.6955 49.4193C88.6955 50.8715 88.6786 52.604 86.721 52.4597C85.0769 52.3323 85.2549 50.6677 85.2549 49.4108C85.2464 44.0434 85.1447 38.6675 85.2972 33.3001C85.365 30.8287 84.7803 29.6907 82.043 29.835C77.9582 30.0389 73.865 29.886 68.9837 29.886Z" fill="black" fill-opacity="0.4"/>
<path d="M114.619 82.8212C114.399 79.4496 112.983 77.9718 109.543 78.3965C108.526 78.5239 107.068 79.008 106.449 77.7765C105.687 76.2478 107.229 75.4495 108.11 74.7531C110.704 72.7148 110.288 70.8295 108.187 68.8082C107.271 67.9249 106.458 66.9398 105.526 66.082C101.356 62.2178 100.941 62.2178 96.5765 65.7083C96.0596 66.116 95.3223 66.719 94.8392 66.6001C93.7969 66.3453 94.1782 65.2412 94.0596 64.4514C93.8308 62.8633 94.8986 60.6212 92.907 59.8654C89.1274 58.4301 85.0426 58.4046 81.2714 59.7295C78.1867 60.8165 80.1697 63.9504 79.568 66.0905C79.5003 66.3198 79.2545 66.4982 79.085 66.7275C78.2375 66.8973 77.8308 66.2349 77.3392 65.7848C73.263 62.031 72.9579 62.014 68.7291 65.7508C67.8816 66.4982 67.1358 67.3559 66.2884 68.1033C63.6613 70.4558 62.6867 72.7488 66.2121 75.2032C66.9664 75.7298 67.924 76.4771 67.4494 77.6406C66.9579 78.8551 65.7121 78.5409 64.8562 78.388C60.3223 77.5982 59.263 80.2904 59.0935 83.9507C59.0172 85.6408 59.0511 87.3393 58.9918 89.0379C58.8986 91.832 59.9918 93.2672 63.0087 93.004C64.2884 92.8936 66.0003 92.35 66.6443 94.2184C67.1697 95.7471 65.9409 96.6304 64.9748 97.3522C62.1443 99.4754 62.263 101.641 64.5681 104.019C65.9409 105.437 67.3053 106.864 68.6528 108.308C70.6528 110.44 72.5596 110.83 74.6274 108.291C75.4664 107.263 76.3647 105.947 78.1358 106.584C79.9579 107.238 79.7206 108.792 79.568 110.134C79.1697 113.65 80.7375 115.111 84.1358 114.983C86.1019 114.907 88.0765 114.881 90.0426 114.949C93.1697 115.051 94.3562 113.565 94.085 110.516C93.9494 109.038 93.6443 107.357 95.6443 106.592C97.4579 105.896 98.3053 107.255 99.1443 108.257C101.195 110.72 103.119 110.49 105.153 108.333C106.509 106.898 107.856 105.454 109.212 104.019C111.466 101.641 111.653 99.4584 108.797 97.3183C107.856 96.6134 106.551 95.8151 107.093 94.2354C107.738 92.3585 109.432 92.8596 110.704 92.9955C113.704 93.3182 114.746 91.8235 114.932 89.1313C115.11 87.0081 114.754 84.9274 114.619 82.8212ZM108.229 89.5389C106.475 89.3096 104.788 89.4285 104.288 91.6621C103.805 93.8532 101.882 96.0529 104.678 98.1421C105.627 98.847 106.754 99.6453 106.949 101.089C106.077 102.898 104.738 104.376 103.144 105.522C101.39 106.779 100.687 104.843 99.7799 103.985C98.4748 102.762 97.3562 101.582 95.4409 102.915C93.5426 104.24 90.1019 104.002 90.6782 107.773C91.0935 110.507 90.2969 111.849 87.1358 111.807C84.1358 111.764 82.5002 111.085 83.0765 107.773C83.6782 104.308 80.6358 104.274 78.746 103.051C76.7036 101.734 75.2799 102.482 74.0342 104.078C72.3986 106.185 70.9833 106.405 69.1528 104.172C67.5596 102.227 65.6782 100.537 68.7969 98.4563C71.7375 96.486 70.2375 94.176 69.6104 91.747C68.9409 89.1653 67.1019 89.3521 65.3053 89.5474C62.763 89.8192 62.0172 88.6642 62.3731 86.3881C62.6867 84.4008 61.6104 81.4114 65.4918 81.9125C68.1528 82.2607 69.8562 81.4624 71.1189 78.7702C72.407 76.0185 70.8392 74.7786 69.2799 73.4452C67.2206 71.6872 68.424 70.4388 69.8223 69.4112C71.2545 68.3496 72.3308 65.3856 74.8562 68.1288C76.3392 69.7424 77.5596 71.4834 80.5341 70.3454C83.585 69.1734 83.0935 67.0162 83.068 64.8506C83.0257 61.479 85.5003 62.5066 87.2714 62.3452C89.2545 62.1669 90.9579 62.2858 90.7291 65.1139C90.568 67.1606 90.3308 69.1139 93.1189 70.252C95.9918 71.424 97.3816 70.0142 98.8562 68.2732C101.212 65.5045 102.458 68.0863 103.932 69.2753C105.432 70.4898 106.712 71.7382 104.432 73.5981C102.966 74.7956 101.466 76.01 102.687 78.5833C103.907 81.1311 105.399 82.3456 108.212 81.904C111.916 81.3265 111.238 84.1291 111.543 86.2607C111.916 88.9529 110.788 89.8702 108.229 89.5389Z" fill="url(#paint2_linear_3896_5340)"/>
<path d="M114.619 82.8212C114.399 79.4496 112.983 77.9718 109.543 78.3965C108.526 78.5239 107.068 79.008 106.449 77.7765C105.687 76.2478 107.229 75.4495 108.11 74.7531C110.704 72.7148 110.288 70.8295 108.187 68.8082C107.271 67.9249 106.458 66.9398 105.526 66.082C101.356 62.2178 100.941 62.2178 96.5765 65.7083C96.0596 66.116 95.3223 66.719 94.8392 66.6001C93.7969 66.3453 94.1782 65.2412 94.0596 64.4514C93.8308 62.8633 94.8986 60.6212 92.907 59.8654C89.1274 58.4301 85.0426 58.4046 81.2714 59.7295C78.1867 60.8165 80.1697 63.9504 79.568 66.0905C79.5003 66.3198 79.2545 66.4982 79.085 66.7275C78.2375 66.8973 77.8308 66.2349 77.3392 65.7848C73.263 62.031 72.9579 62.014 68.7291 65.7508C67.8816 66.4982 67.1358 67.3559 66.2884 68.1033C63.6613 70.4558 62.6867 72.7488 66.2121 75.2032C66.9664 75.7298 67.924 76.4771 67.4494 77.6406C66.9579 78.8551 65.7121 78.5409 64.8562 78.388C60.3223 77.5982 59.263 80.2904 59.0935 83.9507C59.0172 85.6408 59.0511 87.3393 58.9918 89.0379C58.8986 91.832 59.9918 93.2672 63.0087 93.004C64.2884 92.8936 66.0003 92.35 66.6443 94.2184C67.1697 95.7471 65.9409 96.6304 64.9748 97.3522C62.1443 99.4754 62.263 101.641 64.5681 104.019C65.9409 105.437 67.3053 106.864 68.6528 108.308C70.6528 110.44 72.5596 110.83 74.6274 108.291C75.4664 107.263 76.3647 105.947 78.1358 106.584C79.9579 107.238 79.7206 108.792 79.568 110.134C79.1697 113.65 80.7375 115.111 84.1358 114.983C86.1019 114.907 88.0765 114.881 90.0426 114.949C93.1697 115.051 94.3562 113.565 94.085 110.516C93.9494 109.038 93.6443 107.357 95.6443 106.592C97.4579 105.896 98.3053 107.255 99.1443 108.257C101.195 110.72 103.119 110.49 105.153 108.333C106.509 106.898 107.856 105.454 109.212 104.019C111.466 101.641 111.653 99.4584 108.797 97.3183C107.856 96.6134 106.551 95.8151 107.093 94.2354C107.738 92.3585 109.432 92.8596 110.704 92.9955C113.704 93.3182 114.746 91.8235 114.932 89.1313C115.11 87.0081 114.754 84.9274 114.619 82.8212ZM108.229 89.5389C106.475 89.3096 104.788 89.4285 104.288 91.6621C103.805 93.8532 101.882 96.0529 104.678 98.1421C105.627 98.847 106.754 99.6453 106.949 101.089C106.077 102.898 104.738 104.376 103.144 105.522C101.39 106.779 100.687 104.843 99.7799 103.985C98.4748 102.762 97.3562 101.582 95.4409 102.915C93.5426 104.24 90.1019 104.002 90.6782 107.773C91.0935 110.507 90.2969 111.849 87.1358 111.807C84.1358 111.764 82.5002 111.085 83.0765 107.773C83.6782 104.308 80.6358 104.274 78.746 103.051C76.7036 101.734 75.2799 102.482 74.0342 104.078C72.3986 106.185 70.9833 106.405 69.1528 104.172C67.5596 102.227 65.6782 100.537 68.7969 98.4563C71.7375 96.486 70.2375 94.176 69.6104 91.747C68.9409 89.1653 67.1019 89.3521 65.3053 89.5474C62.763 89.8192 62.0172 88.6642 62.3731 86.3881C62.6867 84.4008 61.6104 81.4114 65.4918 81.9125C68.1528 82.2607 69.8562 81.4624 71.1189 78.7702C72.407 76.0185 70.8392 74.7786 69.2799 73.4452C67.2206 71.6872 68.424 70.4388 69.8223 69.4112C71.2545 68.3496 72.3308 65.3856 74.8562 68.1288C76.3392 69.7424 77.5596 71.4834 80.5341 70.3454C83.585 69.1734 83.0935 67.0162 83.068 64.8506C83.0257 61.479 85.5003 62.5066 87.2714 62.3452C89.2545 62.1669 90.9579 62.2858 90.7291 65.1139C90.568 67.1606 90.3308 69.1139 93.1189 70.252C95.9918 71.424 97.3816 70.0142 98.8562 68.2732C101.212 65.5045 102.458 68.0863 103.932 69.2753C105.432 70.4898 106.712 71.7382 104.432 73.5981C102.966 74.7956 101.466 76.01 102.687 78.5833C103.907 81.1311 105.399 82.3456 108.212 81.904C111.916 81.3265 111.238 84.1291 111.543 86.2607C111.916 88.9529 110.788 89.8702 108.229 89.5389Z" fill="black" fill-opacity="0.4"/>
<path d="M28.1188 6.8284e-05C12.8053 0.0340392 -0.0591177 12.9175 0.00020435 28.1789C0.0595264 43.4489 12.9748 56.3323 28.1866 56.2983C43.6019 56.2559 56.1443 43.6102 56.1273 28.111C56.1189 12.6118 43.5256 -0.0339026 28.1188 6.8284e-05ZM52.2799 33.0283C51.6697 36.0942 50.5087 38.9732 48.7714 41.5889C47.8053 43.0412 46.9578 44.6293 44.907 42.7779C44.1866 42.124 43.2714 42.4382 42.6612 43.1431C42.1273 43.7631 42.229 44.5614 42.7714 45.054C44.6443 46.7695 43.3138 47.6188 41.9578 48.553C39.729 50.0817 37.3307 51.3641 34.7036 51.9076C32.7714 52.3068 30.2205 54.2601 29.39 49.9967C29.0172 48.0774 26.8731 48.8332 26.6273 50.5997C26.2883 53.0117 25.1443 52.672 23.4494 52.3407C20.3477 51.7378 17.5002 50.5997 14.89 48.8757C13.4155 47.899 11.39 47.0498 13.6951 44.8586C14.2544 44.3236 14.1443 43.5338 13.4917 43.0072C12.7544 42.4042 11.8731 42.3108 11.1697 42.9393C9.25444 44.6548 8.49173 43.0752 7.65275 41.7673C6.27139 39.6186 5.1358 37.3511 4.55105 34.8457C4.04258 32.6716 2.47478 30.404 6.41546 29.3764C8.27139 28.8923 7.83919 26.8795 5.85614 26.6927C3.29681 26.4464 3.72054 24.9772 4.02563 23.4485C4.6358 20.3826 5.75444 17.4951 7.44936 14.8454C8.44936 13.2742 9.30529 11.4568 11.4917 13.5799C12.0426 14.115 12.8222 13.9281 13.407 13.4101C14.1612 12.7307 14.2799 11.8984 13.5511 11.202C11.7799 9.51192 12.8985 8.68813 14.3646 7.72845C17.4833 5.69019 20.8307 4.29739 24.6697 3.71988C25.7968 3.43962 26.3307 4.03411 26.4663 5.24857C26.5849 6.28469 26.9663 7.26984 28.2205 7.23587C29.1866 7.21039 29.729 6.5055 29.7883 5.55431C29.9239 3.3547 31.3138 3.62646 32.7968 3.91522C35.6019 4.45875 38.2375 5.43541 40.6443 6.95561C42.3561 8.03419 45.229 8.76456 42.5256 11.72C41.9748 12.323 42.4578 13.0704 43.0256 13.563C43.6443 14.098 44.407 14.0895 44.9409 13.546C46.9409 11.4907 47.7968 13.2402 48.7375 14.6415C50.5002 17.2488 51.6612 20.1278 52.2629 23.1937C52.568 24.7564 53.2121 26.7352 50.3222 26.6672C49.5765 26.6502 48.9917 27.2193 48.9663 28.0176C48.9324 29.0282 49.6358 29.6652 50.5172 29.7161C53.0511 29.8435 52.5765 31.559 52.2799 33.0283Z" fill="url(#paint3_linear_3896_5340)"/>
<path d="M28.1188 6.8284e-05C12.8053 0.0340392 -0.0591177 12.9175 0.00020435 28.1789C0.0595264 43.4489 12.9748 56.3323 28.1866 56.2983C43.6019 56.2559 56.1443 43.6102 56.1273 28.111C56.1189 12.6118 43.5256 -0.0339026 28.1188 6.8284e-05ZM52.2799 33.0283C51.6697 36.0942 50.5087 38.9732 48.7714 41.5889C47.8053 43.0412 46.9578 44.6293 44.907 42.7779C44.1866 42.124 43.2714 42.4382 42.6612 43.1431C42.1273 43.7631 42.229 44.5614 42.7714 45.054C44.6443 46.7695 43.3138 47.6188 41.9578 48.553C39.729 50.0817 37.3307 51.3641 34.7036 51.9076C32.7714 52.3068 30.2205 54.2601 29.39 49.9967C29.0172 48.0774 26.8731 48.8332 26.6273 50.5997C26.2883 53.0117 25.1443 52.672 23.4494 52.3407C20.3477 51.7378 17.5002 50.5997 14.89 48.8757C13.4155 47.899 11.39 47.0498 13.6951 44.8586C14.2544 44.3236 14.1443 43.5338 13.4917 43.0072C12.7544 42.4042 11.8731 42.3108 11.1697 42.9393C9.25444 44.6548 8.49173 43.0752 7.65275 41.7673C6.27139 39.6186 5.1358 37.3511 4.55105 34.8457C4.04258 32.6716 2.47478 30.404 6.41546 29.3764C8.27139 28.8923 7.83919 26.8795 5.85614 26.6927C3.29681 26.4464 3.72054 24.9772 4.02563 23.4485C4.6358 20.3826 5.75444 17.4951 7.44936 14.8454C8.44936 13.2742 9.30529 11.4568 11.4917 13.5799C12.0426 14.115 12.8222 13.9281 13.407 13.4101C14.1612 12.7307 14.2799 11.8984 13.5511 11.202C11.7799 9.51192 12.8985 8.68813 14.3646 7.72845C17.4833 5.69019 20.8307 4.29739 24.6697 3.71988C25.7968 3.43962 26.3307 4.03411 26.4663 5.24857C26.5849 6.28469 26.9663 7.26984 28.2205 7.23587C29.1866 7.21039 29.729 6.5055 29.7883 5.55431C29.9239 3.3547 31.3138 3.62646 32.7968 3.91522C35.6019 4.45875 38.2375 5.43541 40.6443 6.95561C42.3561 8.03419 45.229 8.76456 42.5256 11.72C41.9748 12.323 42.4578 13.0704 43.0256 13.563C43.6443 14.098 44.407 14.0895 44.9409 13.546C46.9409 11.4907 47.7968 13.2402 48.7375 14.6415C50.5002 17.2488 51.6612 20.1278 52.2629 23.1937C52.568 24.7564 53.2121 26.7352 50.3222 26.6672C49.5765 26.6502 48.9917 27.2193 48.9663 28.0176C48.9324 29.0282 49.6358 29.6652 50.5172 29.7161C53.0511 29.8435 52.5765 31.559 52.2799 33.0283Z" fill="black" fill-opacity="0.4"/>
<path d="M28.5342 31.058C26.4071 30.8457 24.6529 29.6482 25.3817 27.8478C27.0512 23.6864 26.0681 19.4825 26.4071 15.321C26.5173 13.9367 26.3308 12.1362 28.3732 12.2806C30.0597 12.3995 29.8563 14.0556 29.9071 15.304C29.9495 16.2892 29.9156 17.2828 29.9156 18.268C29.9156 25.7671 29.9156 25.7671 37.3054 26.5059C38.4071 26.6163 39.7885 26.4635 39.8393 28.0346C39.8902 29.5039 38.6698 29.8011 37.4834 29.8776C34.4241 30.0814 31.2461 29.317 28.5342 31.058Z" fill="url(#paint4_linear_3896_5340)"/>
<path d="M28.5342 31.058C26.4071 30.8457 24.6529 29.6482 25.3817 27.8478C27.0512 23.6864 26.0681 19.4825 26.4071 15.321C26.5173 13.9367 26.3308 12.1362 28.3732 12.2806C30.0597 12.3995 29.8563 14.0556 29.9071 15.304C29.9495 16.2892 29.9156 17.2828 29.9156 18.268C29.9156 25.7671 29.9156 25.7671 37.3054 26.5059C38.4071 26.6163 39.7885 26.4635 39.8393 28.0346C39.8902 29.5039 38.6698 29.8011 37.4834 29.8776C34.4241 30.0814 31.2461 29.317 28.5342 31.058Z" fill="black" fill-opacity="0.4"/>
<path d="M86.7713 74.4474C80.1612 74.5662 74.4239 80.4602 74.4493 87.11C74.4663 93.7938 80.1527 99.5094 86.8561 99.5688C93.6357 99.6368 99.1866 94.108 99.2459 87.2289C99.3052 80.1799 93.5849 74.32 86.7713 74.4474ZM86.7205 96.1463C81.9578 96.0189 77.9239 91.8744 77.9154 87.093C77.9069 81.9634 81.9408 78.0483 87.1273 78.1417C92.1103 78.2351 95.89 82.0823 95.8985 87.076C95.89 92.0698 91.6357 96.2737 86.7205 96.1463Z" fill="url(#paint5_linear_3896_5340)"/>
<path d="M86.7713 74.4474C80.1612 74.5662 74.4239 80.4602 74.4493 87.11C74.4663 93.7938 80.1527 99.5094 86.8561 99.5688C93.6357 99.6368 99.1866 94.108 99.2459 87.2289C99.3052 80.1799 93.5849 74.32 86.7713 74.4474ZM86.7205 96.1463C81.9578 96.0189 77.9239 91.8744 77.9154 87.093C77.9069 81.9634 81.9408 78.0483 87.1273 78.1417C92.1103 78.2351 95.89 82.0823 95.8985 87.076C95.89 92.0698 91.6357 96.2737 86.7205 96.1463Z" fill="black" fill-opacity="0.4"/>
<defs>
<linearGradient id="paint0_linear_3896_5340" x1="52.4422" y1="62.0581" x2="21.4595" y2="66.7793" gradientUnits="userSpaceOnUse">
<stop stop-color="#02F79C"/>
<stop offset="0.844309" stop-color="#03AEF6"/>
</linearGradient>
<linearGradient id="paint1_linear_3896_5340" x1="89.0009" y1="19.8444" x2="57.8506" y2="24.6178" gradientUnits="userSpaceOnUse">
<stop stop-color="#02F79C"/>
<stop offset="0.844309" stop-color="#03AEF6"/>
</linearGradient>
<linearGradient id="paint2_linear_3896_5340" x1="115.522" y1="57.5188" x2="49.0513" y2="69.9987" gradientUnits="userSpaceOnUse">
<stop stop-color="#02F79C"/>
<stop offset="0.844309" stop-color="#03AEF6"/>
</linearGradient>
<linearGradient id="paint3_linear_3896_5340" x1="56.6696" y1="-1.24417" x2="-9.95337" y2="11.2785" gradientUnits="userSpaceOnUse">
<stop stop-color="#02F79C"/>
<stop offset="0.844309" stop-color="#03AEF6"/>
</linearGradient>
<linearGradient id="paint4_linear_3896_5340" x1="39.9822" y1="11.8573" x2="22.3858" y2="14.4404" gradientUnits="userSpaceOnUse">
<stop stop-color="#02F79C"/>
<stop offset="0.844309" stop-color="#03AEF6"/>
</linearGradient>
<linearGradient id="paint5_linear_3896_5340" x1="99.486" y1="73.8901" x2="70.0318" y2="79.371" gradientUnits="userSpaceOnUse">
<stop stop-color="#02F79C"/>
<stop offset="0.844309" stop-color="#03AEF6"/>
</linearGradient>
</defs>
</svg>
