<svg width="144" height="96" viewBox="0 0 144 96" fill="none" xmlns="http://www.w3.org/2000/svg">
<path d="M105.685 10.4546C78.6712 -4.12048 51.5471 -1.82233 27.4065 17.1777C3.60864 35.9055 -4.16271 61.1851 2.0463 90.8493C2.91315 94.992 4.74763 96.0403 8.82986 96C29.8055 95.7782 50.7811 95.8992 71.7567 95.8992C89.5471 95.8992 107.327 95.8992 125.118 95.8992C141.749 95.8992 142.152 95.9193 143.039 79.2477C144.652 48.8275 132.557 24.9591 105.685 10.4546ZM131.256 74.3289C131.932 75.9416 133.585 75.5082 134.794 75.3469C138.786 74.8026 139.562 76.3246 138.957 80.1347C137.133 91.7363 137.274 91.7665 125.41 91.7665C107.438 91.7665 89.4665 91.7665 71.4946 91.7665C51.5068 91.7665 31.519 91.6355 11.5413 91.8774C7.46912 91.9278 5.69511 90.6275 5.38264 86.757C5.24153 85.0939 4.91898 83.4307 4.5662 81.7878C3.65904 77.5846 3.88079 74.3793 9.62615 75.3671C11.0373 75.609 12.2872 75.2864 12.2569 73.3108C12.2267 71.4461 11.1683 70.9018 9.65638 71.174C4.10254 72.1517 3.76991 69.279 4.5158 64.8944C5.67495 58.0705 7.4792 51.4986 10.1805 45.1183C11.4102 42.2254 12.6299 41.0259 15.6235 43.2132C16.8129 44.0901 18.5768 46.3681 20.1492 43.5862C21.641 40.9352 19.0304 40.3506 17.5689 39.766C13.9906 38.3448 14.7163 36.6111 16.5105 34.1618C21.0261 28.0132 26.3582 22.7517 32.4463 18.1655C34.9662 16.2705 36.6293 15.8774 38.1917 19.1936C38.8166 20.5241 39.0988 23.3867 41.911 21.8143C44.7031 20.2519 42.4856 18.5686 41.6187 17.3289C39.5927 14.4461 40.4898 13.1156 43.4633 11.8254C50.4484 8.79146 57.6553 6.80578 65.2453 6.01958C68.3094 5.69703 70.1338 6.10021 69.7105 9.82966C69.519 11.4625 68.9142 13.9724 71.9582 13.7909C74.71 13.6297 73.7423 11.2509 73.6113 9.89013C73.2887 6.5034 74.4882 5.60632 77.8246 5.97926C85.3943 6.82594 92.6214 8.7209 99.6267 11.7246C102.772 13.0753 103.931 14.4159 101.572 17.4901C100.715 18.609 98.8707 20.1511 101.199 21.6832C103.88 23.4472 104.435 20.8567 105.049 19.4053C106.572 15.7867 108.315 16.2503 110.996 18.2864C116.933 22.792 122.114 27.9628 126.61 33.8997C128.616 36.5506 129.16 38.3649 125.471 39.8769C124.019 40.4716 121.469 41.0965 123.253 43.7474C124.816 46.0657 126.358 44.1909 127.456 43.3342C130.581 40.9151 131.871 42.2557 133.222 45.2997C136.397 52.436 138.03 59.905 139.129 67.5856C139.572 70.7002 138.463 71.3755 135.691 71.174C134.28 71.0631 132.536 70.4986 131.468 71.9198C131.045 72.4843 130.974 73.6535 131.256 74.3289Z" fill="url(#paint0_linear_3896_5319)"/>
<path d="M105.685 10.4546C78.6712 -4.12048 51.5471 -1.82233 27.4065 17.1777C3.60864 35.9055 -4.16271 61.1851 2.0463 90.8493C2.91315 94.992 4.74763 96.0403 8.82986 96C29.8055 95.7782 50.7811 95.8992 71.7567 95.8992C89.5471 95.8992 107.327 95.8992 125.118 95.8992C141.749 95.8992 142.152 95.9193 143.039 79.2477C144.652 48.8275 132.557 24.9591 105.685 10.4546ZM131.256 74.3289C131.932 75.9416 133.585 75.5082 134.794 75.3469C138.786 74.8026 139.562 76.3246 138.957 80.1347C137.133 91.7363 137.274 91.7665 125.41 91.7665C107.438 91.7665 89.4665 91.7665 71.4946 91.7665C51.5068 91.7665 31.519 91.6355 11.5413 91.8774C7.46912 91.9278 5.69511 90.6275 5.38264 86.757C5.24153 85.0939 4.91898 83.4307 4.5662 81.7878C3.65904 77.5846 3.88079 74.3793 9.62615 75.3671C11.0373 75.609 12.2872 75.2864 12.2569 73.3108C12.2267 71.4461 11.1683 70.9018 9.65638 71.174C4.10254 72.1517 3.76991 69.279 4.5158 64.8944C5.67495 58.0705 7.4792 51.4986 10.1805 45.1183C11.4102 42.2254 12.6299 41.0259 15.6235 43.2132C16.8129 44.0901 18.5768 46.3681 20.1492 43.5862C21.641 40.9352 19.0304 40.3506 17.5689 39.766C13.9906 38.3448 14.7163 36.6111 16.5105 34.1618C21.0261 28.0132 26.3582 22.7517 32.4463 18.1655C34.9662 16.2705 36.6293 15.8774 38.1917 19.1936C38.8166 20.5241 39.0988 23.3867 41.911 21.8143C44.7031 20.2519 42.4856 18.5686 41.6187 17.3289C39.5927 14.4461 40.4898 13.1156 43.4633 11.8254C50.4484 8.79146 57.6553 6.80578 65.2453 6.01958C68.3094 5.69703 70.1338 6.10021 69.7105 9.82966C69.519 11.4625 68.9142 13.9724 71.9582 13.7909C74.71 13.6297 73.7423 11.2509 73.6113 9.89013C73.2887 6.5034 74.4882 5.60632 77.8246 5.97926C85.3943 6.82594 92.6214 8.7209 99.6267 11.7246C102.772 13.0753 103.931 14.4159 101.572 17.4901C100.715 18.609 98.8707 20.1511 101.199 21.6832C103.88 23.4472 104.435 20.8567 105.049 19.4053C106.572 15.7867 108.315 16.2503 110.996 18.2864C116.933 22.792 122.114 27.9628 126.61 33.8997C128.616 36.5506 129.16 38.3649 125.471 39.8769C124.019 40.4716 121.469 41.0965 123.253 43.7474C124.816 46.0657 126.358 44.1909 127.456 43.3342C130.581 40.9151 131.871 42.2557 133.222 45.2997C136.397 52.436 138.03 59.905 139.129 67.5856C139.572 70.7002 138.463 71.3755 135.691 71.174C134.28 71.0631 132.536 70.4986 131.468 71.9198C131.045 72.4843 130.974 73.6535 131.256 74.3289Z" fill="black" fill-opacity="0.4"/>
<path d="M72.2168 63.4428C69.0922 64.4508 67.6609 63.4529 65.8062 61.5478C60.4136 56.0242 54.9808 50.5409 49.3967 45.2089C48.2678 44.1303 47.3001 40.8948 44.8004 43.5961C42.6837 45.8842 45.3749 46.8115 46.4434 47.9203C51.6948 53.3431 57.037 58.6852 62.4497 63.9468C64.5664 66.0131 65.8768 67.646 64.8285 71.194C63.0545 77.2115 67.4996 82.7553 73.5776 83.3298C79.8269 83.9144 84.8163 79.4794 84.8365 73.3006C84.8566 66.6683 78.5468 61.3967 72.2168 63.4428ZM74.646 79.3887C71.0174 79.0157 68.6991 77.1712 68.6386 73.351C68.5781 69.4805 70.9569 67.3839 74.5956 67.3134C78.325 67.2428 80.6736 69.551 80.6736 73.2502C80.6837 76.899 78.4662 79.0561 74.646 79.3887Z" fill="url(#paint1_linear_3896_5319)"/>
<path d="M72.2168 63.4428C69.0922 64.4508 67.6609 63.4529 65.8062 61.5478C60.4136 56.0242 54.9808 50.5409 49.3967 45.2089C48.2678 44.1303 47.3001 40.8948 44.8004 43.5961C42.6837 45.8842 45.3749 46.8115 46.4434 47.9203C51.6948 53.3431 57.037 58.6852 62.4497 63.9468C64.5664 66.0131 65.8768 67.646 64.8285 71.194C63.0545 77.2115 67.4996 82.7553 73.5776 83.3298C79.8269 83.9144 84.8163 79.4794 84.8365 73.3006C84.8566 66.6683 78.5468 61.3967 72.2168 63.4428ZM74.646 79.3887C71.0174 79.0157 68.6991 77.1712 68.6386 73.351C68.5781 69.4805 70.9569 67.3839 74.5956 67.3134C78.325 67.2428 80.6736 69.551 80.6736 73.2502C80.6837 76.899 78.4662 79.0561 74.646 79.3887Z" fill="black" fill-opacity="0.4"/>
<defs>
<linearGradient id="paint0_linear_3896_5319" x1="144.565" y1="-1.10123" x2="-18.2501" y2="45.1622" gradientUnits="userSpaceOnUse">
<stop stop-color="#02F79C"/>
<stop offset="0.844309" stop-color="#03AEF6"/>
</linearGradient>
<linearGradient id="paint1_linear_3896_5319" x1="85.231" y1="41.6432" x2="36.7802" y2="50.7756" gradientUnits="userSpaceOnUse">
<stop stop-color="#02F79C"/>
<stop offset="0.844309" stop-color="#03AEF6"/>
</linearGradient>
</defs>
</svg>
