<?xml version="1.0" encoding="UTF-8"?>
<svg width="80px" height="80px" viewBox="0 0 80 80" version="1.1" xmlns="http://www.w3.org/2000/svg" xmlns:xlink="http://www.w3.org/1999/xlink">
    <title>Combined Shape</title>
    <g id="arrow" stroke="none" stroke-width="1" fill="none" fill-rule="evenodd">
        <g id="single-line-detail-SUNGROW-Copy" transform="translate(-804.000000, -300.000000)" fill="#00BCD4">
            <path d="M873.610848,300 C879.352221,300 884,304.65748 884,310.390034 L884,310.390034 L884,369.602028 C884,375.343402 879.352221,380 873.610848,380 L873.610848,380 L814.397972,380 C808.656598,380 804,375.343402 804,369.602028 L804,369.602028 L804,310.390034 C804,304.65748 808.656598,300 814.397972,300 L814.397972,300 Z M878.5145,309.9059 L813.976877,374.432952 C814.567577,374.608175 815.194046,374.702238 815.841693,374.702238 L815.841693,374.702238 L872.244736,374.702238 C875.848308,374.702238 878.779848,371.770698 878.779848,368.158307 L878.779848,368.158307 L878.779848,311.756146 C878.779848,311.112133 878.686566,310.491508 878.5145,309.9059 Z M872.244736,305.220152 L815.841693,305.220152 C812.238121,305.220152 809.297762,308.151692 809.297762,311.756146 L809.297762,311.756146 L809.297762,368.158307 C809.297762,368.807481 809.392545,369.432614 809.570201,370.022259 L874.094438,305.485532 C873.508744,305.313446 872.888299,305.220152 872.244736,305.220152 L872.244736,305.220152 Z M860.907066,359.787366 C861.221034,360.764546 861.670819,366.732576 865.757689,365.623107 C866.444714,365.436137 868.317054,364.936082 868.945871,361.51948 C869.12314,360.553765 869.709624,359.037725 871.955021,360.161305 C872.557404,360.463355 873.450334,361.475073 872.256907,364.677352 L872.152574,364.949311 C871.923272,365.531386 870.562452,370.272649 864.096131,369.757601 C862.379892,369.621784 859.111454,369.095271 857.628927,363.805446 C857.31055,362.667754 857.538088,358.750215 853.811046,358.375394 C852.601036,358.253688 849.454305,359.210583 849.231176,363.203969 C849.170323,364.26846 848.82637,366.762562 844.560467,369.14995 C843.80377,369.572396 838.946092,370.225907 835.892845,367.511322 C834.901554,366.630272 834.725168,362.269121 838.632124,363.767523 C838.632124,363.767523 841.563664,366.698181 844.380553,363.988006 C844.65307,363.72519 845.209569,362.367898 845.258075,361.905766 C845.470621,359.840282 845.68052,355.630824 851.295778,353.373961 C852.385845,352.935641 858.391798,351.969926 860.907066,359.787366 Z M842.681777,319.615566 C843.918245,319.615566 844.921001,320.61744 844.921001,321.853908 L844.921001,323.434329 C844.921001,324.670797 843.918245,325.672671 842.681777,325.672671 L818.155264,325.672671 C816.918796,325.672671 815.91604,324.670797 815.91604,323.434329 L815.91604,321.853908 C815.91604,320.61744 816.918796,319.615566 818.155264,319.615566 L842.681777,319.615566 Z M842.681777,310.818653 C843.918245,310.818653 844.921001,311.821409 844.921001,313.057877 L844.921001,314.637416 C844.921001,315.874766 843.918245,316.87664 842.681777,316.87664 L818.155264,316.87664 C816.918796,316.87664 815.91604,315.874766 815.91604,314.637416 L815.91604,313.057877 C815.91604,311.821409 816.918796,310.818653 818.155264,310.818653 L842.681777,310.818653 Z" id="Combined-Shape"></path>
        </g>
    </g>
</svg>