<?xml version="1.0" encoding="UTF-8"?>
<svg width="42px" height="40px" viewBox="0 0 82 80" version="1.1" xmlns="http://www.w3.org/2000/svg" xmlns:xlink="http://www.w3.org/1999/xlink">
    <title>Group 9</title>
    <g id="arrow" stroke="none" stroke-width="1" fill="none" fill-rule="evenodd">
        <g id="single-line-detail-SUNGROW-Copy" transform="translate(-427.000000, -480.000000)">
            <g id="Group-9" transform="translate(427.000000, 480.000000)">
                <path d="M61.8205583,-7.10542736e-15 C63.5895048,-7.10542736e-15 65.0236098,1.42424923 65.0236098,3.18103874 L65.0236098,3.18103874 L65.0236098,4.92561835 L69.1877938,4.92561835 C76.2527318,4.92561835 82,10.6341069 82,17.6497733 L82,17.6497733 L82,21.4168874 C82,23.1736769 80.5666182,24.5986443 78.7976716,24.5986443 C77.0280019,24.5986443 76.3178198,23.1736769 76.3178198,21.4168874 L76.3178198,21.4168874 L76.3178198,17.6497733 C76.3178198,14.1419401 72.7199012,10.5694663 69.1877938,10.5694663 L69.1877938,10.5694663 L65.0236098,10.5694663 L65.0236098,12.3140459 C65.0236098,14.0708354 63.5895048,15.4950846 61.8205583,15.4950846 C60.0516118,15.4950846 58.6175067,14.0708354 58.6175067,12.3140459 L58.6175067,12.3140459 L58.6175067,10.5694663 L44.0428628,10.5694663 L44.0428628,12.3140459 C44.0428628,14.0708354 42.609481,15.4950846 40.8398113,15.4950846 C39.0708648,15.4950846 37.6367597,14.0708354 37.6367597,12.3140459 L37.6367597,12.3140459 L37.6367597,10.5694663 L23.2226661,10.5694663 L23.2226661,12.3140459 C23.2226661,14.0708354 21.7885611,15.4950846 20.0196146,15.4950846 C18.2506681,15.4950846 16.8158398,14.0708354 16.8158398,12.3140459 L16.8158398,12.3140459 L16.8158398,10.5694663 L12.8122062,10.5694663 C9.28009878,10.5694663 5.68290338,14.1419401 5.68290338,17.6497733 L5.68290338,17.6497733 L5.68290338,67.9940746 C5.68290338,71.5019078 8.55689906,74.3561521 12.0890065,74.3561521 L12.0890065,74.3561521 L22.8516647,74.3561521 C24.6206112,74.3561521 26.0547162,75.0621717 26.0547162,76.8189613 C26.0547162,78.5757508 24.6206112,80 22.8516647,80 L22.8516647,80 L12.8122062,80 C5.74726816,80 8.52651283e-14,74.2922297 8.52651283e-14,67.275845 L8.52651283e-14,67.275845 L8.52651283e-14,17.6497733 C8.52651283e-14,10.6341069 5.74726816,4.92561835 12.8122062,4.92561835 L12.8122062,4.92561835 L16.8158398,4.92561835 L16.8158398,3.18103874 C16.8158398,1.42424923 18.2506681,-7.10542736e-15 20.0196146,-7.10542736e-15 C21.7885611,-7.10542736e-15 23.2226661,1.42424923 23.2226661,3.18103874 L23.2226661,3.18103874 L23.2226661,4.92561835 L37.6367597,4.92561835 L37.6367597,3.18103874 C37.6367597,1.42424923 39.0708648,-7.10542736e-15 40.8398113,-7.10542736e-15 C42.609481,-7.10542736e-15 44.0428628,1.42424923 44.0428628,3.18103874 L44.0428628,3.18103874 L44.0428628,4.92561835 L58.6175067,4.92561835 L58.6175067,3.18103874 C58.6175067,1.42424923 60.0516118,-7.10542736e-15 61.8205583,-7.10542736e-15 Z M20.0193976,56.460026 C21.7883441,56.460026 23.2224492,57.8842753 23.2224492,59.6410648 C23.2224492,61.3978543 21.7883441,62.8221035 20.0193976,62.8221035 C18.2504511,62.8221035 16.8163461,61.3978543 16.8163461,59.6410648 C16.8163461,57.8842753 18.2504511,56.460026 20.0193976,56.460026 Z M20.0193976,42.6221843 C21.7883441,42.6221843 23.2224492,44.0464335 23.2224492,45.8032231 C23.2224492,47.5600126 21.7883441,48.9842618 20.0193976,48.9842618 C18.2504511,48.9842618 16.8163461,47.5600126 16.8163461,45.8032231 C16.8163461,44.0464335 18.2504511,42.6221843 20.0193976,42.6221843 Z M20.0193976,28.7839835 C21.7883441,28.7839835 23.2224492,30.2082327 23.2224492,31.9650222 C23.2224492,33.7218117 21.7883441,35.146061 20.0193976,35.146061 C18.2504511,35.146061 16.8163461,33.7218117 16.8163461,31.9650222 C16.8163461,30.2082327 18.2504511,28.7839835 20.0193976,28.7839835 Z" id="Combined-Shape" fill="#CBCBCB"></path>
                <path d="M75.3022305,28.7830498 C79.005013,28.7830498 81.9990598,31.7637025 81.9990598,35.4338555 L81.9990598,35.4338555 L81.9990598,73.3420119 C81.9990598,77.0193473 79.005013,80 75.3022305,80 L75.3022305,80 L37.1317493,80 C33.4289668,80 30.427688,77.0193473 30.427688,73.3420119 L30.427688,73.3420119 L30.427688,35.4338555 C30.427688,31.7637025 33.4289668,28.7830498 37.1317493,28.7830498 L37.1317493,28.7830498 Z M76.372566,37.2007003 L38.8529647,74.4624501 C39.1350126,74.5270907 39.4242925,74.5630022 39.7280363,74.5630022 L39.7280363,74.5630022 L72.6553195,74.5630022 C74.7598307,74.5630022 76.473814,72.8607981 76.473814,70.7635678 L76.473814,70.7635678 L76.473814,38.0625758 C76.473814,37.7681016 76.437654,37.4736275 76.372566,37.2007003 L76.372566,37.2007003 Z M72.6553195,34.2703237 L39.7280363,34.2703237 C37.6235252,34.2703237 35.9095418,35.9725277 35.9095418,38.0625758 L35.9095418,38.0625758 L35.9095418,70.7635678 C35.9095418,71.0652242 35.9457018,71.3596983 36.0107898,71.6398079 L36.0107898,71.6398079 L73.5231591,34.3708758 C73.2411113,34.3062351 72.9518314,34.2703237 72.6553195,34.2703237 L72.6553195,34.2703237 Z M66.3268157,64.2959106 C66.5083388,64.9222068 66.7679675,68.7424698 69.1292146,68.0321408 C69.5262513,67.9129147 70.6074348,67.5925843 70.9712043,65.404857 C71.0738987,64.7871796 71.4123561,63.8168515 72.7097764,64.5357993 C73.0670371,64.7340306 73.6022049,65.4127576 72.8233188,67.601203 C72.6909732,67.9739642 71.9048551,71.0092023 68.1688054,70.6795349 C67.1780218,70.5919109 65.2890241,70.2557795 64.4327557,66.8686089 C64.2490629,66.1403241 64.3814085,63.6322665 62.2277197,63.3923778 C61.5283856,63.3140908 59.7117079,63.9267406 59.5815319,66.4836378 C59.5468184,67.1652377 59.3479384,68.7611438 56.8832738,70.2902545 C56.4464612,70.5610271 53.6404463,70.9790367 51.8765622,69.2409211 C51.303788,68.6771109 51.2018168,65.8853526 53.4589231,66.8441891 C53.4589231,66.8441891 55.1526569,68.7209229 56.779133,66.9856803 C56.9375138,66.8168964 57.2586145,65.9478386 57.286096,65.6526462 C57.40904,64.3303856 57.5305375,61.6355883 60.7748115,60.1905104 C61.4039952,59.9096826 64.8746307,59.291287 66.3268157,64.2959106 Z M54.9066967,43.1842708 C55.6725652,43.1842708 56.2930705,43.8005117 56.2930705,44.5611168 L56.2930705,45.6851461 C56.2930705,46.4457512 55.6725652,47.0619922 54.9066967,47.0619922 L40.4253455,47.0619922 C39.659477,47.0619922 39.0389716,46.4457512 39.0389716,45.6851461 L39.0389716,44.5611168 C39.0389716,43.8005117 39.659477,43.1842708 40.4253455,43.1842708 L54.9066967,43.1842708 Z M54.9066967,37.5531355 C55.6725652,37.5531355 56.2930705,38.1686583 56.2930705,38.9299816 L56.2930705,40.0540109 C56.2930705,40.814616 55.6725652,41.4308569 54.9066967,41.4308569 L40.4253455,41.4308569 C39.659477,41.4308569 39.0389716,40.814616 39.0389716,40.0540109 L39.0389716,38.9299816 C39.0389716,38.1686583 39.659477,37.5531355 40.4253455,37.5531355 L54.9066967,37.5531355 Z" id="Combined-Shape" fill="#00BCD4"></path>
            </g>
        </g>
    </g>
</svg>
