<?xml version="1.0" encoding="UTF-8"?>
<svg width="42px" height="40px" viewBox="0 0 82 80" version="1.1" xmlns="http://www.w3.org/2000/svg" xmlns:xlink="http://www.w3.org/1999/xlink">
    <title>Group 8</title>
    <g id="arrow" stroke="none" stroke-width="1" fill="none" fill-rule="evenodd">
        <g id="single-line-detail-SUNGROW-Copy" transform="translate(-803.000000, -480.000000)">
            <g id="Group-8" transform="translate(803.000000, 480.000000)">
                <g id="Group-2" transform="translate(0.000000, 0.000000)">
                    <path d="M69.1877938,4.92561835 L65.0236098,4.92561835 L65.0236098,3.18103874 C65.0236098,1.42424923 63.5895048,7.10542736e-15 61.8205583,7.10542736e-15 C60.0516118,7.10542736e-15 58.6175067,1.42424923 58.6175067,3.18103874 L58.6175067,4.92561835 L44.0428628,4.92561835 L44.0428628,3.18103874 C44.0428628,1.42424923 42.609481,7.10542736e-15 40.8398113,7.10542736e-15 C39.0708648,7.10542736e-15 37.6367597,1.42424923 37.6367597,3.18103874 L37.6367597,4.92561835 L23.2226661,4.92561835 L23.2226661,3.18103874 C23.2226661,1.42424923 21.7885611,7.10542736e-15 20.0196146,7.10542736e-15 C18.2506681,7.10542736e-15 16.8158398,1.42424923 16.8158398,3.18103874 L16.8158398,4.92561835 L12.8122062,4.92561835 C5.74726816,4.92561835 0,10.6341069 0,17.6497733 L0,67.275845 C0,74.2922297 5.74726816,80 12.8122062,80 L22.8516647,80 C24.6206112,80 26.0547162,78.5757508 26.0547162,76.8189613 C26.0547162,75.0621717 24.6206112,74.3561521 22.8516647,74.3561521 L12.0890065,74.3561521 C8.55689906,74.3561521 5.68290338,71.5019078 5.68290338,67.9940746 L5.68290338,17.6497733 C5.68290338,14.1419401 9.28009878,10.5694663 12.8122062,10.5694663 L16.8158398,10.5694663 L16.8158398,12.3140459 C16.8158398,14.0708354 18.2506681,15.4950846 20.0196146,15.4950846 C21.7885611,15.4950846 23.2226661,14.0708354 23.2226661,12.3140459 L23.2226661,10.5694663 L37.6367597,10.5694663 L37.6367597,12.3140459 C37.6367597,14.0708354 39.0708648,15.4950846 40.8398113,15.4950846 C42.609481,15.4950846 44.0428628,14.0708354 44.0428628,12.3140459 L44.0428628,10.5694663 L58.6175067,10.5694663 L58.6175067,12.3140459 C58.6175067,14.0708354 60.0516118,15.4950846 61.8205583,15.4950846 C63.5895048,15.4950846 65.0236098,14.0708354 65.0236098,12.3140459 L65.0236098,10.5694663 L69.1877938,10.5694663 C72.7199012,10.5694663 76.3178198,14.1419401 76.3178198,17.6497733 L76.3178198,21.4168874 C76.3178198,23.1736769 77.0280019,24.5986443 78.7976716,24.5986443 C80.5666182,24.5986443 82,23.1736769 82,21.4168874 L82,17.6497733 C82,10.6341069 76.2527318,4.92561835 69.1877938,4.92561835" id="Fill-9" fill="#CBCBCB"></path>
                    <path d="M20.0193976,28.7839835 C21.7883441,28.7839835 23.2224492,30.2082327 23.2224492,31.9650222 C23.2224492,33.7218117 21.7883441,35.146061 20.0193976,35.146061 C18.2504511,35.146061 16.8163461,33.7218117 16.8163461,31.9650222 C16.8163461,30.2082327 18.2504511,28.7839835 20.0193976,28.7839835" id="Fill-11" fill="#4AC367"></path>
                    <path d="M34.0193976,28.7839835 C35.7883441,28.7839835 37.2224492,30.2082327 37.2224492,31.9650222 C37.2224492,33.7218117 35.7883441,35.146061 34.0193976,35.146061 C32.2504511,35.146061 30.8163461,33.7218117 30.8163461,31.9650222 C30.8163461,30.2082327 32.2504511,28.7839835 34.0193976,28.7839835" id="Fill-11-Copy" fill="#4AC367"></path>
                    <path d="M20.0193976,42.6221843 C21.7883441,42.6221843 23.2224492,44.0464335 23.2224492,45.8032231 C23.2224492,47.5600126 21.7883441,48.9842618 20.0193976,48.9842618 C18.2504511,48.9842618 16.8163461,47.5600126 16.8163461,45.8032231 C16.8163461,44.0464335 18.2504511,42.6221843 20.0193976,42.6221843" id="Fill-13" fill="#4AC367"></path>
                    <path d="M20.0193976,56.460026 C21.7883441,56.460026 23.2224492,57.8842753 23.2224492,59.6410648 C23.2224492,61.3978543 21.7883441,62.8221035 20.0193976,62.8221035 C18.2504511,62.8221035 16.8163461,61.3978543 16.8163461,59.6410648 C16.8163461,57.8842753 18.2504511,56.460026 20.0193976,56.460026" id="Fill-15" fill="#4AC367"></path>
                    <path d="M65.3182579,24 L65.3182579,28.6648801 L60.654096,28.6648801 L60.654096,33.4461128 C64.6488709,33.8454467 68.4705533,35.2761535 71.7449472,37.5974611 L71.7449472,37.5974611 L75.3310513,34.0120752 L78.6284284,37.3108888 L75.2764661,40.6621329 C83.7666197,49.6500173 83.7666197,63.7013974 75.2764661,72.69 C66.4329452,82.0535168 51.6719574,82.4751157 42.3084406,73.6308766 C32.9442056,64.7866374 32.5226068,50.0263679 41.3675641,40.6621329 L41.3675641,40.6621329 L44.8990831,37.5974611 C48.1734769,35.2761535 51.9951593,33.8454467 55.9899342,33.4461128 L55.9899342,33.4461128 L55.9899342,28.6648801 L51.3257723,28.6648801 L51.3257723,24 L65.3182579,24 Z M58.3220151,37.9932038 C48.0176218,37.9932038 39.6639313,46.3468943 39.6639313,56.6512876 C39.6639313,66.9556809 48.0176218,75.3086533 58.3220151,75.3086533 C68.6213808,75.2971617 76.9678891,66.9506534 76.980099,56.6512876 C76.980099,46.3468943 68.6264084,37.9932038 58.3220151,37.9932038 Z M58.6790454,50.863317 C59.8978755,50.863317 60.886155,51.8515965 60.886155,53.0704266 L60.886155,62.4382527 C60.886155,63.6578011 59.8978755,64.6460805 58.6790454,64.6460805 L58.1770052,64.6460805 C56.9581751,64.6460805 55.9698957,63.6578011 55.9698957,62.4382527 L55.9698957,53.0704266 C55.9698957,51.8515965 56.9581751,50.863317 58.1770052,50.863317 L58.6790454,50.863317 Z M59.1251358,45.4252663 C60.0976143,45.4252663 60.8862268,46.2138788 60.8862268,47.1863573 C60.8862268,48.1588358 60.0976143,48.9474483 59.1251358,48.9474483 L57.7310585,48.9474483 C56.7578618,48.9474483 55.9692493,48.1588358 55.9692493,47.1863573 C55.9692493,46.2138788 56.7578618,45.4252663 57.7310585,45.4252663 L59.1251358,45.4252663 Z" id="Combined-Shape" fill="#4AC367"></path>
                </g>
            </g>
        </g>
    </g>
</svg>
