<?xml version="1.0" encoding="UTF-8"?>
<svg width="70px" height="80px" viewBox="0 0 70 80" version="1.1" xmlns="http://www.w3.org/2000/svg" xmlns:xlink="http://www.w3.org/1999/xlink">
    <title>Combined Shape</title>
    <g id="arrow" stroke="none" stroke-width="1" fill="none" fill-rule="evenodd">
        <g id="single-line-detail-SUNGROW-Copy" transform="translate(-1185.000000, -300.000000)" fill="#00BCD4">
            <path d="M1248.22581,300 C1251.78226,300 1254.67742,302.895161 1254.67742,306.451613 L1254.67742,306.451613 L1254.67742,355.483871 C1254.67742,359.040323 1251.78226,361.935484 1248.22581,361.935484 L1248.22581,361.935484 L1244.35484,361.935484 L1244.35484,369.677419 C1244.35484,370.388548 1243.77919,370.967742 1243.06452,370.967742 L1243.06452,370.967742 L1236.6129,370.967742 L1236.6129,378.709677 C1236.6129,379.420806 1236.03726,380 1235.32258,380 L1235.32258,380 L1230.16129,380 C1229.44677,380 1228.87097,379.420806 1228.87097,378.709677 L1228.87097,378.709677 L1228.87097,370.967742 L1223.70968,370.967742 L1223.70968,378.709677 C1223.70968,379.420806 1223.13403,380 1222.41935,380 L1222.41935,380 L1217.25806,380 C1216.54355,380 1215.96774,379.420806 1215.96774,378.709677 L1215.96774,378.709677 L1215.96774,370.967742 L1210.80645,370.967742 L1210.80645,378.709677 C1210.80645,379.420806 1210.23081,380 1209.51613,380 L1209.51613,380 L1204.35484,380 C1203.64032,380 1203.06452,379.420806 1203.06452,378.709677 L1203.06452,378.709677 L1203.06452,370.967742 L1196.6129,370.967742 C1195.89839,370.967742 1195.32258,370.388548 1195.32258,369.677419 L1195.32258,369.677419 L1195.32258,361.935484 L1191.45161,361.935484 C1187.89516,361.935484 1185,359.040323 1185,355.483871 L1185,355.483871 L1185,306.451613 C1185,302.895161 1187.89516,300 1191.45161,300 L1191.45161,300 Z M1244.32258,304.354839 L1195.35484,304.354839 C1192.04113,304.354839 1189.35484,307.04113 1189.35484,310.354839 L1189.35484,310.354839 L1189.35484,350.612903 C1189.35484,353.926612 1192.04113,356.612903 1195.35484,356.612903 L1195.35484,356.612903 L1244.32258,356.612903 C1247.63629,356.612903 1250.32258,353.926612 1250.32258,350.612903 L1250.32258,350.612903 L1250.32258,310.354839 C1250.32258,307.04113 1247.63629,304.354839 1244.32258,304.354839 L1244.32258,304.354839 Z M1221.4741,328.433726 C1222.03216,328.588726 1222.41942,329.096629 1222.41942,329.677435 L1222.41942,336.129048 L1226.29039,336.129048 C1226.7549,336.129048 1227.18394,336.3805 1227.41297,336.783726 C1227.642,337.188565 1227.63539,337.685339 1227.39668,338.083887 L1219.65474,350.987113 C1219.41765,351.382113 1218.99345,351.612919 1218.54845,351.612919 C1218.43394,351.612919 1218.31765,351.596629 1218.20313,351.566145 C1217.64506,351.411306 1217.25813,350.903081 1217.25813,350.322597 L1217.25813,343.870984 L1213.38716,343.870984 C1212.92265,343.870984 1212.49361,343.61921 1212.26458,343.215984 C1212.03555,342.811306 1212.042,342.314371 1212.28055,341.916145 L1220.02248,329.012919 C1220.31926,328.514371 1220.91765,328.278887 1221.4741,328.433726 Z M1234.03232,338.709613 L1234.03232,341.290258 L1231.45168,341.290258 L1231.45168,338.709613 L1234.03232,338.709613 Z M1239.19361,338.709613 L1239.19361,341.290258 L1236.61297,341.290258 L1236.61297,338.709613 L1239.19361,338.709613 Z M1244.3549,338.709613 L1244.3549,341.290258 L1241.77426,341.290258 L1241.77426,338.709613 L1244.3549,338.709613 Z M1197.90329,338.709613 L1197.90329,341.290258 L1195.32265,341.290258 L1195.32265,338.709613 L1197.90329,338.709613 Z M1203.06458,338.709613 L1203.06458,341.290258 L1200.48394,341.290258 L1200.48394,338.709613 L1203.06458,338.709613 Z M1208.22587,338.709613 L1208.22587,341.290258 L1205.64523,341.290258 L1205.64523,338.709613 L1208.22587,338.709613 Z M1202.48387,310.3225 C1202.96617,310.3225 1203.35484,310.883438 1203.35484,311.5725 L1203.35484,324.0725 C1203.35484,324.761563 1202.96617,325.3225 1202.48387,325.3225 L1199,325.3225 C1198.51759,325.3225 1198.12903,324.761563 1198.12903,324.0725 L1198.12903,311.5725 C1198.12903,310.883438 1198.51759,310.3225 1199,310.3225 L1202.48387,310.3225 Z M1212.48387,310.3225 C1212.96617,310.3225 1213.35484,310.883438 1213.35484,311.5725 L1213.35484,324.0725 C1213.35484,324.761563 1212.96617,325.3225 1212.48387,325.3225 L1209,325.3225 C1208.51759,325.3225 1208.12903,324.761563 1208.12903,324.0725 L1208.12903,311.5725 C1208.12903,310.883438 1208.51759,310.3225 1209,310.3225 L1212.48387,310.3225 Z M1232.3871,310.3225 C1232.8694,310.3225 1233.25806,310.883438 1233.25806,311.5725 L1233.25806,324.0725 C1233.25806,324.761563 1232.8694,325.3225 1232.3871,325.3225 L1228.90323,325.3225 C1228.42082,325.3225 1228.03226,324.761563 1228.03226,324.0725 L1228.03226,311.5725 C1228.03226,310.883438 1228.42082,310.3225 1228.90323,310.3225 L1232.3871,310.3225 Z M1242.70968,310.3225 C1243.19198,310.3225 1243.58065,310.883438 1243.58065,311.5725 L1243.58065,324.0725 C1243.58065,324.761563 1243.19198,325.3225 1242.70968,325.3225 L1239.22581,325.3225 C1238.7434,325.3225 1238.35484,324.761563 1238.35484,324.0725 L1238.35484,311.5725 C1238.35484,310.883438 1238.7434,310.3225 1239.22581,310.3225 L1242.70968,310.3225 Z M1222.80645,310.3225 C1223.28875,310.3225 1223.67742,310.883438 1223.67742,311.5725 L1223.67742,324.0725 C1223.67742,324.761563 1223.28875,325.3225 1222.80645,325.3225 L1219.32258,325.3225 C1218.84017,325.3225 1218.45161,324.761563 1218.45161,324.0725 L1218.45161,311.5725 C1218.45161,310.883438 1218.84017,310.3225 1219.32258,310.3225 L1222.80645,310.3225 Z" id="Combined-Shape"></path>
        </g>
    </g>
</svg>