<?xml version="1.0" encoding="UTF-8"?>
<svg width="80px" height="80px" viewBox="0 0 80 80" version="1.1" xmlns="http://www.w3.org/2000/svg" xmlns:xlink="http://www.w3.org/1999/xlink">
    <title>Combined Shape</title>
    <g id="arrow" stroke="none" stroke-width="1" fill="none" fill-rule="evenodd">
        <g id="single-line-detail-SUNGROW-Copy" transform="translate(-428.000000, -300.000000)" fill="#FFC107" fill-rule="nonzero">
            <path d="M499.406203,337.5 C500.48167,337.5 501.419169,338.232031 501.67995,339.275313 L501.67995,339.275313 L507.929941,364.275313 C508.105097,364.975625 507.947753,365.717344 507.503535,366.286094 C507.059317,366.855 506.377912,367.1875 505.656194,367.1875 L505.656194,367.1875 L477.234049,367.1875 L479.215765,375.3125 L483.624977,375.3125 C484.91935,375.3125 485.968723,376.361875 485.968723,377.65625 C485.968723,378.950625 484.91935,380 483.624977,380 L483.624977,380 L452.375023,380 C451.08065,380 450.031277,378.950625 450.031277,377.65625 C450.031277,376.361875 451.08065,375.3125 452.375023,375.3125 L452.375023,375.3125 L456.784079,375.3125 L458.765795,367.1875 L430.343806,367.1875 C429.622088,367.1875 428.940683,366.855 428.496465,366.286094 C428.052247,365.717344 427.894903,364.975469 428.070059,364.275313 L428.070059,364.275313 L434.32005,339.275313 C434.580831,338.232031 435.51833,337.5 436.593797,337.5 L436.593797,337.5 Z M472.409212,367.1875 L463.590944,367.1875 L461.609228,375.3125 L474.390928,375.3125 L472.409212,367.1875 Z M448.079561,354.6875 L435.298799,354.6875 L433.345677,362.5 L447.103,362.5 L448.079561,354.6875 Z M465.656253,354.6875 L452.80346,354.6875 L451.826899,362.5 L465.656253,362.5 L465.656253,354.6875 Z M483.196696,354.6875 L470.343747,354.6875 L470.343747,362.5 L484.173257,362.5 L483.196696,354.6875 Z M500.701201,354.6875 L487.920439,354.6875 L488.897,362.5 L502.654323,362.5 L500.701201,354.6875 Z M481.634198,342.1875 L470.343747,342.1875 L470.343747,350 L482.61076,350 L481.634198,342.1875 Z M465.656253,342.1875 L454.365958,342.1875 L453.38924,350 L465.656253,350 L465.656253,342.1875 Z M449.642059,342.1875 L438.423794,342.1875 L436.470672,350 L448.665498,350 L449.642059,342.1875 Z M497.576206,342.1875 L486.357941,342.1875 L487.334502,350 L499.529328,350 L497.576206,342.1875 Z M468,300 C469.294373,300 470.343747,301.049375 470.343747,302.34375 L470.343747,302.34375 L470.343747,309.543125 C473.119367,309.941875 475.672957,311.037031 477.820298,312.646563 L477.820298,312.646563 L482.915603,307.55125 C483.83107,306.635938 485.31513,306.636094 486.230129,307.55125 C487.14544,308.466563 487.14544,309.950625 486.230129,310.865781 L486.230129,310.865781 L481.134668,315.961094 C482.744353,318.108437 483.839351,320.662031 484.238101,323.4375 L484.238101,323.4375 L491.437465,323.4375 C492.731838,323.4375 493.781212,324.486875 493.781212,325.78125 C493.781212,327.075625 492.731838,328.125 491.437465,328.125 L491.437465,328.125 L484.230288,328.125 C484.07482,329.178906 483.818101,330.224375 483.454821,331.250781 C483.123415,332.186875 482.238104,332.8125 481.245293,332.8125 L481.245293,332.8125 L454.754707,332.8125 C453.76174,332.8125 452.876585,332.186719 452.545179,331.250781 C452.181899,330.224375 451.92518,329.179062 451.769712,328.125 L451.769712,328.125 L444.562535,328.125 C443.268162,328.125 442.218788,327.075625 442.218788,325.78125 C442.218788,324.486875 443.268162,323.4375 444.562535,323.4375 L444.562535,323.4375 L451.762055,323.4375 C452.160805,320.662031 453.255959,318.108438 454.865488,315.961094 L454.865488,315.961094 L449.770027,310.865781 C448.854716,309.950469 448.854716,308.466563 449.770027,307.55125 C450.685338,306.635938 452.169399,306.635938 453.084553,307.55125 L453.084553,307.55125 L458.179858,312.646563 C460.327199,311.036875 462.880789,309.941875 465.656253,309.543125 L465.656253,309.543125 L465.656253,302.34375 C465.656253,301.049375 466.705627,300 468,300 Z M468,314.0625 C461.538291,314.0625 456.281424,319.319531 456.281424,325.78125 C456.281424,326.564219 456.363299,327.347969 456.525642,328.125 L456.525642,328.125 L479.474514,328.125 C479.636858,327.347969 479.718733,326.564219 479.718733,325.78125 C479.718733,319.319531 474.461709,314.0625 468,314.0625 Z" id="Combined-Shape"></path>
        </g>
    </g>
</svg>