<svg width="15" height="12" viewBox="0 0 15 12" fill="none" xmlns="http://www.w3.org/2000/svg">
<path d="M14.8284 10.859C14.792 10.9689 14.7669 11.085 14.7175 11.1889C14.4983 11.6512 14.1352 11.9283 13.6187 11.9438C12.9818 11.9638 12.3449 11.9516 11.708 11.9516C8.62654 11.9525 5.54508 11.9516 2.46362 11.9534C2.19152 11.9534 1.92029 11.956 1.66986 11.827C1.21405 11.5906 0.950622 11.2166 0.948888 10.7031C0.941089 8.36894 0.941956 6.03559 0.948888 3.70139C0.949755 2.99749 1.51215 2.44597 2.22012 2.43558C2.66293 2.42865 3.10574 2.43038 3.54854 2.43644C3.72359 2.43904 3.86137 2.37844 3.98269 2.25549C4.35444 1.87887 4.73225 1.51003 5.10227 1.13254C5.38043 0.849425 5.71232 0.713494 6.1092 0.71436C7.29724 0.717823 8.48615 0.718689 9.6742 0.715225C10.0667 0.71436 10.3943 0.849425 10.6699 1.12821C11.0407 1.50397 11.4194 1.87367 11.7894 2.2503C11.9186 2.3819 12.0641 2.43991 12.2487 2.43644C12.6508 2.42952 13.0529 2.43385 13.455 2.43471C14.1811 2.43558 14.6413 2.80008 14.8102 3.50745C14.8137 3.52043 14.8224 3.53169 14.8284 3.54381C14.8284 5.98191 14.8284 8.42089 14.8284 10.859ZM7.88477 11.1395C9.75045 11.1395 11.617 11.1395 13.4827 11.1395C13.8388 11.1395 14.0148 10.962 14.0148 10.6062C14.0148 8.33084 14.0148 6.05551 14.0148 3.78017C14.0148 3.42866 13.8336 3.24944 13.4784 3.24944C13.0676 3.24857 12.656 3.24251 12.2453 3.2503C11.8319 3.25809 11.4914 3.11177 11.2037 2.81653C10.8414 2.44424 10.468 2.0832 10.104 1.71263C9.97836 1.58536 9.83711 1.52735 9.65773 1.52822C8.47835 1.53168 7.29898 1.53168 6.1196 1.52822C5.93416 1.52735 5.79205 1.58969 5.66293 1.72129C5.29638 2.09532 4.92116 2.46155 4.55288 2.83385C4.27471 3.11524 3.94369 3.25636 3.54508 3.2503C3.12047 3.24337 2.69586 3.24684 2.27125 3.24857C1.94802 3.24944 1.75911 3.43991 1.75911 3.76459C1.75825 6.05378 1.75825 8.3421 1.75825 10.6313C1.75825 10.685 1.76085 10.7404 1.77385 10.7915C1.83277 11.0218 2.00608 11.1395 2.28598 11.1395C4.15253 11.1395 6.01908 11.1395 7.88477 11.1395Z" fill="white"/>
<path d="M10.9055 6.764C10.9029 8.43587 9.54852 9.78133 7.87348 9.777C6.21663 9.77268 4.86741 8.41942 4.86914 6.764C4.87001 5.093 6.22616 3.73802 7.89427 3.73975C9.55459 3.74148 10.9081 5.10079 10.9055 6.764ZM10.091 6.76227C10.0901 5.54149 9.10658 4.55447 7.88994 4.55274C6.6759 4.55187 5.68457 5.54235 5.6837 6.75794C5.68283 7.98306 6.66984 8.96575 7.89861 8.96315C9.10918 8.96055 10.0918 7.97353 10.091 6.76227Z" fill="white"/>
</svg>
