<svg width="25" height="26" viewBox="0 0 25 26" fill="none" xmlns="http://www.w3.org/2000/svg">
<path d="M21.3432 4.59725C16.4658 -0.274603 8.53384 -0.274603 3.65646 4.59725C-1.21882 9.4691 -1.21882 17.3958 3.65646 22.2677C6.09515 24.7031 9.29774 25.9202 12.5004 25.9202C15.703 25.9202 18.9045 24.703 21.3432 22.2677C26.2196 17.3959 26.2196 9.4691 21.3432 4.59725ZM17.6581 17.1137C18.0655 17.5208 18.0655 18.1788 17.6581 18.5859C17.4548 18.789 17.1881 18.891 16.9212 18.891C16.6545 18.891 16.3876 18.789 16.1844 18.5859L12.5003 14.9042L8.81728 18.5849C8.61303 18.7879 8.3462 18.8899 8.08045 18.8899C7.81367 18.8899 7.54684 18.7879 7.34361 18.5849C6.93614 18.1778 6.93614 17.5187 7.34361 17.1126L11.0267 13.4319L7.34259 9.75125C6.93511 9.34415 6.93511 8.68507 7.34259 8.27899C7.74903 7.87189 8.40873 7.87189 8.81621 8.27899L12.5003 11.9597L16.1844 8.27899C16.5918 7.87189 17.2505 7.87189 17.658 8.27899C18.0655 8.68507 18.0655 9.34415 17.658 9.75125L13.9739 13.4319L17.6581 17.1137Z" fill="#838A9C"/>
</svg>
