<svg width="25" height="25" viewBox="0 0 25 25" fill="none" xmlns="http://www.w3.org/2000/svg">
<path d="M1.25983 25C0.937101 25 0.614377 24.8747 0.36918 24.6227C-0.12306 24.1204 -0.12306 23.306 0.36918 22.8038L22.3477 0.376714C22.8399 -0.125571 23.638 -0.125571 24.1302 0.376714C24.6224 0.878999 24.6224 1.69333 24.1302 2.19593L2.15201 24.6227C1.90497 24.8732 1.58224 25 1.25983 25Z" fill="#C8DAF1"/>
<path d="M23.2399 25C22.9171 25 22.5947 24.8747 22.3492 24.6227L0.36918 2.19593C-0.12306 1.69333 -0.12306 0.878999 0.36918 0.376714C0.861419 -0.125571 1.65946 -0.125571 2.15201 0.376714L24.1302 22.8038C24.6224 23.306 24.6224 24.1204 24.1302 24.6227C23.8832 24.8732 23.5607 25 23.2399 25Z" fill="#C8DAF1"/>
</svg>
