<svg width="75" height="75" viewBox="0 0 75 75" fill="none" xmlns="http://www.w3.org/2000/svg">
<path d="M37.499 72.095C56.6054 72.095 72.0942 56.6062 72.0942 37.4998C72.0942 18.3933 56.6054 2.90454 37.499 2.90454C18.3926 2.90454 2.90381 18.3933 2.90381 37.4998C2.90381 56.6062 18.3926 72.095 37.499 72.095Z" fill="#78A366"/>
<path d="M37.5 75C16.8242 75 0 58.1788 0 37.5C0 16.8242 16.8242 0 37.5 0C58.1788 0 75 16.8242 75 37.5C75 58.1788 58.1788 75 37.5 75ZM37.5 5.80942C20.0251 5.80942 5.80942 20.0251 5.80942 37.5C5.80942 54.9749 20.0251 69.1906 37.5 69.1906C54.9749 69.1906 69.1906 54.9719 69.1906 37.5C69.1906 20.0251 54.9749 5.80942 37.5 5.80942Z" fill="#78A366"/>
<path d="M32.9689 51.2973C32.1905 51.2973 31.4468 50.9864 30.8978 50.4288L20.1793 39.536C19.0552 38.3916 19.0697 36.5558 20.2142 35.4288C21.3587 34.3076 23.1974 34.3191 24.3215 35.4636L32.8847 44.1661L50.6006 24.6551C51.684 23.4671 53.5199 23.3829 54.702 24.4577C55.89 25.5354 55.9772 27.3711 54.8995 28.562L35.1184 50.3473C34.5811 50.9399 33.8258 51.2826 33.027 51.3001C33.0067 51.2973 32.9893 51.2973 32.9689 51.2973Z" fill="white"/>
</svg>
