<svg width="25" height="25" viewBox="0 0 25 25" fill="none" xmlns="http://www.w3.org/2000/svg">
<circle cx="12.5" cy="12.5" r="12.5" fill="#79D414"/>
<path d="M19.5711 7.05057C19.3504 6.82952 18.9924 6.82914 18.7717 7.04963L11.9897 13.8137L9.54274 11.1561C9.33131 10.9266 8.97383 10.9117 8.74393 11.1232C8.51422 11.3346 8.49951 11.6922 8.71094 11.922L11.5564 15.0122C11.6606 15.1255 11.8065 15.1913 11.9603 15.1945C11.9644 15.1946 11.9684 15.1946 11.9723 15.1946C12.1218 15.1946 12.2655 15.1353 12.3714 15.0297L19.5699 7.85011C19.7912 7.62965 19.7915 7.27161 19.5711 7.05057Z" fill="white"/>
<path d="M19.4347 11.9347C19.1224 11.9347 18.8693 12.1877 18.8693 12.5C18.8693 16.0122 16.0122 18.8693 12.5 18.8693C8.98801 18.8693 6.13065 16.0122 6.13065 12.5C6.13065 8.98801 8.98801 6.13065 12.5 6.13065C12.8122 6.13065 13.0653 5.87759 13.0653 5.56534C13.0653 5.25307 12.8122 5 12.5 5C8.36445 5 5 8.36445 5 12.5C5 16.6354 8.36445 20 12.5 20C16.6354 20 20 16.6354 20 12.5C20 12.1878 19.7469 11.9347 19.4347 11.9347Z" fill="white"/>
</svg>
