<svg width="20" height="20" viewBox="0 0 20 20" fill="none" xmlns="http://www.w3.org/2000/svg">
<path d="M18.75 20H16.25C15.5608 20 15 19.4392 15 18.75V1.25C15 0.560833 15.5608 0 16.25 0H18.75C19.4392 0 20 0.560833 20 1.25V18.75C20 19.4392 19.4392 20 18.75 20ZM16.25 0.833333C16.0208 0.833333 15.8333 1.02 15.8333 1.25V18.75C15.8333 18.98 16.0208 19.1667 16.25 19.1667H18.75C18.9792 19.1667 19.1667 18.98 19.1667 18.75V1.25C19.1667 1.02 18.9792 0.833333 18.75 0.833333H16.25Z" fill="white"/>
<path d="M11.25 20H8.75C8.06083 20 7.5 19.4392 7.5 18.75V1.25C7.5 0.560833 8.06083 0 8.75 0H11.25C11.9392 0 12.5 0.560833 12.5 1.25V18.75C12.5 19.4392 11.9392 20 11.25 20ZM8.75 0.833333C8.52083 0.833333 8.33333 1.02 8.33333 1.25V18.75C8.33333 18.98 8.52083 19.1667 8.75 19.1667H11.25C11.4792 19.1667 11.6667 18.98 11.6667 18.75V1.25C11.6667 1.02 11.4792 0.833333 11.25 0.833333H8.75Z" fill="white"/>
<path d="M3.75 20H1.25C0.560833 20 0 19.4392 0 18.75V1.25C0 0.560833 0.560833 0 1.25 0H3.75C4.43917 0 5 0.560833 5 1.25V18.75C5 19.4392 4.43917 20 3.75 20ZM1.25 0.833333C1.02083 0.833333 0.833333 1.02 0.833333 1.25V18.75C0.833333 18.98 1.02083 19.1667 1.25 19.1667H3.75C3.97917 19.1667 4.16667 18.98 4.16667 18.75V1.25C4.16667 1.02 3.97917 0.833333 3.75 0.833333H1.25Z" fill="white"/>
</svg>
