<svg width="25" height="25" viewBox="0 0 25 25" fill="none" xmlns="http://www.w3.org/2000/svg">
<circle cx="12.5" cy="12.5" r="12.5" fill="#718FAB"/>
<path d="M19.0233 7.08769C18.2708 6.33521 17.3737 6.01979 16.4289 6.17524C15.6338 6.30612 14.8129 6.77598 14.0548 7.53407L13.2812 8.38243L14.0889 9.11807L14.836 8.29776C15.4289 7.7074 16.0408 7.34623 16.6063 7.25315C17.2057 7.15462 17.7437 7.35308 18.2508 7.8602C18.758 8.36731 18.9565 8.90525 18.8578 9.5047C18.7643 10.073 18.4001 10.6882 17.8044 11.2838L16.2186 12.8697C15.5035 13.5848 14.7575 13.9473 14.0012 13.9473H13.9193V15.0398H14.0012C15.0577 15.0398 16.0637 14.5695 16.991 13.6421L18.5769 12.0562C19.335 11.2981 19.8049 10.4771 19.9358 9.68212C20.0913 8.73727 19.7758 7.84016 19.0233 7.08769Z" fill="white"/>
<path d="M11.9056 15.8471L11.1557 16.6704C10.5605 17.2631 9.94608 17.6257 9.37823 17.7192C8.77621 17.8183 8.23568 17.6189 7.72633 17.1095C7.21697 16.6001 7.01752 16.0598 7.11663 15.4576C7.21058 14.8869 7.57631 14.2692 8.17427 13.6713L9.76568 12.0799C10.262 11.5836 11.0216 10.9979 11.8427 10.9979C11.8568 10.9979 11.8711 10.998 11.8853 10.9984L12.0628 10.9979V9.90545L11.9038 9.9061C10.938 9.88421 9.93117 10.3695 8.99323 11.3074L7.40181 12.8988C6.64134 13.6593 6.17004 14.4827 6.03877 15.2801C5.88281 16.2276 6.19924 17.1273 6.95387 17.882C7.58324 18.5113 8.31336 18.8359 9.08805 18.8359C9.2423 18.8359 9.3984 18.823 9.5557 18.7971C10.3531 18.6658 11.1766 18.1945 11.937 17.4341L12.7132 16.5828L11.9056 15.8471Z" fill="white"/>
<path d="M12.6922 13.2261C12.6027 13.1271 12.5115 12.9991 12.4134 12.835C12.385 12.7875 12.3568 12.7311 12.3295 12.6674L12.1146 12.1653L11.1104 12.5952L11.3253 13.0973C11.3717 13.2058 11.4223 13.306 11.4756 13.3953C11.6109 13.6216 11.7437 13.8059 11.8817 13.9586L12.248 14.3638L13.0584 13.6313L12.6922 13.2261Z" fill="white"/>
<path d="M9.06734 6.67796L8.2334 7.38354L9.84019 9.28264L10.6741 8.57706L9.06734 6.67796Z" fill="white"/>
<path d="M12.0631 6H10.9707V8.48525H12.0631V6Z" fill="white"/>
<path d="M16.1396 15.7171L15.3057 16.4227L16.9125 18.3218L17.7464 17.6162L16.1396 15.7171Z" fill="white"/>
<path d="M15.0124 16.5148H13.9199V19H15.0124V16.5148Z" fill="white"/>
</svg>
