<svg width="19" height="25" viewBox="0 0 19 25" fill="none" xmlns="http://www.w3.org/2000/svg">
<path d="M19 3.00002H14V2.00001C14 0.895566 13.1045 0 12 0H6.99999C5.8955 0 4.99998 0.895566 4.99998 2.00001V3.00002H0V4.00002H1.03031L2.03127 23C2.03127 24.1045 2.92678 25 4.03128 25H15.0312C16.1357 25 17.0313 24.1045 17.0313 23L18.0147 4.00002H19V3.00002H19ZM5.99999 2.00001C5.99999 1.44827 6.44925 1.00001 6.99999 1.00001H12C12.5517 1.00001 13 1.44827 13 2.00001V3.00002H5.99999V2.00001ZM16.0332 22.9482L16.0312 22.9736V23C16.0312 23.5508 15.5829 24 15.0312 24H4.03123C3.48049 24 3.03122 23.5508 3.03122 23V22.9736L3.03027 22.9473L2.03127 4.00002H17.0137L16.0332 22.9482Z" fill="#486077"/>
<path d="M10 6H9V21.9999H10V6Z" fill="#486077"/>
<path d="M7.02243 21.9677L5.99902 5.99902L5.00098 6.06244L6.02444 22.0311L7.02243 21.9677Z" fill="#486077"/>
<path d="M14.0069 6.03121L13.0088 5.96875L12 21.9687L12.998 22.0312L14.0069 6.03121Z" fill="#486077"/>
</svg>
