<svg width="20" height="25" viewBox="0 0 20 25" fill="none" xmlns="http://www.w3.org/2000/svg">
<path d="M13.4029 8.92175C13.0843 8.92175 12.8262 9.17992 12.8262 9.49845V20.398C12.8262 20.7163 13.0843 20.9747 13.4029 20.9747C13.7214 20.9747 13.9796 20.7163 13.9796 20.398V9.49845C13.9796 9.17992 13.7214 8.92175 13.4029 8.92175Z" fill="#7897B4"/>
<path d="M6.59818 8.92175C6.27965 8.92175 6.02148 9.17992 6.02148 9.49845V20.398C6.02148 20.7163 6.27965 20.9747 6.59818 20.9747C6.91672 20.9747 7.17488 20.7163 7.17488 20.398V9.49845C7.17488 9.17992 6.91672 8.92175 6.59818 8.92175Z" fill="#7897B4"/>
<path d="M1.63791 7.3311V21.5397C1.63791 22.3795 1.94586 23.1682 2.48381 23.734C3.01928 24.3015 3.76448 24.6236 4.54437 24.625H15.4556C16.2358 24.6236 16.9809 24.3015 17.5162 23.734C18.0541 23.1682 18.3621 22.3795 18.3621 21.5397V7.3311C19.4315 7.04725 20.1244 6.01416 19.9813 4.91686C19.8381 3.81979 18.9034 2.99912 17.7969 2.99889H14.8442V2.27802C14.8476 1.67182 14.6079 1.08972 14.1788 0.661474C13.7497 0.233457 13.1666 -0.00488021 12.5604 7.57731e-05H7.43956C6.83335 -0.00488021 6.25035 0.233457 5.82121 0.661474C5.39207 1.08972 5.15238 1.67182 5.15576 2.27802V2.99889H2.20312C1.09658 2.99912 0.161929 3.81979 0.0186564 4.91686C-0.124391 6.01416 0.568545 7.04725 1.63791 7.3311ZM15.4556 23.4716H4.54437C3.55835 23.4716 2.7913 22.6246 2.7913 21.5397V7.38178H17.2087V21.5397C17.2087 22.6246 16.4416 23.4716 15.4556 23.4716ZM6.30915 2.27802C6.30532 1.97774 6.42336 1.68871 6.63647 1.47673C6.84935 1.26475 7.13905 1.14829 7.43956 1.15347H12.5604C12.861 1.14829 13.1507 1.26475 13.3635 1.47673C13.5766 1.68849 13.6947 1.97774 13.6909 2.27802V2.99889H6.30915V2.27802ZM2.20312 4.15229H17.7969C18.3702 4.15229 18.8349 4.61702 18.8349 5.19034C18.8349 5.76366 18.3702 6.22839 17.7969 6.22839H2.20312C1.6298 6.22839 1.16506 5.76366 1.16506 5.19034C1.16506 4.61702 1.6298 4.15229 2.20312 4.15229Z" fill="#7897B4"/>
<path d="M10.0005 8.92175C9.68199 8.92175 9.42383 9.17992 9.42383 9.49845V20.398C9.42383 20.7163 9.68199 20.9747 10.0005 20.9747C10.3191 20.9747 10.5772 20.7163 10.5772 20.398V9.49845C10.5772 9.17992 10.3191 8.92175 10.0005 8.92175Z" fill="#7897B4"/>
</svg>
