<svg width="20" height="20" viewBox="0 0 20 20" fill="none" xmlns="http://www.w3.org/2000/svg">
<g clip-path="url(#clip0_1599:1405)">
<path d="M1.89032 16H1.99844L7.21464 14.8648C7.31624 14.8479 7.41039 14.8009 7.48488 14.7297L16.3226 5.89194C16.9682 5.24773 17.3284 4.37151 17.3226 3.45954C17.3238 2.54049 16.9648 1.65759 16.3226 1.00009C15.6785 0.354488 14.8022 -0.00571525 13.8902 0.000130364C12.9724 -0.00799141 12.0921 0.363696 11.4578 1.02715L2.64705 9.86488C2.56935 9.92742 2.5127 10.0123 2.48487 10.1081L1.34979 15.3243C1.3188 15.5116 1.37901 15.7024 1.51196 15.8379C1.61175 15.9397 1.74775 15.998 1.89032 16ZM13.8902 1.08121C15.1888 1.0811 16.2416 2.13378 16.2417 3.43238C16.2417 3.44144 16.2417 3.45049 16.2416 3.45954C16.2504 4.07819 16.0063 4.67367 15.5659 5.10816L12.2416 1.75681C12.6796 1.3216 13.2728 1.07846 13.8902 1.08121ZM11.4848 2.54064L14.8091 5.86493L7.10647 13.5405L3.78218 10.2432L11.4848 2.54064ZM3.34976 11.3244L6.02539 14L2.59299 14.7568L3.34976 11.3244Z" fill="#048ABF"/>
<path d="M19.0528 19H0.944835C0.646295 19 0.404297 19.242 0.404297 19.5405C0.404297 19.8391 0.646295 20.0811 0.944835 20.0811H19.0528C19.3514 20.0811 19.5934 19.8391 19.5934 19.5405C19.5934 19.242 19.3514 19 19.0528 19Z" fill="#048ABF"/>
</g>
<defs>
<clipPath id="clip0_1599:1405">
<rect width="20" height="20" fill="white"/>
</clipPath>
</defs>
</svg>
