<svg width="25" height="25" viewBox="0 0 25 25" fill="none" xmlns="http://www.w3.org/2000/svg">
<circle cx="12.5" cy="12.5" r="12.5" fill="#FF2222"/>
<path d="M17.8066 7.19406C14.8819 4.26865 10.1217 4.26865 7.19708 7.19406C5.78039 8.61169 5 10.4961 5 12.5002C5 14.5043 5.78039 16.3887 7.19708 17.8058C8.65969 19.2688 10.5808 20 12.5018 20C14.4229 20 16.344 19.2688 17.8065 17.8058C20.7312 14.8804 20.7312 10.12 17.8066 7.19406ZM16.9849 16.9839C14.5129 19.4565 10.4907 19.4565 8.01872 16.9839C6.8217 15.7866 6.16216 14.194 6.16216 12.5002C6.16216 10.8065 6.8217 9.21385 8.01872 8.01592C10.4907 5.5433 14.5129 5.54389 16.9849 8.01592C19.4563 10.4885 19.4563 14.5119 16.9849 16.9839Z" fill="white"/>
<path d="M15.0066 14.1067L13.3615 12.4636L15.0066 10.8204C15.2332 10.5937 15.2332 10.2258 15.0071 9.9985C14.7799 9.77065 14.4121 9.77124 14.1849 9.99791L12.5387 11.6422L10.8925 9.99791C10.6653 9.77124 10.2975 9.77065 10.0703 9.9985C9.84366 10.2258 9.84366 10.5937 10.0709 10.8204L11.7159 12.4636L10.0709 14.1067C9.84366 14.3334 9.84366 14.7013 10.0703 14.9286C10.1836 15.0425 10.3329 15.0989 10.4817 15.0989C10.6305 15.0989 10.7792 15.0419 10.8925 14.9292L12.5387 13.2848L14.1849 14.9292C14.2983 15.0425 14.447 15.0989 14.5958 15.0989C14.7446 15.0989 14.8939 15.0419 15.0072 14.9286C15.2338 14.7013 15.2338 14.3334 15.0066 14.1067Z" fill="white"/>
</svg>
