<svg width="25" height="25" viewBox="0 0 25 25" fill="none" xmlns="http://www.w3.org/2000/svg">
<path d="M23.0741 15.6888C22.7302 15.6888 22.4515 15.969 22.4515 16.3146V21.871C22.4503 22.9074 21.6148 23.7474 20.5836 23.7483H3.11316C2.08193 23.7474 1.24648 22.9074 1.24526 21.871V5.56352C1.24648 4.5273 2.08193 3.68737 3.11316 3.68615H8.64146C8.98536 3.68615 9.26409 3.40601 9.26409 3.06036C9.26409 2.71495 8.98536 2.43457 8.64146 2.43457H3.11316C1.3946 2.43653 0.00194573 3.83624 0 5.56352V21.8712C0.00194573 23.5985 1.3946 24.9982 3.11316 25.0002H20.5836C22.3022 24.9982 23.6948 23.5985 23.6968 21.8712V16.3146C23.6968 15.969 23.418 15.6888 23.0741 15.6888Z" fill="#05A0E2"/>
<path d="M23.4497 0.824832C22.3555 -0.274944 20.5815 -0.274944 19.4873 0.824832L8.37911 11.9893C8.30298 12.0658 8.24801 12.1607 8.21931 12.2648L6.75856 17.5652C6.69849 17.7825 6.75953 18.0152 6.91811 18.1749C7.07693 18.3342 7.30847 18.3956 7.52469 18.3355L12.7983 16.867C12.9019 16.8382 12.9963 16.783 13.0724 16.7064L24.1803 5.54172C25.2729 4.44121 25.2729 2.65967 24.1803 1.55916L23.4497 0.824832ZM9.73576 12.3961L18.8269 3.25857L21.7589 6.2054L12.6675 15.3429L9.73576 12.3961ZM9.1501 13.5773L11.4925 15.9318L8.25239 16.834L9.1501 13.5773ZM23.2999 4.65682L22.6396 5.3205L19.7074 2.37342L20.3679 1.70974C20.9757 1.09886 21.9613 1.09886 22.569 1.70974L23.2999 2.44406C23.9067 3.05567 23.9067 4.04545 23.2999 4.65682Z" fill="#05A0E2"/>
</svg>
