<svg width="30" height="28" viewBox="0 0 30 28" fill="none" xmlns="http://www.w3.org/2000/svg">
<path d="M23.0412 16.5903C22.5324 16.5903 22.1195 17.0032 22.1195 17.512V25.8068H1.84329V5.53055H10.1381C10.6469 5.53055 11.0598 5.11765 11.0598 4.6089C11.0598 4.10015 10.6469 3.68726 10.1381 3.68726H0.921647C0.412898 3.68726 0 4.10015 0 4.6089V26.7284C0 27.2372 0.412898 27.6501 0.921647 27.6501H23.0412C23.5499 27.6501 23.9628 27.2372 23.9628 26.7284V17.512C23.9628 17.0032 23.5499 16.5903 23.0412 16.5903Z" fill="#7897B4"/>
<path d="M29.1773 6.68069L21.8041 0.22916C21.5332 -0.0104687 21.1461 -0.0676108 20.8161 0.0835393C20.488 0.232846 20.2761 0.560953 20.2761 0.922238V3.68718H19.7304C13.8061 3.68718 8.70753 8.10924 7.86884 13.9746L7.38221 17.3829C7.32138 17.8123 7.56838 18.2289 7.97943 18.3782C8.08266 18.4151 8.18957 18.4335 8.29464 18.4335C8.60431 18.4335 8.90477 18.2769 9.07619 18.0004L10.4347 15.8253C12.3001 12.8428 15.5148 11.0604 19.0337 11.0604H20.2761V13.8253C20.2761 14.1866 20.488 14.5147 20.8161 14.664C21.1424 14.8133 21.5313 14.758 21.8041 14.5184L29.1773 8.06685C29.3782 7.89174 29.4925 7.64105 29.4925 7.37377C29.4925 7.10649 29.3782 6.8558 29.1773 6.68069ZM22.1193 11.794V10.1387C22.1193 9.62996 21.7064 9.21706 21.1977 9.21706H19.0337C15.4208 9.21706 12.0789 10.806 9.81904 13.5359C10.8144 8.92582 14.9563 5.53048 19.7304 5.53048H21.1977C21.7064 5.53048 22.1193 5.11758 22.1193 4.60883V2.95355L27.1718 7.37377L22.1193 11.794Z" fill="#7897B4"/>
</svg>
