<svg width="30" height="28" viewBox="0 0 30 28" fill="none" xmlns="http://www.w3.org/2000/svg">
<path d="M29.9133 0.521418C29.7632 0.203063 29.4428 0 29.0908 0H0.90929C0.557355 0 0.237061 0.203063 0.0868545 0.521418C-0.0632304 0.839772 -0.0161924 1.21608 0.207723 1.48763L11.0411 14.6272V26.7431C11.0411 27.0577 11.2037 27.3499 11.4709 27.5157C11.6173 27.6065 11.7835 27.6523 11.9503 27.6523C12.0882 27.6523 12.2265 27.621 12.354 27.5578L18.4409 24.5409C18.7501 24.3877 18.9458 24.0726 18.9463 23.7275L18.9581 14.6276L29.7921 1.48751C30.0162 1.21608 30.0633 0.839651 29.9133 0.521418ZM17.3479 13.7222C17.214 13.8847 17.1405 14.0887 17.1403 14.2994L17.1286 23.1618L12.8597 25.2777V14.3006C12.8597 14.0896 12.7864 13.885 12.652 13.7222L2.83736 1.81835H27.1626L17.3479 13.7222Z" fill="#718FAB"/>
</svg>
