<svg width="19" height="25" viewBox="0 0 19 25" fill="none" xmlns="http://www.w3.org/2000/svg">
<path d="M16.666 24.9997H2.08283C0.933879 24.9997 -0.000488281 24.0654 -0.000488281 22.9164V12.4998C-0.000488281 11.3509 0.933879 10.4165 2.08283 10.4165H16.666C17.815 10.4165 18.7494 11.3509 18.7494 12.4998V22.9164C18.7494 24.0654 17.815 24.9997 16.666 24.9997ZM2.08283 11.4582C1.50783 11.4582 1.04117 11.9259 1.04117 12.4998V22.9164C1.04117 23.4904 1.50783 23.9581 2.08283 23.9581H16.666C17.241 23.9581 17.7077 23.4904 17.7077 22.9164V12.4998C17.7077 11.9259 17.241 11.4582 16.666 11.4582H2.08283Z" fill="#486077"/>
<path d="M15.1036 11.4582C14.8161 11.4582 14.5828 11.2249 14.5828 10.9374V6.24995C14.5828 3.3781 12.2463 1.04166 9.37446 1.04166C6.50261 1.04166 4.16617 3.3781 4.16617 6.24995V10.9374C4.16617 11.2249 3.93284 11.4582 3.64534 11.4582C3.35784 11.4582 3.12451 11.2249 3.12451 10.9374V6.24995C3.12451 2.8031 5.92761 0 9.37446 0C12.8213 0 15.6244 2.8031 15.6244 6.24995V10.9374C15.6244 11.2249 15.3911 11.4582 15.1036 11.4582Z" fill="#486077"/>
</svg>
