<svg width="25" height="25" viewBox="0 0 25 25" fill="none" xmlns="http://www.w3.org/2000/svg">
<path d="M14.6143 18.6035C14.4795 18.3699 14.1809 18.2899 13.9474 18.4248L12.9884 18.9785V17.8711C12.9884 17.6014 12.7697 17.3828 12.5001 17.3828C12.2305 17.3828 12.0118 17.6014 12.0118 17.8711V18.9785L11.0528 18.4248C10.8192 18.29 10.5207 18.3699 10.3858 18.6035C10.251 18.837 10.331 19.1357 10.5645 19.2705L11.5235 19.8242L10.5645 20.3779C10.331 20.5127 10.251 20.8113 10.3858 21.0448C10.4763 21.2015 10.6404 21.289 10.8092 21.289C10.892 21.289 10.9759 21.2679 11.0528 21.2235L12.0118 20.6698V21.7772C12.0118 22.0469 12.2305 22.2655 12.5001 22.2655C12.7697 22.2655 12.9884 22.0469 12.9884 21.7772V20.6698L13.9474 21.2235C14.0243 21.2679 14.1082 21.289 14.191 21.289C14.3598 21.289 14.5239 21.2015 14.6143 21.0448C14.7492 20.8113 14.6692 20.5127 14.4356 20.3779L13.4766 19.8242L14.4356 19.2705C14.6692 19.1357 14.7492 18.837 14.6143 18.6035Z" fill="#486077"/>
<path d="M7.92489 18.6035C7.79008 18.3699 7.49145 18.2899 7.25791 18.4248L6.2989 18.9785V17.8711C6.2989 17.6014 6.08026 17.3828 5.81063 17.3828C5.54101 17.3828 5.32236 17.6014 5.32236 17.8711V18.9785L4.36335 18.4248C4.12976 18.29 3.83128 18.3699 3.69637 18.6035C3.56151 18.837 3.64154 19.1357 3.87508 19.2705L4.83409 19.8242L3.87508 20.3779C3.64154 20.5127 3.56151 20.8113 3.69637 21.0448C3.78685 21.2015 3.95091 21.289 4.1197 21.289C4.20251 21.289 4.2865 21.2679 4.36335 21.2235L5.32236 20.6698V21.7772C5.32236 22.0469 5.54101 22.2655 5.81063 22.2655C6.08026 22.2655 6.2989 22.0469 6.2989 21.7772V20.6698L7.25791 21.2235C7.33482 21.2679 7.41875 21.289 7.50156 21.289C7.67031 21.289 7.83441 21.2015 7.92489 21.0448C8.05975 20.8113 7.97972 20.5127 7.74618 20.3779L6.78717 19.8242L7.74618 19.2705C7.97972 19.1357 8.0597 18.837 7.92489 18.6035Z" fill="#486077"/>
<path d="M17.0753 21.0448C17.1658 21.2015 17.3298 21.289 17.4986 21.289C17.5814 21.289 17.6654 21.2679 17.7423 21.2235L18.7013 20.6698V21.7772C18.7013 22.0469 18.9199 22.2655 19.1895 22.2655C19.4592 22.2655 19.6778 22.0469 19.6778 21.7772V20.6698L20.6368 21.2235C20.7137 21.2679 20.7977 21.289 20.8805 21.289C21.0492 21.289 21.2133 21.2015 21.3038 21.0448C21.4387 20.8113 21.3586 20.5127 21.1251 20.3779L20.1661 19.8242L21.1251 19.2705C21.3586 19.1357 21.4387 18.837 21.3038 18.6035C21.169 18.3699 20.8704 18.2899 20.6368 18.4248L19.6778 18.9785V17.8711C19.6778 17.6014 19.4592 17.3828 19.1895 17.3828C18.9199 17.3828 18.7013 17.6014 18.7013 17.8711V18.9785L17.7423 18.4248C17.5086 18.29 17.2101 18.3699 17.0753 18.6035C16.9404 18.837 17.0204 19.1357 17.254 19.2705L18.213 19.8242L17.254 20.3779C17.0204 20.5127 16.9404 20.8113 17.0753 21.0448Z" fill="#486077"/>
<path d="M22.5581 14.6484H14.7C14.4304 14.6484 14.2117 14.867 14.2117 15.1367C14.2117 15.4064 14.4304 15.625 14.7 15.625H22.5581C23.3658 15.625 24.0229 16.2821 24.0229 17.0898V22.5584C24.0229 23.3661 23.3658 24.0232 22.5581 24.0232H2.44135C1.63365 24.0232 0.976541 23.3661 0.976541 22.5584V17.0898C0.976541 16.2821 1.63365 15.625 2.44135 15.625H10.3056C10.5752 15.625 10.7938 15.4064 10.7938 15.1367C10.7938 14.867 10.5752 14.6484 10.3056 14.6484H2.44135C1.09519 14.6484 0 15.7436 0 17.0898V22.5584C0 23.9046 1.09519 24.9998 2.44135 24.9998H22.5581C23.9042 24.9998 24.9994 23.9046 24.9994 22.5584V17.0898C24.9994 15.7436 23.9042 14.6484 22.5581 14.6484Z" fill="#486077"/>
<path d="M12.4995 10.4011C12.7691 10.4011 12.9878 10.1825 12.9878 9.91282V7.82666C12.9878 7.55698 12.7691 7.33838 12.4995 7.33838C12.2299 7.33838 12.0112 7.55698 12.0112 7.82666V9.91282C12.0112 10.1825 12.2298 10.4011 12.4995 10.4011Z" fill="#486077"/>
<path d="M8.98433 13.4767H16.0154C17.1462 13.4767 18.0662 12.5567 18.0662 11.4259V6.31251C18.0662 5.18172 17.1462 4.26177 16.0154 4.26177H15.9178V3.41789C15.9178 1.53327 14.3845 0 12.4999 0C10.6152 0 9.08198 1.53327 9.08198 3.41789V4.26177H8.98433C7.85354 4.26177 6.93359 5.18172 6.93359 6.31251V11.4259C6.93359 12.5567 7.85354 13.4767 8.98433 13.4767ZM10.0585 3.41789C10.0585 2.07173 11.1537 0.976541 12.4999 0.976541C13.846 0.976541 14.9412 2.07173 14.9412 3.41789V4.26177H10.0585V3.41789ZM7.91013 6.31251C7.91013 5.72018 8.39201 5.23831 8.98433 5.23831H16.0154C16.6077 5.23831 17.0896 5.72018 17.0896 6.31251V11.4259C17.0896 12.0182 16.6077 12.5001 16.0154 12.5001H8.98433C8.39201 12.5001 7.91013 12.0182 7.91013 11.4259V6.31251Z" fill="#486077"/>
<path d="M12.5029 15.6284C12.6313 15.6284 12.7573 15.5762 12.8481 15.4853C12.9394 15.3945 12.9912 15.2686 12.9912 15.1401C12.9912 15.0112 12.9394 14.8857 12.8481 14.7949C12.7573 14.7041 12.6313 14.6519 12.5029 14.6519C12.3745 14.6519 12.2485 14.7041 12.1578 14.7949C12.0669 14.8857 12.0146 15.0112 12.0146 15.1401C12.0146 15.2686 12.0669 15.3945 12.1578 15.4853C12.2486 15.5762 12.3746 15.6284 12.5029 15.6284Z" fill="#486077"/>
</svg>
