<svg width="30" height="30" viewBox="0 0 30 30" fill="none" xmlns="http://www.w3.org/2000/svg">
<path d="M15 0.000244141C6.72867 0.000244141 0 6.72891 0 15.0002C0 23.2716 6.72867 30.0002 15 30.0002C23.2713 30.0002 30 23.2716 30 15.0002C30 6.72891 23.2713 0.000244141 15 0.000244141ZM21.5625 16.2502H16.2499V21.5627C16.2499 22.2528 15.6901 22.8127 15 22.8127C14.3099 22.8127 13.7501 22.2528 13.7501 21.5627V16.2502H8.4375C7.74742 16.2502 7.18758 15.6903 7.18758 15.0002C7.18758 14.3102 7.74742 13.7503 8.4375 13.7503H13.7501V8.43774C13.7501 7.74767 14.3099 7.18782 15 7.18782C15.6901 7.18782 16.2499 7.74767 16.2499 8.43774V13.7503H21.5625C22.2526 13.7503 22.8124 14.3102 22.8124 15.0002C22.8124 15.6903 22.2526 16.2502 21.5625 16.2502Z" fill="#79D414"/>
</svg>
