<svg width="20" height="21" viewBox="0 0 20 21" fill="none" xmlns="http://www.w3.org/2000/svg">
<path d="M19.1662 9.95075H10.8331V1.62535C10.8331 1.16553 10.46 0.792786 9.99977 0.792786C9.53953 0.792786 9.16644 1.16553 9.16644 1.62535V9.9508H0.83333C0.373087 9.95075 0 10.3235 0 10.7833C0 11.2431 0.373087 11.6159 0.83333 11.6159H9.16649V19.9413C9.16649 20.4011 9.53957 20.7739 9.99982 20.7739C10.4601 20.7739 10.8331 20.4011 10.8331 19.9413V11.6159H19.1663C19.6265 11.6159 19.9996 11.2431 19.9996 10.7833C19.9996 10.3235 19.6264 9.95075 19.1662 9.95075Z" fill="white"/>
</svg>
