<svg width="26" height="21" viewBox="0 0 26 21" fill="none" xmlns="http://www.w3.org/2000/svg">
<path d="M24.9981 13.5914C24.7522 13.6579 24.5063 13.7823 24.2595 13.7832C20.8208 13.7965 17.3812 13.7994 13.9426 13.7842C13.5233 13.7823 13.3745 13.8858 13.382 14.332C13.4065 15.9547 13.4027 17.5773 13.3829 19.2C13.3782 19.5997 13.5101 19.7127 13.8926 19.6994C14.6265 19.6738 15.3614 19.6918 16.0962 19.6975C16.3553 19.6994 16.6313 19.7212 16.6313 20.0735C16.6313 20.421 16.3619 20.4552 16.099 20.4552C14.0509 20.4571 12.0037 20.4571 9.95559 20.4552C9.69369 20.4552 9.42425 20.4295 9.42048 20.0782C9.41577 19.725 9.68332 19.6937 9.94711 19.6928C10.8204 19.6899 11.6938 19.6918 12.6019 19.6918C12.6019 17.7245 12.6019 15.7952 12.6019 13.7927C12.4145 13.7927 12.2336 13.7927 12.0518 13.7927C8.64419 13.7927 5.23662 13.7918 1.8281 13.7908C1.68773 13.7908 1.52475 13.8336 1.4117 13.7766C1.25531 13.6978 1.13566 13.544 1 13.4224C1.1366 13.2971 1.2619 13.1566 1.41358 13.054C1.47859 13.0104 1.59635 13.0436 1.68962 13.0436C9.20851 13.0436 16.7274 13.0407 24.2463 13.055C24.4978 13.055 24.7484 13.2202 24.999 13.3075C24.9981 13.4025 24.9981 13.4974 24.9981 13.5914Z" fill="#43A047" stroke="#43A047" stroke-width="0.3"/>
<path d="M12.9439 11.8852C9.52033 11.8852 6.09673 11.8852 2.6722 11.8852C1.89967 11.8852 1.82054 11.7684 2.09563 11.0221C3.31942 7.70566 4.55263 4.39297 5.75946 1.06985C5.92244 0.62075 6.15797 0.473583 6.61866 0.475482C10.9335 0.489724 15.2483 0.488774 19.5631 0.476431C20.004 0.475482 20.2386 0.610306 20.3875 1.04706C21.5312 4.40816 22.6975 7.76167 23.8544 11.119C24.0654 11.7304 23.9552 11.8852 23.3089 11.8852C19.8542 11.8861 16.3986 11.8852 12.9439 11.8852ZM9.28197 11.099C11.7258 11.099 14.1036 11.099 16.5277 11.099C16.3468 9.8391 16.1791 8.62474 15.986 7.41417C15.9709 7.32112 15.773 7.19105 15.66 7.19105C13.8465 7.1768 12.0329 7.1749 10.2194 7.19579C10.1025 7.19674 9.91601 7.38569 9.88398 7.51671C9.76339 8.02088 9.6899 8.53549 9.60606 9.0482C9.49583 9.72422 9.3922 10.4021 9.28197 11.099ZM23.0649 11.1218C22.64 9.89132 22.2283 8.73962 21.8496 7.57748C21.7479 7.2651 21.5962 7.16921 21.2806 7.17301C19.9211 7.18915 18.5607 7.1787 17.2013 7.18155C17.0543 7.18155 16.9083 7.20814 16.7274 7.22523C16.9234 8.56302 17.1099 9.84385 17.2964 11.1218C19.2428 11.1218 21.1148 11.1218 23.0649 11.1218ZM2.85025 11.1399C4.32652 11.1399 5.70011 11.1427 7.07463 11.1389C7.52684 11.138 8.12696 11.2927 8.39075 11.063C8.67244 10.8171 8.65265 10.2046 8.73556 9.747C8.88535 8.91527 9.01253 8.07974 9.16044 7.1844C7.573 7.1844 6.04397 7.1806 4.51494 7.19294C4.42168 7.19389 4.27942 7.30023 4.24456 7.39043C3.78199 8.6067 3.33449 9.82866 2.85025 11.1399ZM15.4452 3.56029C13.8417 3.56029 12.3127 3.55649 10.7837 3.56979C10.6876 3.57074 10.5246 3.70081 10.5076 3.79196C10.3456 4.64838 10.209 5.50954 10.0611 6.3878C12.0169 6.3878 13.9124 6.3878 15.8531 6.3878C15.7156 5.43264 15.5837 4.5183 15.4452 3.56029ZM16.2092 3.56219C16.3534 4.56388 16.4843 5.47631 16.6162 6.39444C18.231 6.39444 19.7986 6.39444 21.4294 6.39444C21.1129 5.47726 20.8152 4.6047 20.5024 3.73689C20.4741 3.65999 20.346 3.57074 20.264 3.56979C18.9404 3.55934 17.6167 3.56219 16.2092 3.56219ZM9.76056 3.55839C8.72237 3.55839 7.75954 3.55934 6.79577 3.55839C5.653 3.55649 5.65206 3.55555 5.25355 4.63604C5.04064 5.21331 4.82961 5.79058 4.59785 6.42293C6.13818 6.42293 7.58619 6.42578 9.03514 6.41533C9.13124 6.41438 9.29893 6.32134 9.31212 6.24823C9.47134 5.37472 9.60794 4.49741 9.76056 3.55839ZM15.3312 2.78838C15.2662 2.32219 15.2247 1.88639 15.1324 1.46198C15.1126 1.37083 14.9091 1.26069 14.7895 1.25974C13.6043 1.24455 12.4192 1.24455 11.2331 1.26069C11.1191 1.26259 10.9297 1.37937 10.9062 1.47527C10.8025 1.89588 10.7479 2.32789 10.6697 2.78743C12.2486 2.78838 13.7692 2.78838 15.3312 2.78838ZM20.1877 2.81591C20.037 2.37251 19.891 1.99747 19.7855 1.61199C19.7101 1.33855 19.5735 1.2398 19.2899 1.2436C18.2772 1.25879 17.2653 1.2474 16.2526 1.25214C16.1376 1.25214 16.0218 1.28538 15.887 1.30626C15.952 1.75251 15.9963 2.15793 16.0783 2.55481C16.099 2.6545 16.2375 2.80357 16.3242 2.80452C17.5819 2.82066 18.8415 2.81591 20.1877 2.81591ZM5.94788 2.79218C7.29603 2.79218 8.58199 2.79218 9.90188 2.79218C9.9829 2.28516 10.0602 1.79809 10.1478 1.25119C8.9626 1.25119 7.84527 1.24645 6.72794 1.25974C6.6309 1.26069 6.48299 1.35469 6.44719 1.44299C6.26914 1.87214 6.12123 2.31365 5.94788 2.79218Z" fill="#43A047" stroke="#43A047" stroke-width="0.3"/>
</svg>
