<svg width="20" height="20" viewBox="0 0 20 20" fill="none" xmlns="http://www.w3.org/2000/svg">
<path d="M14.0698 15.0582L18.8074 19.7958C18.9422 19.9306 19.1219 20 19.3016 20C19.4813 20 19.661 19.9306 19.7958 19.7958C20.0694 19.5222 20.0694 19.077 19.7958 18.8033L15.0582 14.0658C16.3243 12.575 17.088 10.6473 17.088 8.54401C17.088 3.83092 13.253 0 8.54401 0C3.835 0 0 3.83096 0 8.54409C0 13.2572 3.835 17.0881 8.54809 17.0881C10.6514 17.0881 12.5791 16.3243 14.0698 15.0582ZM1.40086 8.54409C1.40086 4.6029 4.6069 1.40094 8.54401 1.40094C12.4811 1.40094 15.6872 4.60698 15.6872 8.54409C15.6872 12.4812 12.4811 15.6872 8.54401 15.6872C4.6069 15.6872 1.40086 12.4811 1.40086 8.54409Z" fill="#8AACCB"/>
</svg>
