<svg width="19" height="25" viewBox="0 0 19 25" fill="none" xmlns="http://www.w3.org/2000/svg">
<path d="M16.6665 24.9995H2.08331C0.934363 24.9995 0 24.0652 0 22.9162V12.4997C0 11.3507 0.934363 10.4164 2.08331 10.4164H16.6665C17.8154 10.4164 18.7498 11.3507 18.7498 12.4997V22.9162C18.7498 24.0652 17.8154 24.9995 16.6665 24.9995ZM2.08331 11.458C1.50831 11.458 1.04165 11.9257 1.04165 12.4997V22.9162C1.04165 23.4902 1.50831 23.9579 2.08331 23.9579H16.6665C17.2414 23.9579 17.7081 23.4902 17.7081 22.9162V12.4997C17.7081 11.9257 17.2414 11.458 16.6665 11.458H2.08331Z" fill="#486077"/>
<path d="M3.64583 11.4582C3.35833 11.4582 3.125 11.2249 3.125 10.9374V6.24992C3.125 2.80309 5.92809 0 9.37492 0C12.8217 0 15.6248 2.80309 15.6248 6.24992V6.77075C15.6248 7.05824 15.3915 7.29157 15.104 7.29157C14.8165 7.29157 14.5832 7.05824 14.5832 6.77075V6.24992C14.5832 3.37808 12.2468 1.04165 9.37492 1.04165C6.50308 1.04165 4.16665 3.37808 4.16665 6.24992V10.9374C4.16665 11.2249 3.93332 11.4582 3.64583 11.4582Z" fill="#486077"/>
</svg>
