<svg width="18" height="18" viewBox="0 0 18 18" fill="none" xmlns="http://www.w3.org/2000/svg">
<path d="M16.6135 11.2961C16.3659 11.2961 16.1652 11.4978 16.1652 11.7467V15.7473C16.1644 16.4935 15.5628 17.0983 14.8203 17.099H2.2415C1.499 17.0983 0.897475 16.4935 0.8966 15.7473V4.0058C0.897475 3.25971 1.499 2.65496 2.2415 2.65408H6.22191C6.46953 2.65408 6.67021 2.45237 6.67021 2.2035C6.67021 1.95481 6.46953 1.75293 6.22191 1.75293H2.2415C1.00412 1.75434 0.00140094 2.76214 0 4.0058V15.7475C0.00140094 16.9911 1.00412 17.9989 2.2415 18.0003H14.8203C16.0577 17.9989 17.0604 16.9911 17.0618 15.7475V11.7467C17.0618 11.4978 16.8612 11.2961 16.6135 11.2961V11.2961Z" fill="#05A0E2"/>
<path d="M16.8842 0.593885C16.0964 -0.197962 14.8191 -0.197962 14.0312 0.593885L6.03326 8.63239C5.97845 8.68748 5.93887 8.75577 5.91821 8.83075L4.86646 12.6471C4.8232 12.8035 4.86716 12.9711 4.98133 13.086C5.09568 13.2008 5.2624 13.245 5.41808 13.2017L9.21514 12.1444C9.28974 12.1236 9.35769 12.0839 9.4125 12.0288L17.4103 3.99008C18.1969 3.19771 18.1969 1.91498 17.4103 1.1226L16.8842 0.593885ZM7.01007 8.92527L13.5558 2.34619L15.6668 4.46793L9.12093 11.047L7.01007 8.92527ZM6.58838 9.77572L8.27494 11.471L5.94203 12.1206L6.58838 9.77572ZM16.7763 3.35294L16.3009 3.8308L14.1897 1.70888L14.6653 1.23102C15.1029 0.791187 15.8125 0.791187 16.2501 1.23102L16.7763 1.75974C17.2133 2.20011 17.2133 2.91275 16.7763 3.35294V3.35294Z" fill="#05A0E2"/>
</svg>
