<svg width="25" height="25" viewBox="0 0 25 25" fill="none" xmlns="http://www.w3.org/2000/svg">
<circle cx="12.5" cy="12.5" r="12.5" fill="#718FAB"/>
<path d="M19.8294 14.7429C19.7094 14.4423 19.3686 14.2959 19.068 14.4159C18.7675 14.5359 18.6211 14.8767 18.7411 15.1772C18.8936 15.5594 18.8436 15.9957 18.6073 16.3444C18.3709 16.6933 17.9923 16.8935 17.5687 16.8935H7.43365C6.97161 16.8935 6.5613 16.6524 6.33604 16.2485C6.11042 15.8439 6.12103 15.3672 6.3644 14.9731L11.4319 6.76842C11.6627 6.39483 12.0624 6.17179 12.5012 6.17179C12.94 6.17179 13.3397 6.39483 13.5704 6.76842L17.3183 12.8365C17.4883 13.1118 17.8494 13.1972 18.1246 13.0271C18.3999 12.8571 18.4853 12.4961 18.3152 12.2208L14.5673 6.15266C14.1215 5.4309 13.3492 5 12.5012 5C11.6532 5 10.8808 5.43093 10.435 6.15266L5.36745 14.3574C4.89765 15.1181 4.8772 16.0384 5.3127 16.8193C5.74784 17.5995 6.54071 18.0652 7.43365 18.0652H17.5687C18.3872 18.0652 19.1193 17.6775 19.5773 17.0017C20.0319 16.3308 20.1261 15.4864 19.8294 14.7429Z" fill="white"/>
<path d="M12.502 15.7511C12.8256 15.7511 13.0879 15.4888 13.0879 15.1652C13.0879 14.8416 12.8256 14.5793 12.502 14.5793H12.5017C12.1782 14.5793 11.916 14.8416 11.916 15.1652C11.916 15.4888 12.1785 15.7511 12.502 15.7511Z" fill="white"/>
<path d="M13.0868 13.1146V8.80829C13.0868 8.48471 12.8245 8.22241 12.5009 8.22241C12.1773 8.22241 11.915 8.48471 11.915 8.80829V13.1146C11.915 13.4381 12.1773 13.7004 12.5009 13.7004C12.8245 13.7004 13.0868 13.4381 13.0868 13.1146Z" fill="white"/>
</svg>
