<svg width="136" height="95" viewBox="0 0 136 95" fill="none" xmlns="http://www.w3.org/2000/svg">
<path d="M118.591 43.3137L115.773 43.402C115.773 48.6192 112.942 51.5872 109.189 51.5872H102.075C99.4848 51.5872 98.7266 50.804 98.7266 48.3917V37.0866H102.189C104.362 37.0866 105.777 39.5373 106.093 41.8488H108.722V29.507H106.093C106.006 32.2352 104.552 34.1425 102.189 34.1425H98.7765V22.2433H107.837C111.489 22.2433 113.473 24.1766 113.322 28.3321L116.127 28.2313L115.773 19.1235H86.709V22.2433H86.9748C90.146 22.2433 90.6902 24.4281 90.6902 27.1696V48.4416C90.6902 50.7147 89.5903 51.5997 87.7081 51.5863H86.7099V54.5928H118.578L118.591 43.3137Z" fill="white"/>
<path d="M122.183 25.465C123.332 25.465 124.312 25.0579 125.122 24.2449C125.932 23.4318 126.336 22.4517 126.336 21.3056C126.336 20.5674 126.146 19.8667 125.766 19.2043C125.386 18.541 124.868 18.0323 124.212 17.678C123.557 17.3229 122.88 17.1462 122.182 17.1462C121.466 17.1462 120.783 17.3257 120.133 17.6857C119.483 18.0457 118.969 18.5525 118.591 19.2062C118.213 19.8599 118.023 20.5597 118.023 21.3056C118.023 22.4517 118.429 23.4309 119.241 24.2449C120.053 25.0579 121.033 25.465 122.183 25.465ZM119.192 19.5509C119.512 18.9989 119.945 18.5746 120.493 18.279C121.04 17.9823 121.603 17.8345 122.184 17.8345C123.135 17.8345 123.95 18.1734 124.63 18.8501C125.308 19.5269 125.649 20.3447 125.649 21.3056C125.649 22.2626 125.311 23.0795 124.635 23.7582C123.96 24.4369 123.143 24.7767 122.184 24.7767C121.226 24.7767 120.408 24.4369 119.73 23.7582C119.052 23.0795 118.714 22.2626 118.714 21.3056C118.713 20.6874 118.873 20.1028 119.192 19.5509Z" fill="white"/>
<path d="M121.081 21.7076H121.505C121.777 21.7076 121.992 21.7738 122.15 21.9063C122.308 22.0388 122.537 22.369 122.839 22.8979L123.235 23.6035H124.116L123.571 22.7328C123.152 22.0609 122.805 21.6865 122.529 21.6087C122.919 21.579 123.229 21.4408 123.46 21.1931C123.692 20.9454 123.808 20.6632 123.808 20.3474C123.808 20.0757 123.722 19.8348 123.549 19.6255C123.376 19.4163 123.169 19.2819 122.926 19.2233C122.684 19.1648 122.34 19.135 121.896 19.135H120.359V23.6025H121.081V21.7076ZM121.081 19.7407H121.899C122.314 19.7407 122.605 19.7916 122.778 19.8924C122.95 19.9932 123.036 20.165 123.036 20.4079C123.036 20.8629 122.675 21.0913 121.954 21.0913H121.08V19.7407H121.081Z" fill="white"/>
<path d="M32.0448 51.5873H30.9708C30.8211 51.5873 30.6992 51.5863 30.5638 51.5729C28.5963 51.4001 27.3188 49.6665 27.3188 47.6967V38.3998C30.2385 37.3765 32.9163 38.9556 34.6602 41.6837L40.7002 51.1467C42.0401 53.2566 43.8848 54.5803 47.916 54.5938H85.5841L85.5726 43.3137L82.7537 43.402C82.7537 48.6192 79.9232 51.5873 76.1704 51.5873H69.1198C66.5926 51.5873 65.771 50.804 65.771 48.3917V37.0866H69.2205C71.4079 37.0866 72.8351 39.5373 73.1375 41.8488H75.7663V29.5071H73.1375C73.0367 32.2352 71.596 34.1425 69.2205 34.1425H65.771V22.2433H74.8325C78.4835 22.2433 80.3023 24.1103 80.3023 28.3321L83.1203 28.2313L82.7537 19.1235H53.6911V22.2433H53.9569C57.1415 22.2433 57.6598 24.4281 57.6598 27.1696V48.4416C57.6598 50.7147 56.5733 51.5767 54.6902 51.5767C53.9166 51.5767 53.1545 51.6353 52.403 51.4759C49.3576 50.6926 47.9928 48.5174 46.0847 44.8419C44.2275 41.3545 41.0362 38.7655 37.2392 37.6674C42.521 37.5282 47.3478 36.5231 47.3478 28.6988C47.3478 20.8744 42.7484 19.1495 33.8905 19.1235H14.4306V22.0043H14.9739C18.0951 22.0043 19.1183 23.52 19.1183 26.1732V47.6976C19.1183 49.6674 17.8408 51.401 15.8732 51.5738C15.7379 51.5863 15.616 51.5882 15.4663 51.5882H14.4297V54.5947H32.0448V51.5873ZM27.3073 22.0417H32.0458C35.429 22.0417 38.2249 24.9109 38.2249 28.6988C38.2249 32.4867 35.429 35.3559 32.0458 35.3559H27.3073V22.0417Z" fill="white"/>
<path d="M123.037 20.4069C123.037 20.164 122.951 19.9932 122.779 19.8914C122.606 19.7906 122.313 19.7397 121.9 19.7397H121.082V21.0894H121.955C122.675 21.0904 123.037 20.8629 123.037 20.4069Z" fill="#023F88"/>
<path d="M38.2243 28.6988C38.2243 24.911 35.4284 22.0417 32.0451 22.0417H27.3066V35.3559H32.0451C35.4284 35.3559 38.2243 32.4867 38.2243 28.6988Z" fill="#023F88"/>
<path d="M0 9.08075V65.2421H135.573V9.08075C90.3858 -3.22358 45.2121 -2.83193 0 9.08075ZM14.9738 22.0033H14.4305V19.1225H33.8904C42.7483 19.1475 47.3476 20.8725 47.3476 28.6978C47.3476 36.5231 42.5208 37.5281 37.2391 37.6664C41.036 38.7655 44.2264 41.3534 46.0845 44.8409C47.9926 48.5164 49.3574 50.6916 52.4029 51.4749C53.1544 51.6342 53.9165 51.5757 54.6901 51.5757C56.5732 51.5757 57.6597 50.7146 57.6597 48.4406V27.1686C57.6597 24.4271 57.1414 22.2423 53.9568 22.2423H53.6909V19.1225H82.7535L83.1201 28.2303L80.3022 28.3311C80.3022 24.1093 78.4824 22.2423 74.8323 22.2423H65.7709V34.1415H69.2204C71.5959 34.1415 73.0365 32.2342 73.1373 29.506H75.7662V41.8469H73.1373C72.835 39.5354 71.4078 37.0847 69.2204 37.0847H65.7709V48.3897C65.7709 50.803 66.5925 51.5853 69.1196 51.5853H76.1703C79.9231 51.5853 82.7535 48.6172 82.7535 43.4L85.5724 43.3117L85.5839 54.5918H47.9158C43.8847 54.5783 42.04 53.2546 40.7001 51.1447L34.6601 41.6817C32.9162 38.9536 30.2374 37.3746 27.3186 38.3978V47.6947C27.3186 49.6645 28.5961 51.3981 30.5637 51.5709C30.699 51.5834 30.8209 51.5853 30.9707 51.5853H32.0447V54.5918H14.4305V51.5853H15.4671C15.6168 51.5853 15.7387 51.5843 15.874 51.5709C17.8416 51.3981 19.1191 49.6645 19.1191 47.6947V26.1713C19.1181 23.519 18.095 22.0033 14.9738 22.0033ZM86.9747 22.2423H86.7088V19.1225H115.772L116.127 28.2303L113.322 28.3311C113.473 24.1756 111.489 22.2423 107.837 22.2423H98.7763V34.1415H102.188C104.551 34.1415 106.005 32.2342 106.093 29.506H108.722V41.8469H106.093C105.777 39.5354 104.361 37.0847 102.188 37.0847H98.7264V48.3897C98.7264 50.803 99.4846 51.5853 102.075 51.5853H109.189C112.942 51.5853 115.772 48.6172 115.772 43.4L118.59 43.3117L118.578 54.5918H86.7088V51.5853H87.707C89.5901 51.5978 90.6891 50.7137 90.6891 48.4406V27.1686C90.69 24.428 90.1458 22.2423 86.9747 22.2423ZM125.122 24.2437C124.313 25.0568 123.333 25.4638 122.183 25.4638C121.033 25.4638 120.053 25.0568 119.242 24.2437C118.43 23.4307 118.024 22.4506 118.024 21.3044C118.024 20.5586 118.213 19.8588 118.591 19.2051C118.969 18.5514 119.484 18.0445 120.134 17.6846C120.783 17.3246 121.467 17.1451 122.183 17.1451C122.881 17.1451 123.557 17.3217 124.213 17.6769C124.868 18.0311 125.387 18.5399 125.767 19.2032C126.147 19.8655 126.337 20.5663 126.337 21.3044C126.336 22.4506 125.931 23.4297 125.122 24.2437Z" fill="#023F88"/>
<path d="M122.183 24.7767C123.141 24.7767 123.958 24.4368 124.634 23.7582C125.31 23.0795 125.647 22.2626 125.647 21.3056C125.647 20.3447 125.308 19.5268 124.628 18.8501C123.949 18.1733 123.133 17.8345 122.183 17.8345C121.603 17.8345 121.038 17.9823 120.491 18.2789C119.944 18.5746 119.51 18.9989 119.191 19.5508C118.871 20.1028 118.712 20.6874 118.712 21.3056C118.712 22.2626 119.051 23.0795 119.728 23.7582C120.406 24.4368 121.224 24.7767 122.183 24.7767ZM120.36 19.1352H121.897C122.341 19.1352 122.685 19.164 122.926 19.2235C123.169 19.282 123.377 19.4164 123.549 19.6257C123.722 19.835 123.808 20.0759 123.808 20.3476C123.808 20.6634 123.692 20.9456 123.461 21.1933C123.23 21.4409 122.92 21.5801 122.53 21.6089C122.805 21.6857 123.153 22.0601 123.571 22.733L124.117 23.6036H123.235L122.839 22.8981C122.538 22.3692 122.308 22.0389 122.151 21.9065C121.992 21.774 121.777 21.7078 121.506 21.7078H121.082V23.6027H120.36V19.1352Z" fill="#023F88"/>
<path d="M0 85.9191V68.6289H135.573V85.9191C90.3858 98.2225 45.2121 97.8308 0 85.9191Z" fill="#F47F20"/>
<path d="M26.675 76.3303H24.3628C24.3513 76.2151 24.3436 76.1306 24.3436 76.0759C24.2899 75.3752 24.1325 74.9365 23.8781 74.7522C23.6199 74.5755 23.0201 74.4824 22.066 74.4824C20.946 74.4824 20.2156 74.5899 19.8691 74.7982C19.5264 75.0056 19.3537 75.4366 19.3537 76.1066C19.3537 76.8918 19.4919 77.3612 19.7731 77.5225C20.0543 77.6761 20.9815 77.7999 22.5507 77.8844C24.4127 77.9919 25.6134 78.254 26.1596 78.685C26.7018 79.1083 26.9754 79.9934 26.9754 81.3401C26.9754 83.0027 26.6558 84.0721 26.0175 84.5568C25.3792 85.0416 23.9664 85.2806 21.7848 85.2806C19.823 85.2806 18.5186 85.0416 17.8756 84.5722C17.2335 84.0951 16.91 83.1333 16.91 81.678L16.9023 81.224H19.2068L19.2145 81.486C19.2145 82.3634 19.3681 82.8943 19.6723 83.0872C19.9766 83.2801 20.8077 83.38 22.1697 83.38C23.2274 83.38 23.905 83.2725 24.1977 83.0411C24.4905 82.8175 24.6364 82.2943 24.6364 81.4784C24.6364 80.8784 24.525 80.4781 24.3014 80.2775C24.0816 80.0778 23.6007 79.954 22.8627 79.9156L21.5545 79.8311C19.5802 79.7159 18.319 79.4462 17.7719 79.0075C17.222 78.5765 16.9484 77.6454 16.9484 76.2218C16.9484 74.7675 17.2795 73.797 17.9408 73.3123C18.6021 72.8275 19.9228 72.5808 21.9038 72.5808C23.7812 72.5808 25.0433 72.8045 25.6979 73.2508C26.3477 73.6972 26.675 74.5669 26.675 75.8522V76.3303Z" fill="white"/>
<path d="M32.3961 76.3303C34.0853 76.3303 35.1929 76.6001 35.717 77.1386C36.2401 77.6771 36.5021 78.8165 36.5021 80.5559C36.5021 82.495 36.2477 83.765 35.7362 84.3659C35.2246 84.9735 34.1429 85.274 32.5007 85.274C30.7117 85.274 29.557 84.9965 29.0301 84.435C28.5032 83.8734 28.2373 82.6418 28.2373 80.7335C28.2373 78.8943 28.4993 77.7011 29.0147 77.1549C29.533 76.6077 30.6608 76.3303 32.3961 76.3303ZM32.3807 77.9852C31.5073 77.9852 30.9535 78.1465 30.7145 78.4546C30.4755 78.7705 30.3604 79.501 30.3604 80.6558C30.3604 81.9718 30.4717 82.7954 30.6953 83.1266C30.9228 83.4578 31.4881 83.619 32.3884 83.619C33.2618 83.619 33.808 83.4424 34.0393 83.0959C34.2667 82.7494 34.3819 81.9181 34.3819 80.5943C34.3819 79.4779 34.2629 78.7628 34.0239 78.4546C33.7888 78.1388 33.2388 77.9852 32.3807 77.9852Z" fill="white"/>
<path d="M40.3413 72.6902V85.174H38.2441V72.6902H40.3413Z" fill="white"/>
<path d="M44.5736 78.9624H42.4342C42.4342 77.9161 42.677 77.2154 43.1656 76.8612C43.6541 76.507 44.6196 76.3303 46.0632 76.3303C47.6372 76.3303 48.6988 76.5453 49.2526 76.984C49.8102 77.415 50.0876 78.2387 50.0876 79.4626V85.1732H47.9943L48.0941 83.9723L48.0365 83.9646C47.6363 84.8343 46.7053 85.273 45.2512 85.273C43.1348 85.273 42.0771 84.3726 42.0771 82.5794C42.0771 80.7633 43.1579 79.8552 45.3241 79.8552C46.7667 79.8552 47.644 80.1863 47.9559 80.8477H47.9943V79.4318C47.9943 78.7465 47.8753 78.2924 47.6363 78.0774C47.3973 77.8537 46.9087 77.7385 46.1745 77.7385C45.1091 77.7395 44.5736 78.1465 44.5736 78.9624ZM45.971 81.2643C44.7895 81.2643 44.2012 81.6723 44.2012 82.4883C44.2012 83.0498 44.3202 83.4271 44.5669 83.6046C44.8097 83.7813 45.3212 83.8667 46.1025 83.8667C47.3762 83.8667 48.0106 83.4357 48.0106 82.5814C48.0096 81.703 47.333 81.2643 45.971 81.2643Z" fill="white"/>
<path d="M52.2265 76.4309H54.3199L54.1932 77.6549L54.2354 77.6702C54.7354 76.7544 55.5244 76.2927 56.5936 76.2927C58.1331 76.2927 58.8981 77.2623 58.8981 79.2023V79.8176H56.9238C56.9468 79.5786 56.9622 79.425 56.9622 79.3482C56.9622 78.417 56.5965 77.9476 55.8738 77.9476C54.8353 77.9476 54.3189 78.6407 54.3189 80.0259V85.1749H52.2256V76.4309H52.2265Z" fill="white"/>
<path d="M66.9235 74.684V77.9083H72.7754V79.6477H66.9235V83.1803H73.1487V85.174H64.5566V72.6902H73.095V74.684H66.9235Z" fill="white"/>
<path d="M74.8506 76.4311H76.9285L76.8441 77.9084L76.8901 77.9161C77.298 76.8621 78.2137 76.3303 79.6332 76.3303C81.6996 76.3303 82.7343 77.2922 82.7343 79.2245V85.1741H80.6372V79.9099V79.5787L80.5949 78.9634C80.4951 78.3174 79.9835 77.9862 79.0554 77.9862C77.6512 77.9862 76.9468 78.6562 76.9468 79.9877V85.1751H74.8496V76.4311H74.8506Z" fill="white"/>
<path d="M90.4106 82.372H92.5154V82.7108C92.5154 84.4195 91.2341 85.2738 88.6753 85.2738C86.9362 85.2738 85.8008 84.981 85.2623 84.3888C84.7277 83.7965 84.458 82.5419 84.458 80.6326C84.458 78.9316 84.7392 77.7845 85.3007 77.1999C85.8622 76.6153 86.9554 76.3225 88.5822 76.3225C90.1409 76.3225 91.1871 76.6076 91.7178 77.1768C92.2486 77.7461 92.5145 78.8702 92.5145 80.5404V81.1788H86.5964C86.5849 81.3708 86.5811 81.5023 86.5811 81.5637C86.5811 82.418 86.7116 82.995 86.9775 83.2801C87.2433 83.5651 87.7702 83.7111 88.563 83.7111C89.3328 83.7111 89.8328 83.6266 90.0632 83.4567C90.2954 83.2877 90.4106 82.9335 90.4106 82.372ZM90.4298 79.9011L90.4183 79.5469C90.4183 78.8538 90.2993 78.3998 90.0603 78.2001C89.8175 77.9928 89.2944 77.8843 88.4901 77.8843C87.7088 77.8843 87.2011 78.0072 86.9707 78.2616C86.7356 78.5083 86.6166 79.0545 86.6166 79.9011H90.4298Z" fill="white"/>
<path d="M94.3154 76.4309H96.4087L96.282 77.6549L96.3243 77.6702C96.8243 76.7544 97.6133 76.2927 98.6825 76.2927C100.222 76.2927 100.987 77.2623 100.987 79.2023V79.8176H99.0126C99.0357 79.5786 99.051 79.425 99.051 79.3482C99.051 78.417 98.6854 77.9476 97.9626 77.9476C96.9241 77.9476 96.4078 78.6407 96.4078 80.0259V85.1749H94.3145V76.4309H94.3154Z" fill="white"/>
<path d="M109.968 76.4311V85.3354C109.968 86.7667 109.679 87.7439 109.102 88.2757C108.529 88.8065 107.467 89.0686 105.917 89.0686C104.421 89.0686 103.416 88.8689 102.912 88.4686C102.404 88.0607 102.15 87.2678 102.15 86.0832H104.182C104.182 86.6448 104.289 87.0143 104.501 87.1756C104.716 87.3369 105.19 87.4146 105.928 87.4146C107.225 87.4146 107.875 86.8761 107.875 85.8058V83.8437L107.829 83.8283C107.455 84.7671 106.605 85.2289 105.27 85.2289C103.946 85.2289 103.042 84.9131 102.558 84.267C102.073 83.6287 101.83 82.4355 101.83 80.6884C101.83 79.0412 102.073 77.9027 102.558 77.2788C103.042 76.6481 103.923 76.3323 105.197 76.3323C106.586 76.3323 107.498 76.8478 107.929 77.8797H107.975L107.875 76.4331H109.968V76.4311ZM105.843 77.9853C105.039 77.9853 104.523 78.1465 104.296 78.4777C104.064 78.8012 103.953 79.5471 103.953 80.7019C103.953 81.9334 104.064 82.7187 104.296 83.0642C104.523 83.4031 105.05 83.572 105.874 83.572C106.693 83.572 107.228 83.3954 107.471 83.0489C107.717 82.6947 107.836 81.9171 107.836 80.7172C107.836 79.5701 107.717 78.8242 107.471 78.4931C107.229 78.1542 106.686 77.9853 105.843 77.9853Z" fill="white"/>
<path d="M119.217 76.4312L116.924 85.7204C116.601 87.0364 116.2 87.9215 115.723 88.3755C115.242 88.8296 114.477 89.0609 113.423 89.0609C113.184 89.0609 112.938 89.0456 112.684 89.0225V87.4751C112.864 87.4905 113.019 87.4981 113.138 87.4981C114.03 87.4981 114.592 86.7206 114.831 85.1742H113.762L110.898 76.4312H113.149L114.246 80.1326L114.792 81.9949C114.823 82.1101 114.907 82.4259 115.051 82.926L115.316 83.8495H115.362L115.554 82.926C115.65 82.4489 115.716 82.1408 115.746 81.9949L116.173 80.1326L117.016 76.4312H119.217Z" fill="white"/>
</svg>
