<svg width="25" height="25" viewBox="0 0 25 25" fill="none" xmlns="http://www.w3.org/2000/svg">
<path d="M22.9167 1.66667H20.4167V1.25C20.4167 0.918479 20.285 0.600537 20.0505 0.366117C19.8161 0.131696 19.4982 0 19.1667 0C18.8351 0 18.5172 0.131696 18.2828 0.366117C18.0484 0.600537 17.9167 0.918479 17.9167 1.25V1.66667H13.75V1.25C13.75 0.918479 13.6183 0.600537 13.3839 0.366117C13.1495 0.131696 12.8315 0 12.5 0C12.1685 0 11.8505 0.131696 11.6161 0.366117C11.3817 0.600537 11.25 0.918479 11.25 1.25V1.66667H7.08333V1.25C7.08333 0.918479 6.95164 0.600537 6.71722 0.366117C6.4828 0.131696 6.16485 0 5.83333 0C5.50181 0 5.18387 0.131696 4.94945 0.366117C4.71503 0.600537 4.58333 0.918479 4.58333 1.25V1.66667H2.08333C1.53099 1.66729 1.00145 1.88698 0.610879 2.27755C0.220313 2.66811 0.000620341 3.19766 0 3.75V22.9167C0.000620341 23.469 0.220313 23.9986 0.610879 24.3891C1.00145 24.7797 1.53099 24.9994 2.08333 25H22.9167C23.469 24.9994 23.9986 24.7797 24.3891 24.3891C24.7797 23.9986 24.9994 23.469 25 22.9167V3.75C24.9994 3.19766 24.7797 2.66811 24.3891 2.27755C23.9986 1.88698 23.469 1.66729 22.9167 1.66667ZM18.75 1.25C18.75 1.13949 18.7939 1.03351 18.872 0.955372C18.9502 0.877232 19.0562 0.833333 19.1667 0.833333C19.2772 0.833333 19.3832 0.877232 19.4613 0.955372C19.5394 1.03351 19.5833 1.13949 19.5833 1.25V3.75C19.5833 3.86051 19.5394 3.96649 19.4613 4.04463C19.3832 4.12277 19.2772 4.16667 19.1667 4.16667C19.0562 4.16667 18.9502 4.12277 18.872 4.04463C18.7939 3.96649 18.75 3.86051 18.75 3.75V1.25ZM12.0833 1.25C12.0833 1.13949 12.1272 1.03351 12.2054 0.955372C12.2835 0.877232 12.3895 0.833333 12.5 0.833333C12.6105 0.833333 12.7165 0.877232 12.7946 0.955372C12.8728 1.03351 12.9167 1.13949 12.9167 1.25V3.75C12.9167 3.86051 12.8728 3.96649 12.7946 4.04463C12.7165 4.12277 12.6105 4.16667 12.5 4.16667C12.3895 4.16667 12.2835 4.12277 12.2054 4.04463C12.1272 3.96649 12.0833 3.86051 12.0833 3.75V1.25ZM5.41667 1.25C5.41667 1.13949 5.46057 1.03351 5.53871 0.955372C5.61685 0.877232 5.72283 0.833333 5.83333 0.833333C5.94384 0.833333 6.04982 0.877232 6.12796 0.955372C6.2061 1.03351 6.25 1.13949 6.25 1.25V3.75C6.25 3.86051 6.2061 3.96649 6.12796 4.04463C6.04982 4.12277 5.94384 4.16667 5.83333 4.16667C5.72283 4.16667 5.61685 4.12277 5.53871 4.04463C5.46057 3.96649 5.41667 3.86051 5.41667 3.75V1.25ZM2.08333 2.5H4.58333V3.75C4.58333 4.08152 4.71503 4.39946 4.94945 4.63388C5.18387 4.8683 5.50181 5 5.83333 5C6.16485 5 6.4828 4.8683 6.71722 4.63388C6.95164 4.39946 7.08333 4.08152 7.08333 3.75V2.5H11.25V3.75C11.25 4.08152 11.3817 4.39946 11.6161 4.63388C11.8505 4.8683 12.1685 5 12.5 5C12.8315 5 13.1495 4.8683 13.3839 4.63388C13.6183 4.39946 13.75 4.08152 13.75 3.75V2.5H17.9167V3.75C17.9167 4.08152 18.0484 4.39946 18.2828 4.63388C18.5172 4.8683 18.8351 5 19.1667 5C19.4982 5 19.8161 4.8683 20.0505 4.63388C20.285 4.39946 20.4167 4.08152 20.4167 3.75V2.5H22.9167C23.2481 2.50039 23.5658 2.63221 23.8001 2.86654C24.0345 3.10088 24.1663 3.4186 24.1667 3.75V6.66667H0.833333V3.75C0.833719 3.4186 0.965539 3.10088 1.19988 2.86654C1.43421 2.63221 1.75193 2.50039 2.08333 2.5ZM22.9167 24.1667H2.08333C1.75193 24.1663 1.43421 24.0345 1.19988 23.8001C0.965539 23.5658 0.833719 23.2481 0.833333 22.9167V7.5H24.1667V22.9167C24.1663 23.2481 24.0345 23.5658 23.8001 23.8001C23.5658 24.0345 23.2481 24.1663 22.9167 24.1667Z" fill="#0394FF"/>
<path d="M22.0833 10.4167H20.4167C20.3062 10.4167 20.2002 10.4606 20.122 10.5387C20.0439 10.6169 20 10.7228 20 10.8334V12.5C20 12.6105 20.0439 12.7165 20.122 12.7946C20.2002 12.8728 20.3062 12.9167 20.4167 12.9167H22.0833C22.1938 12.9167 22.2998 12.8728 22.378 12.7946C22.4561 12.7165 22.5 12.6105 22.5 12.5V10.8334C22.5 10.7228 22.4561 10.6169 22.378 10.5387C22.2998 10.4606 22.1938 10.4167 22.0833 10.4167ZM21.6667 12.0834H20.8333V11.25H21.6667V12.0834Z" fill="#0394FF"/>
<path d="M13.7493 18.75H12.0827C11.9722 18.75 11.8662 18.7939 11.7881 18.872C11.7099 18.9502 11.666 19.0562 11.666 19.1667V20.8333C11.666 20.9438 11.7099 21.0498 11.7881 21.128C11.8662 21.2061 11.9722 21.25 12.0827 21.25H13.7493C13.8599 21.25 13.9658 21.2061 14.044 21.128C14.1221 21.0498 14.166 20.9438 14.166 20.8333V19.1667C14.166 19.0562 14.1221 18.9502 14.044 18.872C13.9658 18.7939 13.8599 18.75 13.7493 18.75ZM13.3327 20.4167H12.4993V19.5833H13.3327V20.4167Z" fill="#0394FF"/>
<path d="M9.58333 10.4167H7.91667C7.80616 10.4167 7.70018 10.4606 7.62204 10.5387C7.5439 10.6169 7.5 10.7228 7.5 10.8334V12.5C7.5 12.6105 7.5439 12.7165 7.62204 12.7946C7.70018 12.8728 7.80616 12.9167 7.91667 12.9167H9.58333C9.69384 12.9167 9.79982 12.8728 9.87796 12.7946C9.9561 12.7165 10 12.6105 10 12.5V10.8334C10 10.7228 9.9561 10.6169 9.87796 10.5387C9.79982 10.4606 9.69384 10.4167 9.58333 10.4167ZM9.16667 12.0834H8.33333V11.25H9.16667V12.0834Z" fill="#0394FF"/>
<path d="M5.41732 14.5833H3.75065C3.64014 14.5833 3.53416 14.6272 3.45602 14.7054C3.37788 14.7835 3.33398 14.8895 3.33398 15V16.6666C3.33398 16.7772 3.37788 16.8831 3.45602 16.9613C3.53416 17.0394 3.64014 17.0833 3.75065 17.0833H5.41732C5.52782 17.0833 5.63381 17.0394 5.71195 16.9613C5.79009 16.8831 5.83398 16.7772 5.83398 16.6666V15C5.83398 14.8895 5.79009 14.7835 5.71195 14.7054C5.63381 14.6272 5.52782 14.5833 5.41732 14.5833ZM5.00065 16.25H4.16732V15.4166H5.00065V16.25Z" fill="#0394FF"/>
<path d="M9.58333 14.5833H7.91667C7.80616 14.5833 7.70018 14.6272 7.62204 14.7054C7.5439 14.7835 7.5 14.8895 7.5 15V16.6666C7.5 16.7772 7.5439 16.8831 7.62204 16.9613C7.70018 17.0394 7.80616 17.0833 7.91667 17.0833H9.58333C9.69384 17.0833 9.79982 17.0394 9.87796 16.9613C9.9561 16.8831 10 16.7772 10 16.6666V15C10 14.8895 9.9561 14.7835 9.87796 14.7054C9.79982 14.6272 9.69384 14.5833 9.58333 14.5833ZM9.16667 16.25H8.33333V15.4166H9.16667V16.25Z" fill="#0394FF"/>
<path d="M5.41732 18.75H3.75065C3.64014 18.75 3.53416 18.7939 3.45602 18.872C3.37788 18.9502 3.33398 19.0562 3.33398 19.1667V20.8333C3.33398 20.9438 3.37788 21.0498 3.45602 21.128C3.53416 21.2061 3.64014 21.25 3.75065 21.25H5.41732C5.52782 21.25 5.63381 21.2061 5.71195 21.128C5.79009 21.0498 5.83398 20.9438 5.83398 20.8333V19.1667C5.83398 19.0562 5.79009 18.9502 5.71195 18.872C5.63381 18.7939 5.52782 18.75 5.41732 18.75ZM5.00065 20.4167H4.16732V19.5833H5.00065V20.4167Z" fill="#0394FF"/>
<path d="M9.58333 18.75H7.91667C7.80616 18.75 7.70018 18.7939 7.62204 18.872C7.5439 18.9502 7.5 19.0562 7.5 19.1667V20.8333C7.5 20.9438 7.5439 21.0498 7.62204 21.128C7.70018 21.2061 7.80616 21.25 7.91667 21.25H9.58333C9.69384 21.25 9.79982 21.2061 9.87796 21.128C9.9561 21.0498 10 20.9438 10 20.8333V19.1667C10 19.0562 9.9561 18.9502 9.87796 18.872C9.79982 18.7939 9.69384 18.75 9.58333 18.75ZM9.16667 20.4167H8.33333V19.5833H9.16667V20.4167Z" fill="#0394FF"/>
<path d="M18.396 12.1345L16.3127 11.8162L15.377 9.82289C15.3434 9.75125 15.29 9.69066 15.2232 9.64823C15.1564 9.60579 15.0789 9.58325 14.9998 9.58325C14.9207 9.58325 14.8432 9.60579 14.7764 9.64823C14.7096 9.69066 14.6562 9.75125 14.6226 9.82289L13.6873 11.8162L11.604 12.1345C11.5282 12.146 11.4571 12.1782 11.3984 12.2276C11.3398 12.2769 11.2959 12.3415 11.2715 12.4142C11.2472 12.4869 11.2434 12.5649 11.2605 12.6396C11.2777 12.7143 11.3151 12.7828 11.3687 12.8376L12.8885 14.3953L12.5291 16.5998C12.5167 16.6768 12.5262 16.7558 12.5564 16.8278C12.5867 16.8997 12.6366 16.9617 12.7004 17.0067C12.7642 17.0517 12.8394 17.0778 12.9173 17.0821C12.9953 17.0865 13.0729 17.0688 13.1413 17.0312L14.9998 16.0039L16.8583 17.0312C16.9268 17.0691 17.0045 17.0869 17.0826 17.0826C17.1606 17.0784 17.236 17.0522 17.2999 17.0072C17.3638 16.9621 17.4138 16.9 17.4441 16.8279C17.4744 16.7558 17.4837 16.6767 17.4712 16.5995L17.1118 14.395L18.6316 12.8374C18.6852 12.7825 18.7226 12.714 18.7397 12.6393C18.7569 12.5646 18.7531 12.4866 18.7287 12.4139C18.7044 12.3412 18.6605 12.2767 18.6019 12.2273C18.5432 12.178 18.4721 12.1458 18.3963 12.1342L18.396 12.1345ZM16.3682 13.9635C16.3227 14.0102 16.2887 14.0669 16.2691 14.1291C16.2495 14.1913 16.2447 14.2572 16.2552 14.3216L16.5104 15.8867L15.2013 15.1628C15.1396 15.1287 15.0702 15.1108 14.9997 15.1108C14.9292 15.1108 14.8598 15.1287 14.7981 15.1628L13.489 15.8867L13.7442 14.3216C13.7547 14.2572 13.7499 14.1913 13.7303 14.1291C13.7107 14.0669 13.6767 14.0102 13.6312 13.9635L12.531 12.8358L14.0328 12.6066C14.1004 12.5963 14.1644 12.5695 14.2192 12.5285C14.274 12.4875 14.3179 12.4337 14.347 12.3718L14.9998 10.9806L15.6527 12.3715C15.6817 12.4335 15.7256 12.4873 15.7804 12.5282C15.8352 12.5692 15.8993 12.596 15.9669 12.6064L17.4686 12.8355L16.3682 13.9635Z" fill="#0394FF"/>
<path d="M22.0833 14.5833H20.4167C20.3062 14.5833 20.2002 14.6272 20.122 14.7054C20.0439 14.7835 20 14.8895 20 15V16.6666C20 16.7772 20.0439 16.8831 20.122 16.9613C20.2002 17.0394 20.3062 17.0833 20.4167 17.0833H22.0833C22.1938 17.0833 22.2998 17.0394 22.378 16.9613C22.4561 16.8831 22.5 16.7772 22.5 16.6666V15C22.5 14.8895 22.4561 14.7835 22.378 14.7054C22.2998 14.6272 22.1938 14.5833 22.0833 14.5833ZM21.6667 16.25H20.8333V15.4166H21.6667V16.25Z" fill="#0394FF"/>
<path d="M22.0833 18.75H20.4167C20.3062 18.75 20.2002 18.7939 20.122 18.872C20.0439 18.9502 20 19.0562 20 19.1667V20.8333C20 20.9438 20.0439 21.0498 20.122 21.128C20.2002 21.2061 20.3062 21.25 20.4167 21.25H22.0833C22.1938 21.25 22.2998 21.2061 22.378 21.128C22.4561 21.0498 22.5 20.9438 22.5 20.8333V19.1667C22.5 19.0562 22.4561 18.9502 22.378 18.872C22.2998 18.7939 22.1938 18.75 22.0833 18.75ZM21.6667 20.4167H20.8333V19.5833H21.6667V20.4167Z" fill="#0394FF"/>
<path d="M17.9173 18.75H16.2507C16.1401 18.75 16.0342 18.7939 15.956 18.872C15.8779 18.9502 15.834 19.0562 15.834 19.1667V20.8333C15.834 20.9438 15.8779 21.0498 15.956 21.128C16.0342 21.2061 16.1401 21.25 16.2507 21.25H17.9173C18.0278 21.25 18.1338 21.2061 18.2119 21.128C18.2901 21.0498 18.334 20.9438 18.334 20.8333V19.1667C18.334 19.0562 18.2901 18.9502 18.2119 18.872C18.1338 18.7939 18.0278 18.75 17.9173 18.75ZM17.5007 20.4167H16.6673V19.5833H17.5007V20.4167Z" fill="#0394FF"/>
</svg>
