<?xml version="1.0" encoding="UTF-8"?>
<svg width="32px" height="32px" viewBox="0 0 32 32" version="1.1" xmlns="http://www.w3.org/2000/svg" xmlns:xlink="http://www.w3.org/1999/xlink">
    <title>CO2</title>
    <defs>
        <linearGradient x1="50%" y1="0%" x2="50%" y2="100%" id="linearGradient-1">
            <stop stop-color="#31C55D" offset="0%"></stop>
            <stop stop-color="#29A9F1" offset="100%"></stop>
        </linearGradient>
    </defs>
    <g id="Page-1" stroke="none" stroke-width="1" fill="none" fill-rule="evenodd">
        <g id="project-overview" transform="translate(-1143.000000, -914.000000)" fill="url(#linearGradient-1)" fill-rule="nonzero">
            <path d="M1145.59595,931.167236 C1144.82935,931.727539 1144.17432,932.431885 1143.67139,933.240234 C1143.24097,932.327148 1143,931.307861 1143,930.233398 C1143,928.023193 1144.07007,925.935303 1145.84253,924.596191 C1145.82251,924.408691 1145.8125,924.219971 1145.8125,924.03125 C1145.8125,921.317383 1147.8457,919.06958 1150.46924,918.731445 C1151.86304,915.870361 1154.80371,914 1158.03125,914 C1159.89722,914 1161.66431,914.598633 1163.14185,915.731445 C1164.29468,916.615234 1165.20532,917.796387 1165.77148,919.125 C1169.17358,919.136475 1171.9375,921.907715 1171.9375,925.3125 C1171.9375,925.672363 1171.90674,926.02832 1171.84546,926.378906 C1173.75098,927.3479 1175,929.31958 1175,931.53125 C1175,932.644775 1174.68335,933.685791 1174.1355,934.569092 C1173.37061,934.204346 1172.51318,934 1171.60815,934 C1171.52881,934 1171.44946,934.001953 1171.37061,934.005127 C1172.06177,933.403076 1172.5,932.517578 1172.5,931.53125 C1172.5,930.027832 1171.48389,928.720215 1170.0293,928.351074 L1168.64795,928.000488 L1169.17578,926.676514 C1169.34961,926.240967 1169.4375,925.781982 1169.4375,925.3125 C1169.4375,923.279297 1167.7832,921.625 1165.75,921.625 C1165.54565,921.625 1165.33545,921.643066 1165.12549,921.678711 L1164.02002,921.866943 L1163.71338,920.788086 C1162.99609,918.263428 1160.65967,916.5 1158.03125,916.5 C1155.56323,916.5 1153.33398,918.055908 1152.48438,920.371826 L1152.17163,921.223877 L1151.25586,921.190186 C1151.22266,921.188965 1151.1897,921.1875 1151.15625,921.1875 C1149.58813,921.1875 1148.3125,922.463135 1148.3125,924.03125 C1148.3125,924.300049 1148.35083,924.568115 1148.42627,924.827393 L1148.70093,925.77124 L1147.84888,926.260742 C1146.3999,927.093018 1145.5,928.615234 1145.5,930.233398 C1145.5,930.553223 1145.5332,930.865723 1145.59595,931.167236 L1145.59595,931.167236 Z M1149.9375,932.25 C1147.24927,932.25 1145.0625,934.436768 1145.0625,937.125 L1145.0625,941.125 C1145.0625,943.813232 1147.24927,946 1149.9375,946 C1152.62573,946 1154.8125,943.813232 1154.8125,941.125 L1154.8125,941 L1152.3125,941 L1152.3125,941.125 C1152.3125,942.43457 1151.24707,943.5 1149.9375,943.5 C1148.62793,943.5 1147.5625,942.43457 1147.5625,941.125 L1147.5625,937.125 C1147.5625,935.81543 1148.62793,934.75 1149.9375,934.75 C1151.24707,934.75 1152.3125,935.81543 1152.3125,937.125 L1152.3125,937.25 L1154.8125,937.25 L1154.8125,937.125 C1154.8125,934.436768 1152.62573,932.25 1149.9375,932.25 Z M1166.375,937.125 L1166.375,941.125 C1166.375,943.813232 1164.18823,946 1161.5,946 C1158.81177,946 1156.625,943.813232 1156.625,941.125 L1156.625,937.125 C1156.625,934.436768 1158.81177,932.25 1161.5,932.25 C1164.18823,932.25 1166.375,934.436768 1166.375,937.125 Z M1163.875,937.125 C1163.875,935.81543 1162.80957,934.75 1161.5,934.75 C1160.19043,934.75 1159.125,935.81543 1159.125,937.125 L1159.125,941.125 C1159.125,942.43457 1160.19043,943.5 1161.5,943.5 C1162.80957,943.5 1163.875,942.43457 1163.875,941.125 L1163.875,937.125 Z M1174.9375,939.75 C1174.9375,937.958008 1173.44409,936.5 1171.60815,936.5 C1170.73779,936.5 1169.90869,936.829102 1169.27295,937.427002 C1168.61328,938.047363 1168.25,938.872314 1168.25,939.75 L1170.75,939.75 C1170.75,939.357422 1171.15918,939 1171.60815,939 C1172.05762,939 1172.4375,939.343506 1172.4375,939.75 C1172.4375,940.108643 1171.99976,940.933838 1170.76636,942.07959 C1169.80249,942.974609 1168.81299,943.643066 1168.80371,943.649414 L1168.25,944.020752 L1168.25,946 L1175,946 L1175,943.5 L1172.89478,943.5 C1174.26807,942.124512 1174.9375,940.893799 1174.9375,939.75 Z" id="CO2"></path>
        </g>
    </g>
</svg>