<?xml version="1.0" encoding="UTF-8"?>
<svg width="32px" height="32px" viewBox="0 0 32 32" version="1.1" xmlns="http://www.w3.org/2000/svg" xmlns:xlink="http://www.w3.org/1999/xlink">
    <title>Shape</title>
    <defs>
        <linearGradient x1="50%" y1="99.9558669%" x2="50%" y2="0%" id="linearGradient-1">
            <stop stop-color="#6359CF" offset="0%"></stop>
            <stop stop-color="#7467F0" offset="99.9558669%"></stop>
        </linearGradient>
    </defs>
    <g id="Page-1" stroke="none" stroke-width="1" fill="none" fill-rule="evenodd">
        <g id="project-overview" transform="translate(-1312.000000, -911.000000)" fill="url(#linearGradient-1)" fill-rule="nonzero">
            <path d="M1343.73001,920.648689 L1337.55556,914.474243 C1336.45897,913.377652 1334.67464,913.377652 1333.58136,914.47093 L1332.81623,915.22831 L1330.05209,911.88771 C1330.03334,911.865017 1330.01352,911.843261 1329.9927,911.822444 C1328.89611,910.725852 1327.11172,910.725852 1326.01513,911.822444 C1325.99431,911.843261 1325.97449,911.865017 1325.95574,911.88771 L1323.19172,915.22831 L1322.43003,914.474243 C1321.33344,913.377652 1319.54904,913.377652 1318.45245,914.474243 L1312.27794,920.648689 C1312.02369,920.902941 1311.95636,921.264221 1312.02551,921.576738 L1315.4495,937.047423 C1315.69575,938.155455 1316.5561,938.977352 1317.62999,939.193344 C1317.62974,939.212224 1317.62856,939.230916 1317.62856,939.249858 C1317.62856,941.317697 1319.31086,943 1321.3787,943 C1323.44654,943 1325.12884,941.317697 1325.12884,939.249858 L1330.87905,939.249858 C1330.87905,941.317697 1332.56135,943 1334.62919,943 C1336.69703,943 1338.37933,941.317697 1338.37933,939.249858 C1338.37933,939.230916 1338.37815,939.212224 1338.3779,939.193344 C1339.45173,938.977414 1340.31214,938.15533 1340.55858,937.04661 L1343.98239,921.576738 C1344.05159,921.264221 1343.98495,920.903629 1343.73001,920.648689 Z M1334.90389,915.80008 C1335.08093,915.623098 1335.31643,915.525511 1335.56687,915.525511 C1335.81731,915.525511 1336.05268,915.623035 1336.22979,915.80008 L1340.86622,920.43651 L1330.22051,920.43651 C1330.78115,919.881494 1334.31411,916.383979 1334.90389,915.80008 Z M1327.36753,913.122962 C1327.72581,912.791315 1328.28227,912.791315 1328.64054,913.122962 L1331.47845,916.552772 L1328.00401,919.992397 L1324.52956,916.552772 L1327.36753,913.122962 Z M1319.77829,915.800143 C1319.95534,915.623098 1320.19083,915.525573 1320.44121,915.525573 C1320.69159,915.525573 1320.92702,915.623098 1321.1075,915.803519 C1322.57088,917.2522 1324.32376,918.987516 1325.78751,920.436635 L1315.1418,920.436635 L1319.77829,915.800143 Z M1321.37876,941.124961 C1320.34487,941.124961 1319.50366,940.283809 1319.50366,939.249858 C1319.50366,938.215908 1320.34481,937.374756 1321.37876,937.374756 C1322.41271,937.374756 1323.25386,938.215908 1323.25386,939.249858 C1323.25386,940.283809 1322.41271,941.124961 1321.37876,941.124961 Z M1334.62932,941.124961 C1333.59543,941.124961 1332.75422,940.283809 1332.75422,939.249858 C1332.75422,938.215908 1333.59537,937.374756 1334.62932,937.374756 C1335.66327,937.374756 1336.50442,938.215908 1336.50442,939.249858 C1336.50436,940.283809 1335.66321,941.124961 1334.62932,941.124961 Z M1338.72811,936.64057 C1338.63646,937.052987 1338.28962,937.345999 1337.87346,937.372193 C1337.2236,936.253846 1336.01323,935.499654 1334.62932,935.499654 C1333.24434,935.499654 1332.03316,936.254909 1331.38368,937.374756 L1324.6244,937.374756 C1323.97492,936.254972 1322.76374,935.499654 1321.37876,935.499654 C1319.99485,935.499654 1318.78441,936.253784 1318.13462,937.372193 C1317.71845,937.345999 1317.37162,937.052987 1317.28015,936.641445 L1315.75477,929.749567 L1340.25331,929.749567 L1338.72811,936.64057 Z M1340.66823,927.874402 L1315.33979,927.874402 L1314.92474,925.9993 L1341.08327,925.9993 L1340.66823,927.874402 Z M1341.49832,924.124261 L1314.50976,924.124261 L1314.1086,922.311675 L1341.89936,922.311675 L1341.49832,924.124261 Z" id="Shape"></path>
        </g>
    </g>
</svg>