<?xml version="1.0" encoding="UTF-8"?>
<svg width="70px" height="40px" viewBox="0 0 70 40" version="1.1" xmlns="http://www.w3.org/2000/svg" xmlns:xlink="http://www.w3.org/1999/xlink">
    <title>Group 2</title>
    <g id="Symbols" stroke="none" stroke-width="1" fill="none" fill-rule="evenodd">
        <g id="Rectangle-Copy-9" transform="translate(-10.000000, -14.000000)">
            <g id="Group-2" transform="translate(10.000000, 14.000000)">
                <g id="rec1-copy">
                    <circle id="Oval-Copy" fill="#FFC107" cx="20" cy="20" r="20"></circle>
                    <path d="M29.4218929,17.9166667 C29.7445335,17.9166667 30.0257835,18.136276 30.1040179,18.4492604 L30.1040179,18.4492604 L31.9790179,25.9492604 C32.0315647,26.1593542 31.9843616,26.3818698 31.851096,26.5524948 C31.7178304,26.7231667 31.5134085,26.8229167 31.2968929,26.8229167 L31.2968929,26.8229167 L22.7702366,26.8229167 L23.3647522,29.2604167 L24.6875179,29.2604167 C25.0758304,29.2604167 25.3906429,29.5752292 25.3906429,29.9635417 C25.3906429,30.3518542 25.0758304,30.6666667 24.6875179,30.6666667 L24.6875179,30.6666667 L15.3125179,30.6666667 C14.9242054,30.6666667 14.6093929,30.3518542 14.6093929,29.9635417 C14.6093929,29.5752292 14.9242054,29.2604167 15.3125179,29.2604167 L15.3125179,29.2604167 L16.6352366,29.2604167 L17.2297522,26.8229167 L8.70314286,26.8229167 C8.48662723,26.8229167 8.28220536,26.7231667 8.14893973,26.5524948 C8.01567411,26.3818698 7.96847098,26.1593073 8.02101786,25.9492604 L8.02101786,25.9492604 L9.89601786,18.4492604 C9.97425223,18.136276 10.2555022,17.9166667 10.5781429,17.9166667 L10.5781429,17.9166667 Z M21.3227835,26.8229167 L18.6772991,26.8229167 L18.0827835,29.2604167 L21.9172991,29.2604167 L21.3227835,26.8229167 Z M14.0238772,23.0729167 L10.1896429,23.0729167 L9.60370536,25.4166667 L13.7309085,25.4166667 L14.0238772,23.0729167 Z M19.2968929,23.0729167 L15.4410491,23.0729167 L15.1480804,25.4166667 L19.2968929,25.4166667 L19.2968929,23.0729167 Z M24.5590335,23.0729167 L20.7031429,23.0729167 L20.7031429,25.4166667 L24.8520022,25.4166667 L24.5590335,23.0729167 Z M29.8103929,23.0729167 L25.9761585,23.0729167 L26.2691272,25.4166667 L30.3963304,25.4166667 L29.8103929,23.0729167 Z M24.0902835,19.3229167 L20.7031429,19.3229167 L20.7031429,21.6666667 L24.3832522,21.6666667 L24.0902835,19.3229167 Z M19.2968929,19.3229167 L15.9097991,19.3229167 L15.6167835,21.6666667 L19.2968929,21.6666667 L19.2968929,19.3229167 Z M14.4926272,19.3229167 L11.1271429,19.3229167 L10.5412054,21.6666667 L14.1996585,21.6666667 L14.4926272,19.3229167 Z M28.8728929,19.3229167 L25.5074085,19.3229167 L25.8003772,21.6666667 L29.4588304,21.6666667 L28.8728929,19.3229167 Z M20.0000179,6.66666667 C20.3883304,6.66666667 20.7031429,6.98147917 20.7031429,7.36979167 L20.7031429,7.36979167 L20.7031429,9.52960417 C21.5358304,9.64922917 22.3019085,9.97777604 22.9461116,10.4606354 L22.9461116,10.4606354 L24.4747054,8.93204167 C24.749346,8.65744792 25.1945647,8.65749479 25.4690647,8.93204167 C25.7436585,9.20663542 25.7436585,9.65185417 25.4690647,9.92640104 L25.4690647,9.92640104 L23.9404241,11.4549948 C24.4233304,12.0991979 24.7518304,12.865276 24.8714554,13.6979167 L24.8714554,13.6979167 L27.0312679,13.6979167 C27.4195804,13.6979167 27.7343929,14.0127292 27.7343929,14.4010417 C27.7343929,14.7893542 27.4195804,15.1041667 27.0312679,15.1041667 L27.0312679,15.1041667 L24.8691116,15.1041667 C24.822471,15.4203385 24.7454554,15.7339792 24.636471,16.041901 C24.5370491,16.3227292 24.2714554,16.5104167 23.9736116,16.5104167 L23.9736116,16.5104167 L16.0264241,16.5104167 C15.7285335,16.5104167 15.4629866,16.3226823 15.3635647,16.041901 C15.2545804,15.7339792 15.1775647,15.4203854 15.1309241,15.1041667 L15.1309241,15.1041667 L12.9687679,15.1041667 C12.5804554,15.1041667 12.2656429,14.7893542 12.2656429,14.4010417 C12.2656429,14.0127292 12.5804554,13.6979167 12.9687679,13.6979167 L12.9687679,13.6979167 L15.1286272,13.6979167 C15.2482522,12.865276 15.5767991,12.0991979 16.0596585,11.4549948 L16.0596585,11.4549948 L14.5310179,9.92640104 C14.2564241,9.65180729 14.2564241,9.20663542 14.5310179,8.93204167 C14.8056116,8.65744792 15.2508304,8.65744792 15.5253772,8.93204167 L15.5253772,8.93204167 L17.053971,10.4606354 C17.6981741,9.97772917 18.4642522,9.64922917 19.2968929,9.52960417 L19.2968929,9.52960417 L19.2968929,7.36979167 C19.2968929,6.98147917 19.6117054,6.66666667 20.0000179,6.66666667 Z M20.0000179,10.8854167 C18.0615022,10.8854167 16.4844397,12.462526 16.4844397,14.4010417 C16.4844397,14.6359323 16.5090022,14.8710573 16.5577054,15.1041667 L16.5577054,15.1041667 L23.4423772,15.1041667 C23.4910804,14.8710573 23.5156429,14.6359323 23.5156429,14.4010417 C23.5156429,12.462526 21.9385335,10.8854167 20.0000179,10.8854167 Z" id="Combined-Shape" fill="#FFFFFF" fill-rule="nonzero"></path>
                </g>
                <g id="rec1-copy-2" transform="translate(30.000000, 0.000000)">
                    <circle id="Oval-Copy" fill="#F4792C" cx="20" cy="20" r="20"></circle>
                    <path d="M29.4218929,17.9166667 C29.7445335,17.9166667 30.0257835,18.136276 30.1040179,18.4492604 L30.1040179,18.4492604 L31.9790179,25.9492604 C32.0315647,26.1593542 31.9843616,26.3818698 31.851096,26.5524948 C31.7178304,26.7231667 31.5134085,26.8229167 31.2968929,26.8229167 L31.2968929,26.8229167 L22.7702366,26.8229167 L23.3647522,29.2604167 L24.6875179,29.2604167 C25.0758304,29.2604167 25.3906429,29.5752292 25.3906429,29.9635417 C25.3906429,30.3518542 25.0758304,30.6666667 24.6875179,30.6666667 L24.6875179,30.6666667 L15.3125179,30.6666667 C14.9242054,30.6666667 14.6093929,30.3518542 14.6093929,29.9635417 C14.6093929,29.5752292 14.9242054,29.2604167 15.3125179,29.2604167 L15.3125179,29.2604167 L16.6352366,29.2604167 L17.2297522,26.8229167 L8.70314286,26.8229167 C8.48662723,26.8229167 8.28220536,26.7231667 8.14893973,26.5524948 C8.01567411,26.3818698 7.96847098,26.1593073 8.02101786,25.9492604 L8.02101786,25.9492604 L9.89601786,18.4492604 C9.97425223,18.136276 10.2555022,17.9166667 10.5781429,17.9166667 L10.5781429,17.9166667 Z M21.3227835,26.8229167 L18.6772991,26.8229167 L18.0827835,29.2604167 L21.9172991,29.2604167 L21.3227835,26.8229167 Z M14.0238772,23.0729167 L10.1896429,23.0729167 L9.60370536,25.4166667 L13.7309085,25.4166667 L14.0238772,23.0729167 Z M19.2968929,23.0729167 L15.4410491,23.0729167 L15.1480804,25.4166667 L19.2968929,25.4166667 L19.2968929,23.0729167 Z M24.5590335,23.0729167 L20.7031429,23.0729167 L20.7031429,25.4166667 L24.8520022,25.4166667 L24.5590335,23.0729167 Z M29.8103929,23.0729167 L25.9761585,23.0729167 L26.2691272,25.4166667 L30.3963304,25.4166667 L29.8103929,23.0729167 Z M24.0902835,19.3229167 L20.7031429,19.3229167 L20.7031429,21.6666667 L24.3832522,21.6666667 L24.0902835,19.3229167 Z M19.2968929,19.3229167 L15.9097991,19.3229167 L15.6167835,21.6666667 L19.2968929,21.6666667 L19.2968929,19.3229167 Z M14.4926272,19.3229167 L11.1271429,19.3229167 L10.5412054,21.6666667 L14.1996585,21.6666667 L14.4926272,19.3229167 Z M28.8728929,19.3229167 L25.5074085,19.3229167 L25.8003772,21.6666667 L29.4588304,21.6666667 L28.8728929,19.3229167 Z M20.0000179,6.66666667 C20.3883304,6.66666667 20.7031429,6.98147917 20.7031429,7.36979167 L20.7031429,7.36979167 L20.7031429,9.52960417 C21.5358304,9.64922917 22.3019085,9.97777604 22.9461116,10.4606354 L22.9461116,10.4606354 L24.4747054,8.93204167 C24.749346,8.65744792 25.1945647,8.65749479 25.4690647,8.93204167 C25.7436585,9.20663542 25.7436585,9.65185417 25.4690647,9.92640104 L25.4690647,9.92640104 L23.9404241,11.4549948 C24.4233304,12.0991979 24.7518304,12.865276 24.8714554,13.6979167 L24.8714554,13.6979167 L27.0312679,13.6979167 C27.4195804,13.6979167 27.7343929,14.0127292 27.7343929,14.4010417 C27.7343929,14.7893542 27.4195804,15.1041667 27.0312679,15.1041667 L27.0312679,15.1041667 L24.8691116,15.1041667 C24.822471,15.4203385 24.7454554,15.7339792 24.636471,16.041901 C24.5370491,16.3227292 24.2714554,16.5104167 23.9736116,16.5104167 L23.9736116,16.5104167 L16.0264241,16.5104167 C15.7285335,16.5104167 15.4629866,16.3226823 15.3635647,16.041901 C15.2545804,15.7339792 15.1775647,15.4203854 15.1309241,15.1041667 L15.1309241,15.1041667 L12.9687679,15.1041667 C12.5804554,15.1041667 12.2656429,14.7893542 12.2656429,14.4010417 C12.2656429,14.0127292 12.5804554,13.6979167 12.9687679,13.6979167 L12.9687679,13.6979167 L15.1286272,13.6979167 C15.2482522,12.865276 15.5767991,12.0991979 16.0596585,11.4549948 L16.0596585,11.4549948 L14.5310179,9.92640104 C14.2564241,9.65180729 14.2564241,9.20663542 14.5310179,8.93204167 C14.8056116,8.65744792 15.2508304,8.65744792 15.5253772,8.93204167 L15.5253772,8.93204167 L17.053971,10.4606354 C17.6981741,9.97772917 18.4642522,9.64922917 19.2968929,9.52960417 L19.2968929,9.52960417 L19.2968929,7.36979167 C19.2968929,6.98147917 19.6117054,6.66666667 20.0000179,6.66666667 Z M20.0000179,10.8854167 C18.0615022,10.8854167 16.4844397,12.462526 16.4844397,14.4010417 C16.4844397,14.6359323 16.5090022,14.8710573 16.5577054,15.1041667 L16.5577054,15.1041667 L23.4423772,15.1041667 C23.4910804,14.8710573 23.5156429,14.6359323 23.5156429,14.4010417 C23.5156429,12.462526 21.9385335,10.8854167 20.0000179,10.8854167 Z" id="Combined-Shape" fill="#FFFFFF" fill-rule="nonzero"></path>
                </g>
            </g>
        </g>
    </g>
</svg>