<?xml version="1.0" encoding="UTF-8"?>
<svg width="32px" height="40px" viewBox="0 0 32 40" version="1.1" xmlns="http://www.w3.org/2000/svg" xmlns:xlink="http://www.w3.org/1999/xlink">
    <title>electricity1</title>
    <g id="Page-1" stroke="none" stroke-width="1" fill="none" fill-rule="evenodd">
        <g id="single-line-update" transform="translate(-938.000000, -313.000000)" fill="#4AC367" fill-rule="nonzero">
            <g id="electricity1" transform="translate(938.000000, 313.000000)">
                <path d="M16.0905759,-2.16715534e-13 L19.301466,5.01673339 L26.6373822,9.79622215 L26.6373822,13.8633611 L24.2936126,13.8633611 L24.2936126,11.5655477 L20.3561257,11.5655477 L20.707644,14.2999692 L28.9809424,18.9413818 L28.9809424,23.0545119 L26.6371728,23.0545119 L26.6371728,20.7566985 L21.5278534,20.7566985 L21.9262827,23.9506211 L24.7388482,32.2456627 L26.565,37.647 L32,37.6470588 L32,40 L-5.86197757e-14,40 L-5.86197757e-14,37.6470588 L5.615,37.647 L7.44209424,32.2456627 L10.2546597,23.9506211 L10.653089,20.7566985 L5.54376963,20.7566985 L5.54376963,23.0545119 L3.2,23.0545119 L3.2,18.9413818 L11.4735079,14.2999692 L11.8250262,11.5655477 L7.88753927,11.5655477 L7.88753927,13.8633611 L5.54376963,13.8633611 L5.54376963,9.79622215 L12.8796859,5.01673339 L16.0905759,-2.16715534e-13 Z M17.8013613,32.2456627 L14.3795812,32.2456627 L10.748,37.647 L21.432,37.647 L17.8013613,32.2456627 Z M11.5671204,32.2456627 L9.90303665,32.2456627 L8.33277487,36.9178729 L8.42649215,36.9178729 L11.5671204,32.2456627 Z M22.2781152,32.2456627 L20.6139267,32.2456627 L23.7546597,36.9178729 L23.848377,36.9178729 L22.2781152,32.2456627 Z M19.9343455,25.3523252 L12.2468063,25.3523252 L10.6765445,29.947952 L21.5046073,29.947952 L19.9343455,25.3523252 Z M19.1609424,20.7566985 L13.0203141,20.7566985 L12.7390576,23.0545119 L19.442199,23.0545119 L19.1609424,20.7566985 Z M18.5748691,16.1611744 L13.606178,16.1611744 L13.3249215,18.4589878 L18.8561257,18.4589878 L18.5748691,16.1611744 Z M11.1218848,17.149266 L8.77811518,18.4589878 L10.957801,18.4589878 L11.1218848,17.149266 Z M21.059267,17.149266 L21.2233508,18.4589878 L23.4030366,18.4589878 L21.059267,17.149266 Z M17.9890052,11.5655477 L14.1921466,11.5655477 L13.9108901,13.8633611 L18.2702618,13.8633611 L17.9890052,11.5655477 Z M19.9108901,8.16466482 L20.0515183,9.26773432 L21.5983246,9.26773432 L19.9108901,8.16466482 Z M16.0905759,4.25859768 L14.8718325,6.21168258 L14.4968586,9.26783698 L17.6842932,9.26783698 L17.3093194,6.21168258 L16.0905759,4.25859768 Z M12.2702618,8.16466482 L10.5828272,9.26773432 L12.1296335,9.26773432 L12.2702618,8.16466482 Z" id="Combined-Shape"></path>
            </g>
        </g>
    </g>
</svg>