<?xml version="1.0" encoding="UTF-8"?>
<svg width="78px" height="78px" viewBox="0 0 78 78" version="1.1" xmlns="http://www.w3.org/2000/svg" xmlns:xlink="http://www.w3.org/1999/xlink">
    <title>Group 20</title>
    <g id="Symbols" stroke="none" stroke-width="1" fill="none" fill-rule="evenodd">
        <g id="Group-21" transform="translate(-84.000000, -13.000000)">
            <g id="Group-20" transform="translate(123.000000, 51.666667) rotate(-45.000000) translate(-123.000000, -51.666667) translate(103.000000, 17.000000)">
                <g id="Group" transform="translate(0.000000, 29.333333)">
                    <circle id="Oval-Copy" stroke="#00BCD4" fill="#00BCD4" cx="20" cy="20" r="19.5"></circle>
                    <path d="M28.7891646,10 C29.4579433,10 30,10.5421991 30,11.2108354 L30,11.2108354 L30,28.7891646 C30,29.4579433 29.4579433,30 28.7891646,30 L28.7891646,30 L11.2108354,30 C10.5420567,30 10,29.4579433 10,28.7891646 L10,28.7891646 L10,11.2108354 C10,10.5421991 10.5420567,10 11.2108354,10 L11.2108354,10 Z M28.5761578,11.4238422 L11.4238422,11.4238422 L11.4238422,28.5761578 L28.5761578,28.5761578 L28.5761578,11.4238422 Z M12.3355854,26.8177553 C12.4255722,26.8177553 12.5157014,26.8520699 12.5841882,26.9208415 L12.5841882,26.9208415 L13.2005695,27.5372228 C13.3378279,27.6744812 13.3378279,27.8970277 13.2005695,28.0344285 L13.2005695,28.0344285 L13.1534404,28.0815577 C13.0848112,28.1501869 12.9948243,28.1846439 12.9048375,28.1846439 C12.8148507,28.1846439 12.7248638,28.1501869 12.6562346,28.0815577 L12.6562346,28.0815577 L12.0398533,27.4651764 C11.902595,27.327918 11.902595,27.1053714 12.0398533,26.9679707 L12.0398533,26.9679707 L12.0869825,26.9208415 C12.1556117,26.8520699 12.2455985,26.8177553 12.3355854,26.8177553 Z M23.0308048,25.4626419 C23.4766098,25.4626419 23.837981,25.8240131 23.837981,26.2698181 L23.837981,26.8721034 C23.837981,27.3179084 23.4766098,27.6792795 23.0308048,27.6792795 L21.614509,27.6792795 C21.1687039,27.6792795 20.8073328,27.3179084 20.8073328,26.8721034 L20.8073328,26.2698181 C20.8073328,25.8240131 21.1687039,25.4626419 21.614509,25.4626419 L23.0308048,25.4626419 Z M26.8666928,25.4626419 C27.3124978,25.4626419 27.6740113,25.8240131 27.6740113,26.2698181 L27.6740113,26.8721034 C27.6740113,27.3179084 27.3124978,27.6792795 26.8666928,27.6792795 L25.4505393,27.6792795 C25.0047343,27.6792795 24.6432207,27.3179084 24.6432207,26.8721034 L24.6432207,26.2698181 C24.6432207,25.8240131 25.0047343,25.4626419 25.4505393,25.4626419 L26.8666928,25.4626419 Z M13.6231517,25.4087922 C13.7131385,25.4087922 13.8032677,25.4431068 13.8717545,25.5118784 L13.8717545,25.5118784 L14.4881358,26.1282597 C14.6253942,26.2655181 14.6253942,26.4880646 14.4881358,26.6254654 L14.4881358,26.6254654 L14.4410067,26.6725946 C14.3723775,26.7412238 14.2823906,26.7756808 14.1924038,26.7756808 C14.102417,26.7756808 14.0124301,26.7412238 13.9438009,26.6725946 L13.9438009,26.6725946 L13.3274196,26.0562133 C13.1901613,25.9189549 13.1901613,25.6964084 13.3274196,25.5590076 L13.3274196,25.5590076 L13.3745488,25.5118784 C13.443178,25.4431068 13.5331648,25.4087922 13.6231517,25.4087922 Z M15.0660449,24.0874239 C15.1560318,24.0874239 15.2460186,24.1217385 15.3146478,24.1903677 L15.3146478,24.1903677 L15.9310291,24.806749 C16.0682875,24.9441498 16.0682875,25.1666963 15.9310291,25.3039547 L15.9310291,25.3039547 L15.8838999,25.3510839 C15.8152707,25.4197131 15.7252839,25.4541701 15.635297,25.4541701 C15.5451678,25.4541701 15.455181,25.4197131 15.3865518,25.3510839 L15.3865518,25.3510839 L14.7703129,24.734845 C14.6329121,24.5974442 14.6329121,24.3748977 14.7703129,24.2374969 L14.7703129,24.2374969 L14.8174421,24.1903677 C14.8860713,24.1217385 14.9760581,24.0874239 15.0660449,24.0874239 Z M26.8666928,22.3205923 C27.3124978,22.3205923 27.6740113,22.6819635 27.6740113,23.1279109 L27.6740113,23.7301961 C27.6740113,24.1760011 27.3124978,24.5373723 26.8666928,24.5373723 L21.5026519,24.5373723 C21.0567045,24.5373723 20.6953334,24.1760011 20.6953334,23.7301961 L20.6953334,23.1279109 C20.6953334,22.6819635 21.0567045,22.3205923 21.5026519,22.3205923 L26.8666928,22.3205923 Z M16.4078454,22.7456235 C16.4978322,22.7456235 16.587819,22.7799381 16.6564482,22.8487096 L16.6564482,22.8487096 L17.2726871,23.4649486 C17.4100879,23.6023493 17.4100879,23.8248959 17.2726871,23.9622967 L17.2726871,23.9622967 L17.225558,24.0092835 C17.1570712,24.0779126 17.0669419,24.1123696 16.9769551,24.1123696 C16.8869683,24.1123696 16.7969815,24.0779126 16.7283523,24.0092835 L16.7283523,24.0092835 L16.1121133,23.3930445 C15.9747126,23.2556438 15.9747126,23.0330972 16.1121133,22.8958388 L16.1121133,22.8958388 L16.1591001,22.8487096 C16.2277293,22.7799381 16.3177162,22.7456235 16.4078454,22.7456235 Z M17.7495177,21.4038088 C17.8395045,21.4038088 17.9296337,21.4381234 17.9981205,21.506895 L17.9981205,21.506895 L18.6145018,22.1232763 C18.7519026,22.2605347 18.7519026,22.4830812 18.6145018,22.620482 L18.6145018,22.620482 L18.5673727,22.6676111 C18.4987435,22.7362403 18.4087566,22.7705549 18.3187698,22.7705549 C18.228783,22.7705549 18.1387961,22.7362403 18.0701669,22.6676111 L18.0701669,22.6676111 L17.4537856,22.0512298 C17.3165272,21.9139715 17.3165272,21.6912825 17.4537856,21.5540241 L17.4537856,21.5540241 L17.5009148,21.506895 C17.569544,21.4381234 17.6595308,21.4038088 17.7495177,21.4038088 Z M19.0320863,20 C19.1220731,20 19.2120599,20.0343146 19.2806891,20.1030862 L19.2806891,20.1030862 L19.8969281,20.7193251 C20.0343288,20.8567259 20.0343288,21.0792724 19.8969281,21.2166732 L19.8969281,21.2166732 L19.8497989,21.2638024 C19.7813121,21.3322892 19.6913252,21.3667462 19.601196,21.3667462 C19.5112092,21.3667462 19.4212224,21.3322892 19.3525932,21.2638024 L19.3525932,21.2638024 L18.7363543,20.6474211 C18.5989535,20.5100203 18.5989535,20.2874737 18.7363543,20.1502154 L18.7363543,20.1502154 L18.783341,20.1030862 C18.8519702,20.0343146 18.9419571,20 19.0320863,20 Z M20.4107358,18.6332966 C20.500865,18.6332966 20.5908518,18.6676111 20.659481,18.7363827 L20.659481,18.7363827 L21.2757199,19.3526216 C21.4131207,19.4900224 21.4131207,19.712569 21.2757199,19.8499697 L21.2757199,19.8499697 L21.2285908,19.8969565 C21.1601039,19.9655857 21.0699747,20.0000427 20.9799879,20.0000427 C20.8900011,20.0000427 20.8000142,19.9655857 20.731385,19.8969565 L20.731385,19.8969565 L20.1150037,19.2807176 C19.9777453,19.1433168 19.9777453,18.9207703 20.1150037,18.7835119 L20.1150037,18.7835119 L20.1621329,18.7363827 C20.2307621,18.6676111 20.3207489,18.6332966 20.4107358,18.6332966 Z M21.7923041,17.3610223 C21.8824333,17.3610223 21.9724202,17.3953369 22.0410494,17.4641085 L22.0410494,17.4641085 L22.6572883,18.0803474 C22.7946891,18.2177482 22.7946891,18.4402947 22.6572883,18.5776955 L22.6572883,18.5776955 L22.6101591,18.6248247 C22.5416723,18.6933115 22.4515431,18.7277685 22.3615563,18.7277685 C22.2715694,18.7277685 22.1815826,18.6933115 22.1129534,18.6248247 L22.1129534,18.6248247 L21.4967145,18.0084434 C21.3593137,17.8710426 21.3593137,17.6484961 21.4967145,17.5112377 L21.4967145,17.5112377 L21.5437013,17.4641085 C21.6123305,17.3953369 21.7023173,17.3610223 21.7923041,17.3610223 Z M23.1883387,15.9651301 C23.2783256,15.9651301 23.3683124,15.9994447 23.4369416,16.0680739 L23.4369416,16.0680739 L24.0533229,16.6844552 C24.1905813,16.821856 24.1905813,17.0444025 24.0533229,17.1816609 L24.0533229,17.1816609 L24.0061937,17.2287901 C23.9375645,17.2974193 23.8475777,17.3318763 23.7575909,17.3318763 C23.667604,17.3318763 23.5774748,17.2974193 23.508988,17.2287901 L23.508988,17.2287901 L22.8926067,16.6125512 C22.7552059,16.4751504 22.7552059,16.2526039 22.8926067,16.1152031 L22.8926067,16.1152031 L22.9397359,16.0680739 C23.0083651,15.9994447 23.0983519,15.9651301 23.1883387,15.9651301 Z M18.1375147,14.3054711 C18.4096109,14.6601502 19.3295554,14.5040971 19.3295554,13.1878973 C19.3295554,12.8145659 21.1176165,12.8154202 21.2170007,12.914662 C21.3162425,13.0141886 21.6390275,13.0637383 21.564703,13.4611327 C21.490236,13.8583847 21.5757104,15.9198234 19.2798633,16.615228 C18.9566511,16.713046 17.8145873,17.1614139 15.9520592,15.2988858 C15.6520557,14.9988823 14.6855516,14.5040971 14.4618659,15.8701313 C14.4588492,15.8885701 14.4573742,15.9080751 14.4566718,15.9283333 L14.4561314,16.0235241 C14.4545832,16.3180136 14.3836125,16.6642438 12.3510198,16.2923006 C12.3510198,16.2923006 11.8045492,13.2625067 14.710184,12.7657281 C15.1998434,12.6821486 16.7467056,12.4924928 18.1375147,14.3054711 Z M24.5418289,14.6116399 C24.6318158,14.6116399 24.7218026,14.6459545 24.7904318,14.7145837 L24.7904318,14.7145837 L25.4068131,15.330965 C25.5440715,15.4683658 25.5440715,15.6909123 25.4068131,15.8281707 L25.4068131,15.8281707 L25.3596839,15.8752999 C25.2910547,15.9439291 25.2010679,15.9783861 25.1110811,15.9783861 C25.0210942,15.9783861 24.930965,15.9439291 24.8624782,15.8752999 L24.8624782,15.8752999 L24.2460969,15.2589186 C24.1086961,15.1216602 24.1086961,14.8991137 24.2460969,14.7617129 L24.2460969,14.7617129 L24.2932261,14.7145837 C24.3618553,14.6459545 24.4518421,14.6116399 24.5418289,14.6116399 Z M25.8580429,13.2954259 C25.9480298,13.2954259 26.0380166,13.3297405 26.1066458,13.3983697 L26.1066458,13.3983697 L26.7230271,14.014751 C26.8602855,14.1520094 26.8602855,14.3746983 26.7230271,14.5119567 L26.7230271,14.5119567 L26.6758979,14.5590859 C26.6072687,14.6277151 26.5172819,14.6621721 26.4272951,14.6621721 C26.3373082,14.6621721 26.247179,14.6277151 26.1786922,14.5590859 L26.1786922,14.5590859 L25.5623109,13.9427046 C25.4250525,13.8054462 25.4250525,13.5828997 25.5623109,13.4454989 L25.5623109,13.4454989 L25.6094401,13.3983697 C25.6780693,13.3297405 25.7680561,13.2954259 25.8580429,13.2954259 Z M27.2487951,11.9046738 C27.3387819,11.9046738 27.4287687,11.9389884 27.4973979,12.0076176 L27.4973979,12.0076176 L28.1137792,12.6239989 C28.2510376,12.7613996 28.2510376,12.9839462 28.1137792,13.1212046 L28.1137792,13.1212046 L28.0666501,13.1683337 C27.9980209,13.2369629 27.908034,13.2714199 27.8180472,13.2714199 C27.7280604,13.2714199 27.6379312,13.2369629 27.5694443,13.1683337 L27.5694443,13.1683337 L26.953063,12.5519524 C26.8156623,12.4146941 26.8156623,12.1921475 26.953063,12.0547467 L26.953063,12.0547467 L27.0001922,12.0076176 C27.0688214,11.9389884 27.1588082,11.9046738 27.2487951,11.9046738 Z" id="Combined-Shape" fill="#FFFFFF"></path>
                </g>
                <g id="oval1-copy">
                    <circle id="Oval-Copy" stroke="#F4792C" fill="#F4792C" cx="20" cy="20" r="19.5"></circle>
                    <path d="M28.7891646,10 C29.4579433,10 30,10.5421991 30,11.2108354 L30,11.2108354 L30,28.7891646 C30,29.4579433 29.4579433,30 28.7891646,30 L28.7891646,30 L11.2108354,30 C10.5420567,30 10,29.4579433 10,28.7891646 L10,28.7891646 L10,11.2108354 C10,10.5421991 10.5420567,10 11.2108354,10 L11.2108354,10 Z M28.5761578,11.4238422 L11.4238422,11.4238422 L11.4238422,28.5761578 L28.5761578,28.5761578 L28.5761578,11.4238422 Z M12.3355854,26.8177553 C12.4255722,26.8177553 12.5157014,26.8520699 12.5841882,26.9208415 L12.5841882,26.9208415 L13.2005695,27.5372228 C13.3378279,27.6744812 13.3378279,27.8970277 13.2005695,28.0344285 L13.2005695,28.0344285 L13.1534404,28.0815577 C13.0848112,28.1501869 12.9948243,28.1846439 12.9048375,28.1846439 C12.8148507,28.1846439 12.7248638,28.1501869 12.6562346,28.0815577 L12.6562346,28.0815577 L12.0398533,27.4651764 C11.902595,27.327918 11.902595,27.1053714 12.0398533,26.9679707 L12.0398533,26.9679707 L12.0869825,26.9208415 C12.1556117,26.8520699 12.2455985,26.8177553 12.3355854,26.8177553 Z M23.0308048,25.4626419 C23.4766098,25.4626419 23.837981,25.8240131 23.837981,26.2698181 L23.837981,26.8721034 C23.837981,27.3179084 23.4766098,27.6792795 23.0308048,27.6792795 L21.614509,27.6792795 C21.1687039,27.6792795 20.8073328,27.3179084 20.8073328,26.8721034 L20.8073328,26.2698181 C20.8073328,25.8240131 21.1687039,25.4626419 21.614509,25.4626419 L23.0308048,25.4626419 Z M26.8666928,25.4626419 C27.3124978,25.4626419 27.6740113,25.8240131 27.6740113,26.2698181 L27.6740113,26.8721034 C27.6740113,27.3179084 27.3124978,27.6792795 26.8666928,27.6792795 L25.4505393,27.6792795 C25.0047343,27.6792795 24.6432207,27.3179084 24.6432207,26.8721034 L24.6432207,26.2698181 C24.6432207,25.8240131 25.0047343,25.4626419 25.4505393,25.4626419 L26.8666928,25.4626419 Z M13.6231517,25.4087922 C13.7131385,25.4087922 13.8032677,25.4431068 13.8717545,25.5118784 L13.8717545,25.5118784 L14.4881358,26.1282597 C14.6253942,26.2655181 14.6253942,26.4880646 14.4881358,26.6254654 L14.4881358,26.6254654 L14.4410067,26.6725946 C14.3723775,26.7412238 14.2823906,26.7756808 14.1924038,26.7756808 C14.102417,26.7756808 14.0124301,26.7412238 13.9438009,26.6725946 L13.9438009,26.6725946 L13.3274196,26.0562133 C13.1901613,25.9189549 13.1901613,25.6964084 13.3274196,25.5590076 L13.3274196,25.5590076 L13.3745488,25.5118784 C13.443178,25.4431068 13.5331648,25.4087922 13.6231517,25.4087922 Z M15.0660449,24.0874239 C15.1560318,24.0874239 15.2460186,24.1217385 15.3146478,24.1903677 L15.3146478,24.1903677 L15.9310291,24.806749 C16.0682875,24.9441498 16.0682875,25.1666963 15.9310291,25.3039547 L15.9310291,25.3039547 L15.8838999,25.3510839 C15.8152707,25.4197131 15.7252839,25.4541701 15.635297,25.4541701 C15.5451678,25.4541701 15.455181,25.4197131 15.3865518,25.3510839 L15.3865518,25.3510839 L14.7703129,24.734845 C14.6329121,24.5974442 14.6329121,24.3748977 14.7703129,24.2374969 L14.7703129,24.2374969 L14.8174421,24.1903677 C14.8860713,24.1217385 14.9760581,24.0874239 15.0660449,24.0874239 Z M26.8666928,22.3205923 C27.3124978,22.3205923 27.6740113,22.6819635 27.6740113,23.1279109 L27.6740113,23.7301961 C27.6740113,24.1760011 27.3124978,24.5373723 26.8666928,24.5373723 L21.5026519,24.5373723 C21.0567045,24.5373723 20.6953334,24.1760011 20.6953334,23.7301961 L20.6953334,23.1279109 C20.6953334,22.6819635 21.0567045,22.3205923 21.5026519,22.3205923 L26.8666928,22.3205923 Z M16.4078454,22.7456235 C16.4978322,22.7456235 16.587819,22.7799381 16.6564482,22.8487096 L16.6564482,22.8487096 L17.2726871,23.4649486 C17.4100879,23.6023493 17.4100879,23.8248959 17.2726871,23.9622967 L17.2726871,23.9622967 L17.225558,24.0092835 C17.1570712,24.0779126 17.0669419,24.1123696 16.9769551,24.1123696 C16.8869683,24.1123696 16.7969815,24.0779126 16.7283523,24.0092835 L16.7283523,24.0092835 L16.1121133,23.3930445 C15.9747126,23.2556438 15.9747126,23.0330972 16.1121133,22.8958388 L16.1121133,22.8958388 L16.1591001,22.8487096 C16.2277293,22.7799381 16.3177162,22.7456235 16.4078454,22.7456235 Z M17.7495177,21.4038088 C17.8395045,21.4038088 17.9296337,21.4381234 17.9981205,21.506895 L17.9981205,21.506895 L18.6145018,22.1232763 C18.7519026,22.2605347 18.7519026,22.4830812 18.6145018,22.620482 L18.6145018,22.620482 L18.5673727,22.6676111 C18.4987435,22.7362403 18.4087566,22.7705549 18.3187698,22.7705549 C18.228783,22.7705549 18.1387961,22.7362403 18.0701669,22.6676111 L18.0701669,22.6676111 L17.4537856,22.0512298 C17.3165272,21.9139715 17.3165272,21.6912825 17.4537856,21.5540241 L17.4537856,21.5540241 L17.5009148,21.506895 C17.569544,21.4381234 17.6595308,21.4038088 17.7495177,21.4038088 Z M19.0320863,20 C19.1220731,20 19.2120599,20.0343146 19.2806891,20.1030862 L19.2806891,20.1030862 L19.8969281,20.7193251 C20.0343288,20.8567259 20.0343288,21.0792724 19.8969281,21.2166732 L19.8969281,21.2166732 L19.8497989,21.2638024 C19.7813121,21.3322892 19.6913252,21.3667462 19.601196,21.3667462 C19.5112092,21.3667462 19.4212224,21.3322892 19.3525932,21.2638024 L19.3525932,21.2638024 L18.7363543,20.6474211 C18.5989535,20.5100203 18.5989535,20.2874737 18.7363543,20.1502154 L18.7363543,20.1502154 L18.783341,20.1030862 C18.8519702,20.0343146 18.9419571,20 19.0320863,20 Z M20.4107358,18.6332966 C20.500865,18.6332966 20.5908518,18.6676111 20.659481,18.7363827 L20.659481,18.7363827 L21.2757199,19.3526216 C21.4131207,19.4900224 21.4131207,19.712569 21.2757199,19.8499697 L21.2757199,19.8499697 L21.2285908,19.8969565 C21.1601039,19.9655857 21.0699747,20.0000427 20.9799879,20.0000427 C20.8900011,20.0000427 20.8000142,19.9655857 20.731385,19.8969565 L20.731385,19.8969565 L20.1150037,19.2807176 C19.9777453,19.1433168 19.9777453,18.9207703 20.1150037,18.7835119 L20.1150037,18.7835119 L20.1621329,18.7363827 C20.2307621,18.6676111 20.3207489,18.6332966 20.4107358,18.6332966 Z M21.7923041,17.3610223 C21.8824333,17.3610223 21.9724202,17.3953369 22.0410494,17.4641085 L22.0410494,17.4641085 L22.6572883,18.0803474 C22.7946891,18.2177482 22.7946891,18.4402947 22.6572883,18.5776955 L22.6572883,18.5776955 L22.6101591,18.6248247 C22.5416723,18.6933115 22.4515431,18.7277685 22.3615563,18.7277685 C22.2715694,18.7277685 22.1815826,18.6933115 22.1129534,18.6248247 L22.1129534,18.6248247 L21.4967145,18.0084434 C21.3593137,17.8710426 21.3593137,17.6484961 21.4967145,17.5112377 L21.4967145,17.5112377 L21.5437013,17.4641085 C21.6123305,17.3953369 21.7023173,17.3610223 21.7923041,17.3610223 Z M23.1883387,15.9651301 C23.2783256,15.9651301 23.3683124,15.9994447 23.4369416,16.0680739 L23.4369416,16.0680739 L24.0533229,16.6844552 C24.1905813,16.821856 24.1905813,17.0444025 24.0533229,17.1816609 L24.0533229,17.1816609 L24.0061937,17.2287901 C23.9375645,17.2974193 23.8475777,17.3318763 23.7575909,17.3318763 C23.667604,17.3318763 23.5774748,17.2974193 23.508988,17.2287901 L23.508988,17.2287901 L22.8926067,16.6125512 C22.7552059,16.4751504 22.7552059,16.2526039 22.8926067,16.1152031 L22.8926067,16.1152031 L22.9397359,16.0680739 C23.0083651,15.9994447 23.0983519,15.9651301 23.1883387,15.9651301 Z M18.1375147,14.3054711 C18.4096109,14.6601502 19.3295554,14.5040971 19.3295554,13.1878973 C19.3295554,12.8145659 21.1176165,12.8154202 21.2170007,12.914662 C21.3162425,13.0141886 21.6390275,13.0637383 21.564703,13.4611327 C21.490236,13.8583847 21.5757104,15.9198234 19.2798633,16.615228 C18.9566511,16.713046 17.8145873,17.1614139 15.9520592,15.2988858 C15.6520557,14.9988823 14.6855516,14.5040971 14.4618659,15.8701313 C14.4588492,15.8885701 14.4573742,15.9080751 14.4566718,15.9283333 L14.4561314,16.0235241 C14.4545832,16.3180136 14.3836125,16.6642438 12.3510198,16.2923006 C12.3510198,16.2923006 11.8045492,13.2625067 14.710184,12.7657281 C15.1998434,12.6821486 16.7467056,12.4924928 18.1375147,14.3054711 Z M24.5418289,14.6116399 C24.6318158,14.6116399 24.7218026,14.6459545 24.7904318,14.7145837 L24.7904318,14.7145837 L25.4068131,15.330965 C25.5440715,15.4683658 25.5440715,15.6909123 25.4068131,15.8281707 L25.4068131,15.8281707 L25.3596839,15.8752999 C25.2910547,15.9439291 25.2010679,15.9783861 25.1110811,15.9783861 C25.0210942,15.9783861 24.930965,15.9439291 24.8624782,15.8752999 L24.8624782,15.8752999 L24.2460969,15.2589186 C24.1086961,15.1216602 24.1086961,14.8991137 24.2460969,14.7617129 L24.2460969,14.7617129 L24.2932261,14.7145837 C24.3618553,14.6459545 24.4518421,14.6116399 24.5418289,14.6116399 Z M25.8580429,13.2954259 C25.9480298,13.2954259 26.0380166,13.3297405 26.1066458,13.3983697 L26.1066458,13.3983697 L26.7230271,14.014751 C26.8602855,14.1520094 26.8602855,14.3746983 26.7230271,14.5119567 L26.7230271,14.5119567 L26.6758979,14.5590859 C26.6072687,14.6277151 26.5172819,14.6621721 26.4272951,14.6621721 C26.3373082,14.6621721 26.247179,14.6277151 26.1786922,14.5590859 L26.1786922,14.5590859 L25.5623109,13.9427046 C25.4250525,13.8054462 25.4250525,13.5828997 25.5623109,13.4454989 L25.5623109,13.4454989 L25.6094401,13.3983697 C25.6780693,13.3297405 25.7680561,13.2954259 25.8580429,13.2954259 Z M27.2487951,11.9046738 C27.3387819,11.9046738 27.4287687,11.9389884 27.4973979,12.0076176 L27.4973979,12.0076176 L28.1137792,12.6239989 C28.2510376,12.7613996 28.2510376,12.9839462 28.1137792,13.1212046 L28.1137792,13.1212046 L28.0666501,13.1683337 C27.9980209,13.2369629 27.908034,13.2714199 27.8180472,13.2714199 C27.7280604,13.2714199 27.6379312,13.2369629 27.5694443,13.1683337 L27.5694443,13.1683337 L26.953063,12.5519524 C26.8156623,12.4146941 26.8156623,12.1921475 26.953063,12.0547467 L26.953063,12.0547467 L27.0001922,12.0076176 C27.0688214,11.9389884 27.1588082,11.9046738 27.2487951,11.9046738 Z" id="Combined-Shape" fill="#FFFFFF"></path>
                </g>
            </g>
        </g>
    </g>
</svg>