<?xml version="1.0" encoding="UTF-8"?>
<svg width="200px" height="130px" viewBox="0 0 200 130" version="1.1" xmlns="http://www.w3.org/2000/svg" xmlns:xlink="http://www.w3.org/1999/xlink">
    <title>Logo_SMA</title>
    <g id="Logo_SMA" stroke="none" stroke-width="1" fill="none" fill-rule="evenodd">
        <g id="Group" transform="translate(0.000000, 0.000001)" fill-rule="nonzero">
            <path d="M21.6951241,0 C15.9571449,0 10.5359393,2.22514084 6.43333571,6.26335957 C2.29210119,10.3376338 0.0103015784,15.7536887 0.0103015784,21.5071206 L0,116.608715 C0,116.637044 0.0025753946,128.774879 0.0025753946,128.774879 L178.477427,128.777454 C190.347421,128.777454 200,119.127451 200,107.270334 L200,93.5409055 C200,93.5409055 199.963944,93.576961 199.963944,93.5795364 C199.974246,93.3683541 200,93.1700487 200,92.9459894 L200,40.4002133 L199.997425,40.4002133 L199.997425,0 L21.6951241,0" id="path2648" fill="#FFFFFF"></path>
            <path d="M12.6039812,122.184444 L178.477427,122.184444 C186.726416,122.184444 193.409565,115.509021 193.409565,107.270334 L193.40699,73.5017601 C103.214089,71.8226028 32.0868413,110.440645 12.6039812,122.184444" id="path2650" fill="#E6001D"></path>
            <path d="M21.7260288,6.62391481 C13.4796359,6.62391481 6.59558557,13.2607067 6.59558557,21.496819 L6.59558557,116.593263 C23.7889199,105.982637 98.1894945,63.8749351 193.376085,65.6004495 L193.376085,6.62391481 L21.7260288,6.62391481 Z M102.979728,22.9132861 L107.744208,22.9132861 L121.329421,56.0071046 L114.56901,56.0071046 L111.800461,49.1179241 L98.5371728,49.1179241 L95.6398539,56.0071046 L88.9438279,56.0071046 L102.979728,22.9132861 Z M53.7253067,22.9776709 L58.0390927,22.9776709 L66.9242041,44.1602895 L76.0668549,22.9776709 L80.4450257,22.9776709 L85.8533544,56.0071046 L79.4792527,56.0071046 L76.5819338,35.9834116 L67.6968224,56.3934138 L65.9584311,56.3934138 L57.3308592,35.9834116 L54.0472311,56.0071046 L47.7375143,56.0071046 L53.7253067,22.9776709 Z M33.7016137,23.0420558 C37.2505487,23.0420558 40.5083817,24.2653682 43.2305737,26.6476082 L39.9469456,30.9613942 C38.2960559,29.1148363 36.7096746,28.3216147 34.6673867,28.3216147 C32.0920333,28.3216147 30.0960613,29.9363871 30.0960613,31.9271672 C30.0961025,33.6758601 31.262715,34.5746708 35.0536959,35.9834116 C38.6489674,37.2942875 40.0345091,38.0514535 41.4921824,39.2670397 C43.387611,40.8715106 44.3895013,43.2254212 44.3895013,46.0918354 C44.3895013,52.4582109 39.766668,56.779723 33.0577651,56.779723 C28.3937667,56.779723 24.898915,54.8249985 21.9835683,50.598776 L26.0398148,46.6712992 C27.4974263,49.4398484 29.9492638,50.9850851 32.8646105,50.9850851 C35.7310453,50.9850851 37.8222451,49.0380868 37.8222451,46.4137597 C37.8222863,45.1028839 37.2505075,43.9568333 36.0838537,43.1301316 C35.4503685,42.6459574 34.2475974,42.1695094 31.5769132,41.1985857 C25.7462198,39.1073652 23.5931899,36.7173991 23.5931899,32.4422461 C23.5932311,27.0004373 27.8709204,23.0420558 33.7016137,23.0420558 Z M105.297584,32.3778612 L100.597488,44.0315197 L109.80453,44.0315197 L105.297584,32.3778612 Z" id="path2652" fill="#005088"></path>
        </g>
    </g>
</svg>