<?xml version="1.0" encoding="UTF-8"?>
<svg width="38px" height="50px" viewBox="0 0 38 50" version="1.1" xmlns="http://www.w3.org/2000/svg" xmlns:xlink="http://www.w3.org/1999/xlink">
    <title>Combined Shape</title>
    <g id="Page-1" stroke="none" stroke-width="1" fill="none" fill-rule="evenodd">
        <g id="single-line-update" transform="translate(-757.000000, -709.000000)" fill="#FFFFFF" fill-rule="nonzero">
            <path d="M794.2711,709 C794.673744,709 795,709.32793 795,709.732422 L795,709.732422 L795,715.219043 C795,715.623535 794.673744,715.951465 794.2711,715.951465 C793.868455,715.951465 793.542199,715.623535 793.542199,715.219043 L793.542199,715.219043 L793.542199,710.464844 L758.457801,710.464844 L758.457801,757.535156 L785.321274,757.535156 C785.723918,757.535156 786.050174,757.863086 786.050174,758.267578 C786.050174,758.67207 785.723918,759 785.321274,759 L785.321274,759 L757.7289,759 C757.326256,759 757,758.67207 757,758.267578 L757,758.267578 L757,709.732422 C757,709.32793 757.326256,709 757.7289,709 L757.7289,709 Z M794.2711,717.607129 C794.673744,717.607129 795,717.935059 795,718.339551 L795,718.339551 L795,758.267578 C795,758.67207 794.673744,759 794.2711,759 L794.2711,759 L788.44709,759 C788.044445,759 787.718189,758.67207 787.718189,758.267578 C787.718189,757.863086 788.044445,757.535156 788.44709,757.535156 L788.44709,757.535156 L793.542199,757.535156 L793.542199,718.339551 C793.542199,717.935059 793.868455,717.607129 794.2711,717.607129 Z M791.355499,711.929688 C791.758143,711.929688 792.084399,712.257617 792.084399,712.662109 L792.084399,712.662109 L792.084399,755.337891 C792.084399,755.742383 791.758143,756.070312 791.355499,756.070312 L791.355499,756.070312 L760.644501,756.070312 C760.241857,756.070312 759.915601,755.742383 759.915601,755.337891 L759.915601,755.337891 L759.915601,752.767871 C759.915601,752.363379 760.241857,752.035449 760.644501,752.035449 C761.047146,752.035449 761.373402,752.363379 761.373402,752.767871 L761.373402,752.767871 L761.373402,754.605469 L790.626598,754.605469 L790.626598,747.305664 L785.35422,747.305664 L785.35422,748.379883 C785.35422,748.784375 785.027964,749.112305 784.62532,749.112305 L784.62532,749.112305 L777.433504,749.112305 C777.030859,749.112305 776.704604,748.784375 776.704604,748.379883 L776.704604,748.379883 L776.704604,744.668945 C776.704604,744.264453 777.030859,743.936523 777.433504,743.936523 L777.433504,743.936523 L784.62532,743.936523 C785.027964,743.936523 785.35422,744.264453 785.35422,744.668945 L785.35422,744.668945 L785.35422,745.84082 L790.626598,745.84082 L790.626598,740.958008 L785.35422,740.958008 L785.35422,742.129883 C785.35422,742.534375 785.027964,742.862305 784.62532,742.862305 L784.62532,742.862305 L777.433504,742.862305 C777.030859,742.862305 776.704604,742.534375 776.704604,742.129883 L776.704604,742.129883 L776.704604,738.418945 C776.704604,738.014453 777.030859,737.686523 777.433504,737.686523 L777.433504,737.686523 L784.62532,737.686523 C785.027964,737.686523 785.35422,738.014453 785.35422,738.418945 L785.35422,738.418945 L785.35422,739.493164 L790.626598,739.493164 L790.626598,734.708008 L785.35422,734.708008 L785.35422,735.879883 C785.35422,736.284375 785.027964,736.612305 784.62532,736.612305 L784.62532,736.612305 L777.433504,736.612305 C777.030859,736.612305 776.704604,736.284375 776.704604,735.879883 L776.704604,735.879883 L776.704604,732.168945 C776.704604,731.764453 777.030859,731.436523 777.433504,731.436523 L777.433504,731.436523 L784.62532,731.436523 C785.027964,731.436523 785.35422,731.764453 785.35422,732.168945 L785.35422,732.168945 L785.35422,733.243164 L790.626598,733.243164 L790.626598,728.458008 L785.35422,728.458008 L785.35422,729.629883 C785.35422,730.034375 785.027964,730.362305 784.62532,730.362305 L784.62532,730.362305 L777.433504,730.362305 C777.030859,730.362305 776.704604,730.034375 776.704604,729.629883 L776.704604,729.629883 L776.704604,725.918945 C776.704604,725.514453 777.030859,725.186523 777.433504,725.186523 L777.433504,725.186523 L784.62532,725.186523 C785.027964,725.186523 785.35422,725.514453 785.35422,725.918945 L785.35422,725.918945 L785.35422,726.993164 L790.626598,726.993164 L790.626598,722.208008 L785.35422,722.208008 L785.35422,723.379883 C785.35422,723.784375 785.027964,724.112305 784.62532,724.112305 L784.62532,724.112305 L777.433504,724.112305 C777.030859,724.112305 776.704604,723.784375 776.704604,723.379883 L776.704604,723.379883 L776.704604,719.668945 C776.704604,719.264453 777.030859,718.936523 777.433504,718.936523 L777.433504,718.936523 L784.62532,718.936523 C785.027964,718.936523 785.35422,719.264453 785.35422,719.668945 L785.35422,719.668945 L785.35422,720.743164 L790.626598,720.743164 L790.626598,713.394531 L761.373402,713.394531 L761.373402,720.743164 L766.64578,720.743164 L766.64578,719.620117 C766.64578,719.215625 766.972036,718.887695 767.37468,718.887695 L767.37468,718.887695 L774.566496,718.887695 C774.969141,718.887695 775.295396,719.215625 775.295396,719.620117 L775.295396,719.620117 L775.295396,723.331055 C775.295396,723.735547 774.969141,724.063477 774.566496,724.063477 L774.566496,724.063477 L767.37468,724.063477 C766.972036,724.063477 766.64578,723.735547 766.64578,723.331055 L766.64578,723.331055 L766.64578,722.208008 L761.373402,722.208008 L761.373402,726.993164 L766.64578,726.993164 L766.64578,725.870117 C766.64578,725.465625 766.972036,725.137695 767.37468,725.137695 L767.37468,725.137695 L774.566496,725.137695 C774.969141,725.137695 775.295396,725.465625 775.295396,725.870117 L775.295396,725.870117 L775.295396,729.581055 C775.295396,729.985547 774.969141,730.313477 774.566496,730.313477 L774.566496,730.313477 L767.37468,730.313477 C766.972036,730.313477 766.64578,729.985547 766.64578,729.581055 L766.64578,729.581055 L766.64578,728.458008 L761.373402,728.458008 L761.373402,733.243164 L766.64578,733.243164 L766.64578,732.120117 C766.64578,731.715625 766.972036,731.387695 767.37468,731.387695 L767.37468,731.387695 L774.566496,731.387695 C774.969141,731.387695 775.295396,731.715625 775.295396,732.120117 L775.295396,732.120117 L775.295396,735.831055 C775.295396,736.235547 774.969141,736.563477 774.566496,736.563477 L774.566496,736.563477 L767.37468,736.563477 C766.972036,736.563477 766.64578,736.235547 766.64578,735.831055 L766.64578,735.831055 L766.64578,734.708008 L761.373402,734.708008 L761.373402,739.493164 L766.64578,739.493164 L766.64578,738.370117 C766.64578,737.965625 766.972036,737.637695 767.37468,737.637695 L767.37468,737.637695 L774.566496,737.637695 C774.969141,737.637695 775.295396,737.965625 775.295396,738.370117 L775.295396,738.370117 L775.295396,742.081055 C775.295396,742.485547 774.969141,742.813477 774.566496,742.813477 L774.566496,742.813477 L767.37468,742.813477 C766.972036,742.813477 766.64578,742.485547 766.64578,742.081055 L766.64578,742.081055 L766.64578,740.958008 L761.373402,740.958008 L761.373402,745.84082 L766.64578,745.84082 L766.64578,744.620117 C766.64578,744.215625 766.972036,743.887695 767.37468,743.887695 L767.37468,743.887695 L774.566496,743.887695 C774.969141,743.887695 775.295396,744.215625 775.295396,744.620117 L775.295396,744.620117 L775.295396,748.331055 C775.295396,748.735547 774.969141,749.063477 774.566496,749.063477 L774.566496,749.063477 L767.37468,749.063477 C766.972036,749.063477 766.64578,748.735547 766.64578,748.331055 L766.64578,748.331055 L766.64578,747.305664 L761.373402,747.305664 L761.373402,749.612207 C761.373402,750.016699 761.047146,750.344629 760.644501,750.344629 C760.241857,750.344629 759.915601,750.016699 759.915601,749.612207 L759.915601,749.612207 L759.915601,712.662109 C759.915601,712.257617 760.241857,711.929688 760.644501,711.929688 L760.644501,711.929688 Z M780.203325,745.401367 L778.162404,745.401367 L778.162404,747.647461 L780.203325,747.647461 L780.203325,745.401367 Z M783.896419,745.401367 L781.661125,745.401367 L781.661125,747.647461 L783.896419,747.647461 L783.896419,745.401367 Z M770.290281,745.352539 L768.103581,745.352539 L768.103581,747.598633 L770.290281,747.598633 L770.290281,745.352539 Z M773.837596,745.352539 L771.748082,745.352539 L771.748082,747.598633 L773.837596,747.598633 L773.837596,745.352539 Z M780.397698,739.151367 L778.162404,739.151367 L778.162404,741.397461 L780.397698,741.397461 L780.397698,739.151367 Z M783.896419,739.151367 L781.855499,739.151367 L781.855499,741.397461 L783.896419,741.397461 L783.896419,739.151367 Z M770.290281,739.102539 L768.103581,739.102539 L768.103581,741.348633 L770.290281,741.348633 L770.290281,739.102539 Z M773.837596,739.102539 L771.748082,739.102539 L771.748082,741.348633 L773.837596,741.348633 L773.837596,739.102539 Z M780.203325,732.901367 L778.162404,732.901367 L778.162404,735.147461 L780.203325,735.147461 L780.203325,732.901367 Z M783.896419,732.901367 L781.661125,732.901367 L781.661125,735.147461 L783.896419,735.147461 L783.896419,732.901367 Z M773.837596,732.852539 L771.748082,732.852539 L771.748082,735.098633 L773.837596,735.098633 L773.837596,732.852539 Z M770.290281,732.852539 L768.103581,732.852539 L768.103581,735.098633 L770.290281,735.098633 L770.290281,732.852539 Z M780.203325,726.651367 L778.162404,726.651367 L778.162404,728.897461 L780.203325,728.897461 L780.203325,726.651367 Z M783.896419,726.651367 L781.661125,726.651367 L781.661125,728.897461 L783.896419,728.897461 L783.896419,726.651367 Z M770.193095,726.602539 L768.103581,726.602539 L768.103581,728.848633 L770.193095,728.848633 L770.193095,726.602539 Z M773.837596,726.602539 L771.650895,726.602539 L771.650895,728.848633 L773.837596,728.848633 L773.837596,726.602539 Z M780.203325,720.401367 L778.162404,720.401367 L778.162404,722.647461 L780.203325,722.647461 L780.203325,720.401367 Z M783.896419,720.401367 L781.661125,720.401367 L781.661125,722.647461 L783.896419,722.647461 L783.896419,720.401367 Z M770.290281,720.352539 L768.103581,720.352539 L768.103581,722.598633 L770.290281,722.598633 L770.290281,720.352539 Z M773.837596,720.352539 L771.748082,720.352539 L771.748082,722.598633 L773.837596,722.598633 L773.837596,720.352539 Z" id="Combined-Shape"></path>
        </g>
    </g>
</svg>