<?xml version="1.0" encoding="UTF-8"?>
<svg width="379px" height="373px" viewBox="0 0 379 373" version="1.1" xmlns="http://www.w3.org/2000/svg" xmlns:xlink="http://www.w3.org/1999/xlink">
    <title>power-gauge</title>
    <defs>
        <circle id="path-1" cx="40" cy="40" r="40"></circle>
    </defs>
    <g id="Page-1" stroke="none" stroke-width="1" fill="none" fill-rule="evenodd">
        <g id="project-overview" transform="translate(-969.000000, -187.000000)">
            <g id="power-gauge" transform="translate(971.646724, 187.000000)">
                <text id="30-kW" font-family="Helvetica" font-size="14" font-weight="normal" fill="#6E6B7B">
                    <tspan x="35.6774945" y="328">30 kW</tspan>
                </text>
                <text id="45.461-kW-Copy" font-family="Helvetica" font-size="14" font-weight="normal" fill="#6E6B7B">
                    <tspan x="73.4294476" y="28">45.461 kW</tspan>
                </text>
                <text id="15.461-kW" font-family="Helvetica" font-size="14" font-weight="normal" fill="#6E6B7B">
                    <tspan x="309.429448" y="328">15.461 kW</tspan>
                </text>
                <path d="M272.958534,22.6111896 C270.816094,26.5480045 268.835245,30.5819042 267.02344,34.7037706 C255.31636,61.3374375 251.108301,90.6402201 254.850092,119.472762 C258.591883,148.305303 270.142521,175.581116 288.264532,198.377996 C302.187601,215.892749 319.586517,230.256599 339.294687,240.621284" id="Oval" stroke="#BEBDBC" stroke-width="3" stroke-linecap="round" transform="translate(296.408985, 131.616237) rotate(165.539780) translate(-296.408985, -131.616237) "></path>
                <path d="M98.8265683,12.0848861 C85.0645613,25.9814123 73.9112708,42.321712 65.9895567,60.3436532 C54.2824774,86.9773201 50.0744186,116.280103 53.8162096,145.112644 C57.5580007,173.945186 69.1086386,201.220998 87.2306492,224.017879 C90.1059865,227.634956 93.1295647,231.117651 96.2911088,234.458493" id="Oval-Copy" stroke="#F4792C" stroke-width="3" stroke-linecap="round" transform="translate(75.657984, 123.271689) rotate(30.000000) translate(-75.657984, -123.271689) "></path>
                <path d="M184.954568,201.087243 C177.174196,211.229508 170.603861,222.306146 165.418277,234.103378 C153.711198,260.737045 149.503139,290.039828 153.24493,318.872369 C156.986721,347.704911 168.537359,374.980724 186.659369,397.777604 C196.937132,410.706683 209.108928,421.918794 222.705502,431.072728" id="Oval-Copy-2" stroke="#F4792C" stroke-width="3" stroke-linecap="round" transform="translate(187.311811, 316.079986) rotate(-80.000000) translate(-187.311811, -316.079986) "></path>
                <circle id="Mask" stroke="#F4792C" stroke-width="3" fill="#FFFFFF" cx="54.3532758" cy="264" r="38.5"></circle>
                <g id="solar-panel-(3)-copy" transform="translate(149.353276, 0.000000)">
                    <mask id="mask-2" fill="white">
                        <use xlink:href="#path-1"></use>
                    </mask>
                    <circle stroke="#F4792C" stroke-width="3" cx="40" cy="40" r="38.5"></circle>
                    <g id="solar-panel-(3)" mask="url(#mask-2)">
                        <g transform="translate(15.000000, 12.000000)" id="Group">
                            <g transform="translate(16.768293, -0.000000)">
                                <path d="M8.23170732,17.2764228 L7.94400407,16.9775407 C6.81067073,15.8002033 5.16727642,15.2651423 3.5601626,15.5504065 L3.14552846,15.6239837 L3.09227642,15.2380081 C2.86697154,13.6058943 1.84105691,12.1954268 0.359756098,11.4814024 L0,11.3080285 L0.183434959,10.9658537 C0.962804878,9.51239837 0.962804878,7.76402439 0.183434959,6.31067073 L0,5.96849593 L0.359857724,5.79502033 C1.84115854,5.08099593 2.86707317,3.67052846 3.09237805,2.03841463 L3.14563008,1.65243902 L3.56026423,1.72601626 C5.16737805,2.01128049 6.81077236,1.47621951 7.94410569,0.298882114 L8.23170732,7.22096276e-16 L8.51941057,0.298882114 C9.6527439,1.47621951 11.2961382,2.01128049 12.903252,1.72601626 L13.3178862,1.65243902 L13.3711382,2.03841463 C13.5964431,3.67052846 14.6223577,5.08099593 16.1036585,5.79502033 L16.4634146,5.96849593 L16.2799797,6.31067073 C15.5006098,7.76412602 15.5006098,9.5125 16.2799797,10.9658537 L16.4634146,11.3079268 L16.1035569,11.4814024 C14.6222561,12.1954268 13.5963415,13.6058943 13.3710366,15.2380081 L13.3177846,15.6239837 L12.9031504,15.5504065 C11.2960366,15.2651423 9.65264228,15.8002033 8.51930894,16.9775407 L8.23170732,17.2764228 Z" id="Path" fill="#FFE352" fill-rule="nonzero"></path>
                                <circle id="Oval" fill="#FFB236" fill-rule="nonzero" cx="8.23170732" cy="8.63821138" r="5.58943089"></circle>
                            </g>
                            <g transform="translate(0.000000, 9.146341)">
                                <polygon id="Path" fill="#466089" fill-rule="nonzero" points="37.703252 40.8536585 12.296748 40.8536585 15.3455285 36.5853659 34.6544715 36.5853659"></polygon>
                                <polygon id="Path" fill="#6E83B7" fill-rule="nonzero" points="22.4593496 32.5203252 27.5406504 32.5203252 27.5406504 38.6177846 22.4593496 38.6177846"></polygon>
                                <g fill-rule="nonzero">
                                    <polygon id="Path" fill="#80D6FB" points="50 32.5203252 0 32.5203252 6.30081301 0 43.699187 0"></polygon>
                                    <polygon id="Path" fill="#46BEE8" points="2.4898374 30.4878049 7.99674797 2.03252033 42.003252 2.03252033 47.5101626 30.4878049"></polygon>
                                    <path d="M45.7398374,21.3413618 L45.3465447,19.3088415 L36.7700203,19.3088415 L36.0078252,11.1787602 L43.773374,11.1787602 L43.3800813,9.14623984 L35.817378,9.14623984 L35.1504065,2.0324187 L33.1178862,2.0324187 L33.7848577,9.14623984 L26.0162602,9.14623984 L26.0162602,2.0324187 L23.9837398,2.0324187 L23.9837398,9.14623984 L16.2161585,9.14623984 L16.8831301,2.0324187 L14.8506098,2.0324187 L14.1836382,9.14623984 L6.6199187,9.14623984 L6.22662602,11.1787602 L13.9930894,11.1787602 L13.2308943,19.3088415 L4.65345528,19.3088415 L4.2601626,21.3413618 L13.0403455,21.3413618 L12.1828252,30.4877033 L14.2153455,30.4877033 L15.0728659,21.3413618 L23.9837398,21.3413618 L23.9837398,30.4877033 L26.0162602,30.4877033 L26.0162602,21.3413618 L34.9280488,21.3413618 L35.7855691,30.4877033 L37.8180894,30.4877033 L36.9605691,21.3413618 L45.7398374,21.3413618 Z M15.2634146,19.3088415 L16.0256098,11.1787602 L23.9837398,11.1787602 L23.9837398,19.3088415 L15.2634146,19.3088415 Z M26.0162602,19.3088415 L26.0162602,11.1787602 L33.9753049,11.1787602 L34.7375,19.3088415 L26.0162602,19.3088415 Z" id="Shape" fill="#80D6FB"></path>
                                </g>
                            </g>
                        </g>
                    </g>
                </g>
                <circle id="Mask" stroke="#F4792C" stroke-width="3" fill="#FFFFFF" cx="189.353276" cy="40" r="38.5"></circle>
                <path d="M206.056431,34.75 C206.594165,34.75 207.062915,35.1160156 207.193306,35.6376562 L207.193306,35.6376562 L210.318306,48.1376562 C210.405884,48.4878125 210.327212,48.8586719 210.105102,49.1430469 C209.882993,49.4275 209.54229,49.59375 209.181431,49.59375 L209.181431,49.59375 L194.970337,49.59375 L195.961196,53.65625 L198.165806,53.65625 C198.812993,53.65625 199.337681,54.1809375 199.337681,54.828125 C199.337681,55.4753125 198.812993,56 198.165806,56 L198.165806,56 L182.540806,56 C181.893618,56 181.368931,55.4753125 181.368931,54.828125 C181.368931,54.1809375 181.893618,53.65625 182.540806,53.65625 L182.540806,53.65625 L184.745337,53.65625 L185.736196,49.59375 L171.525181,49.59375 C171.164321,49.59375 170.823618,49.4275 170.601509,49.1430469 C170.379399,48.8586719 170.300727,48.4877344 170.388306,48.1376562 L170.388306,48.1376562 L173.513306,35.6376562 C173.643696,35.1160156 174.112446,34.75 174.650181,34.75 L174.650181,34.75 Z M192.557915,49.59375 L188.148774,49.59375 L187.157915,53.65625 L193.548774,53.65625 L192.557915,49.59375 Z M180.393071,43.34375 L174.002681,43.34375 L173.026118,47.25 L179.90479,47.25 L180.393071,43.34375 Z M189.181431,43.34375 L182.755024,43.34375 L182.266743,47.25 L189.181431,47.25 L189.181431,43.34375 Z M197.951665,43.34375 L191.525181,43.34375 L191.525181,47.25 L198.439946,47.25 L197.951665,43.34375 Z M206.703931,43.34375 L200.31354,43.34375 L200.801821,47.25 L207.680493,47.25 L206.703931,43.34375 Z M197.170415,37.09375 L191.525181,37.09375 L191.525181,41 L197.658696,41 L197.170415,37.09375 Z M189.181431,37.09375 L183.536274,37.09375 L183.047915,41 L189.181431,41 L189.181431,37.09375 Z M181.174321,37.09375 L175.565181,37.09375 L174.588618,41 L180.68604,41 L181.174321,37.09375 Z M205.141431,37.09375 L199.53229,37.09375 L200.020571,41 L206.117993,41 L205.141431,37.09375 Z M190.353306,16 C191.000493,16 191.525181,16.5246875 191.525181,17.171875 L191.525181,17.171875 L191.525181,20.7715625 C192.912993,20.9709375 194.18979,21.5185156 195.263462,22.3232813 L195.263462,22.3232813 L197.811118,19.775625 C198.268852,19.3179687 199.010884,19.3180469 199.468384,19.775625 C199.92604,20.2332812 199.92604,20.9753125 199.468384,21.4328906 L199.468384,21.4328906 L196.920649,23.9805469 C197.725493,25.0542187 198.272993,26.3310156 198.472368,27.71875 L198.472368,27.71875 L202.072056,27.71875 C202.719243,27.71875 203.243931,28.2434375 203.243931,28.890625 C203.243931,29.5378125 202.719243,30.0625 202.072056,30.0625 L202.072056,30.0625 L198.468462,30.0625 C198.390727,30.5894531 198.262368,31.1121875 198.080727,31.6253906 C197.915024,32.0934375 197.472368,32.40625 196.975962,32.40625 L196.975962,32.40625 L183.730649,32.40625 C183.234165,32.40625 182.791587,32.0933594 182.625884,31.6253906 C182.444243,31.1121875 182.315884,30.5895313 182.238149,30.0625 L182.238149,30.0625 L178.634556,30.0625 C177.987368,30.0625 177.462681,29.5378125 177.462681,28.890625 C177.462681,28.2434375 177.987368,27.71875 178.634556,27.71875 L178.634556,27.71875 L182.234321,27.71875 C182.433696,26.3310156 182.981274,25.0542188 183.78604,23.9805469 L183.78604,23.9805469 L181.238306,21.4328906 C180.780649,20.9752344 180.780649,20.2332813 181.238306,19.775625 C181.695962,19.3179687 182.437993,19.3179687 182.895571,19.775625 L182.895571,19.775625 L185.443227,22.3232813 C186.516899,21.5184375 187.793696,20.9709375 189.181431,20.7715625 L189.181431,20.7715625 L189.181431,17.171875 C189.181431,16.5246875 189.706118,16 190.353306,16 Z M190.353306,23.03125 C187.122446,23.03125 184.494009,25.6597656 184.494009,28.890625 C184.494009,29.2821094 184.534946,29.6739844 184.616118,30.0625 L184.616118,30.0625 L196.090571,30.0625 C196.171743,29.6739844 196.212681,29.2821094 196.212681,28.890625 C196.212681,25.6597656 193.584165,23.03125 190.353306,23.03125 Z" id="Combined-Shape" fill="#F4792C" fill-rule="nonzero"></path>
                <g id="Group-Copy" transform="translate(282.353276, 224.000000)" fill-rule="nonzero">
                    <circle id="Oval" stroke="#F4792C" stroke-width="3" fill="#FFFFFF" cx="40" cy="40" r="40"></circle>
                    <path d="M45.814267,33.2324607 L45.3748691,29.7460733 L50.2967277,29.7460733 L50.2967277,32.6757853 L53.2264398,32.6757853 L53.2264398,27.4901832 L44.0565445,21.3963351 L40.0429319,15 L36.0293194,21.3963351 L26.8594241,27.4901832 L26.8594241,32.6757853 L29.7891361,32.6757853 L29.7891361,29.7460733 L34.7109948,29.7460733 L34.2715969,33.2324607 L23.929712,39.1502618 L23.929712,44.3945026 L26.8594241,44.3945026 L26.8594241,41.4647906 L33.2460733,41.4647906 L32.7480366,45.5370419 L29.2323298,56.1132199 L26.8592932,63.2713351 L33.1873037,63.2713351 L37.9041885,56.1132199 L42.1814136,56.1132199 L46.8982984,63.2713351 L53.2263089,63.2713351 L50.8532723,56.1132199 L47.3375654,45.5370419 L46.8395288,41.4647906 L53.226178,41.4647906 L53.226178,44.3945026 L56.1558901,44.3945026 L56.1558901,39.1502618 L45.814267,33.2324607 Z M46.9276178,26.8163613 L44.9941099,26.8163613 L44.8183246,25.4099476 L46.9276178,26.8163613 Z M38.5195026,22.9198953 L40.0429319,20.429712 L41.5663613,22.9198953 L42.0350785,26.8164921 L38.0507853,26.8164921 L38.5195026,22.9198953 Z M37.6698953,29.7460733 L42.4159686,29.7460733 L42.7675393,32.6757853 L37.3183246,32.6757853 L37.6698953,29.7460733 Z M36.9374346,35.6054974 L43.1482984,35.6054974 L43.4998691,38.5352094 L36.5858639,38.5352094 L36.9374346,35.6054974 Z M36.2051047,41.4647906 L43.8808901,41.4647906 L44.2324607,44.3945026 L35.853534,44.3945026 L36.2051047,41.4647906 Z M33.1582461,26.8163613 L35.2675393,25.4099476 L35.0917539,26.8163613 L33.1582461,26.8163613 Z M30.902356,38.5352094 L33.8320681,36.8653141 L33.6269634,38.5352094 L30.902356,38.5352094 Z M30.4628272,62.070288 L30.3456806,62.070288 L32.3085079,56.1132199 L34.3886126,56.1132199 L30.4628272,62.070288 Z M33.2753927,53.1836387 L35.2382199,47.3242147 L44.847644,47.3242147 L46.8104712,53.1836387 L33.2753927,53.1836387 Z M47.777356,56.1132199 L49.7401832,62.070288 L49.6230366,62.070288 L45.6971204,56.1132199 L47.777356,56.1132199 Z M46.4589005,38.5352094 L46.2537958,36.8653141 L49.1835079,38.5352094 L46.4589005,38.5352094 Z" id="Shape" fill="#F4792C"></path>
                </g>
                <path d="M47.3870328,256.593044 C47.5886596,256.303916 47.9439067,256.196062 48.2577483,256.329256 C48.5697898,256.46245 48.7618152,256.802256 48.7306111,257.163504 L48.7306111,257.163504 L47.9217038,266.222633 L52.4283018,266.222633 C52.7139397,266.222633 52.9731741,266.39611 53.100991,266.672893 C53.2276078,266.948377 53.1982039,267.278438 53.0271812,267.524684 L53.0271812,267.524684 L43.8417624,280.677736 C43.6977433,280.884349 43.4739136,281 43.2440831,281 C43.1636724,281 43.0838618,280.986356 43.0052514,280.958418 C42.6992108,280.846665 42.4939835,280.536745 42.4939835,280.187843 L42.4939835,280.187843 L42.4939835,271.375609 L38.5022539,271.375609 C38.217216,271.375609 37.9561814,271.200833 37.8295646,270.925349 C37.704148,270.647267 37.7335519,270.317206 37.9057747,270.072259 L37.9057747,270.072259 Z M63.71488,247 C64.0241445,247 64.3164631,247.152197 64.5113421,247.412173 L64.5113421,247.412173 L76.7590656,263.869701 C76.9624176,264.070888 77.0901179,264.360912 77.0901179,264.682289 C77.0901179,264.711684 77.0774084,264.735852 77.0749875,264.765247 L77.0749875,264.765247 L77.0749875,278.351934 C77.0749875,278.960722 76.6174454,279.454545 76.0533856,279.454545 L76.0533856,279.454545 L49.1056099,279.454545 C48.5415501,279.454545 48.084008,278.960722 48.084008,278.351934 C48.084008,277.743145 48.5415501,277.249322 49.1056099,277.249322 L49.1056099,277.249322 L57.0163672,277.249322 L57.0163672,265.0716 L45.7303293,249.904808 L34.3946639,265.166968 L34.3946639,277.248668 L39.137729,277.248668 C39.7017888,277.248668 40.1593309,277.742492 40.1593309,278.35128 C40.1593309,278.960068 39.7017888,279.453892 39.1383342,279.453892 L39.1383342,279.453892 L33.3736672,279.453892 C32.8108178,279.453892 32.3532758,278.960068 32.3532758,278.35128 L32.3532758,278.35128 L32.3532758,264.780923 C32.3532758,264.529439 32.4325588,264.2871 32.5765999,264.090485 L32.5765999,264.090485 L44.7613811,247.685213 C44.7680384,247.66627 44.7704593,247.644061 44.7789323,247.625118 C44.9399193,247.261936 45.2733924,247.032007 45.6443889,247.009145 L45.6443889,247.009145 C45.6692027,247.006532 45.6837278,247 45.7000686,247 L45.7000686,247 Z M59.4081744,260.354146 L56.126702,260.354146 L58.5275875,263.580331 L61.8090599,263.580331 L59.4081744,260.354146 Z M65.6188844,260.354146 L62.0287527,260.354146 L64.4308486,263.580331 L68.0209803,263.580331 L65.6188844,260.354146 Z M71.5203299,260.354146 L68.2388575,260.354146 L70.639743,263.580331 L73.9224258,263.580331 L71.5203299,260.354146 Z M55.1541225,254.635326 L51.8726501,254.635326 L54.4859658,258.148922 L57.7674382,258.148922 L55.1541225,254.635326 Z M61.3648325,254.635326 L57.7747008,254.635326 L60.3892269,258.148922 L63.9793586,258.148922 L61.3648325,254.635326 Z M67.2680936,254.635326 L63.9854108,254.635326 L66.5999369,258.148922 L69.8814093,258.148922 L67.2680936,254.635326 Z M63.2252615,249.204571 L59.9425787,249.204571 L62.345885,252.432062 L65.6273574,252.432062 L63.2252615,249.204571 Z M57.3232108,249.204571 L53.7330791,249.204571 L56.135175,252.432062 L59.7240963,252.432062 L57.3232108,249.204571 Z M51.1125008,249.204571 L47.829818,249.204571 L50.2319139,252.432062 L53.5145967,252.432062 L51.1125008,249.204571 Z" id="home-solar" fill="#F4792C" fill-rule="nonzero"></path>
                <g transform="translate(75.657984, 123.271689) rotate(30.000000) translate(-75.657984, -123.271689) ">
                    <polyline id="arrow" points="0,-10 20,0 0,10 5,0" fill="#F4792C">
                        <animateMotion rotate="auto" begin="0s" dur="3s" repeatCount="indefinite" fill="freeze" calcMode="linear">
                            <mpath xlink:href="#Oval-Copy" />
                        </animateMotion>
                    </polyline>
                </g>
                <g transform="translate(187.311811, 316.079986) rotate(-80.000000) translate(-187.311811, -316.079986) ">
                    <polyline id="arrow" points="0,-10 20,0 0,10 5,0" fill="#F4792C">
                        <animateMotion rotate="auto" begin="0s" dur="3s" repeatCount="indefinite" fill="freeze" calcMode="linear">
                            <mpath xlink:href="#Oval-Copy-2" />
                        </animateMotion>
                    </polyline>
                </g>
            </g>
        </g>
    </g>
</svg>