<svg width="17" height="17" viewBox="0 0 17 17" fill="none" xmlns="http://www.w3.org/2000/svg">
<path d="M1 11.6326C1.04667 11.3645 1.07728 11.0922 1.14243 10.829C1.53367 9.25213 2.441 8.08144 3.90473 7.35448C3.92201 7.346 3.93776 7.33479 3.97019 7.31511C3.93352 7.2724 3.90079 7.23393 3.86776 7.19576C2.29342 5.37899 2.81618 2.51358 4.92601 1.39559C6.58248 0.518096 8.63625 1.1457 9.59085 2.82163C10.3915 4.22677 10.2227 5.98357 9.17022 7.20546C9.14204 7.23817 9.11537 7.2724 9.09597 7.29572C9.38478 7.47534 9.66813 7.65405 9.95512 7.8267C9.98239 7.84306 10.0366 7.83397 10.07 7.81852C10.32 7.7016 10.5552 7.75612 10.7161 7.97875C10.8161 8.11718 10.9082 8.26105 11.0052 8.40129C11.0309 8.43885 11.0619 8.47278 11.1137 8.5379C11.1391 8.45915 11.1576 8.41735 11.1661 8.37373C11.1988 8.20138 11.2246 8.02752 11.2597 7.85578C11.3179 7.57136 11.5598 7.41022 11.8465 7.46231C12.2974 7.5441 12.7483 7.62648 13.199 7.71069C13.5257 7.77157 13.6848 7.99481 13.6332 8.32133C13.6084 8.48005 13.5747 8.63755 13.5499 8.79658C13.5417 8.84867 13.5487 8.9032 13.5487 8.998C13.7432 8.862 13.9014 8.75114 14.0599 8.64058C14.3609 8.43037 14.6263 8.47974 14.8342 8.78658C15.0833 9.15399 15.3321 9.52171 15.5794 9.89003C15.7676 10.1705 15.7176 10.4413 15.4418 10.6391C15.303 10.7384 15.1612 10.8336 15.0236 10.935C14.9973 10.9544 14.9854 10.9941 14.967 11.0241C14.9979 11.042 15.027 11.0692 15.0603 11.0759C15.2224 11.1095 15.3861 11.1365 15.5488 11.168C15.8694 11.2297 16.0467 11.4933 15.9879 11.814C15.9052 12.2647 15.8261 12.7161 15.7422 13.1662C15.6812 13.4912 15.4555 13.6457 15.1251 13.5905C14.9712 13.5651 14.8188 13.5312 14.6648 13.5069C14.6218 13.5 14.5757 13.5133 14.5309 13.5172C14.5439 13.5593 14.5481 13.6072 14.5712 13.6426C14.666 13.7901 14.7688 13.9331 14.8648 14.0797C15.0221 14.3193 14.9797 14.5995 14.7488 14.7667C14.3533 15.0526 13.9539 15.3328 13.5514 15.6084C13.3308 15.7593 13.0529 15.7032 12.8905 15.4827C12.7862 15.3416 12.692 15.1929 12.5923 15.0487C12.5662 15.0108 12.5353 14.9763 12.4844 14.9118C12.458 14.9866 12.438 15.0278 12.4295 15.0711C12.4019 15.2098 12.371 15.3482 12.3553 15.4885C12.3268 15.742 12.2004 15.9125 11.9589 15.997C11.8807 15.997 11.8025 15.997 11.7243 15.997C11.7077 15.9886 11.6916 15.9752 11.674 15.9719C11.2525 15.8925 10.8309 15.8129 10.4091 15.7366C10.0563 15.6729 9.89572 15.4494 9.95845 15.1014C9.98876 14.9336 10.0212 14.7661 10.0472 14.5977C10.0521 14.5652 10.0315 14.5289 10.0227 14.4941C9.9924 14.5038 9.95754 14.5068 9.93239 14.5238C9.77511 14.631 9.62267 14.7449 9.46388 14.8494C9.25144 14.989 8.9893 14.9578 8.83293 14.7588C8.75929 14.6652 8.68504 14.6422 8.57473 14.6425C6.16366 14.6452 3.7526 14.6437 1.34154 14.6467C1.19122 14.647 1.07455 14.6101 1.0003 14.4741C1 13.5266 1 12.5798 1 11.6326ZM8.40532 14.1488C8.25683 13.9298 8.1247 13.7371 7.99469 13.543C7.81741 13.2782 7.86074 13.0147 8.11379 12.8245C8.2541 12.7191 8.39896 12.6194 8.53927 12.5137C8.56685 12.4931 8.5814 12.4556 8.60231 12.4259C8.56867 12.4047 8.53715 12.372 8.50078 12.3641C8.3435 12.3305 8.1847 12.3035 8.02651 12.275C7.71195 12.2187 7.54406 11.987 7.59921 11.6726C7.68073 11.207 7.76619 10.7421 7.85317 10.2774C7.91347 9.95425 8.14925 9.79614 8.47169 9.85611C8.63473 9.8864 8.79717 9.91941 8.96081 9.94607C8.99354 9.95152 9.02991 9.93517 9.06446 9.92911C9.05658 9.89458 9.05749 9.8546 9.0393 9.82673C8.9493 9.6874 8.85384 9.5517 8.7611 9.41449C8.55594 9.11098 8.60443 8.84867 8.90536 8.63543C9.12658 8.47884 9.34841 8.32315 9.60298 8.14383C9.31417 7.99178 9.05082 7.85608 8.7908 7.71523C8.71292 7.67313 8.66019 7.69554 8.59534 7.74371C7.35798 8.66057 5.72091 8.67057 4.48234 7.76491C4.3887 7.69645 4.3193 7.6913 4.22202 7.73825C2.55101 8.54638 1.64641 9.88882 1.50518 11.7241C1.44548 12.5004 1.48821 13.2846 1.48549 14.0652C1.48549 14.0924 1.49397 14.1194 1.49912 14.1485C2.18523 14.1485 2.86194 14.1485 3.5344 14.1485C3.5344 13.7371 3.53289 13.3334 3.53501 12.9296C3.53592 12.7473 3.62714 12.6391 3.772 12.6361C3.92049 12.6331 4.01747 12.7491 4.01807 12.9357C4.01898 13.3385 4.01838 13.7417 4.01838 14.1485C5.4718 14.1488 6.92371 14.1488 8.40532 14.1488ZM6.53096 1.48252C6.13184 1.48373 5.75152 1.56097 5.38725 1.71272C3.45198 2.52025 2.81739 5.05822 4.12717 6.74899C5.18724 8.11687 7.07615 8.3392 8.4229 7.25453C9.53843 6.35613 9.93451 4.73715 9.33417 3.39653C8.79565 2.19372 7.85438 1.54855 6.53096 1.48252ZM15.2533 13.1198C15.3397 12.6531 15.4212 12.2081 15.5055 11.7635C15.5227 11.6723 15.4849 11.6432 15.4006 11.6314C15.2658 11.6123 15.1327 11.5654 14.9979 11.5602C14.66 11.5475 14.4912 11.4012 14.4666 11.0468C14.4481 10.7809 14.4242 10.7624 14.6415 10.6085C14.8266 10.4777 15.0118 10.3468 15.2024 10.212C14.9276 9.79947 14.6636 9.40388 14.3939 8.99952C14.1748 9.15218 13.9702 9.29211 13.7684 9.43629C13.6454 9.52413 13.5296 9.52928 13.4075 9.43387C13.3387 9.38026 13.2626 9.33482 13.1868 9.2906C13.0308 9.19973 12.9977 9.13128 13.0296 8.95529C13.0735 8.71176 13.1165 8.46793 13.1623 8.21077C12.6865 8.11809 12.2207 8.02691 11.7446 7.93423C11.6955 8.19593 11.6473 8.43916 11.6049 8.68359C11.5786 8.83686 11.5022 8.93076 11.3413 8.94984C11.2591 8.95953 11.1779 8.9774 11.0973 8.99679C10.8997 9.04434 10.8437 9.02496 10.7282 8.85685C10.5909 8.65633 10.4548 8.45521 10.3112 8.24439C9.91118 8.52397 9.52206 8.79567 9.12567 9.07251C9.22659 9.22548 9.31932 9.36208 9.40842 9.50142C9.61904 9.83157 9.73844 9.85187 9.43963 10.2559C9.28538 10.4643 9.26053 10.4986 8.99869 10.448C8.78444 10.4068 8.56927 10.3692 8.34108 10.3277C8.25077 10.8157 8.16379 11.2879 8.07379 11.7744C8.32986 11.8271 8.5717 11.8792 8.81474 11.9261C8.95809 11.9537 9.03809 12.0342 9.05749 12.1787C9.0687 12.2608 9.08112 12.3429 9.10022 12.4235C9.14992 12.6303 9.13234 12.6834 8.96081 12.8078C8.76868 12.9469 8.57655 13.0859 8.38017 13.2283C8.65504 13.6396 8.92202 14.0385 9.19295 14.4438C9.41539 14.2896 9.62419 14.1463 9.83148 14.0006C9.94573 13.9201 10.0539 13.9192 10.1679 14.0028C10.246 14.0603 10.3291 14.1124 10.4139 14.1603C10.5409 14.2318 10.5888 14.3302 10.5597 14.4765C10.5106 14.7237 10.4718 14.9729 10.4264 15.2343C10.9061 15.3276 11.3722 15.4185 11.8477 15.5109C11.8852 15.321 11.9371 15.1508 11.9489 14.9778C11.9707 14.6607 12.0916 14.485 12.4407 14.4583C12.7332 14.4359 12.7398 14.4056 12.9074 14.6513C13.032 14.8342 13.1571 15.0172 13.2844 15.2035C13.6878 14.9205 14.0745 14.6498 14.4681 14.3738C14.3342 14.1715 14.2084 13.9807 14.0817 13.7901C13.9339 13.5675 13.9339 13.5372 14.0784 13.3206C14.1108 13.2719 14.1424 13.2225 14.1708 13.1716C14.2787 12.9787 14.3406 12.9508 14.5627 12.9929C14.7872 13.0347 15.0118 13.0753 15.2533 13.1198Z" fill="#C8DAF1" stroke="#C8DAF1" stroke-width="0.3"/>
<path d="M11.7831 13.4303C10.8458 13.4182 10.0779 12.6286 10.0924 11.6914C10.1073 10.74 10.8819 9.96884 11.8113 9.98035C12.7502 9.99186 13.5117 10.7755 13.5011 11.7193C13.4902 12.6674 12.7123 13.4422 11.7831 13.4303ZM10.5797 11.7005C10.5785 12.3829 11.1283 12.9484 11.7925 12.949C12.4611 12.9497 13.0153 12.3875 13.0147 11.7096C13.0141 11.0244 12.468 10.4626 11.8019 10.4614C11.134 10.4598 10.5809 11.0208 10.5797 11.7005Z" fill="#C8DAF1" stroke="#C8DAF1" stroke-width="0.3"/>
</svg>
