<?xml version="1.0" encoding="UTF-8"?>
<svg width="20px" height="20px" viewBox="0 0 20 20" version="1.1" xmlns="http://www.w3.org/2000/svg" xmlns:xlink="http://www.w3.org/1999/xlink">
    <title>Combined Shape</title>
    <g id="Symbols" stroke="none" stroke-width="1" fill="none" fill-rule="evenodd">
        <g id="rec1" transform="translate(-5.000000, -5.000000)" fill="#28c76f" fill-rule="nonzero">
            <path d="M22.8515774,14.375 C23.1204446,14.375 23.3548196,14.5580078 23.4200149,14.8188281 L23.4200149,14.8188281 L24.9825149,21.0688281 C25.0263039,21.2439062 24.986968,21.4293359 24.8759133,21.5715234 C24.7648586,21.71375 24.5945071,21.796875 24.4140774,21.796875 L24.4140774,21.796875 L17.3085305,21.796875 L17.8039602,23.828125 L18.9062649,23.828125 C19.2298586,23.828125 19.4922024,24.0904687 19.4922024,24.4140625 C19.4922024,24.7376563 19.2298586,25 18.9062649,25 L18.9062649,25 L11.0937649,25 C10.7701711,25 10.5078274,24.7376563 10.5078274,24.4140625 C10.5078274,24.0904687 10.7701711,23.828125 11.0937649,23.828125 L11.0937649,23.828125 L12.1960305,23.828125 L12.6914602,21.796875 L5.58595238,21.796875 C5.40552269,21.796875 5.23517113,21.71375 5.12411644,21.5715234 C5.01306175,21.4293359 4.97372582,21.2438672 5.01751488,21.0688281 L5.01751488,21.0688281 L6.58001488,14.8188281 C6.64521019,14.5580078 6.87958519,14.375 7.14845238,14.375 L7.14845238,14.375 Z M16.1023196,21.796875 L13.8977493,21.796875 L13.4023196,23.828125 L16.5977493,23.828125 L16.1023196,21.796875 Z M10.0198977,18.671875 L6.82470238,18.671875 L6.33642113,20.625 L9.77575707,20.625 L10.0198977,18.671875 Z M14.4140774,18.671875 L11.2008743,18.671875 L10.9567336,20.625 L14.4140774,20.625 L14.4140774,18.671875 Z M18.7991946,18.671875 L15.5859524,18.671875 L15.5859524,20.625 L19.0433352,20.625 L18.7991946,18.671875 Z M23.1753274,18.671875 L19.9801321,18.671875 L20.2242727,20.625 L23.6636086,20.625 L23.1753274,18.671875 Z M18.4085696,15.546875 L15.5859524,15.546875 L15.5859524,17.5 L18.6527102,17.5 L18.4085696,15.546875 Z M14.4140774,15.546875 L11.5914993,15.546875 L11.3473196,17.5 L14.4140774,17.5 L14.4140774,15.546875 Z M10.4105227,15.546875 L7.60595238,15.546875 L7.11767113,17.5 L10.1663821,17.5 L10.4105227,15.546875 Z M22.3940774,15.546875 L19.5895071,15.546875 L19.8336477,17.5 L22.8823586,17.5 L22.3940774,15.546875 Z M15.0000149,5 C15.3236086,5 15.5859524,5.26234375 15.5859524,5.5859375 L15.5859524,5.5859375 L15.5859524,7.38578125 C16.2798586,7.48546875 16.9182571,7.75925781 17.455093,8.16164063 L17.455093,8.16164063 L18.7289211,6.8878125 C18.9577883,6.65898437 19.3288039,6.65902344 19.5575539,6.8878125 C19.7863821,7.11664062 19.7863821,7.48765625 19.5575539,7.71644531 L19.5575539,7.71644531 L18.2836868,8.99027344 C18.6861086,9.52710937 18.9598586,10.1655078 19.0595461,10.859375 L19.0595461,10.859375 L20.8593899,10.859375 C21.1829836,10.859375 21.4453274,11.1217187 21.4453274,11.4453125 C21.4453274,11.7689062 21.1829836,12.03125 20.8593899,12.03125 L20.8593899,12.03125 L19.057593,12.03125 C19.0187258,12.2947266 18.9545461,12.5560938 18.8637258,12.8126953 C18.7808743,13.0467188 18.5595461,13.203125 18.311343,13.203125 L18.311343,13.203125 L11.6886868,13.203125 C11.4404446,13.203125 11.2191555,13.0466797 11.1363039,12.8126953 C11.0454836,12.5560938 10.9813039,12.2947656 10.9424368,12.03125 L10.9424368,12.03125 L9.14063988,12.03125 C8.81704613,12.03125 8.55470238,11.7689063 8.55470238,11.4453125 C8.55470238,11.1217188 8.81704613,10.859375 9.14063988,10.859375 L9.14063988,10.859375 L10.9405227,10.859375 C11.0402102,10.1655078 11.3139993,9.52710938 11.7163821,8.99027344 L11.7163821,8.99027344 L10.4425149,7.71644531 C10.2136868,7.48761719 10.2136868,7.11664063 10.4425149,6.8878125 C10.671343,6.65898438 11.0423586,6.65898438 11.2711477,6.8878125 L11.2711477,6.8878125 L12.5449758,8.16164063 C13.0818118,7.75921875 13.7202102,7.48546875 14.4140774,7.38578125 L14.4140774,7.38578125 L14.4140774,5.5859375 C14.4140774,5.26234375 14.6764211,5 15.0000149,5 Z M15.0000149,8.515625 C13.3845852,8.515625 12.0703664,9.82988281 12.0703664,11.4453125 C12.0703664,11.6410547 12.0908352,11.8369922 12.1314211,12.03125 L12.1314211,12.03125 L17.8686477,12.03125 C17.9092336,11.8369922 17.9297024,11.6410547 17.9297024,11.4453125 C17.9297024,9.82988281 16.6154446,8.515625 15.0000149,8.515625 Z" id="Combined-Shape"></path>
        </g>
    </g>
</svg>