<?xml version="1.0" encoding="UTF-8"?>
<svg width="241px" height="53px" viewBox="0 0 241 53" version="1.1" xmlns="http://www.w3.org/2000/svg" xmlns:xlink="http://www.w3.org/1999/xlink">
    <title>sungrow-logo</title>
    <g id="Page-1" stroke="none" stroke-width="1" fill="none" fill-rule="evenodd">
        <g id="sungrow-logo" transform="translate(0.100000, 0.293688)" fill-rule="nonzero">
            <path d="M200.126646,12.1205048 C201.166472,11.4406182 202.326278,10.9207048 203.526079,10.5607648 L203.526079,24.2384852 C202.166305,27.3979586 191.288119,27.197992 189.088486,27.197992 C186.888852,27.197992 176.050658,27.3979586 174.650892,24.2384852 L174.650892,20.9990251 C174.650892,20.159165 175.090818,19.3992917 175.770704,18.9193717 C176.810532,18.239485 177.970338,17.7195716 179.170139,17.3596316 L179.170139,22.3188052 C179.170139,22.3587985 179.330112,23.1986585 189.088486,23.1986585 C199.006832,23.1986585 199.006832,22.3188052 199.006832,22.3188052 L199.006832,14.1601649 C199.006832,13.3203049 199.446758,12.5604316 200.126646,12.1205048 M189.048492,0.00252451299 C186.848858,0.00252451299 176.010665,-0.19744216 174.610898,2.96203126 L174.610898,16.679745 C175.810698,16.319805 176.930512,15.7998916 178.010332,15.1200049 C178.730212,14.6800782 179.130145,13.8802116 179.130145,13.0403515 L179.130145,4.84171798 C179.130145,4.84171798 179.130145,3.92187128 189.048492,3.92187128 C198.966839,3.92187128 198.966839,4.84171798 198.966839,4.84171798 L198.966839,9.84088478 C200.166638,9.48094477 201.286452,8.96103143 202.366272,8.28114474 C203.086152,7.84121807 203.486086,7.04135137 203.486086,6.20149135 L203.486086,2.96203126 C202.126313,-0.19744216 191.288119,0.00252451299 189.048492,0.00252451299 M60.1099817,22.3188052 C60.1099817,22.3188052 60.1099817,23.1986585 50.3916014,23.1986585 C40.6732211,23.1986585 40.6732211,22.3188052 40.6732211,22.3188052 L40.6732211,0.362464523 L36.1539743,0.362464523 L36.1539743,24.1984919 C37.5137477,27.3579653 48.2319613,27.1579986 50.3916014,27.1579986 C52.5912348,27.1579986 63.2294617,27.3579653 64.6292285,24.1984919 L64.6292285,0.362464523 L60.1099817,0.362464523 L60.1099817,22.3188052 L60.1099817,22.3188052 Z M235.68072,0.362464523 L235.68072,21.0790117 L225.0025,10.4007915 L214.364273,21.0790117 L214.364273,0.362464523 L210.124979,0.362464523 L210.124979,26.838052 L213.12448,26.838052 C213.84436,26.838052 214.524246,26.5580986 215.044159,26.0381852 L225.042493,15.9998582 L235.08082,26.0381852 C235.600733,26.5580986 236.28062,26.838052 237.0005,26.838052 L240,26.838052 L240,0.402457858 L235.68072,0.402457858 L235.68072,0.362464523 Z M133.417764,11.2006582 L121.49975,11.2006582 C120.65989,11.2006582 119.900017,11.6405848 119.420097,12.3204715 C118.820197,13.2803116 118.340277,14.3201382 118.02033,15.3999583 L130.338277,15.3999583 C130.338277,15.3999583 130.818197,15.3999583 130.818197,18.9993583 C130.818197,22.1188385 130.338277,22.1188385 130.338277,22.1188385 L110.861523,22.1188385 C110.861523,22.1188385 110.021663,22.1188385 110.021663,13.6002582 C110.021663,5.08167799 110.861523,5.08167799 110.861523,5.08167799 L130.898184,5.08167799 C131.818031,5.08167799 132.65789,4.64175131 133.13781,3.88187796 C133.817698,2.80205792 134.377603,1.64225123 134.737543,0.402457858 L108.501916,0.402457858 C105.622396,1.68224456 105.78237,11.6405848 105.78237,13.6402516 C105.78237,15.6399182 105.622396,25.5982585 108.501916,26.838052 L133.457758,26.838052 C135.137477,26.0781786 135.057491,20.1991584 135.057491,19.0393517 C135.057491,17.879545 135.137477,11.9605315 133.417764,11.2006582 M166.412264,15.3999583 C168.091985,14.640085 168.011998,9.08101144 168.011998,7.8812114 C168.011998,6.68141136 168.131978,1.12233788 166.412264,0.362464523 L141.376438,0.362464523 L141.376438,5.08167799 L163.332778,5.08167799 C163.332778,5.08167799 163.812698,5.08167799 163.812698,7.92120473 C163.812698,11.2406515 163.332778,11.2406515 163.332778,11.2406515 L141.376438,11.2406515 L141.376438,26.8780452 L145.655724,26.8780452 L145.655724,15.4399516 L152.774538,15.4399516 L163.372771,26.0381852 C163.892684,26.5580986 164.572571,26.838052 165.252458,26.838052 L170.611565,26.838052 L159.213464,15.3999583 L166.412264,15.3999583 Z M24.275954,11.2006582 L5.55907349,11.2006582 C4.83919346,11.2006582 4.23929345,10.6007581 4.23929345,9.88087812 C4.23929345,9.88087812 4.23929345,9.88087812 4.23929345,9.84088478 L4.23929345,6.40145802 C4.23929345,5.68157801 4.79920013,5.08167799 5.51908015,5.04168466 C5.51908015,5.04168466 5.55907349,5.04168466 5.55907349,5.04168466 L25.6357273,5.04168466 C26.5555741,5.04168466 27.3954341,4.60175797 27.8753542,3.84188462 C28.5552408,2.76206459 29.1151475,1.60225789 29.4750875,0.362464523 L5.55907349,0.362464523 C0,0.362464523 0,5.20165799 0,5.20165799 L0,10.5607648 C0,10.5607648 0,15.3999583 5.55907349,15.3999583 L24.275954,15.3999583 C24.995834,15.3999583 25.6357273,15.959865 25.6357273,16.7197384 C25.6357273,16.7197384 25.6357273,16.7597316 25.6357273,16.7597316 L25.6357273,20.7590651 C25.6357273,21.4789451 25.0758206,22.1188385 24.3159474,22.1188385 C24.3159474,22.1188385 24.275954,22.1188385 24.275954,22.1188385 L3.87935344,22.1188385 C2.95950674,22.1188385 2.11964672,22.5587651 1.63972672,23.3186384 C0.959840027,24.3984586 0.399933344,25.5582653 0.0399933344,26.7980586 L24.3159474,26.7980586 C29.8750208,26.7980586 29.8750208,21.9588652 29.8750208,21.9588652 L29.8750208,16.0398516 C29.8350275,16.0398516 29.8350275,11.2006582 24.275954,11.2006582 M95.5840693,20.7590651 L76.0273288,1.20232454 C75.5074154,0.682411199 74.8275288,0.402457858 74.1076487,0.402457858 L71.2281287,0.402457858 L71.2281287,26.8780452 L75.7473755,26.8780452 L75.7473755,6.52143803 L95.304116,26.0781786 C95.8240294,26.5980919 96.503916,26.8780452 97.223796,26.8780452 L100.103316,26.8780452 L100.103316,0.402457858 L95.5840693,0.402457858 L95.5840693,20.7590651 Z" id="Shape" fill="#EE7203"></path>
            <path d="M37.1138143,48.1544992 C36.0739877,46.9147058 35.514081,45.3149724 35.5940676,43.7152391 C35.514081,42.1155056 36.0339943,40.5157723 37.1138143,39.2759789 C38.1536411,38.1561655 39.6733878,37.5562656 41.1931345,37.6362522 C42.4329278,37.6362522 43.5927346,38.0361856 44.592568,38.7560656 C45.5124146,39.4359523 46.1123146,40.4357856 46.272288,41.5955923 L45.7523746,41.5955923 C45.3924346,41.5955923 45.0724879,41.3556323 44.9125146,41.0356856 C44.6725546,40.4357856 44.2726212,39.9158723 43.7527079,39.5159389 C43.0328279,38.9960256 42.1129812,38.676079 41.2331278,38.7160722 C40.0333278,38.676079 38.8335277,39.1559989 38.033661,40.0758456 C37.193801,41.1156724 36.7538743,42.395459 36.833861,43.7552324 C36.7538743,45.1150057 37.193801,46.3947925 38.033661,47.4746125 C38.8335277,48.3944592 39.9933344,48.9143725 41.2331278,48.8343859 C42.1529746,48.8743792 43.0328279,48.5944259 43.7927012,48.1145058 C44.3126146,47.7945592 44.6725546,47.3146392 44.9125146,46.7547325 C45.0324946,46.4347858 45.3924346,46.1948258 45.7523746,46.1948258 L46.3122812,46.1948258 C46.1523079,47.2746458 45.5124146,48.2744792 44.6325612,48.8743792 C43.6327279,49.5542659 42.4329278,49.9142059 41.2331278,49.8742126 C39.6733878,49.9142059 38.1936344,49.2743125 37.1138143,48.1544992 M49.1118146,49.7142392 L49.1118146,37.4762789 L49.5517414,37.4762789 C49.9516747,37.4762789 50.2716214,37.7962255 50.2716214,38.1961589 C50.2716214,38.1961589 50.2716214,38.1961589 50.2716214,38.1961589 L50.2716214,49.7542326 L49.1118146,49.7142392 Z M60.1099817,47.0346858 L60.7498751,47.0346858 C60.629895,47.8345525 60.149975,48.5544325 59.4700883,48.9943592 C58.7102149,49.5142726 57.7903682,49.7942258 56.8705216,49.7542326 C55.7107148,49.7942258 54.5509082,49.3542992 53.7910349,48.4744458 C52.9911682,47.4746125 52.5912348,46.2348191 52.6712215,44.9950258 C52.5912348,43.7152391 52.9911682,42.4754456 53.7910349,41.5156057 C54.5509082,40.6357523 55.6707216,40.1558323 56.8305282,40.1958257 C57.9503416,40.1558323 59.0301617,40.5957589 59.790035,41.435619 C60.5499084,42.3554657 60.9498416,43.5552658 60.869855,44.7550657 L60.869855,45.2749792 L53.8310281,45.2749792 L53.8310281,45.3149724 C53.7910349,46.2348191 54.0709882,47.1146725 54.6708882,47.8345525 C55.2307949,48.4744458 56.0706548,48.7943926 56.9105149,48.7543992 C57.5504083,48.7543992 58.1503082,48.5944259 58.6702217,48.2744792 C58.9901683,48.0745126 59.2701216,47.7545658 59.430095,47.4346192 C59.6300616,47.1946591 59.8700216,47.0346858 60.1099817,47.0346858 M54.7508748,42.1155056 C54.1909681,42.7154057 53.8710215,43.5552658 53.8710215,44.3551324 L59.7100483,44.3551324 C59.7500417,43.5152724 59.4700883,42.7154057 58.9101816,42.1155056 C58.3902683,41.555599 57.6303949,41.2356523 56.8305282,41.2356523 C56.0706548,41.195659 55.3107815,41.5156057 54.7508748,42.1155056 M64.2292951,49.0743458 C63.6693884,48.5944259 63.3494418,47.8745459 63.3494418,47.1146725 C63.3094484,46.3947925 63.6293951,45.6749124 64.2292951,45.2349858 C64.9891685,44.7150725 65.8690218,44.4351191 66.7888685,44.4351191 L69.6683886,44.2351524 L69.6683886,43.4352857 C69.708382,42.8353858 69.4684219,42.2754791 69.0284952,41.8355524 C68.5485752,41.435619 67.9086818,41.2356523 67.2687886,41.2756457 C66.7088819,41.2356523 66.1089818,41.435619 65.6290619,41.7555656 C65.3491085,41.9555323 65.1091484,42.2754791 64.9491751,42.6354191 C64.8291952,42.9153724 64.5892351,43.0753457 64.2692885,43.0753457 L63.7093818,43.0753457 C63.7493752,42.2754791 64.1493084,41.5156057 64.7892018,41.075679 C65.5090818,40.5157723 66.3889351,40.2358189 67.2687886,40.2758123 C68.1886352,40.2358189 69.1084819,40.5157723 69.8283619,41.1156724 C70.4682553,41.675579 70.8281953,42.515439 70.788202,43.3552991 L70.788202,49.7542326 L69.6683886,49.7542326 L69.6683886,47.9545325 C69.3884353,48.5144392 68.9485086,48.9943592 68.4285953,49.3143059 C67.8286952,49.6742459 67.1488085,49.8342192 66.4689218,49.8342192 C65.7090485,49.8342192 64.9091818,49.5542659 64.2292951,49.0743458 M68.8685219,48.0345192 C69.4284286,47.5945925 69.7483753,46.8747125 69.708382,46.1548325 L69.708382,45.1150057 L66.9488418,45.3149724 C65.3491085,45.4349525 64.5492418,45.9948592 64.5492418,47.0746792 C64.5492418,47.5545991 64.7492084,47.9945258 65.1491418,48.3144725 C65.5890685,48.6344192 66.1489752,48.8343859 66.7488752,48.7943926 C67.5487418,48.8343859 68.3086152,48.5544325 68.8685219,48.0345192 M73.2677887,49.7142392 L73.2677887,40.355799 L73.6277287,40.355799 C74.0276621,40.355799 74.3476087,40.6757456 74.3476087,41.0356856 C74.3476087,41.0356856 74.3476087,41.0356856 74.3476087,41.0356856 L74.3476087,42.0755124 L74.3876021,42.0755124 C74.6275621,41.5156057 75.0674887,41.0356856 75.587402,40.715739 C76.1873021,40.3957924 76.8671888,40.1958257 77.5470755,40.2358189 C78.4669222,40.1958257 79.3467755,40.5157723 80.0266622,41.1556656 C80.6665555,41.8355524 80.9865023,42.755399 80.9465089,43.6752457 L80.9465089,49.7142392 L79.8266956,49.7142392 L79.8266956,43.8752124 C79.8666889,43.1553324 79.6267289,42.4754456 79.1468089,41.9555323 C78.6268955,41.4756124 77.9470088,41.2356523 77.2671222,41.2756457 C76.5072488,41.2356523 75.7473755,41.555599 75.227462,42.1155056 C74.7075487,42.6754123 74.4275954,43.475279 74.4675887,44.2351524 L74.4675887,49.7542326 L73.2677887,49.7142392 Z M104.902516,48.5144392 C104.062656,47.5545991 103.662723,46.3148058 103.702716,45.0350191 C103.62273,43.7552324 104.062656,42.515439 104.902516,41.555599 C106.662223,39.8358856 109.461756,39.8358856 111.221463,41.555599 C112.061323,42.515439 112.461256,43.7552324 112.421263,45.0350191 C112.50125,46.3148058 112.061323,47.5545991 111.221463,48.5144392 C109.461756,50.2341526 106.662223,50.2341526 104.902516,48.5144392 M110.381603,47.7545658 C110.981503,46.9546992 111.30145,45.9948592 111.221463,44.9950258 C111.261456,43.9951924 110.981503,43.0353523 110.381603,42.2354857 C109.181803,40.955699 107.22213,40.8757123 105.942343,42.0755124 C105.90235,42.1155056 105.822363,42.1954924 105.78237,42.2354857 C105.18247,43.0353523 104.902516,43.9951924 104.94251,44.9950258 C104.902516,45.9948592 105.18247,46.9546992 105.78237,47.7545658 C106.98217,49.0343526 108.981836,49.0743458 110.22163,47.9145391 C110.261623,47.8745459 110.301616,47.7945592 110.381603,47.7545658 M135.29745,47.0346858 L135.937344,47.0346858 C135.777371,47.8345525 135.337444,48.5544325 134.657557,48.9943592 C133.897684,49.5142726 132.977837,49.7942258 132.05799,49.7542326 C130.898184,49.7942258 129.738377,49.3542992 128.978503,48.4744458 C128.178637,47.4746125 127.778704,46.2348191 127.858691,44.9950258 C127.778704,43.7152391 128.178637,42.4754456 128.978503,41.5156057 C129.738377,40.6357523 130.85819,40.1558323 132.017998,40.1958257 C133.13781,40.1558323 134.21763,40.5957589 134.977504,41.435619 C135.737377,42.3554657 136.137311,43.5552658 136.097317,44.7550657 L136.097317,45.2749792 L129.05849,45.2749792 L129.05849,45.3149724 C129.018497,46.2348191 129.298451,47.1146725 129.89835,47.8345525 C130.458257,48.4744458 131.298116,48.7943926 132.137977,48.7543992 C132.77787,48.7543992 133.37777,48.5944259 133.897684,48.2744792 C134.21763,48.0745126 134.497584,47.7545658 134.657557,47.4346192 C134.81753,47.1946591 135.057491,47.0346858 135.29745,47.0346858 M129.978337,42.1155056 C129.41843,42.7154057 129.098484,43.5552658 129.098484,44.3551324 L134.93751,44.3551324 C134.977504,43.5152724 134.697551,42.7154057 134.137644,42.1155056 C132.977837,40.955699 131.138143,40.955699 129.978337,42.1155056 C129.978337,42.0755124 129.978337,42.0755124 129.978337,42.1155056 M100.663223,41.555599 C101.46309,42.5554324 101.863023,43.7552324 101.783036,45.0350191 C101.82303,46.2748124 101.423096,47.5146059 100.663223,48.5144392 C99.4634227,49.9541993 97.3837693,50.2741459 95.8240294,49.2743125 C95.2641227,48.9143725 94.824196,48.3944592 94.5842359,47.7945592 L94.5842359,52.5937594 L93.4644226,52.5937594 L93.4644226,40.355799 L93.8243626,40.355799 C94.2242959,40.355799 94.5442427,40.6757456 94.5442427,41.0356856 C94.5442427,41.0356856 94.5442427,41.0356856 94.5442427,41.0356856 L94.5442427,42.2754791 L94.5442427,42.2754791 C94.7842026,41.675579 95.2241293,41.1556656 95.784036,40.7957256 C97.3837693,39.7958923 99.4634227,40.115839 100.663223,41.555599 M99.7833695,47.7545658 C100.383269,46.9546992 100.663223,45.9948592 100.623229,45.0350191 C100.663223,44.0751791 100.383269,43.0753457 99.7833695,42.3154723 C98.7835361,41.1156724 97.0238293,40.9157057 95.8240294,41.915539 C95.664056,42.035519 95.544076,42.155499 95.424096,42.3154723 C94.824196,43.0753457 94.5042493,44.0351857 94.5442427,45.0350191 C94.5042493,45.9948592 94.7842026,46.9546992 95.3841026,47.7545658 C96.383936,48.9543659 98.1436427,49.1543326 99.3434428,48.1544992 C99.5034161,47.9945258 99.6233962,47.8745459 99.7833695,47.7545658 M126.338944,40.3158056 L123.65939,49.6742459 L122.45959,49.6742459 L120.099983,41.8755457 L117.740377,49.6742459 L116.540577,49.6742459 L113.861023,40.3158056 L114.460923,40.3158056 C114.78087,40.3158056 115.060823,40.5157723 115.14081,40.835719 L117.140477,48.3944592 L119.500083,40.3158056 L120.65989,40.3158056 L123.019496,48.3944592 L125.019163,40.835719 C125.09915,40.5157723 125.379103,40.3158056 125.69905,40.3158056 L126.338944,40.3158056 Z M138.856858,49.7142392 L138.856858,40.355799 L139.216798,40.355799 C139.61673,40.355799 139.936678,40.6757456 139.936678,41.075679 C139.936678,41.075679 139.936678,41.075679 139.936678,41.075679 L139.936678,42.035519 L139.97667,42.035519 C140.256624,40.955699 141.256457,40.2358189 142.336277,40.2758123 C142.456258,40.2758123 142.576237,40.2758123 142.73621,40.3158056 C142.856191,40.3158056 142.936177,40.355799 143.056157,40.355799 L143.056157,41.4756124 C142.936177,41.435619 142.816198,41.3956256 142.696217,41.3956256 C142.536244,41.3556323 142.37627,41.3556323 142.216297,41.3556323 C141.616397,41.315639 141.016498,41.5955923 140.616564,42.0755124 C140.21663,42.5954257 139.97667,43.235319 140.016664,43.9152058 L140.016664,49.7142392 L138.856858,49.7142392 Z M189.408432,49.0743458 C188.848525,48.5944259 188.528579,47.8745459 188.528579,47.1146725 C188.488585,46.3947925 188.808532,45.6749124 189.408432,45.2349858 C190.168306,44.7150725 191.048159,44.4351191 191.968006,44.4351191 L194.847526,44.2351524 L194.847526,43.4352857 C194.887519,42.8353858 194.647559,42.2754791 194.207632,41.8355524 C193.727712,41.435619 193.087819,41.2356523 192.447925,41.2756457 C191.848025,41.2356523 191.288119,41.435619 190.808198,41.7555656 C190.528246,41.9955257 190.288285,42.2754791 190.128312,42.6354191 C190.008332,42.9153724 189.768372,43.0753457 189.448426,43.0753457 L188.888519,43.0753457 C188.928512,42.2754791 189.328445,41.5156057 189.968339,41.075679 C190.688219,40.5157723 191.568072,40.2358189 192.447925,40.2758123 C193.367772,40.2358189 194.287619,40.5157723 195.007499,41.1156724 C195.647392,41.675579 196.007332,42.515439 195.967339,43.3552991 L195.967339,49.7542326 L194.847526,49.7542326 L194.847526,47.9545325 C194.567572,48.5144392 194.127646,48.9943592 193.607732,49.3143059 C193.007832,49.6742459 192.327946,49.8342192 191.648059,49.8342192 C190.848192,49.8742126 190.048325,49.5942593 189.408432,49.0743458 M194.047658,48.0345192 C194.607565,47.5945925 194.927512,46.8747125 194.887519,46.1548325 L194.887519,45.1150057 L192.127979,45.3149724 C190.528246,45.4349525 189.728378,45.9948592 189.728378,47.0746792 C189.728378,47.5545991 189.928345,48.0345192 190.328279,48.3144725 C190.768205,48.6344192 191.328112,48.8343859 191.928012,48.7943926 C192.727879,48.8343859 193.487752,48.5544325 194.047658,48.0345192 M199.166806,49.7142392 L199.166806,37.4762789 L199.606733,37.4762789 C200.006665,37.4762789 200.326613,37.7962255 200.326613,38.1961589 L200.326613,49.7542326 L199.166806,49.7542326 L199.166806,49.7142392 Z M203.166139,49.7142392 L203.166139,37.4762789 L203.606065,37.4762789 C204.005999,37.4762789 204.325945,37.7962255 204.325945,38.1961589 C204.325945,38.1961589 204.325945,38.1961589 204.325945,38.1961589 L204.325945,49.7542326 L203.166139,49.7542326 L203.166139,49.7142392 Z M162.252958,48.5144392 C161.413098,47.5545991 161.013164,46.3148058 161.053158,45.0350191 C160.973171,43.7552324 161.413098,42.515439 162.252958,41.555599 C164.012664,39.8358856 166.812198,39.8358856 168.571904,41.555599 C169.411765,42.515439 169.811698,43.7952257 169.771705,45.0350191 C169.851691,46.3148058 169.411765,47.5545991 168.571904,48.5144392 C166.812198,50.2341526 164.012664,50.2341526 162.252958,48.5144392 M167.732045,47.7545658 C168.331945,46.9546992 168.611898,45.9948592 168.571904,44.9950258 C168.611898,43.9951924 168.331945,43.0353523 167.732045,42.2354857 C166.532245,40.955699 164.572571,40.8757123 163.292784,42.0755124 C163.252792,42.1155056 163.172804,42.1954924 163.132811,42.2354857 C162.532912,43.0353523 162.212964,43.9951924 162.292951,44.9950258 C162.252958,45.9948592 162.532912,46.9546992 163.132811,47.7545658 C164.332612,49.0343526 166.332278,49.0743458 167.612065,47.9145391 C167.612065,47.8745459 167.652058,47.8345525 167.732045,47.7545658 M172.411265,49.7142392 L172.411265,40.355799 L172.771205,40.355799 C173.171138,40.355799 173.491085,40.6757456 173.491085,41.075679 C173.491085,41.075679 173.491085,41.075679 173.491085,41.075679 L173.491085,42.035519 L173.531078,42.035519 C173.811031,40.955699 174.810865,40.2358189 175.890685,40.2758123 C176.130644,40.2758123 176.370605,40.3158056 176.570572,40.355799 L176.570572,41.4756124 C176.450592,41.435619 176.330611,41.3956256 176.210632,41.3956256 C176.050658,41.3556323 175.890685,41.3556323 175.730712,41.3556323 C175.130812,41.315639 174.530911,41.5955923 174.130978,42.0755124 C173.731045,42.5954257 173.491085,43.235319 173.531078,43.9152058 L173.531078,49.7142392 L172.411265,49.7142392 Z M158.293618,37.4362855 C157.653725,37.3562989 157.053824,37.5562656 156.533911,37.956199 C156.133978,38.316139 155.974004,38.7160722 155.974004,39.7958923 L155.974004,40.8757123 L154.654224,40.8757123 L154.654224,41.8355524 L155.974004,41.8355524 L155.974004,49.6742459 L157.133812,49.6742459 L157.133812,41.8355524 L159.053491,41.8355524 L159.053491,40.8757123 L157.133812,40.8757123 L157.133812,39.7958923 C157.133812,39.1160056 157.213798,38.8760456 157.413764,38.676079 C157.693717,38.4361189 158.013665,38.3561322 158.373605,38.3961256 C158.613564,38.3961256 158.813531,38.4361189 159.013498,38.4761123 L159.013498,37.5162722 C158.813531,37.4762789 158.573572,37.4362855 158.293618,37.4362855" id="Shape" fill="#646363"></path>
        </g>
    </g>
</svg>