<?xml version="1.0" encoding="UTF-8"?>
<svg width="40px" height="72px" viewBox="0 0 40 72" version="1.1" xmlns="http://www.w3.org/2000/svg" xmlns:xlink="http://www.w3.org/1999/xlink">
    <title>Group 3</title>
    <g id="Page-1" stroke="none" stroke-width="1" fill="none" fill-rule="evenodd">
        <g id="single-line-update" transform="translate(-934.000000, -379.000000)">
            <g id="Group-3" transform="translate(934.000000, 379.000000)">
                <g id="Group" transform="translate(0.000000, 32.000000)">
                    <circle id="Oval-Copy" stroke="#F4792C" fill="#F4792C" cx="20" cy="20" r="19.5"></circle>
                    <path d="M27.734375,9 C28.8005586,9 29.6679688,9.86741016 29.6679688,10.9335938 L29.6679688,10.9335938 L29.6679688,14.15625 L30.3554688,14.15625 C30.7114219,14.15625 31,14.4448281 31,14.8007812 C31,15.1567344 30.7114219,15.4453125 30.3554688,15.4453125 L30.3554688,15.4453125 L29.6679688,15.4453125 L29.6679688,22.5351562 C29.6679688,22.8911094 29.3793906,23.1796875 29.0234375,23.1796875 L29.0234375,23.1796875 L28.3789062,23.1796875 L28.3789062,29.0664062 C28.3789062,30.1325898 27.5114961,31 26.4453125,31 L26.4453125,31 L13.5546875,31 C12.4885039,31 11.6210938,30.1325898 11.6210938,29.0664062 L11.6210938,29.0664062 L11.6210938,23.1796875 L10.9765625,23.1796875 C10.6206094,23.1796875 10.3320312,22.8911094 10.3320312,22.5351562 L10.3320312,22.5351562 L10.3320312,15.4453125 L9.64453125,15.4453125 C9.28857813,15.4453125 9,15.1567344 9,14.8007812 C9,14.4448281 9.28857813,14.15625 9.64453125,14.15625 L9.64453125,14.15625 L10.3320312,14.15625 L10.3320312,10.9335938 C10.3320312,9.86741016 11.1994414,9 12.265625,9 L12.265625,9 Z M14.1992188,23.1796875 L12.9101562,23.1796875 L12.9101562,29.0664062 C12.9101562,29.4218008 13.199293,29.7109375 13.5546875,29.7109375 L13.5546875,29.7109375 L26.4453125,29.7109375 C26.800707,29.7109375 27.0898438,29.4218008 27.0898438,29.0664062 L27.0898438,29.0664062 L27.0898438,23.1796875 L25.8007812,23.1796875 L25.8007812,27.7773438 C25.8007812,28.1332969 25.5122031,28.421875 25.15625,28.421875 L25.15625,28.421875 L14.84375,28.421875 C14.4877969,28.421875 14.1992188,28.1332969 14.1992188,27.7773438 L14.1992188,27.7773438 L14.1992188,23.1796875 Z M16.7773438,23.1796875 L15.4882812,23.1796875 L15.4882812,27.1328125 L24.5117188,27.1328125 L24.5117188,23.1796875 L23.2226562,23.1796875 L23.2226562,25.1132812 C23.2226562,25.4692344 22.9340781,25.7578125 22.578125,25.7578125 C22.2221719,25.7578125 21.9335938,25.4692344 21.9335938,25.1132812 L21.9335938,25.1132812 L21.9335938,23.1796875 L20.6445312,23.1796875 L20.6445312,25.1132812 C20.6445312,25.4692344 20.3559531,25.7578125 20,25.7578125 C19.6440469,25.7578125 19.3554688,25.4692344 19.3554688,25.1132812 L19.3554688,25.1132812 L19.3554688,23.1796875 L18.0664062,23.1796875 L18.0664062,25.1132812 C18.0664062,25.4692344 17.7778281,25.7578125 17.421875,25.7578125 C17.0659219,25.7578125 16.7773438,25.4692344 16.7773438,25.1132812 L16.7773438,25.1132812 L16.7773438,23.1796875 Z M27.734375,10.2890625 L12.265625,10.2890625 C11.9102305,10.2890625 11.6210938,10.5781992 11.6210938,10.9335938 L11.6210938,10.9335938 L11.6210938,21.890625 L28.3789062,21.890625 L28.3789062,10.9335938 C28.3789062,10.5781992 28.0897695,10.2890625 27.734375,10.2890625 L27.734375,10.2890625 Z M17.421875,18.0234375 C17.7778398,18.0234375 18.0664062,18.312004 18.0664062,18.6679688 C18.0664062,19.0239335 17.7778398,19.3125 17.421875,19.3125 C17.0659102,19.3125 16.7773438,19.0239335 16.7773438,18.6679688 C16.7773438,18.312004 17.0659102,18.0234375 17.421875,18.0234375 Z M20,18.0234375 C20.3559648,18.0234375 20.6445312,18.312004 20.6445312,18.6679688 C20.6445312,19.0239335 20.3559648,19.3125 20,19.3125 C19.6440352,19.3125 19.3554688,19.0239335 19.3554688,18.6679688 C19.3554688,18.312004 19.6440352,18.0234375 20,18.0234375 Z M22.578125,18.0234375 C22.9340898,18.0234375 23.2226562,18.312004 23.2226562,18.6679688 C23.2226562,19.0239335 22.9340898,19.3125 22.578125,19.3125 C22.2221602,19.3125 21.9335938,19.0239335 21.9335938,18.6679688 C21.9335938,18.312004 22.2221602,18.0234375 22.578125,18.0234375 Z M25.15625,18.0234375 C25.5122148,18.0234375 25.8007812,18.312004 25.8007812,18.6679688 C25.8007812,19.0239335 25.5122148,19.3125 25.15625,19.3125 C24.8002852,19.3125 24.5117188,19.0239335 24.5117188,18.6679688 C24.5117188,18.312004 24.8002852,18.0234375 25.15625,18.0234375 Z M14.84375,18.0234375 C15.1997148,18.0234375 15.4882812,18.312004 15.4882812,18.6679688 C15.4882812,19.0239335 15.1997148,19.3125 14.84375,19.3125 C14.4877852,19.3125 14.1992188,19.0239335 14.1992188,18.6679688 C14.1992188,18.312004 14.4877852,18.0234375 14.84375,18.0234375 Z M23.8671875,12.8671875 C24.2231406,12.8671875 24.5117188,13.1557656 24.5117188,13.5117188 L24.5117188,13.5117188 L24.5117188,16.0898438 C24.5117188,16.4457969 24.2231406,16.734375 23.8671875,16.734375 L23.8671875,16.734375 L13.5546875,16.734375 C13.1987344,16.734375 12.9101562,16.4457969 12.9101562,16.0898438 L12.9101562,16.0898438 L12.9101562,13.5117188 C12.9101562,13.1557656 13.1987344,12.8671875 13.5546875,12.8671875 L13.5546875,12.8671875 Z M26.4453125,12.8671875 C26.8012656,12.8671875 27.0898438,13.1557656 27.0898438,13.5117188 L27.0898438,13.5117188 L27.0898438,16.0898438 C27.0898438,16.4457969 26.8012656,16.734375 26.4453125,16.734375 C26.0893594,16.734375 25.8007812,16.4457969 25.8007812,16.0898438 L25.8007812,16.0898438 L25.8007812,13.5117188 C25.8007812,13.1557656 26.0893594,12.8671875 26.4453125,12.8671875 Z M20.6445312,14.15625 L19.3554688,14.15625 L19.3554688,15.4453125 L20.6445312,15.4453125 L20.6445312,14.15625 Z M18.0664062,14.15625 L16.7773438,14.15625 L16.7773438,15.4453125 L18.0664062,15.4453125 L18.0664062,14.15625 Z M15.4882812,14.15625 L14.1992188,14.15625 L14.1992188,15.4453125 L15.4882812,15.4453125 L15.4882812,14.15625 Z M23.2226562,14.15625 L21.9335938,14.15625 L21.9335938,15.4453125 L23.2226562,15.4453125 L23.2226562,14.15625 Z" id="Combined-Shape" fill="#FFFFFF" fill-rule="nonzero"></path>
                </g>
                <g id="Group">
                    <circle id="Oval" stroke="#4AC367" fill="#4AC367" cx="20" cy="20" r="19.5"></circle>
                    <path d="M27.734375,9 C28.8005586,9 29.6679688,9.86741016 29.6679688,10.9335938 L29.6679688,10.9335938 L29.6679688,14.15625 L30.3554688,14.15625 C30.7114219,14.15625 31,14.4448281 31,14.8007812 C31,15.1567344 30.7114219,15.4453125 30.3554688,15.4453125 L30.3554688,15.4453125 L29.6679688,15.4453125 L29.6679688,22.5351562 C29.6679688,22.8911094 29.3793906,23.1796875 29.0234375,23.1796875 L29.0234375,23.1796875 L28.3789062,23.1796875 L28.3789062,29.0664062 C28.3789062,30.1325898 27.5114961,31 26.4453125,31 L26.4453125,31 L13.5546875,31 C12.4885039,31 11.6210938,30.1325898 11.6210938,29.0664062 L11.6210938,29.0664062 L11.6210938,23.1796875 L10.9765625,23.1796875 C10.6206094,23.1796875 10.3320312,22.8911094 10.3320312,22.5351562 L10.3320312,22.5351562 L10.3320312,15.4453125 L9.64453125,15.4453125 C9.28857813,15.4453125 9,15.1567344 9,14.8007812 C9,14.4448281 9.28857813,14.15625 9.64453125,14.15625 L9.64453125,14.15625 L10.3320312,14.15625 L10.3320312,10.9335938 C10.3320312,9.86741016 11.1994414,9 12.265625,9 L12.265625,9 Z M14.1992188,23.1796875 L12.9101562,23.1796875 L12.9101562,29.0664062 C12.9101562,29.4218008 13.199293,29.7109375 13.5546875,29.7109375 L13.5546875,29.7109375 L26.4453125,29.7109375 C26.800707,29.7109375 27.0898438,29.4218008 27.0898438,29.0664062 L27.0898438,29.0664062 L27.0898438,23.1796875 L25.8007812,23.1796875 L25.8007812,27.7773438 C25.8007812,28.1332969 25.5122031,28.421875 25.15625,28.421875 L25.15625,28.421875 L14.84375,28.421875 C14.4877969,28.421875 14.1992188,28.1332969 14.1992188,27.7773438 L14.1992188,27.7773438 L14.1992188,23.1796875 Z M16.7773438,23.1796875 L15.4882812,23.1796875 L15.4882812,27.1328125 L24.5117188,27.1328125 L24.5117188,23.1796875 L23.2226562,23.1796875 L23.2226562,25.1132812 C23.2226562,25.4692344 22.9340781,25.7578125 22.578125,25.7578125 C22.2221719,25.7578125 21.9335938,25.4692344 21.9335938,25.1132812 L21.9335938,25.1132812 L21.9335938,23.1796875 L20.6445312,23.1796875 L20.6445312,25.1132812 C20.6445312,25.4692344 20.3559531,25.7578125 20,25.7578125 C19.6440469,25.7578125 19.3554688,25.4692344 19.3554688,25.1132812 L19.3554688,25.1132812 L19.3554688,23.1796875 L18.0664062,23.1796875 L18.0664062,25.1132812 C18.0664062,25.4692344 17.7778281,25.7578125 17.421875,25.7578125 C17.0659219,25.7578125 16.7773438,25.4692344 16.7773438,25.1132812 L16.7773438,25.1132812 L16.7773438,23.1796875 Z M27.734375,10.2890625 L12.265625,10.2890625 C11.9102305,10.2890625 11.6210938,10.5781992 11.6210938,10.9335938 L11.6210938,10.9335938 L11.6210938,21.890625 L28.3789062,21.890625 L28.3789062,10.9335938 C28.3789062,10.5781992 28.0897695,10.2890625 27.734375,10.2890625 L27.734375,10.2890625 Z M17.421875,18.0234375 C17.7778398,18.0234375 18.0664062,18.312004 18.0664062,18.6679688 C18.0664062,19.0239335 17.7778398,19.3125 17.421875,19.3125 C17.0659102,19.3125 16.7773438,19.0239335 16.7773438,18.6679688 C16.7773438,18.312004 17.0659102,18.0234375 17.421875,18.0234375 Z M20,18.0234375 C20.3559648,18.0234375 20.6445312,18.312004 20.6445312,18.6679688 C20.6445312,19.0239335 20.3559648,19.3125 20,19.3125 C19.6440352,19.3125 19.3554688,19.0239335 19.3554688,18.6679688 C19.3554688,18.312004 19.6440352,18.0234375 20,18.0234375 Z M22.578125,18.0234375 C22.9340898,18.0234375 23.2226562,18.312004 23.2226562,18.6679688 C23.2226562,19.0239335 22.9340898,19.3125 22.578125,19.3125 C22.2221602,19.3125 21.9335938,19.0239335 21.9335938,18.6679688 C21.9335938,18.312004 22.2221602,18.0234375 22.578125,18.0234375 Z M25.15625,18.0234375 C25.5122148,18.0234375 25.8007812,18.312004 25.8007812,18.6679688 C25.8007812,19.0239335 25.5122148,19.3125 25.15625,19.3125 C24.8002852,19.3125 24.5117188,19.0239335 24.5117188,18.6679688 C24.5117188,18.312004 24.8002852,18.0234375 25.15625,18.0234375 Z M14.84375,18.0234375 C15.1997148,18.0234375 15.4882812,18.312004 15.4882812,18.6679688 C15.4882812,19.0239335 15.1997148,19.3125 14.84375,19.3125 C14.4877852,19.3125 14.1992188,19.0239335 14.1992188,18.6679688 C14.1992188,18.312004 14.4877852,18.0234375 14.84375,18.0234375 Z M23.8671875,12.8671875 C24.2231406,12.8671875 24.5117188,13.1557656 24.5117188,13.5117188 L24.5117188,13.5117188 L24.5117188,16.0898438 C24.5117188,16.4457969 24.2231406,16.734375 23.8671875,16.734375 L23.8671875,16.734375 L13.5546875,16.734375 C13.1987344,16.734375 12.9101562,16.4457969 12.9101562,16.0898438 L12.9101562,16.0898438 L12.9101562,13.5117188 C12.9101562,13.1557656 13.1987344,12.8671875 13.5546875,12.8671875 L13.5546875,12.8671875 Z M26.4453125,12.8671875 C26.8012656,12.8671875 27.0898438,13.1557656 27.0898438,13.5117188 L27.0898438,13.5117188 L27.0898438,16.0898438 C27.0898438,16.4457969 26.8012656,16.734375 26.4453125,16.734375 C26.0893594,16.734375 25.8007812,16.4457969 25.8007812,16.0898438 L25.8007812,16.0898438 L25.8007812,13.5117188 C25.8007812,13.1557656 26.0893594,12.8671875 26.4453125,12.8671875 Z M20.6445312,14.15625 L19.3554688,14.15625 L19.3554688,15.4453125 L20.6445312,15.4453125 L20.6445312,14.15625 Z M18.0664062,14.15625 L16.7773438,14.15625 L16.7773438,15.4453125 L18.0664062,15.4453125 L18.0664062,14.15625 Z M15.4882812,14.15625 L14.1992188,14.15625 L14.1992188,15.4453125 L15.4882812,15.4453125 L15.4882812,14.15625 Z M23.2226562,14.15625 L21.9335938,14.15625 L21.9335938,15.4453125 L23.2226562,15.4453125 L23.2226562,14.15625 Z" id="Combined-Shape" fill="#FFFFFF" fill-rule="nonzero"></path>
                </g>
            </g>
        </g>
    </g>
</svg>