<?xml version="1.0" encoding="UTF-8"?>
<svg width="32px" height="32px" viewBox="0 0 32 32" version="1.1" xmlns="http://www.w3.org/2000/svg" xmlns:xlink="http://www.w3.org/1999/xlink">
    <title>Tree</title>
    <defs>
        <linearGradient x1="50%" y1="0%" x2="50%" y2="100%" id="linearGradient-1">
            <stop stop-color="#51D028" offset="0%"></stop>
            <stop stop-color="#1CBE83" offset="100%"></stop>
        </linearGradient>
    </defs>
    <g id="Page-1" stroke="none" stroke-width="1" fill="none" fill-rule="evenodd">
        <g id="project-overview" transform="translate(-963.000000, -914.000000)" fill="url(#linearGradient-1)" fill-rule="nonzero">
            <g id="Tree" transform="translate(963.000000, 914.000000)">
                <path d="M16.0001742,12.3826593 C16.6041861,12.3826593 17.0937973,12.8408244 17.0937973,13.4065972 L17.0941809,17.0151892 C17.5941163,16.8772428 18.0155935,16.6376005 18.3391643,16.3031322 C18.8003235,15.8261081 19.0261611,15.1821255 18.9574021,14.5364788 C18.8969417,13.9734794 19.3367619,13.4720494 19.93781,13.4160268 C20.5394509,13.3605588 21.0752966,13.7710215 21.1351643,14.3334662 C21.2649765,15.5526512 20.8370112,16.7718362 19.96152,17.676518 C19.2333782,18.4296397 18.2385679,18.9231475 17.0934894,19.1132727 L17.093,29.952 L18.5063197,29.9526789 C19.1109243,29.9526789 19.6005355,30.410844 19.6005355,30.9766168 C19.6005355,31.5423896 19.1103316,32 18.5063197,32 L13.495807,32 C12.8912024,32 12.4015912,31.5418349 12.4015912,30.9760621 C12.4015912,30.4102893 12.8917951,29.9526789 13.495807,29.9526789 L14.905,29.952 L14.9050507,21.8121232 C13.0575106,21.462031 11.802076,20.0974442 11.3263434,18.7126588 C11.1414055,18.1740653 11.4579338,17.5971989 12.0329009,17.4241389 C12.6120173,17.2521884 13.2249204,17.5478324 13.4098583,18.0853166 C13.6199363,18.6970935 14.1122898,19.3736064 14.9045297,19.6813734 L14.9059584,13.4065972 C14.9059584,12.8408244 15.3955696,12.3826593 16.0001742,12.3826593 Z M16.0001742,-5.48378547e-14 C18.1512626,-5.48378547e-14 20.2501891,0.834792255 21.6152915,2.23258394 C22.6609019,3.30311487 23.2412038,4.64543863 23.323596,6.15971295 C27.0448782,6.41819348 30.2403914,8.56369278 31.4804237,11.7370127 C32.7678759,15.0301433 31.6292038,18.4680453 28.4366543,21.0328821 C28.6109227,23.3453398 27.5250054,25.3155605 25.4557164,26.3783259 C24.5043532,26.8664436 23.4409604,27.104401 22.381124,27.104401 C20.8577575,27.104401 19.3426894,26.6112912 18.1850494,25.660571 C17.7304104,25.2872718 17.6859542,24.6405159 18.0842819,24.2156316 C18.4832024,23.7901926 19.1749413,23.748037 19.6283947,24.1213361 C20.9128832,25.176336 22.8766627,25.3654816 24.4024003,24.5822745 C25.8267777,23.8512073 26.4829515,22.4539703 26.2019882,20.749441 C26.140935,20.3833527 26.2974209,20.014491 26.6097999,19.7865178 C29.3791262,17.763048 30.4312568,15.016831 29.4247679,12.4409007 C28.3844923,9.78010435 25.5037291,8.07557505 22.2501264,8.18762025 C21.9413038,8.20037788 21.6312958,8.08278588 21.4149421,7.86923437 C21.1985885,7.65568286 21.0901153,7.36558562 21.1185673,7.0721603 C21.254307,5.67603266 20.8773182,4.51287029 19.999456,3.61428992 C19.0563913,2.64803869 17.5235408,2.04787575 15.9995815,2.04787575 C14.4756222,2.04787575 12.9427716,2.64803869 11.9997069,3.61428992 C11.1224375,4.51287029 10.7454487,5.67658734 10.8805956,7.0721603 C10.9090476,7.36503094 10.8005744,7.65568286 10.5842208,7.86923437 C10.3678672,8.08278588 10.0596374,8.1998232 9.74903658,8.18762025 C6.4794296,8.06392678 3.61407786,9.78010435 2.574395,12.4409007 C1.56790612,15.0173857 2.62003673,17.763048 5.38936302,19.7865178 C5.70174208,20.014491 5.85822798,20.3833527 5.79717477,20.749441 C5.51621144,22.4539703 6.17179254,23.8512073 7.59616991,24.5822745 C9.12368571,25.3660363 11.0862798,25.176336 12.3707682,24.1213361 C12.8259999,23.7474823 13.517146,23.7907473 13.914881,24.2156316 C14.3138015,24.6410705 14.2687525,25.2878265 13.8141136,25.660571 C11.8515195,27.2719142 8.86109763,27.5675582 6.54344656,26.3777712 C4.47415758,25.3150058 3.38824025,23.3447851 3.56250864,21.0323274 C0.370551863,18.4680453 -0.767527435,15.0301433 0.519332022,11.7370127 C1.75936426,8.56369278 4.95428479,6.41819348 8.67615974,6.15971295 C8.75855194,4.64543863 9.33885383,3.30311487 10.3844642,2.23258394 C11.7495666,0.834792255 13.8484931,-5.48378547e-14 16.0001742,-5.48378547e-14 Z" id="tree"></path>
            </g>
        </g>
    </g>
</svg>