<?xml version="1.0" encoding="UTF-8"?>
<svg width="130px" height="130px" viewBox="0 0 130 130" version="1.1" xmlns="http://www.w3.org/2000/svg" xmlns:xlink="http://www.w3.org/1999/xlink">
    <title>avatar-blank</title>
    <g id="Page-1" stroke="none" stroke-width="1" fill="none" fill-rule="evenodd">
        <g id="avatar-blank">
            <rect id="Rectangle" fill="#F5F5F5" x="0" y="0" width="130" height="130"></rect>
            <path d="M50.7489001,68.0089 C51.5490001,67.8488 52.4293001,68.0888 53.0695001,68.569 C56.4303001,71.0496 60.4312001,72.3298 64.5922001,72.3298 C68.7533001,72.3298 72.7542001,71.0496 76.1150001,68.569 C76.7552001,68.0888 77.6354001,67.9289 78.4355001,68.0089 C84.8370001,68.8891 90.5182001,72.4899 94.1991001,77.9312 C94.9193001,78.9715 95.5594001,80.0917 96.0395001,81.292 C96.2795001,81.7721 96.1996001,82.3323 95.7997001,82.8125 C95.1596001,83.9327 94.4393001,84.973 93.6392001,86.0132 C92.5188001,87.5335 91.2385001,88.8939 89.9583001,90.1741 C88.8379001,91.2944 87.5576001,92.4147 86.2773001,93.3749 C79.9559001,98.0959 72.3541001,100.5765 64.5123001,100.5765 C56.6704001,100.5765 49.0686001,98.0961 42.7472001,93.3749 C41.4667701,92.3346 40.1865001,91.2944 39.0662801,90.1741 C37.7059101,88.8939 36.5055901,87.5337 35.3853701,86.0132 C34.6652101,85.0531 33.8650941,83.9327 33.2248821,82.8125 C32.9848792,82.3323 32.9049294,81.7722 33.1449321,81.292 C33.6249381,80.1718 34.2651501,78.9715 34.9853101,77.9312 C38.5861201,72.4899 44.3474001,68.8891 50.7489001,68.0089 Z M64.5919001,30 C74.6743001,30 82.9162001,38.24189 82.9162001,48.3243 C82.9162001,58.4067 74.6743001,66.6486 64.5919001,66.6486 C54.5095001,66.6486 46.2676001,58.4067 46.2676001,48.3243 C46.2676001,38.24189 54.5095001,30 64.5919001,30 Z" id="Combined-Shape" fill-opacity="0.95" fill="#FFFFFF" fill-rule="nonzero"></path>
        </g>
    </g>
</svg>