<svg width="33" height="30" viewBox="0 0 33 30" fill="none" xmlns="http://www.w3.org/2000/svg">
<path d="M31.3729 6.04252C20.4713 3.87577 21.177 3.98892 20.9301 4.03046C20.8511 4.04364 19.8836 4.23812 17.6283 4.68914C16.6829 1.9628 14.089 0 11.0449 0C7.99804 0 5.4021 1.9665 4.45883 4.69686L1.12483 4.03435C0.543712 3.91913 0 4.36338 0 4.95767V27.0475C0 27.4967 0.317354 27.8833 0.757833 27.9708C11.5673 30.1193 10.8596 29.9806 10.9313 29.9893C11.1586 30.0173 10.4561 30.1335 21.0864 28.0074L31.0059 29.979C31.5873 30.0944 32.1307 29.6494 32.1307 29.0557V6.96584C32.1307 6.5167 31.8134 6.13013 31.3729 6.04252ZM11.0449 1.88266C13.8478 1.88266 16.1281 4.16294 16.1281 6.96584C16.1281 9.33065 12.3441 15.3335 11.0449 17.3198C9.74722 15.3357 5.96176 9.33115 5.96176 6.96584C5.96176 4.16294 8.2421 1.88266 11.0449 1.88266ZM1.88266 6.1044L4.09227 6.5435C4.08387 6.68325 4.0791 6.82395 4.0791 6.96578C4.0791 8.53554 5.10596 11.0688 7.21843 14.7104C8.45195 16.8367 9.66796 18.6623 10.1036 19.3054V27.9088L1.88266 26.2748V6.1044ZM11.9863 19.3054C12.4219 18.6623 13.6379 16.8368 14.8714 14.7104C16.9839 11.0688 18.0108 8.53554 18.0108 6.96584C18.0108 6.82125 18.0058 6.67779 17.9971 6.5354L20.1445 6.10584V26.2758L11.9863 27.9075V19.3054ZM30.2481 27.9089L22.0271 26.2749V6.10446L30.2481 7.73842V27.9089Z" fill="#8AACCB"/>
<path d="M11.0447 9.91536C12.6711 9.91536 13.9942 8.59223 13.9942 6.96586C13.9942 5.33949 12.6711 4.01636 11.0447 4.01636C9.41835 4.01636 8.09521 5.33949 8.09521 6.96586C8.09521 8.59223 9.41835 9.91536 11.0447 9.91536ZM11.0447 5.89902C11.633 5.89902 12.1116 6.37759 12.1116 6.96586C12.1116 7.55413 11.633 8.0327 11.0447 8.0327C10.4564 8.0327 9.97787 7.55413 9.97787 6.96586C9.97787 6.37759 10.4564 5.89902 11.0447 5.89902Z" fill="#8AACCB"/>
</svg>
