<?xml version="1.0" encoding="UTF-8"?>
<svg width="27px" height="30px" viewBox="0 0 27 30" version="1.1" xmlns="http://www.w3.org/2000/svg" xmlns:xlink="http://www.w3.org/1999/xlink">
    <title>icon-moon</title>
    <g id="Page-1" stroke="none" stroke-width="1" fill="none" fill-rule="evenodd">
        <path d="M12.6221843,27.7878924 C12.6221843,27.7878924 1.97654584,25.4448326 1.97654584,14.3438099 C1.97654584,12.7480967 2.80667914,5.59400112 8.12496833,3.0718908 C8.12496833,3.0718908 4.88042687,21.573784 23.2690686,24.4197935 C24.1139246,24.5500327 18.9417298,28.7459998 12.6221843,27.7878924 M23.0979456,22.3699419 C8.69462324,20.3212227 9.77617481,5.86138784 9.77617481,5.86138784 C9.78523493,4.61211084 10.7457207,1.9416411 10.8012139,1.36405858 C11.1431201,-2.16598984 5.74793315,2.1726741 4.9370526,3.01413255 C-5.3666797,13.7175293 3.41370703,24.4039383 4.9370526,25.7289806 C15.9291274,35.2931807 24.7910552,25.9339657 25.7729454,25.0460742 C29.3029939,21.8581585 23.6075773,22.4424228 23.0979456,22.3699419" id="icon-moon" fill="#718FAB"></path>
    </g>
</svg>