<svg width="31" height="35" viewBox="0 0 31 35" fill="none" xmlns="http://www.w3.org/2000/svg">
<path d="M15.254 5.83325C8.82123 5.83325 3.58746 11.0673 3.58746 17.5C3.58746 23.9327 8.82123 29.1668 15.254 29.1668C21.6867 29.1668 26.9207 23.9327 26.9207 17.5C26.9207 11.0673 21.6867 5.83325 15.254 5.83325ZM15.254 26.9793C10.0274 26.9793 5.77496 22.7266 5.77496 17.5C5.77496 12.2735 10.0274 8.02075 15.254 8.02075C20.4808 8.02075 24.7332 12.2735 24.7332 17.5C24.7332 22.7266 20.4808 26.9793 15.254 26.9793Z" fill="#718FAB"/>
<path d="M14.1603 1.09375V3.64574C14.1603 4.2495 14.6503 4.73949 15.254 4.73949C15.8578 4.73949 16.3478 4.2495 16.3478 3.64574V1.09375C16.3478 0.489998 15.8578 0 15.254 0C14.6503 0 14.1603 0.489998 14.1603 1.09375Z" fill="#718FAB"/>
<path d="M1.58799 8.50356C1.05127 8.22799 0.392239 8.44829 0.118001 8.98475C-0.154636 9.52441 0.0611235 10.1821 0.600789 10.4547L2.76185 11.5485C2.921 11.6302 3.09003 11.6668 3.25479 11.6668C3.65453 11.6668 4.03959 11.4478 4.23185 11.0673C4.50475 10.5276 4.28872 9.86995 3.74933 9.59731L1.58799 8.50356Z" fill="#718FAB"/>
<path d="M2.76346 23.4516L0.602131 24.5453C0.0624662 24.818 -0.153293 25.4757 0.119343 26.0153C0.311871 26.3958 0.696927 26.6145 1.09667 26.6145C1.26276 26.6145 1.43045 26.5782 1.5896 26.4965L3.75067 25.4028C4.29033 25.1301 4.50609 24.4724 4.23346 23.9328C3.95922 23.3947 3.30153 23.1744 2.76346 23.4516Z" fill="#718FAB"/>
<path d="M15.254 30.2605C14.6503 30.2605 14.1603 30.7505 14.1603 31.3542V33.9062C14.1603 34.51 14.6503 35 15.254 35C15.8578 35 16.3478 34.51 16.3478 33.9062V31.3542C16.3478 30.7505 15.8578 30.2605 15.254 30.2605Z" fill="#718FAB"/>
<path d="M29.9075 24.5454L27.7461 23.4516C27.2081 23.176 26.5504 23.3947 26.2761 23.9328C26.0035 24.4725 26.2193 25.1301 26.7589 25.4028L28.92 26.4965C29.0775 26.5782 29.2468 26.6146 29.4129 26.6146C29.8127 26.6146 30.1975 26.3959 30.39 26.0153C30.6629 25.4757 30.4455 24.818 29.9075 24.5454Z" fill="#718FAB"/>
<path d="M28.92 8.50358L26.7589 9.59733C26.2193 9.86997 26.0035 10.5277 26.2761 11.0673C26.4687 11.4478 26.8537 11.6668 27.2532 11.6668C27.4196 11.6668 27.5873 11.6302 27.7461 11.5485L29.9075 10.4548C30.4469 10.1821 30.6629 9.52443 30.39 8.98477C30.1173 8.4467 29.4597 8.22641 28.92 8.50358Z" fill="#718FAB"/>
</svg>
