<svg width="37" height="29" viewBox="0 0 37 29" fill="none" xmlns="http://www.w3.org/2000/svg">
<path d="M18.7318 27.9984C13.6498 27.9984 8.56782 28.0002 3.48403 27.9984C1.64104 27.9966 1 27.3396 1 25.4717C1 18.1727 1 10.8738 1 3.57484C1.00178 1.67131 1.66063 1.00178 3.53745 1C13.673 1 23.8085 1 33.9423 1.00178C35.7817 1.00178 36.469 1.67843 36.469 3.49649C36.4708 10.8542 36.4726 18.2119 36.4708 25.5696C36.4708 27.304 35.7906 27.9966 34.0669 27.9984C28.9546 28.002 23.8423 27.9984 18.7318 27.9984ZM23.0357 19.0061C23.5681 18.4558 24.2092 17.8041 24.8342 17.1364C25.258 16.6841 25.6818 16.6378 26.1287 17.083C26.8819 17.8326 27.6316 18.5876 28.383 19.3408C28.8246 19.7842 28.7979 20.2151 28.3599 20.6461C27.8969 21.1019 27.4535 21.5773 26.9781 22.0207C26.5507 22.4196 26.2569 22.7437 26.5596 23.4417C26.8641 24.1468 27.3485 24.0115 27.8524 24.0186C28.4133 24.0275 28.976 24.0275 29.5369 24.0204C30.1708 24.0115 30.4522 24.3285 30.4415 24.9481C30.4326 25.4699 30.4397 25.9916 30.4397 26.581C31.6648 26.581 32.7831 26.5828 33.8995 26.581C35.0089 26.5774 35.0498 26.5383 35.0516 25.4325C35.0534 20.1742 35.0534 14.9141 35.0516 9.6558C35.0516 9.39939 35.0231 9.14297 35.0071 8.87765C24.1255 8.87765 13.3008 8.87765 2.42097 8.87765C2.42097 12.0953 2.42097 15.2524 2.42097 18.4095C2.42097 20.8028 2.42097 23.196 2.42097 25.5892C2.42097 26.0343 2.36933 26.5525 3.01749 26.565C4.33518 26.5899 5.65287 26.5721 7.03111 26.5721C7.03111 25.9649 7.04179 25.4681 7.02754 24.9713C7.00796 24.2929 7.33916 24.0026 8.00157 24.0204C8.53221 24.0347 9.07887 23.9474 9.59348 24.04C10.5746 24.2181 10.7954 23.5806 11.1355 22.8897C11.481 22.1899 10.9361 21.9816 10.6245 21.6664C8.81889 19.8412 8.7904 20.1279 10.6494 18.2867C12.715 16.2389 12.2574 16.2549 14.3283 18.3187C14.6897 18.6802 14.9533 18.9633 15.589 18.7069C16.2567 18.4363 16.2817 18.0303 16.2549 17.4765C16.2318 16.9761 16.246 16.4722 16.2496 15.97C16.2585 14.9408 16.3867 14.8179 17.448 14.8108C18.187 14.8055 18.9259 14.8108 19.6631 14.809C21.2248 14.8073 21.2248 14.8073 21.223 16.4027C21.223 16.4918 21.2337 16.5808 21.2212 16.6681C21.0449 17.9181 21.2907 18.8885 23.0357 19.0061ZM35.0534 7.35341C35.0534 6.1479 35.0552 4.9228 35.0534 3.6977C35.0516 2.42631 35.0463 2.41919 33.7535 2.41919C24.8039 2.41919 15.8543 2.41919 6.90468 2.41919C5.69383 2.41919 4.48298 2.42453 3.27213 2.41741C2.80381 2.41385 2.42987 2.52603 2.42631 3.07981C2.41741 4.4901 2.42453 5.8986 2.42453 7.35341C13.3062 7.35341 24.1059 7.35341 35.0534 7.35341ZM28.9831 25.4396C28.5878 25.4396 28.2904 25.4058 28.0002 25.4449C26.5294 25.6426 25.3684 25.3773 25.1351 23.6251C25.1173 23.4862 25.0265 23.3509 24.9481 23.2262C24.6116 22.6885 24.7006 22.2398 25.1707 21.816C25.7993 21.2479 26.4012 20.6514 26.898 20.1777C26.3442 19.5688 25.9008 19.0773 25.3488 18.4701C24.9161 18.9526 24.462 19.4156 24.0578 19.9195C23.4506 20.6728 22.8238 20.9434 21.9566 20.2721C21.6219 20.0121 21.1589 19.8893 20.7351 19.7807C20.0584 19.6062 19.7468 19.2429 19.7931 18.5182C19.8412 17.7685 19.8038 17.0117 19.8038 16.2781C19.0221 16.2781 18.3828 16.2781 17.667 16.2781C17.667 16.7963 17.6652 17.261 17.667 17.7276C17.6777 19.7468 17.7222 19.4405 16.1428 19.973C15.8935 20.0567 15.6477 20.1706 15.4234 20.3095C14.9052 20.63 14.4956 20.5161 14.0932 20.0869C13.5786 19.5403 13.0248 19.0292 12.5868 18.5983C12.0294 19.1093 11.5576 19.542 10.9931 20.0602C11.4845 20.5321 11.9564 21.0129 12.4586 21.4598C12.9518 21.9014 13.0408 22.3466 12.6954 22.9431C12.4034 23.4488 12.1648 24.0008 12.0045 24.5617C11.8157 25.2206 11.4347 25.4663 10.7794 25.4432C10.0244 25.4165 9.26762 25.4378 8.49837 25.4378C8.49837 25.8723 8.49837 26.1821 8.49837 26.5294C10.7153 26.5294 12.8841 26.5294 15.0423 26.5294C15.5249 24.1397 16.7909 22.8844 18.7051 22.8576C20.6087 22.8309 21.8623 24.0525 22.4463 26.5276C24.608 26.5276 26.7769 26.5276 28.9849 26.5276C28.9831 26.1661 28.9831 25.8563 28.9831 25.4396ZM20.8704 26.5401C20.8366 25.1867 19.8875 24.2359 18.6606 24.2875C17.4355 24.3374 16.5541 25.3203 16.6502 26.5401C18.0588 26.5401 19.4637 26.5401 20.8704 26.5401Z" fill="#8AACCB" stroke="#8AACCB" stroke-width="0.5"/>
<path d="M6.94178 4.94419C6.49127 5.25224 6.21705 5.58879 5.97666 5.56386C5.72558 5.53893 5.50834 5.16855 5.27686 4.94953C5.51903 4.70914 5.73271 4.3352 6.01227 4.27644C6.21526 4.23548 6.50729 4.61298 6.94178 4.94419Z" fill="#8AACCB" stroke="#8AACCB" stroke-width="0.5"/>
<path d="M9.80753 4.96721C9.34812 5.26636 9.06677 5.59578 8.83351 5.56551C8.58243 5.53168 8.37409 5.1613 8.14795 4.93694C8.39546 4.70011 8.61448 4.33329 8.89761 4.27453C9.09348 4.23357 9.37661 4.62176 9.80753 4.96721Z" fill="#8AACCB" stroke="#8AACCB" stroke-width="0.5"/>
</svg>
