<?xml version="1.0" encoding="UTF-8"?>
<svg width="27px" height="28px" viewBox="0 0 27 28" version="1.1" xmlns="http://www.w3.org/2000/svg" xmlns:xlink="http://www.w3.org/1999/xlink">
    <title>Fill 1</title>
    <g id="Page-1" stroke="none" stroke-width="1" fill="none" fill-rule="evenodd">
        <path d="M23.94,21.6498 L2.299,21.6498 C2.12,21.6498 1.969,21.5008 1.969,21.3198 C1.969,21.2298 2,21.1608 2.04,21.1208 C2.06,21.0998 2.08,21.0898 2.089,21.0698 C2.85,20.4298 3.509,19.6898 4.049,18.8798 C4.27,18.5598 4.469,18.2298 4.649,17.8898 C5.28,16.6898 5.69,15.3798 5.839,14.0198 C5.879,13.6298 5.899,13.2398 5.899,12.8398 L5.899,9.1798 C5.899,5.1998 9.14,1.9698 13.12,1.9698 C17.099,1.9698 20.33,5.1998 20.33,9.1798 L20.33,12.8398 C20.33,16.0098 21.719,19.0098 24.139,21.0698 C24.16,21.0898 24.179,21.0998 24.2,21.1208 C24.24,21.1608 24.269,21.2298 24.269,21.3198 C24.269,21.5008 24.12,21.6498 23.94,21.6498 M13.12,25.5808 C11.83,25.5808 10.74,24.7598 10.339,23.6098 L15.9,23.6098 C15.5,24.7598 14.41,25.5808 13.12,25.5808 M25.61,19.7508 C25.559,19.6898 25.5,19.6298 25.429,19.5808 C25.4,19.5498 25.37,19.5198 25.33,19.5008 C25.21,19.3898 25.089,19.2798 24.98,19.1708 C24.639,18.8308 24.32,18.4798 24.04,18.0998 C23.849,17.8498 23.679,17.5898 23.53,17.3308 C23.21,16.7998 22.95,16.2298 22.759,15.6298 C22.7,15.4798 22.66,15.3308 22.62,15.1798 C22.41,14.4298 22.299,13.6398 22.299,12.8398 L22.299,9.1798 C22.299,4.2898 18.45,0.2798 13.629,0.0198 C13.569,0.0198 13.5,0.0098 13.44,0.0098 C13.33,-0.0002 13.23,-0.0002 13.12,-0.0002 C13.02,-0.0002 12.899,-0.0002 12.799,0.0098 C12.73,0.0098 12.669,0.0098 12.609,0.0198 C7.79,0.2798 3.94,4.2898 3.94,9.1798 L3.94,12.8398 C3.94,15.3998 2.83,17.8198 0.899,19.5008 C0.87,19.5198 0.83,19.5498 0.799,19.5808 C0.74,19.6298 0.68,19.6898 0.62,19.7508 C0.219,20.1708 0,20.7298 0,21.3198 C0,22.5808 1.03,23.6098 2.299,23.6098 L8.299,23.6098 C8.75,25.8498 10.75,27.5498 13.12,27.5498 C15.49,27.5498 17.49,25.8498 17.94,23.6098 L23.94,23.6098 C25.21,23.6098 26.24,22.5808 26.24,21.3198 C26.24,20.7398 26.019,20.1798 25.61,19.7508" id="Fill-1" fill="#718FAB"></path>
    </g>
</svg>