<?xml version="1.0" encoding="UTF-8"?>
<svg width="50px" height="50px" viewBox="0 0 50 50" version="1.1" xmlns="http://www.w3.org/2000/svg" xmlns:xlink="http://www.w3.org/1999/xlink">
    <title>Customer</title>
    <g id="arrow" stroke="none" stroke-width="1" fill="none" fill-rule="evenodd">
        <g id="single-line-update" transform="translate(-929.000000, -778.000000)">
            <g id="Customer" transform="translate(929.000000, 778.000000)">
                <circle id="Mask" fill="#F4792C" cx="25" cy="25" r="25"></circle>
                <path d="M20.6460982,20.3706528 C20.7721149,20.1899477 20.9941443,20.1225387 21.1902954,20.2057848 C21.3853212,20.2890309 21.5053372,20.5014101 21.4858346,20.7271899 L21.4858346,20.7271899 L20.9802675,26.3891455 L23.7968912,26.3891455 C23.9754149,26.3891455 24.1374364,26.4975685 24.217322,26.6705581 C24.2964575,26.8427355 24.2780801,27.0490234 24.1711909,27.2029273 L24.1711909,27.2029273 L18.4303041,35.423585 C18.3402922,35.552718 18.2003986,35.625 18.0567546,35.625 C18.0064979,35.625 17.9566163,35.6164723 17.9074848,35.599011 C17.7162094,35.5291654 17.5879424,35.3354659 17.5879424,35.1174016 L17.5879424,35.1174016 L17.5879424,29.6097559 L15.0931113,29.6097559 C14.9149627,29.6097559 14.751816,29.5005207 14.6726805,29.3283433 C14.5942951,29.1545416 14.6126726,28.9482536 14.7203118,28.795162 L14.7203118,28.795162 Z M30.8510026,14.375 C31.044293,14.375 31.2269921,14.4701231 31.3487915,14.6326082 L31.3487915,14.6326082 L39.0036186,24.9185631 C39.1307137,25.0443053 39.2105263,25.22557 39.2105263,25.4264308 C39.2105263,25.4448023 39.2025829,25.4599076 39.2010698,25.4782791 L39.2010698,25.4782791 L39.2010698,33.9699585 C39.2010698,34.350451 38.915106,34.6590909 38.5625687,34.6590909 L38.5625687,34.6590909 L21.7202089,34.6590909 C21.3676715,34.6590909 21.0817077,34.350451 21.0817077,33.9699585 C21.0817077,33.5894659 21.3676715,33.280826 21.7202089,33.280826 L21.7202089,33.280826 L26.6644321,33.280826 L26.6644321,25.6697501 L19.6106585,16.1905047 L12.5258676,25.7293552 L12.5258676,33.2804178 L15.4902833,33.2804178 C15.8428207,33.2804178 16.1287845,33.5890577 16.1287845,33.9695502 C16.1287845,34.3500428 15.8428207,34.6586827 15.4906615,34.6586827 L15.4906615,34.6586827 L11.8877447,34.6586827 C11.5359638,34.6586827 11.25,34.3500428 11.25,33.9695502 L11.25,33.9695502 L11.25,25.4880772 C11.25,25.3308994 11.2995519,25.1794373 11.3895776,25.0565529 L11.3895776,25.0565529 L19.0050658,14.8032583 C19.0092267,14.7914189 19.0107397,14.7775383 19.0160353,14.7656989 C19.1166522,14.5387098 19.3250729,14.3950044 19.5569457,14.3807156 C19.5592152,14.3807156 19.5599718,14.379899 19.5622413,14.379899 C19.5724543,14.3790825 19.5815325,14.375 19.5917455,14.375 L19.5917455,14.375 Z M28.1593117,22.721341 L26.1083914,22.721341 L27.6089448,24.7377066 L29.6598651,24.7377066 L28.1593117,22.721341 Z M32.0410054,22.721341 L29.7971731,22.721341 L31.298483,24.7377066 L33.5423153,24.7377066 L32.0410054,22.721341 Z M35.7294088,22.721341 L33.6784886,22.721341 L35.179042,24.7377066 L37.2307188,24.7377066 L35.7294088,22.721341 Z M25.5005292,19.1470789 L23.449609,19.1470789 L25.0829313,21.3430762 L27.1338515,21.3430762 L25.5005292,19.1470789 Z M29.382223,19.1470789 L27.1383906,19.1470789 L28.7724695,21.3430762 L31.0163018,21.3430762 L29.382223,19.1470789 Z M33.0717612,19.1470789 L31.0200844,19.1470789 L32.6541632,21.3430762 L34.7050835,21.3430762 L33.0717612,19.1470789 Z M30.5449911,15.7528566 L28.4933143,15.7528566 L29.9953808,17.7700387 L32.046301,17.7700387 L30.5449911,15.7528566 Z M26.8562094,15.7528566 L24.6123771,15.7528566 L26.113687,17.7700387 L28.3567628,17.7700387 L26.8562094,15.7528566 Z M22.9745157,15.7528566 L20.9228389,15.7528566 L22.4241488,17.7700387 L24.4758256,17.7700387 L22.9745157,15.7528566 Z" id="home-solar" fill="#FFFFFF" fill-rule="nonzero"></path>
            </g>
        </g>
    </g>
</svg>