<?xml version="1.0" encoding="UTF-8"?>
<svg width="32px" height="40px" viewBox="0 0 32 40" version="1.1" xmlns="http://www.w3.org/2000/svg" xmlns:xlink="http://www.w3.org/1999/xlink">
    <title>EVN</title>
    <g id="arrow" stroke="none" stroke-width="1" fill="none" fill-rule="evenodd">
        <g id="single-line-update" transform="translate(-725.000000, -311.000000)" fill="#00BCD4" fill-rule="nonzero">
            <path d="M741.090576,311 L744.301466,316.016733 L751.637382,320.796222 L751.637382,324.863361 L749.293613,324.863361 L749.293613,322.565548 L745.356126,322.565548 L745.707644,325.299969 L753.980942,329.941382 L753.980942,334.054512 L751.637173,334.054512 L751.637173,331.756698 L746.527853,331.756698 L746.926283,334.950621 L749.738848,343.245663 L751.565,348.647 L757,348.647059 L757,351 L725,351 L725,348.647059 L730.615,348.647 L732.442094,343.245663 L735.25466,334.950621 L735.653089,331.756698 L730.54377,331.756698 L730.54377,334.054512 L728.2,334.054512 L728.2,329.941382 L736.473508,325.299969 L736.825026,322.565548 L732.887539,322.565548 L732.887539,324.863361 L730.54377,324.863361 L730.54377,320.796222 L737.879686,316.016733 L741.090576,311 Z M742.801361,343.245663 L739.379581,343.245663 L735.748,348.647 L746.432,348.647 L742.801361,343.245663 Z M736.56712,343.245663 L734.903037,343.245663 L733.332775,347.917873 L733.426492,347.917873 L736.56712,343.245663 Z M747.278115,343.245663 L745.613927,343.245663 L748.75466,347.917873 L748.848377,347.917873 L747.278115,343.245663 Z M744.934346,336.352325 L737.246806,336.352325 L735.676545,340.947952 L746.504607,340.947952 L744.934346,336.352325 Z M744.160942,331.756698 L738.020314,331.756698 L737.739058,334.054512 L744.442199,334.054512 L744.160942,331.756698 Z M743.574869,327.161174 L738.606178,327.161174 L738.324921,329.458988 L743.856126,329.458988 L743.574869,327.161174 Z M736.121885,328.149266 L733.778115,329.458988 L735.957801,329.458988 L736.121885,328.149266 Z M746.059267,328.149266 L746.223351,329.458988 L748.403037,329.458988 L746.059267,328.149266 Z M742.989005,322.565548 L739.192147,322.565548 L738.91089,324.863361 L743.270262,324.863361 L742.989005,322.565548 Z M744.91089,319.164665 L745.051518,320.267734 L746.598325,320.267734 L744.91089,319.164665 Z M741.090576,315.258598 L739.871832,317.211683 L739.496859,320.267837 L742.684293,320.267837 L742.309319,317.211683 L741.090576,315.258598 Z M737.270262,319.164665 L735.582827,320.267734 L737.129634,320.267734 L737.270262,319.164665 Z" id="EVN"></path>
        </g>
    </g>
</svg>