<?xml version="1.0" encoding="UTF-8"?>
<svg width="50px" height="56px" viewBox="0 0 50 56" version="1.1" xmlns="http://www.w3.org/2000/svg" xmlns:xlink="http://www.w3.org/1999/xlink">
    <title>gridPV</title>
    <g id="arrow" stroke="none" stroke-width="1" fill="none" fill-rule="evenodd">
        <g id="gridPV">
            <path d="M44.6289434,29.4375 C45.3011114,29.4375 45.8870489,29.8950195 46.0500372,30.5470703 L46.0500372,30.5470703 L49.9562872,46.1720703 C50.0657599,46.6097656 49.96742,47.0733398 49.6897833,47.4288086 C49.4121466,47.784375 48.9862677,47.9921875 48.5351934,47.9921875 L48.5351934,47.9921875 L30.7713263,47.9921875 L32.0099005,53.0703125 L34.7656622,53.0703125 C35.5746466,53.0703125 36.2305059,53.7261719 36.2305059,54.5351562 C36.2305059,55.3441406 35.5746466,56 34.7656622,56 L34.7656622,56 L15.2344122,56 C14.4254278,56 13.7695684,55.3441406 13.7695684,54.5351562 C13.7695684,53.7261719 14.4254278,53.0703125 15.2344122,53.0703125 L15.2344122,53.0703125 L17.9900763,53.0703125 L19.2286505,47.9921875 L1.46488095,47.9921875 C1.01380673,47.9921875 0.587927825,47.784375 0.310291106,47.4288086 C0.0326543871,47.0733398 -0.0656854566,46.609668 0.0437871996,46.1720703 L0.0437871996,46.1720703 L3.9500372,30.5470703 C4.11302548,29.8950195 4.69896298,29.4375 5.37113095,29.4375 L5.37113095,29.4375 Z M27.7557989,47.9921875 L22.2443731,47.9921875 L21.0057989,53.0703125 L28.9943731,53.0703125 L27.7557989,47.9921875 Z M12.5497442,40.1796875 L4.56175595,40.1796875 L3.34105282,45.0625 L11.9393927,45.0625 L12.5497442,40.1796875 Z M23.5351934,40.1796875 L15.5021856,40.1796875 L14.8918341,45.0625 L23.5351934,45.0625 L23.5351934,40.1796875 Z M34.4979864,40.1796875 L26.4648809,40.1796875 L26.4648809,45.0625 L35.108338,45.0625 L34.4979864,40.1796875 Z M45.4383184,40.1796875 L37.4503302,40.1796875 L38.0606817,45.0625 L46.6590216,45.0625 L45.4383184,40.1796875 Z M33.5214239,32.3671875 L26.4648809,32.3671875 L26.4648809,37.25 L34.1317755,37.25 L33.5214239,32.3671875 Z M23.5351934,32.3671875 L16.4787481,32.3671875 L15.8682989,37.25 L23.5351934,37.25 L23.5351934,32.3671875 Z M13.5263067,32.3671875 L6.51488095,32.3671875 L5.29417782,37.25 L12.9159552,37.25 L13.5263067,32.3671875 Z M43.4851934,32.3671875 L36.4737677,32.3671875 L37.0841192,37.25 L44.7058966,37.25 L43.4851934,32.3671875 Z M25.0000372,6 C25.8090216,6 26.4648809,6.65585938 26.4648809,7.46484375 L26.4648809,7.46484375 L26.4648809,11.9644531 C28.1996466,12.2136719 29.7956427,12.8981445 31.1377325,13.9041016 L31.1377325,13.9041016 L34.3223028,10.7195312 C34.8944708,10.1474609 35.8220099,10.1475586 36.3938849,10.7195312 C36.9659552,11.2916016 36.9659552,12.2191406 36.3938849,12.7911133 L36.3938849,12.7911133 L33.2092169,15.9756836 C34.2152716,17.3177734 34.8996466,18.9137695 35.1488653,20.6484375 L35.1488653,20.6484375 L39.6484747,20.6484375 C40.4574591,20.6484375 41.1133184,21.3042969 41.1133184,22.1132812 C41.1133184,22.9222656 40.4574591,23.578125 39.6484747,23.578125 L39.6484747,23.578125 L35.1439825,23.578125 C35.0468145,24.2368164 34.8863653,24.8902344 34.6593145,25.5317383 C34.4521856,26.1167969 33.8988653,26.5078125 33.2783575,26.5078125 L33.2783575,26.5078125 L16.7217169,26.5078125 C16.1011114,26.5078125 15.5478888,26.1166992 15.3407599,25.5317383 C15.1137091,24.8902344 14.9532599,24.2369141 14.8560919,23.578125 L14.8560919,23.578125 L10.3515997,23.578125 C9.54261532,23.578125 8.88675595,22.9222656 8.88675595,22.1132813 C8.88675595,21.3042969 9.54261532,20.6484375 10.3515997,20.6484375 L10.3515997,20.6484375 L14.8513067,20.6484375 C15.1005255,18.9137695 15.7849981,17.3177734 16.7909552,15.9756836 L16.7909552,15.9756836 L13.6062872,12.7911133 C13.0342169,12.219043 13.0342169,11.2916016 13.6062872,10.7195312 C14.1783575,10.1474609 15.1058966,10.1474609 15.6778692,10.7195312 L15.6778692,10.7195312 L18.8624395,13.9041016 C20.2045294,12.8980469 21.8005255,12.2136719 23.5351934,11.9644531 L23.5351934,11.9644531 L23.5351934,7.46484375 C23.5351934,6.65585938 24.1910528,6 25.0000372,6 Z M25.0000372,14.7890625 C20.961463,14.7890625 17.6759161,18.074707 17.6759161,22.1132812 C17.6759161,22.6026367 17.727088,23.0924805 17.8285528,23.578125 L17.8285528,23.578125 L32.1716192,23.578125 C32.2730841,23.0924805 32.3242559,22.6026367 32.3242559,22.1132812 C32.3242559,18.074707 29.0386114,14.7890625 25.0000372,14.7890625 Z" id="grid-inverter" fill-opacity="0.2" fill="#FFC107" fill-rule="nonzero"></path>
            <g id="Group" transform="translate(10.000000, 0.000000)">
                <circle id="Oval-Copy" fill="#FFC107" cx="15" cy="15" r="15"></circle>
                <path d="M22.0664196,13.4375 C22.3084001,13.4375 22.5193376,13.602207 22.5780134,13.8369453 L22.5780134,13.8369453 L23.9842634,19.4619453 C24.0236735,19.6195156 23.9882712,19.7864023 23.888322,19.9143711 C23.7883728,20.042375 23.6350564,20.1171875 23.4726696,20.1171875 L23.4726696,20.1171875 L17.0776775,20.1171875 L17.5235642,21.9453125 L18.5156384,21.9453125 C18.8068728,21.9453125 19.0429821,22.1814219 19.0429821,22.4726562 C19.0429821,22.7638906 18.8068728,23 18.5156384,23 L18.5156384,23 L11.4843884,23 C11.193154,23 10.9570446,22.7638906 10.9570446,22.4726562 C10.9570446,22.1814219 11.193154,21.9453125 11.4843884,21.9453125 L11.4843884,21.9453125 L12.4764275,21.9453125 L12.9223142,20.1171875 L6.52735714,20.1171875 C6.36497042,20.1171875 6.21165402,20.042375 6.1117048,19.9143711 C6.01175558,19.7864023 5.97635324,19.6194805 6.01576339,19.4619453 L6.01576339,19.4619453 L7.42201339,13.8369453 C7.48068917,13.602207 7.69162667,13.4375 7.93360714,13.4375 L7.93360714,13.4375 Z M15.9920876,20.1171875 L14.0079743,20.1171875 L13.5620876,21.9453125 L16.4379743,21.9453125 L15.9920876,20.1171875 Z M10.5179079,17.3046875 L7.64223214,17.3046875 L7.20277902,19.0625 L10.2981814,19.0625 L10.5179079,17.3046875 Z M14.4726696,17.3046875 L11.5807868,17.3046875 L11.3610603,19.0625 L14.4726696,19.0625 L14.4726696,17.3046875 Z M18.4192751,17.3046875 L15.5273571,17.3046875 L15.5273571,19.0625 L18.6390017,19.0625 L18.4192751,17.3046875 Z M22.3577946,17.3046875 L19.4821189,17.3046875 L19.7018454,19.0625 L22.7972478,19.0625 L22.3577946,17.3046875 Z M18.0677126,14.4921875 L15.5273571,14.4921875 L15.5273571,16.25 L18.2874392,16.25 L18.0677126,14.4921875 Z M14.4726696,14.4921875 L11.9323493,14.4921875 L11.7125876,16.25 L14.4726696,16.25 L14.4726696,14.4921875 Z M10.8694704,14.4921875 L8.34535714,14.4921875 L7.90590402,16.25 L10.6497439,16.25 L10.8694704,14.4921875 Z M21.6546696,14.4921875 L19.1305564,14.4921875 L19.3502829,16.25 L22.0941228,16.25 L21.6546696,14.4921875 Z M15.0000134,5 C15.2912478,5 15.5273571,5.23610937 15.5273571,5.52734375 L15.5273571,5.52734375 L15.5273571,7.14720313 C16.1518728,7.23692188 16.7264314,7.48333203 17.2095837,7.84547656 L17.2095837,7.84547656 L18.356029,6.69903125 C18.5620095,6.49308594 18.8959235,6.49312109 19.1017985,6.69903125 C19.3077439,6.90497656 19.3077439,7.23889062 19.1017985,7.44480078 L19.1017985,7.44480078 L17.9553181,8.59124609 C18.3174978,9.07439844 18.5638728,9.64895703 18.6535915,10.2734375 L18.6535915,10.2734375 L20.2734509,10.2734375 C20.5646853,10.2734375 20.8007946,10.5095469 20.8007946,10.8007812 C20.8007946,11.0920156 20.5646853,11.328125 20.2734509,11.328125 L20.2734509,11.328125 L18.6518337,11.328125 C18.6168532,11.5652539 18.5590915,11.8004844 18.4773532,12.0314258 C18.4027868,12.2420469 18.2035915,12.3828125 17.9802087,12.3828125 L17.9802087,12.3828125 L12.0198181,12.3828125 C11.7964001,12.3828125 11.59724,12.2420117 11.5226735,12.0314258 C11.4409353,11.8004844 11.3831735,11.5652891 11.3481931,11.328125 L11.3481931,11.328125 L9.72657589,11.328125 C9.43534152,11.328125 9.19923214,11.0920156 9.19923214,10.8007812 C9.19923214,10.5095469 9.43534152,10.2734375 9.72657589,10.2734375 L9.72657589,10.2734375 L11.3464704,10.2734375 C11.4361892,9.64895703 11.6825993,9.07439844 12.0447439,8.59124609 L12.0447439,8.59124609 L10.8982634,7.44480078 C10.6923181,7.23885547 10.6923181,6.90497656 10.8982634,6.69903125 C11.1042087,6.49308594 11.4381228,6.49308594 11.6440329,6.69903125 L11.6440329,6.69903125 L12.7904782,7.84547656 C13.2736306,7.48329688 13.8481892,7.23692188 14.4726696,7.14720313 L14.4726696,7.14720313 L14.4726696,5.52734375 C14.4726696,5.23610937 14.708779,5 15.0000134,5 Z M15.0000134,8.1640625 C13.5461267,8.1640625 12.3633298,9.34689453 12.3633298,10.8007812 C12.3633298,10.9769492 12.3817517,11.153293 12.418279,11.328125 L12.418279,11.328125 L17.5817829,11.328125 C17.6183103,11.153293 17.6367321,10.9769492 17.6367321,10.8007812 C17.6367321,9.34689453 16.4539001,8.1640625 15.0000134,8.1640625 Z" id="Combined-Shape" fill="#FFFFFF" fill-rule="nonzero"></path>
            </g>
        </g>
    </g>
</svg>