<?xml version="1.0" encoding="UTF-8"?>
<svg width="170px" height="100px" viewBox="0 0 170 100" version="1.1" xmlns="http://www.w3.org/2000/svg" xmlns:xlink="http://www.w3.org/1999/xlink">
    <title>inverter</title>
    <g id="arrow" stroke="none" stroke-width="1" fill="none" fill-rule="evenodd">
        <g id="inverter" transform="translate(-0.000400, 0.000100)" fill="#00BCD4">
            <path d="M58.4347284,25.9238757 L58.4347284,29.3760041 L25.5820738,29.3760041 L25.5820738,25.9238757 L58.4347284,25.9238757 Z M38.263658,13.6902823 C38.263658,13.6902823 38.2749848,13.6874308 38.3015398,13.6859447 L38.3532809,13.6852667 C38.7381061,13.6936685 40.5144077,13.9834536 46.5261953,17.6287584 C47.0770311,17.9632904 50.5614036,19.4545777 54.4998797,14.7469466 C54.9936167,14.1571492 58.4343253,16.7642149 58.4343253,16.7642149 C58.4343253,16.7642149 56.3256989,23.2976651 47.1025577,22.529182 C45.177991,22.3686335 38.0715372,18.53092 37.0148728,17.9841147 C35.9575368,17.4373094 31.9223285,17.2451886 29.4247583,21.6646385 C28.912884,22.5694871 25.5816708,18.5900341 25.5816708,18.5900341 C25.5816708,18.5900341 28.9444563,11.8644631 38.263658,13.6902823 Z" id="Combined-Shape"></path>
            <path d="M121.232811,82.0918846 L121.232811,86.0918846 L105.232811,86.0918846 L105.232811,82.0918846 L121.232811,82.0918846 Z M145,82 L145,86 L129,86 L129,82 L145,82 Z M145,74 L145,78 L105,78 L105,74 L145,74 Z" id="Combined-Shape"></path>
            <polygon id="Fill-7" fill-opacity="0.4" points="169.34266 0 169.34266 2.29520706 1.03441698 100 0 100 0 97.7823702"></polygon>
        </g>
    </g>
</svg>