<?xml version="1.0" encoding="UTF-8"?>
<svg width="166px" height="47px" viewBox="0 0 166 47" version="1.1" xmlns="http://www.w3.org/2000/svg" xmlns:xlink="http://www.w3.org/1999/xlink">
    <title>line-customer</title>
    <g id="arrow" stroke="none" stroke-width="1" fill="none" fill-rule="evenodd">
        <g id="single-line-update" transform="translate(-723.000000, -469.000000)" fill="#00BCD4" fill-rule="nonzero">
            <path id="line-customer" d="M879.048951,469.499959 C883.677371,469.499959 886.33241,469.838964 887.214312,470.627197 C888.065437,471.387889 888.466018,473.051207 888.497923,475.655034 L888.5,476 L888.5,515.5 L887.5,515.5 L887.5,476 C887.5,473.469117 887.151637,471.91237 886.547918,471.372797 C885.956469,470.844167 883.525323,470.520018 879.437074,470.500858 L879.048951,470.499959 L737.422157,470.499959 C733.018161,470.499959 730.345784,470.683805 729.536782,471.017736 C728.891397,471.284112 728.547578,471.854275 728.504604,472.815523 L728.5,473.027523 L728.5,491.5 L732.5,491.5 L728,500.5 L723.5,491.5 L727.5,491.5 L727.5,473.027523 C727.5,471.562553 728.052051,470.548714 729.155251,470.09338 C730.110154,469.699225 732.684874,469.511833 736.999206,469.500506 L737.422157,469.499959 L879.048951,469.499959 Z"></path>
        </g>
    </g>
</svg>