<?xml version="1.0" encoding="UTF-8"?>
<svg width="40px" height="50px" viewBox="0 0 40 50" version="1.1" xmlns="http://www.w3.org/2000/svg" xmlns:xlink="http://www.w3.org/1999/xlink">
    <title>PV-small</title>
    <defs>
        <rect id="path-1" x="0" y="0" width="40" height="50" rx="4"></rect>
        <mask id="mask-2" maskContentUnits="userSpaceOnUse" maskUnits="objectBoundingBox" x="0" y="0" width="40" height="50" fill="white">
            <use xlink:href="#path-1"></use>
        </mask>
    </defs>
    <g id="PV-small" stroke="none" stroke-width="1" fill="none" fill-rule="evenodd">
        <use id="Rectangle" stroke="#FFC107" mask="url(#mask-2)" stroke-width="2" fill-opacity="0.2" fill="#FFC107" stroke-dasharray="1,2" xlink:href="#path-1"></use>
        <g id="Group-17" transform="translate(8.750000, 10.000000)">
            <path d="M19.9236355,13.1417411 C20.2237105,13.1417411 20.4852897,13.3459909 20.5580523,13.637085 L20.5580523,13.637085 L22.3019139,20.6125314 C22.3507856,20.8079311 22.3068839,21.0148839 22.182939,21.1735753 C22.058994,21.3323103 21.8688695,21.4250837 21.6674971,21.4250837 L21.6674971,21.4250837 L13.7371992,21.4250837 L14.2901341,23.6921038 L15.5203849,23.6921038 C15.8815386,23.6921038 16.174333,23.9848982 16.174333,24.3460519 C16.174333,24.7072056 15.8815386,25 15.5203849,25 L15.5203849,25 L6.80107687,25 C6.43992314,25 6.14712877,24.7072056 6.14712877,24.3460519 C6.14712877,23.9848982 6.43992314,23.6921038 6.80107687,23.6921038 L6.80107687,23.6921038 L8.03128405,23.6921038 L8.58421896,21.4250837 L0.65396471,21.4250837 C0.452592291,21.4250837 0.262467779,21.3323103 0.138522815,21.1735753 C0.0145778514,21.0148839 -0.0293238646,20.8078875 0.019547857,20.6125314 L0.019547857,20.6125314 L1.76340946,13.637085 C1.83617209,13.3459909 2.09775133,13.1417411 2.39782632,13.1417411 L2.39782632,13.1417411 Z M12.3909817,21.4250837 L9.93052372,21.4250837 L9.3775888,23.6921038 L12.9439166,23.6921038 L12.3909817,21.4250837 Z M5.60256439,17.9373605 L2.03649819,17.9373605 L1.49154144,20.1171875 L5.33008601,20.1171875 L5.60256439,17.9373605 Z M10.5067828,17.9373605 L6.92061859,17.9373605 L6.64814021,20.1171875 L10.5067828,20.1171875 L10.5067828,17.9373605 Z M15.4008868,17.9373605 L11.814679,17.9373605 L11.814679,20.1171875 L15.6733652,20.1171875 L15.4008868,17.9373605 Z M20.2849636,17.9373605 L16.7188974,17.9373605 L16.9913758,20.1171875 L20.8299203,20.1171875 L20.2849636,17.9373605 Z M14.9649214,14.4496373 L11.814679,14.4496373 L11.814679,16.6294643 L15.2373998,16.6294643 L14.9649214,14.4496373 Z M10.5067828,14.4496373 L7.35658399,14.4496373 L7.08406202,16.6294643 L10.5067828,16.6294643 L10.5067828,14.4496373 Z M6.03852979,14.4496373 L2.908429,14.4496373 L2.36347224,16.6294643 L5.76605141,16.6294643 L6.03852979,14.4496373 Z M19.4130328,14.4496373 L16.282932,14.4496373 L16.5554104,16.6294643 L19.9579895,16.6294643 L19.4130328,14.4496373 Z M11.1607309,2.67857143 C11.5218846,2.67857143 11.814679,2.97136579 11.814679,3.33251953 L11.814679,3.33251953 L11.814679,5.34127372 C12.5891279,5.45253209 13.3016262,5.75810024 13.9007734,6.2071882 L13.9007734,6.2071882 L15.3224566,4.78550502 C15.5778887,4.53011649 15.9919687,4.53016009 16.24727,4.78550502 C16.5026586,5.04089355 16.5026586,5.45497349 16.24727,5.71031843 L16.24727,5.71031843 L14.8255433,7.1320016 C15.2746748,7.73114886 15.5801994,8.44364711 15.6914577,9.21805246 L15.6914577,9.21805246 L17.7002119,9.21805246 C18.0613657,9.21805246 18.35416,9.51084682 18.35416,9.87200056 C18.35416,10.2331543 18.0613657,10.5259487 17.7002119,10.5259487 L17.7002119,10.5259487 L15.6892779,10.5259487 C15.6458993,10.8200073 15.5742702,11.1117118 15.4729083,11.3980974 C15.38044,11.6592843 15.133422,11.8338449 14.8564096,11.8338449 L14.8564096,11.8338449 L7.46505218,11.8338449 C7.18799617,11.8338449 6.94102177,11.6592407 6.84855351,11.3980974 C6.74719155,11.1117118 6.67556244,10.8200509 6.63218388,10.5259487 L6.63218388,10.5259487 L4.62124987,10.5259487 C4.26009613,10.5259487 3.96730176,10.2331543 3.96730176,9.87200056 C3.96730176,9.51084682 4.26009613,9.21805246 4.62124987,9.21805246 L4.62124987,9.21805246 L6.63004765,9.21805246 C6.74130602,8.44364711 7.04687417,7.73114886 7.49596213,7.1320016 L7.49596213,7.1320016 L6.07423536,5.71031843 C5.81884682,5.4549299 5.81884682,5.04089355 6.07423536,4.78550502 C6.32962389,4.53011649 6.74370383,4.53011649 6.99904876,4.78550502 L6.99904876,4.78550502 L8.42073194,6.2071882 C9.01987919,5.75805664 9.73237745,5.45253209 10.5067828,5.34127372 L10.5067828,5.34127372 L10.5067828,3.33251953 C10.5067828,2.97136579 10.7995772,2.67857143 11.1607309,2.67857143 Z M11.1607309,6.60226004 C9.35779597,6.60226004 7.89103398,8.06906564 7.89103398,9.87200056 C7.89103398,10.0904628 7.91387856,10.3091431 7.95917537,10.5259487 L7.95917537,10.5259487 L14.36233,10.5259487 C14.4076268,10.3091431 14.4304714,10.0904628 14.4304714,9.87200056 C14.4304714,8.06906564 12.9636658,6.60226004 11.1607309,6.60226004 Z" id="grid-inverter" fill-opacity="0.2" fill="#FFC107" fill-rule="nonzero"></path>
            <circle id="Oval-Copy" fill="#FFC107" cx="11.1607143" cy="6.69642857" r="6.69642857"></circle>
            <path d="M14.3153659,5.99888393 C14.4233929,5.99888393 14.5175614,6.07241385 14.543756,6.17720773 L14.543756,6.17720773 L15.1715462,8.68836844 C15.18914,8.75871233 15.1733354,8.83321533 15.1287152,8.89034424 C15.084095,8.94748884 15.0156502,8.98088728 14.9431561,8.98088728 L14.9431561,8.98088728 L12.0882489,8.98088728 L12.2873054,9.79701451 L12.7301957,9.79701451 C12.8602111,9.79701451 12.965617,9.90242048 12.965617,10.0324358 C12.965617,10.1624512 12.8602111,10.2678571 12.7301957,10.2678571 L12.7301957,10.2678571 L9.59124482,10.2678571 C9.46122947,10.2678571 9.3558235,10.1624512 9.3558235,10.0324358 C9.3558235,9.90242048 9.46122947,9.79701451 9.59124482,9.79701451 L9.59124482,9.79701451 L10.0341194,9.79701451 L10.233176,8.98088728 L7.37828444,8.98088728 C7.30579037,8.98088728 7.23734554,8.94748884 7.19272536,8.89034424 C7.14810517,8.83321533 7.13230055,8.75869664 7.14989437,8.68836844 L7.14989437,8.68836844 L7.77768455,6.17720773 C7.8038791,6.07241385 7.89804762,5.99888393 8.00607462,5.99888393 L8.00607462,5.99888393 Z M11.6036105,8.98088728 L10.7178457,8.98088728 L10.5187891,9.79701451 L11.8026671,9.79701451 L11.6036105,8.98088728 Z M9.15978032,7.72530692 L7.87599649,7.72530692 L7.67981206,8.51004464 L9.06168811,8.51004464 L9.15978032,7.72530692 Z M10.9252989,7.72530692 L9.63427983,7.72530692 L9.53618762,8.51004464 L10.9252989,8.51004464 L10.9252989,7.72530692 Z M12.6871764,7.72530692 L11.3961416,7.72530692 L11.3961416,8.51004464 L12.7852686,8.51004464 L12.6871764,7.72530692 Z M14.445444,7.72530692 L13.1616602,7.72530692 L13.2597524,8.51004464 L14.6416285,8.51004464 L14.445444,7.72530692 Z M12.5302288,6.46972656 L11.3961416,6.46972656 L11.3961416,7.25446429 L12.6283211,7.25446429 L12.5302288,6.46972656 Z M10.9252989,6.46972656 L9.79122738,6.46972656 L9.69311947,7.25446429 L10.9252989,7.25446429 L10.9252989,6.46972656 Z M9.31672787,6.46972656 L8.18989158,6.46972656 L7.99370715,7.25446429 L9.21863565,7.25446429 L9.31672787,6.46972656 Z M14.1315489,6.46972656 L13.0047127,6.46972656 L13.1028049,7.25446429 L14.3277334,7.25446429 L14.1315489,6.46972656 Z M11.1607203,2.23214286 C11.2907356,2.23214286 11.3961416,2.33754883 11.3961416,2.46756417 L11.3961416,2.46756417 L11.3961416,3.19071568 C11.6749432,3.23076869 11.9314426,3.34077323 12.1471356,3.50244489 L12.1471356,3.50244489 L12.6589415,2.99063895 C12.7508971,2.89869908 12.8999659,2.89871477 12.9918744,2.99063895 C13.0838142,3.08257882 13.0838142,3.2316476 12.9918744,3.32357178 L12.9918744,3.32357178 L12.4800527,3.83537772 C12.6417401,4.05107073 12.7517289,4.3075701 12.7917819,4.58635603 L12.7917819,4.58635603 L13.5149334,4.58635603 C13.6449488,4.58635603 13.7503548,4.691762 13.7503548,4.82177734 C13.7503548,4.95179269 13.6449488,5.05719866 13.5149334,5.05719866 L13.5149334,5.05719866 L12.7909972,5.05719866 C12.7753809,5.16305978 12.7495944,5.26807338 12.7131041,5.37117222 C12.6798155,5.4651995 12.5908891,5.52804129 12.4911646,5.52804129 L12.4911646,5.52804129 L9.83027593,5.52804129 C9.73053576,5.52804129 9.64162498,5.4651838 9.60833641,5.37117222 C9.5718461,5.26807338 9.54605962,5.16307547 9.53044334,5.05719866 L9.53044334,5.05719866 L8.80650709,5.05719866 C8.67649175,5.05719866 8.57108578,4.95179269 8.57108578,4.82177734 C8.57108578,4.691762 8.67649175,4.58635603 8.80650709,4.58635603 L8.80650709,4.58635603 L9.5296743,4.58635603 C9.56972731,4.3075701 9.67973184,4.05107073 9.84140351,3.83537772 L9.84140351,3.83537772 L9.32958187,3.32357178 C9.237642,3.23163191 9.237642,3.08257882 9.32958187,2.99063895 C9.42152174,2.89869908 9.57059052,2.89869908 9.6625147,2.99063895 L9.6625147,2.99063895 L10.1743206,3.50244489 C10.3900137,3.34075753 10.646513,3.23076869 10.9252989,3.19071568 L10.9252989,3.19071568 L10.9252989,2.46756417 C10.9252989,2.33754883 11.0307049,2.23214286 11.1607203,2.23214286 Z M11.1607203,3.64467076 C10.5116637,3.64467076 9.98362937,4.17272077 9.98362937,4.82177734 C9.98362937,4.90042376 9.99185343,4.97914865 10.0081603,5.05719866 L10.0081603,5.05719866 L12.3132959,5.05719866 C12.3296028,4.97914865 12.3378268,4.90042376 12.3378268,4.82177734 C12.3378268,4.17272077 11.8097768,3.64467076 11.1607203,3.64467076 Z" id="Combined-Shape" fill="#FFFFFF" fill-rule="nonzero"></path>
        </g>
    </g>
</svg>