<?xml version="1.0" encoding="UTF-8"?>
<svg width="75px" height="100px" viewBox="0 0 75 100" version="1.1" xmlns="http://www.w3.org/2000/svg" xmlns:xlink="http://www.w3.org/1999/xlink">
    <title>solar-clock</title>
    <g id="arrow" stroke="none" stroke-width="1" fill="none" fill-rule="evenodd">
        <g id="single-line-update" transform="translate(-514.000000, -337.000000)">
            <g id="solar-clock" transform="translate(513.999960, 336.999960)">
                <path d="M74.405034,37.2026159 C74.405034,57.7487558 57.7489537,74.405034 37.2024181,74.405034 C16.6560803,74.405034 0,57.7487558 0,37.2026159 C0,16.6562781 16.6560803,0 37.2024181,0 C57.7489537,0 74.405034,16.6562781 74.405034,37.2026159" id="Fill-1" fill="#435D6D"></path>
                <path d="M57.7159479,61.9146953 L16.7287406,61.9146953 C14.2402422,61.9146953 12.2230863,59.8975394 12.2230863,57.409041 L12.2230863,16.4220316 C12.2230863,13.9335332 14.2402422,11.9163773 16.7287406,11.9163773 L57.7159479,11.9163773 C60.2042484,11.9163773 62.2216022,13.9335332 62.2216022,16.4220316 L62.2216022,57.409041 C62.2216022,59.8975394 60.2042484,61.9146953 57.7159479,61.9146953" id="Fill-4" fill="#EFF2F3"></path>
                <path d="M56.2622065,60.108298 L18.4843628,60.108298 C16.190773,60.108298 14.3315228,58.2490477 14.3315228,55.9554579 L14.3315228,18.1774163 C14.3315228,15.8838265 16.190773,14.0245763 18.4843628,14.0245763 L56.2622065,14.0245763 C58.5557963,14.0245763 60.4150466,15.8838265 60.4150466,18.1774163 L60.4150466,55.9554579 C60.4150466,58.2490477 58.5557963,60.108298 56.2622065,60.108298" id="Fill-6" fill="#DADFE0"></path>
                <path d="M8.334669,72.6576237 C8.334669,72.6576237 5.37700474,66.0465604 9.93509642,62.8453098 C10.2059897,62.6551502 64.4964531,62.9161497 64.4964531,62.9161497 C64.4964531,62.9161497 68.41659,64.4132854 66.3086086,71.8987662 C66.153869,72.4484679 58.5967568,95.5592888 58.5967568,95.5592888 C58.5967568,95.5592888 57.9103222,99.9978629 53.5178534,99.9978629 L20.8018957,99.9978629 C20.8018957,99.9978629 17.0497561,100.226608 16.0431569,96.0626874 C15.6337499,94.3692579 8.334669,72.6576237 8.334669,72.6576237" id="Fill-8" fill="#778D9A"></path>
                <path d="M19.057315,50.385088 L17.8504645,48.4239312 L21.697387,48.4239312 L22.4516933,49.8092666 L51.642872,49.8092666 L51.1149367,47.971387 C51.1149367,47.971387 56.696645,50.385088 56.3948829,50.385088 C56.0931208,50.385088 51.1903278,52.8743779 51.1903278,52.8743779 L51.642872,50.9132211 L22.6024754,50.9132211 L21.621996,52.4216358 L17.8504645,52.4216358 L19.057315,50.385088 Z" id="Fill-11" fill="#435D6D"></path>
                <polygon id="Fill-13" fill="#435D6D" points="18.3030483 30.0945257 56.0931604 30.0945257 56.0931604 21.4955923 18.3030483 21.4955923"></polygon>
                <polygon id="Fill-13-Copy" fill="#F1776B" points="49.0931604 30.0945257 56.0931604 30.0945257 56.0931604 21.4955923 49.0931604 21.4955923"></polygon>
                <path d="M16.4849564,43.798878 L57.7679895,43.798878 L57.7679895,42.273248 L16.4849564,42.273248 L16.4849564,43.798878 Z M15.8398781,46.262444 L58.5296172,46.262444 L58.5296172,39.6355505 L15.8398781,39.6355505 L15.8398781,46.262444 Z" id="Fill-16" fill="#435D6D"></path>
                <path d="M37.1311626,83.368872 C36.0386849,83.368872 35.1543736,82.4825819 35.1543736,81.3922808 C35.1543736,80.2998031 36.0386849,79.413513 37.1311626,79.413513 C38.2234425,79.413513 39.1077538,80.2998031 39.1077538,81.3922808 C39.1077538,82.4825819 38.2234425,83.368872 37.1311626,83.368872 M37.0557716,77.6640844 C31.9525294,77.6640844 27.8171025,79.3776973 27.8171025,81.4912192 C27.8171025,83.6063241 31.9525294,85.3199371 37.0557716,85.3199371 C42.157035,85.3199371 46.2928576,83.6063241 46.2928576,81.4912192 C46.2928576,79.3776973 42.157035,77.6640844 37.0557716,77.6640844" id="Fill-17" fill="#435D6D"></path>
                <path d="M22.1216942,27.2412415 C22.2423991,26.9499669 22.3031472,26.4495365 22.3031472,25.7401482 C22.3057196,25.012951 22.245763,24.5004502 22.123673,24.2028435 C22.0013851,23.9050389 21.7924273,23.7562356 21.4966015,23.7562356 C21.2031502,23.7562356 20.9965668,23.9050389 20.8770493,24.2028435 C20.7573338,24.5004502 20.6963878,25.012951 20.6938154,25.7401482 C20.6938154,26.4495365 20.7541678,26.9499669 20.8750705,27.2412415 C20.9961711,27.532714 21.2031502,27.6783513 21.4966015,27.6783513 C21.7924273,27.6783513 22.0007915,27.532714 22.1216942,27.2412415 M20.0338963,27.8702918 C19.7174913,27.4104261 19.5580026,26.7028188 19.5554302,25.7476675 C19.5580026,24.7695626 19.7174913,24.046323 20.0338963,23.5775529 C20.3504991,23.1087828 20.8378697,22.8744967 21.4966015,22.8744967 C22.1600823,22.8744967 22.650421,23.1087828 22.966826,23.5775529 C23.2832309,24.046323 23.4415633,24.760856 23.4415633,25.7209542 L23.4415633,25.7476675 C23.4441048,26.7028188 23.286397,27.4104261 22.9686068,27.8702918 C22.6510146,28.3301574 22.1600823,28.5600902 21.4966015,28.5600902 C20.8378697,28.5600902 20.3504991,28.3301574 20.0338963,27.8702918" id="Fill-18" fill="#F0F4F5"></path>
                <path d="M28.3376174,27.319106 C28.4585201,27.0278314 28.5190704,26.527401 28.5190704,25.8180127 C28.5216428,25.0908155 28.461884,24.5783147 28.3395961,24.280708 C28.2173083,23.9829034 28.0083504,23.8341001 27.7125246,23.8341001 C27.4190733,23.8341001 27.2126879,23.9829034 27.0931703,24.280708 C26.9734548,24.5783147 26.9123109,25.0908155 26.9097385,25.8180127 C26.9097385,26.527401 26.9700909,27.0278314 27.0909936,27.319106 C27.2120942,27.6105785 27.4190733,27.7562158 27.7125246,27.7562158 C28.0083504,27.7562158 28.2167147,27.6105785 28.3376174,27.319106 M26.2498194,27.9481563 C25.9334145,27.4882906 25.7739258,26.7806833 25.7713534,25.825532 C25.7739258,24.847625 25.9334145,24.1241875 26.2498194,23.6554174 C26.5664223,23.1866473 27.0537928,22.9523612 27.7125246,22.9523612 C28.3762033,22.9523612 28.8663441,23.1866473 29.1827491,23.6554174 C29.4991541,24.1241875 29.6574865,24.8387205 29.6574865,25.7988187 L29.6574865,25.825532 C29.6600279,26.7806833 29.502518,27.4882906 29.1847279,27.9481563 C28.8669378,28.4080219 28.3762033,28.6379547 27.7125246,28.6379547 C27.0537928,28.6379547 26.5664223,28.4080219 26.2498194,27.9481563" id="Fill-19" fill="#F0F4F5"></path>
                <path d="M34.6708419,27.3192049 C34.7917446,27.0279303 34.8522949,26.5274999 34.8522949,25.8181117 C34.8548673,25.0907166 34.7951085,24.5784136 34.6728206,24.2806091 C34.5507307,23.9830024 34.3415749,23.834199 34.0457491,23.834199 C33.7522978,23.834199 33.5459124,23.9830024 33.4263948,24.2806091 C33.3066793,24.5784136 33.2455354,25.0907166 33.242963,25.8181117 C33.242963,26.5274999 33.3035133,27.0279303 33.424416,27.3192049 C33.5455166,27.6106774 33.7522978,27.7563147 34.0457491,27.7563147 C34.3415749,27.7563147 34.5499392,27.6106774 34.6708419,27.3192049 M32.5830439,27.9482552 C32.266639,27.4881917 32.1071503,26.7807822 32.1045779,25.825631 C32.1071503,24.847526 32.266639,24.1242864 32.5830439,23.6553184 C32.8996468,23.1867462 33.3872152,22.9524601 34.0457491,22.9524601 C34.7094278,22.9524601 35.1997665,23.1867462 35.5159736,23.6553184 C35.8325765,24.1242864 35.9909088,24.8388195 35.9909088,25.7989176 L35.9909088,25.825631 C35.9934503,26.7807822 35.8357425,27.4881917 35.5179524,27.9482552 C35.2001623,28.407923 34.7094278,28.6380537 34.0457491,28.6380537 C33.3872152,28.6380537 32.8996468,28.407923 32.5830439,27.9482552" id="Fill-20" fill="#F0F4F5"></path>
                <path d="M40.9454948,27.2412415 C41.0663976,26.9499669 41.1269478,26.4495365 41.1269478,25.7401482 C41.1295202,25.012951 41.0695636,24.5004502 40.9474736,24.2028435 C40.8251858,23.9050389 40.6162279,23.7562356 40.3204021,23.7562356 C40.0269508,23.7562356 39.8205653,23.9050389 39.7010478,24.2028435 C39.5813323,24.5004502 39.5201884,25.012951 39.517616,25.7401482 C39.517616,26.4495365 39.5779684,26.9499669 39.6988711,27.2412415 C39.8199717,27.532714 40.0269508,27.6783513 40.3204021,27.6783513 C40.6162279,27.6783513 40.8245921,27.532714 40.9454948,27.2412415 M38.8576969,27.8702918 C38.5412919,27.4104261 38.3818033,26.7028188 38.3792309,25.7476675 C38.3818033,24.7697605 38.5412919,24.046323 38.8576969,23.5775529 C39.1742998,23.1089806 39.6616703,22.8744967 40.3204021,22.8744967 C40.9838829,22.8744967 41.4742216,23.1089806 41.7906266,23.5775529 C42.1070316,24.046323 42.2653639,24.760856 42.2653639,25.7209542 L42.2653639,25.7476675 C42.2679054,26.7028188 42.1101976,27.4104261 41.7924075,27.8702918 C41.4748152,28.3301574 40.9838829,28.5600902 40.3204021,28.5600902 C39.6616703,28.5600902 39.1742998,28.3301574 38.8576969,27.8702918" id="Fill-21" fill="#F0F4F5"></path>
                <path d="M47.1028662,27.2412415 C47.2235711,26.9499669 47.2843193,26.4495365 47.2843193,25.7401482 C47.2868917,25.012951 47.226935,24.5004502 47.104845,24.2028435 C46.9825572,23.9050389 46.7735993,23.7562356 46.4775756,23.7562356 C46.1843222,23.7562356 45.9777389,23.9050389 45.8582213,24.2028435 C45.7385058,24.5004502 45.6775598,25.012951 45.6749874,25.7401482 C45.6749874,26.4495365 45.7353398,26.9499669 45.8562425,27.2412415 C45.9773431,27.532714 46.1843222,27.6783513 46.4775756,27.6783513 C46.7735993,27.6783513 46.9819635,27.532714 47.1028662,27.2412415 M45.0148704,27.8702918 C44.6986633,27.4104261 44.5389768,26.7028188 44.5364044,25.7476675 C44.5389768,24.7695626 44.6986633,24.046323 45.0148704,23.5775529 C45.3314733,23.1087828 45.8190417,22.8744967 46.4775756,22.8744967 C47.1412543,22.8744967 47.631593,23.1087828 47.947998,23.5775529 C48.264403,24.046323 48.4227353,24.760856 48.4227353,25.7209542 L48.4227353,25.7476675 C48.4252768,26.7028188 48.267569,27.4104261 47.9497789,27.8702918 C47.6321866,28.3301574 47.1412543,28.5600902 46.4775756,28.5600902 C45.8190417,28.5600902 45.3314733,28.3301574 45.0148704,27.8702918" id="Fill-23" fill="#F0F4F5"></path>
                <path d="M52.5664619,27.3667448 C52.6871667,27.0754702 52.7479149,26.5750398 52.7479149,25.8656516 C52.7504873,25.1384544 52.6905306,24.6259535 52.5684406,24.3283468 C52.4461528,24.0305423 52.2371949,23.8817389 51.9411712,23.8817389 C51.6479178,23.8817389 51.4413345,24.0305423 51.3218169,24.3283468 C51.2021015,24.6259535 51.1411554,25.1384544 51.138583,25.8656516 C51.138583,26.5750398 51.1989354,27.0754702 51.3198381,27.3667448 C51.4409387,27.6582173 51.6479178,27.8038546 51.9411712,27.8038546 C52.2371949,27.8038546 52.4455592,27.6582173 52.5664619,27.3667448 M50.4784661,27.9957951 C50.162259,27.5359295 50.0025724,26.8283221 50,25.8731709 C50.0025724,24.8950659 50.162259,24.1718263 50.4784661,23.7030562 C50.7950689,23.2342861 51.2826373,23 51.9411712,23 C52.60485,23 53.0951886,23.2342861 53.4115936,23.7030562 C53.7279986,24.1718263 53.886331,24.8863594 53.886331,25.8464575 L53.886331,25.8731709 C53.8888724,26.8283221 53.7311646,27.5359295 53.4133745,27.9957951 C53.0957823,28.4556608 52.60485,28.6855936 51.9411712,28.6855936 C51.2826373,28.6855936 50.7950689,28.4556608 50.4784661,27.9957951" id="Fill-23-Copy" fill="#F0F4F5"></path>
            </g>
        </g>
    </g>
</svg>