<svg width="20" height="20" viewBox="0 0 20 20" fill="none" xmlns="http://www.w3.org/2000/svg">
<path d="M14 15.9971H18V14.3724C18 13.0264 16.9255 11.9353 15.6 11.9353C14.8355 11.9353 14.1545 12.2983 13.715 12.8638M14 15.9971H6M14 15.9971V14.3724C14 13.8393 13.8989 13.3302 13.715 12.8638M6 15.9971H2V14.3724C2 13.0264 3.07452 11.9353 4.4 11.9353C5.16449 11.9353 5.84549 12.2983 6.285 12.8638M6 15.9971V14.3724C6 13.8393 6.10114 13.3302 6.285 12.8638M6.285 12.8638C6.8748 11.3675 8.31585 10.3106 10 10.3106C11.6841 10.3106 13.1252 11.3675 13.715 12.8638M12.4 5.43651C12.4 6.78246 11.3255 7.87357 10 7.87357C8.67452 7.87357 7.6 6.78246 7.6 5.43651C7.6 4.09056 8.67452 2.99945 10 2.99945C11.3255 2.99945 12.4 4.09056 12.4 5.43651ZM17.2 7.87357C17.2 8.77087 16.4837 9.49828 15.6 9.49828C14.7163 9.49828 14 8.77087 14 7.87357C14 6.97627 14.7163 6.24886 15.6 6.24886C16.4837 6.24886 17.2 6.97627 17.2 7.87357ZM6 7.87357C6 8.77087 5.28366 9.49828 4.4 9.49828C3.51634 9.49828 2.8 8.77087 2.8 7.87357C2.8 6.97627 3.51634 6.24886 4.4 6.24886C5.28366 6.24886 6 6.97627 6 7.87357Z" stroke="#838A9C" stroke-linecap="round" stroke-linejoin="round"/>
</svg>
