<?xml version="1.0" encoding="UTF-8"?>
<svg width="22px" height="22px" viewBox="0 0 22 22" version="1.1" xmlns="http://www.w3.org/2000/svg" xmlns:xlink="http://www.w3.org/1999/xlink">
    <title>icon-sidebar2</title>
    <g id="Page-1" stroke="none" stroke-width="1" fill="none" fill-rule="evenodd">
        <g id="icon-sidebar2" fill="#718FAB" fill-rule="nonzero">
            <path d="M20.0664,0 C21.1326,0 22,0.86741 22,1.93359 L22,1.93359 L22,20.0664 C22,21.1326 21.1326,22 20.0664,22 L20.0664,22 L1.93359,22 C0.86741,22 0,21.1326 0,20.0664 L0,20.0664 L0,1.93359 C0,0.86741 0.86741,0 1.93359,0 L1.93359,0 Z M20.7109,16.8438 L1.28906,16.8438 L1.28906,20.0664 C1.28906,20.4218 1.5782,20.7109 1.93359,20.7109 L1.93359,20.7109 L20.0664,20.7109 C20.4218,20.7109 20.7109,20.4218 20.7109,20.0664 L20.7109,20.0664 L20.7109,16.8438 Z M18.7761,18.1328 C19.1321,18.1328 19.4207,18.4214 19.4207,18.7773 C19.4207,19.1333 19.1321,19.4219 18.7761,19.4219 C18.4202,19.4219 18.1316,19.1333 18.1316,18.7773 C18.1316,18.4214 18.4202,18.1328 18.7761,18.1328 Z M16.198,18.1328 C16.554,18.1328 16.8425,18.4214 16.8425,18.7773 C16.8425,19.1333 16.554,19.4219 16.198,19.4219 C15.842,19.4219 15.5535,19.1333 15.5535,18.7773 C15.5535,18.4214 15.842,18.1328 16.198,18.1328 Z M4.51172,18.1328 C4.86767,18.1328 5.15625,18.4214 5.15625,18.7773 C5.15625,19.1333 4.86767,19.4219 4.51172,19.4219 L4.51172,19.4219 L3.22266,19.4219 C2.8667,19.4219 2.57812,19.1333 2.57812,18.7773 C2.57812,18.4214 2.8667,18.1328 3.22266,18.1328 L3.22266,18.1328 Z M8.42188,18.1328 C8.77783,18.1328 9.06641,18.4214 9.06641,18.7773 C9.06641,19.1333 8.77783,19.4219 8.42188,19.4219 L8.42188,19.4219 L7.08984,19.4219 C6.73389,19.4219 6.44531,19.1333 6.44531,18.7773 C6.44531,18.4214 6.73389,18.1328 7.08984,18.1328 L7.08984,18.1328 Z M12.2891,18.1328 C12.645,18.1328 12.9336,18.4214 12.9336,18.7773 C12.9336,19.1333 12.645,19.4219 12.2891,19.4219 L12.2891,19.4219 L11,19.4219 C10.644,19.4219 10.3555,19.1333 10.3555,18.7773 C10.3555,18.4214 10.644,18.1328 11,18.1328 L11,18.1328 Z M20.0664,1.28906 L1.93359,1.28906 C1.5782,1.28906 1.28906,1.5782 1.28906,1.93359 L1.28906,1.93359 L1.28906,15.5547 L20.7109,15.5547 L20.7109,1.93359 C20.7109,1.5782 20.4218,1.28906 20.0664,1.28906 L20.0664,1.28906 Z M4.51172,2.57812 C4.86767,2.57812 5.15625,2.8667 5.15625,3.22266 L5.15625,3.22266 L5.15625,3.97805 C5.90644,4.24411 6.44531,4.96053 6.44531,5.80078 C6.44531,6.64104 5.90644,7.35745 5.15625,7.62352 L5.15625,7.62352 L5.15625,13.6211 C5.15625,13.977 4.86767,14.2656 4.51172,14.2656 C4.15577,14.2656 3.86719,13.977 3.86719,13.6211 L3.86719,13.6211 L3.86719,7.62352 C3.117,7.35745 2.57812,6.64104 2.57812,5.80078 C2.57812,4.96053 3.117,4.24411 3.86719,3.97805 L3.86719,3.97805 L3.86719,3.22266 C3.86719,2.8667 4.15577,2.57812 4.51172,2.57812 Z M11,2.57812 C11.356,2.57812 11.6445,2.8667 11.6445,3.22266 L11.6445,3.22266 L11.6445,7.84523 C12.3947,8.1113 12.9336,8.82771 12.9336,9.66797 C12.9336,10.5082 12.3947,11.2246 11.6445,11.4907 L11.6445,11.4907 L11.6445,13.6211 C11.6445,13.977 11.356,14.2656 11,14.2656 C10.644,14.2656 10.3555,13.977 10.3555,13.6211 L10.3555,13.6211 L10.3555,11.4907 C9.60528,11.2246 9.06641,10.5082 9.06641,9.66797 C9.06641,8.82771 9.60528,8.1113 10.3555,7.84523 L10.3555,7.84523 L10.3555,3.22266 C10.3555,2.8667 10.644,2.57812 11,2.57812 Z M17.4883,2.57812 C17.8442,2.57812 18.1328,2.8667 18.1328,3.22266 L18.1328,3.22266 L18.1328,3.97805 C18.883,4.24411 19.4219,4.96053 19.4219,5.80078 C19.4219,6.64104 18.883,7.35745 18.1328,7.62352 L18.1328,7.62352 L18.1328,13.6211 C18.1328,13.977 17.8442,14.2656 17.4883,14.2656 C17.1323,14.2656 16.8438,13.977 16.8438,13.6211 L16.8438,13.6211 L16.8438,7.62352 C16.0936,7.35745 15.5547,6.64104 15.5547,5.80078 C15.5547,4.96053 16.0936,4.24411 16.8438,3.97805 L16.8438,3.97805 L16.8438,3.22266 C16.8438,2.8667 17.1323,2.57812 17.4883,2.57812 Z M11,9.02344 C10.6446,9.02344 10.3555,9.31257 10.3555,9.66797 C10.3555,10.0234 10.6446,10.3125 11,10.3125 C11.3554,10.3125 11.6445,10.0234 11.6445,9.66797 C11.6445,9.31257 11.3554,9.02344 11,9.02344 Z M4.51172,5.15625 C4.15632,5.15625 3.86719,5.44539 3.86719,5.80078 C3.86719,6.15618 4.15632,6.44531 4.51172,6.44531 C4.86711,6.44531 5.15625,6.15618 5.15625,5.80078 C5.15625,5.44539 4.86711,5.15625 4.51172,5.15625 Z M17.4883,5.15625 C17.1329,5.15625 16.8438,5.44539 16.8438,5.80078 C16.8438,6.15618 17.1329,6.44531 17.4883,6.44531 C17.8437,6.44531 18.1328,6.15618 18.1328,5.80078 C18.1328,5.44539 17.8437,5.15625 17.4883,5.15625 Z" id="Combined-Shape"></path>
        </g>
    </g>
</svg>