<svg width="22" height="22" viewBox="0 0 22 22" fill="none" xmlns="http://www.w3.org/2000/svg">
<path d="M20.8739 8.69057L19.3297 8.42861C19.1689 7.90929 18.9621 7.40835 18.7093 6.93039L19.6193 5.65737C20.0053 5.11507 19.9456 4.37516 19.4722 3.90639L18.1027 2.53686C17.8453 2.27949 17.5052 2.13702 17.1422 2.13702C16.8572 2.13702 16.5861 2.22434 16.3563 2.38979L15.0787 3.29975C14.5823 3.03779 14.063 2.82179 13.5253 2.66094L13.2679 1.13515C13.1576 0.477958 12.5924 0 11.926 0H9.99117C9.32478 0 8.7595 0.477958 8.64921 1.13515L8.38265 2.69771C7.86793 2.85856 7.36699 3.06996 6.88903 3.32732L5.6252 2.41737C5.39541 2.25192 5.11967 2.1646 4.83473 2.1646C4.47167 2.1646 4.12699 2.30707 3.87422 2.56443L2.50009 3.93396C2.03132 4.40273 1.96698 5.14265 2.35303 5.68495L3.27218 6.97635C3.01941 7.45891 2.8172 7.95984 2.66094 8.47916L1.13515 8.73652C0.477958 8.84682 0 9.4121 0 10.0785V12.0133C0 12.6797 0.477958 13.245 1.13515 13.3553L2.69771 13.6218C2.85856 14.1365 3.06996 14.6375 3.32733 15.1154L2.42196 16.3747C2.03592 16.917 2.09566 17.6569 2.56903 18.1256L3.93856 19.4952C4.19592 19.7525 4.53601 19.895 4.89907 19.895C5.18401 19.895 5.45516 19.8077 5.68495 19.6422L6.97635 18.7231C7.44052 18.9667 7.92767 19.1643 8.42861 19.3205L8.68597 20.8647C8.79627 21.5219 9.36155 21.9999 10.0279 21.9999H11.9673C12.6337 21.9999 13.199 21.5219 13.3093 20.8647L13.5713 19.3205C14.0906 19.1597 14.5915 18.9529 15.0695 18.7001L16.3425 19.6101C16.5723 19.7755 16.848 19.8628 17.133 19.8628C17.496 19.8628 17.8361 19.7204 18.0935 19.463L19.463 18.0935C19.9318 17.6247 19.9961 16.8848 19.6101 16.3425L18.7001 15.0649C18.9529 14.5823 19.1643 14.0814 19.3205 13.5667L20.8647 13.3093C21.5219 13.199 21.9999 12.6337 21.9999 11.9673V10.0325C22.0091 9.36614 21.5311 8.80087 20.8739 8.69057ZM20.7682 11.9673C20.7682 12.0271 20.7268 12.0776 20.6671 12.0868L18.7369 12.4085C18.4933 12.4499 18.3003 12.6291 18.2405 12.8635C18.0659 13.5391 17.7994 14.1871 17.4409 14.7891C17.3168 15.0005 17.326 15.2625 17.4685 15.4647L18.6036 17.064C18.6358 17.11 18.6312 17.1789 18.5898 17.2203L17.2203 18.5898C17.1881 18.622 17.1559 18.6266 17.133 18.6266C17.1054 18.6266 17.0824 18.6174 17.064 18.6036L15.4693 17.4685C15.2717 17.326 15.0051 17.3168 14.7937 17.4409C14.1917 17.7993 13.5437 18.0659 12.8681 18.2405C12.6291 18.3003 12.4499 18.4979 12.4131 18.7369L12.0868 20.6671C12.0776 20.7268 12.0271 20.7682 11.9673 20.7682H10.0325C9.97278 20.7682 9.92223 20.7268 9.91304 20.6671L9.59134 18.7369C9.54997 18.4933 9.37074 18.3003 9.13636 18.2405C8.47916 18.0705 7.84495 17.8085 7.2521 17.4685C7.15559 17.4133 7.04529 17.3857 6.93959 17.3857C6.8155 17.3857 6.68682 17.4225 6.58112 17.5006L4.9726 18.645C4.94963 18.6588 4.92665 18.6679 4.90367 18.6679C4.88528 18.6679 4.84852 18.6634 4.81635 18.6312L3.44681 17.2616C3.40545 17.2203 3.40086 17.1559 3.43303 17.1054L4.56358 15.5199C4.70605 15.3176 4.71524 15.0511 4.59116 14.8397C4.23269 14.2422 3.95694 13.5942 3.7823 12.9187C3.71796 12.6843 3.52494 12.505 3.28596 12.4637L1.34196 12.1328C1.28222 12.1236 1.24085 12.073 1.24085 12.0133V10.0785C1.24085 10.0187 1.28222 9.96819 1.34196 9.959L3.25839 9.63729C3.50196 9.59593 3.69958 9.4167 3.75933 9.17772C3.92937 8.50214 4.19133 7.84955 4.5452 7.2475C4.66928 7.0361 4.6555 6.77414 4.51303 6.57652L3.36869 4.96801C3.33652 4.92205 3.34111 4.85311 3.38247 4.81175L4.75201 3.44222C4.78418 3.41005 4.81635 3.40545 4.83933 3.40545C4.8669 3.40545 4.88988 3.41464 4.90826 3.42843L6.4938 4.55899C6.69601 4.70145 6.96257 4.71065 7.17397 4.58656C7.77142 4.22809 8.41942 3.95235 9.09499 3.77771C9.32938 3.71337 9.50861 3.52035 9.54997 3.28137L9.88087 1.33736C9.89006 1.27762 9.94061 1.23626 10.0004 1.23626H11.9352C11.9949 1.23626 12.0455 1.27762 12.0547 1.33736L12.3764 3.25379C12.4177 3.49737 12.597 3.69498 12.8359 3.75473C13.5299 3.92937 14.1917 4.20052 14.8075 4.56358C15.0189 4.68767 15.2809 4.67848 15.4831 4.53601L17.0686 3.39626C17.0916 3.38247 17.1146 3.37328 17.1376 3.37328C17.1559 3.37328 17.1927 3.37788 17.2249 3.41005L18.5944 4.77958C18.6358 4.82094 18.6404 4.88528 18.6082 4.93584L17.4731 6.53056C17.3306 6.72818 17.3214 6.99473 17.4455 7.20614C17.8039 7.80818 18.0705 8.45618 18.2451 9.13176C18.3049 9.37074 18.5025 9.54997 18.7415 9.58674L20.6717 9.91304C20.7314 9.92223 20.7728 9.97278 20.7728 10.0325V11.9673H20.7682Z" fill="#718FAB"/>
<path d="M11.0023 6.25012C8.38272 6.25012 6.25488 8.37795 6.25488 10.9975C6.25488 13.6171 8.38272 15.7449 11.0023 15.7449C13.6219 15.7449 15.7497 13.6171 15.7497 10.9975C15.7497 8.37795 13.6219 6.25012 11.0023 6.25012ZM11.0023 14.5041C9.06748 14.5041 7.49574 12.9323 7.49574 10.9975C7.49574 9.06272 9.06748 7.49098 11.0023 7.49098C12.9371 7.49098 14.5089 9.06272 14.5089 10.9975C14.5089 12.9323 12.9371 14.5041 11.0023 14.5041Z" fill="#718FAB"/>
</svg>
