<?xml version="1.0" encoding="UTF-8"?>
<svg width="22px" height="22px" viewBox="0 0 22 22" version="1.1" xmlns="http://www.w3.org/2000/svg" xmlns:xlink="http://www.w3.org/1999/xlink">
    <title>icon-sidebar3</title>
    <g id="Page-1" stroke="none" stroke-width="1" fill="none" fill-rule="evenodd">
        <g id="icon-sidebar3" fill="#718FAB" fill-rule="nonzero">
            <path d="M0.644531,0 C1.00048,0 1.28906,0.288578 1.28906,0.644531 L1.28906,0.644531 L1.28906,20.7109 L21.3555,20.7109 C21.7114,20.7109 22,20.9995 22,21.3555 C22,21.7114 21.7114,22 21.3555,22 L21.3555,22 L0.644531,22 C0.288578,22 0,21.7114 0,21.3555 L0,21.3555 L0,0.644531 C0,0.288578 0.288578,0 0.644531,0 Z M5.84375,14.1797 C6.1997,14.1797 6.48828,14.4683 6.48828,14.8242 L6.48828,14.8242 L6.48828,18.7773 C6.48828,19.1333 6.1997,19.4219 5.84375,19.4219 L5.84375,19.4219 L3.22266,19.4219 C2.8667,19.4219 2.57812,19.1333 2.57812,18.7773 L2.57812,18.7773 L2.57812,14.8242 C2.57812,14.4683 2.8667,14.1797 3.22266,14.1797 L3.22266,14.1797 Z M11,11.6016 C11.356,11.6016 11.6445,11.8901 11.6445,12.2461 L11.6445,12.2461 L11.6445,18.7773 C11.6445,19.1333 11.356,19.4219 11,19.4219 L11,19.4219 L8.42188,19.4219 C8.06592,19.4219 7.77734,19.1333 7.77734,18.7773 L7.77734,18.7773 L7.77734,12.2461 C7.77734,11.8901 8.06592,11.6016 8.42188,11.6016 L8.42188,11.6016 Z M16.1562,9.02344 C16.5122,9.02344 16.8008,9.31202 16.8008,9.66797 L16.8008,9.66797 L16.8008,18.7773 C16.8008,19.1333 16.5122,19.4219 16.1562,19.4219 L16.1562,19.4219 L13.5781,19.4219 C13.2222,19.4219 12.9336,19.1333 12.9336,18.7773 L12.9336,18.7773 L12.9336,9.66797 C12.9336,9.31202 13.2222,9.02344 13.5781,9.02344 L13.5781,9.02344 Z M21.3555,6.44531 C21.7114,6.44531 22,6.73389 22,7.08984 L22,7.08984 L22,18.7773 C22,19.1333 21.7114,19.4219 21.3555,19.4219 L21.3555,19.4219 L18.7344,19.4219 C18.3784,19.4219 18.0898,19.1333 18.0898,18.7773 L18.0898,18.7773 L18.0898,7.08984 C18.0898,6.73389 18.3784,6.44531 18.7344,6.44531 L18.7344,6.44531 Z M5.19922,15.4688 L3.86719,15.4688 L3.86719,18.1328 L5.19922,18.1328 L5.19922,15.4688 Z M10.3555,12.8906 L9.06641,12.8906 L9.06641,18.1328 L10.3555,18.1328 L10.3555,12.8906 Z M15.5117,10.3125 L14.2227,10.3125 L14.2227,18.1328 L15.5117,18.1328 L15.5117,10.3125 Z M20.7109,7.73438 L19.3789,7.73438 L19.3789,18.1328 L20.7109,18.1328 L20.7109,7.73438 Z M20.0233,1.28906 C20.2467,1.28906 20.4541,1.40473 20.5716,1.59479 C20.6891,1.78479 20.6997,2.02211 20.5998,2.22187 L20.5998,2.22187 L19.3107,4.8 C19.1518,5.11792 18.7648,5.24764 18.446,5.08823 C18.1276,4.92899 17.9986,4.54188 18.1578,4.22348 L18.1578,4.22348 L18.5381,3.46294 L3.52755,11.5249 C3.43053,11.5769 3.32607,11.6017 3.22312,11.6017 C2.99336,11.6017 2.77104,11.4786 2.65473,11.262 C2.48629,10.9484 2.60398,10.5576 2.91757,10.3892 L2.91757,10.3892 L17.4611,2.57812 L16.8007,2.57812 C16.4447,2.57812 16.1561,2.28955 16.1561,1.93359 C16.1561,1.57764 16.4447,1.28906 16.8007,1.28906 L16.8007,1.28906 Z"></path>
        </g>
    </g>
</svg>