<svg width="15" height="17" viewBox="0 0 15 17" fill="none" xmlns="http://www.w3.org/2000/svg">
<path d="M2.85213 15.9967C2.77895 15.9714 2.70324 15.9519 2.6332 15.9203C2.21491 15.7324 2.01049 15.4024 2.00923 14.9495C2.00607 13.9977 2.00986 13.0458 2.00544 12.0939C2.00481 12.0068 1.97831 11.911 1.93541 11.8346C0.686201 9.60602 0.688724 7.37992 1.93983 5.15256C1.98021 5.08065 2.00481 4.98918 2.00481 4.90718C2.00923 3.96981 2.00734 3.03307 2.00797 2.0957C2.0086 1.41317 2.42059 1 3.10134 1C6.04014 1 8.97895 1 11.9184 1C12.5991 1 13.0118 1.41254 13.0124 2.09444C13.013 3.03181 13.0105 3.96855 13.0155 4.90592C13.0162 4.99297 13.0446 5.08822 13.0875 5.16455C14.3323 7.38938 14.3304 9.61106 13.0856 11.8353C13.0427 11.9116 13.0162 12.0075 13.0155 12.0945C13.0105 12.9877 13.0124 13.881 13.0124 14.7742C13.0124 15.4914 12.8301 15.7557 12.1682 15.9973C9.06286 15.9967 5.95749 15.9967 2.85213 15.9967ZM7.51712 2.49752C4.19219 2.50383 1.49882 5.20429 1.50828 8.52167C1.51775 11.8384 4.21428 14.501 7.56191 14.4991C10.8237 14.4972 13.5159 11.7779 13.5108 8.49013C13.5064 5.18915 10.8073 2.49121 7.51712 2.49752ZM2.50765 12.6566C2.50765 13.435 2.50702 14.1718 2.50765 14.9085C2.50828 15.3072 2.70134 15.4977 3.1026 15.4977C6.04078 15.4977 8.97958 15.4977 11.9177 15.4977C12.3184 15.4977 12.5114 15.3059 12.5114 14.9073C12.5121 14.2096 12.5114 13.5113 12.5114 12.8136C12.5114 12.7726 12.5077 12.731 12.5039 12.6648C11.1676 14.1812 9.51522 14.9899 7.51585 14.9918C5.51144 14.9931 3.85529 14.1837 2.50765 12.6566ZM12.4957 4.3218C12.5058 4.29278 12.5114 4.28458 12.5114 4.27575C12.5121 3.52446 12.5159 2.77255 12.5108 2.02127C12.5083 1.69893 12.295 1.50023 11.967 1.50023C8.99914 1.49959 6.03131 1.49959 3.06349 1.50023C2.71333 1.50023 2.50954 1.70334 2.50891 2.05596C2.50702 2.77823 2.50828 3.50049 2.50891 4.22276C2.50891 4.25178 2.51775 4.28079 2.52469 4.32306C3.85781 2.81229 5.51081 2.00487 7.51207 2.00487C9.51396 2.0055 11.1657 2.81418 12.4957 4.3218Z" fill="#C8DAF1" stroke="#C8DAF1" stroke-width="0.3"/>
<path d="M7.51272 8.25139C8.98654 8.25139 10.461 8.25013 11.9348 8.25202C12.4597 8.25265 12.7796 8.6141 12.7209 9.13451C12.7052 9.27455 12.6831 9.41522 12.6534 9.55336C12.1834 11.7675 10.4414 13.3912 8.20105 13.704C5.44774 14.0888 2.8408 12.1933 2.34932 9.44739C2.32282 9.29915 2.29632 9.14839 2.29317 8.99826C2.28433 8.61158 2.57392 8.29491 2.95878 8.25833C3.02692 8.25202 3.09506 8.25202 3.1632 8.25202C4.61304 8.25076 6.06288 8.25139 7.51272 8.25139ZM7.51525 8.74909C6.06036 8.74909 4.60547 8.74909 3.15121 8.74909C2.83701 8.74909 2.75626 8.84371 2.80547 9.15217C2.80925 9.17614 2.8143 9.20011 2.81809 9.22408C3.13607 11.389 4.97203 13.1136 7.15437 13.2316C9.16825 13.3407 10.6894 12.4847 11.6976 10.7374C11.9903 10.2296 12.1493 9.67069 12.2238 9.08972C12.254 8.85443 12.1619 8.75414 11.9241 8.74909C11.8799 8.74846 11.8364 8.74909 11.7922 8.74909C10.3664 8.74909 8.94112 8.74909 7.51525 8.74909Z" fill="#C8DAF1" stroke="#C8DAF1" stroke-width="0.3"/>
<path d="M7.5184 5C8.64584 5 9.77329 5 10.9007 5C11.3323 5 11.5108 5.17978 11.5115 5.61566C11.5121 5.89384 11.514 6.17203 11.5108 6.45021C11.5064 6.80283 11.3051 7.00027 10.9506 7.0009C8.65657 7.00153 6.36256 7.00153 4.06855 7.0009C3.71524 7.0009 3.51398 6.8022 3.51019 6.44895C3.50704 6.1613 3.50893 5.87303 3.50956 5.58538C3.51083 5.18987 3.69758 5.00126 4.0919 5.00063C5.23385 5 6.37581 5 7.5184 5ZM5.52092 6.49058C5.85531 6.49058 6.17833 6.49058 6.5001 6.49058C6.5001 6.15626 6.5001 5.83329 6.5001 5.50969C6.16824 5.50969 5.849 5.50969 5.52092 5.50969C5.52092 5.8377 5.52092 6.15689 5.52092 6.49058ZM7.01745 6.48932C7.35562 6.48932 7.67865 6.48932 8.00105 6.48932C8.00105 6.15689 8.00105 5.83707 8.00105 5.51032C7.66982 5.51032 7.34679 5.51032 7.01745 5.51032C7.01745 5.84023 7.01745 6.16067 7.01745 6.48932ZM9.49632 6.49437C9.49632 6.15689 9.49632 5.83329 9.49632 5.50969C9.16508 5.50969 8.84521 5.50969 8.5184 5.50969C8.5184 5.84086 8.5184 6.16383 8.5184 6.49437C8.84647 6.49437 9.16572 6.49437 9.49632 6.49437ZM4.01997 6.49184C4.3512 6.49184 4.67423 6.49184 5.00168 6.49184C5.00168 6.15941 5.00168 5.83644 5.00168 5.51347C4.66729 5.51347 4.34426 5.51347 4.01997 5.51347C4.01997 5.84527 4.01997 6.16446 4.01997 6.49184ZM10.9992 6.49311C10.9992 6.16257 10.9992 5.84023 10.9992 5.51158C10.6673 5.51158 10.3449 5.51158 10.0193 5.51158C10.0193 5.84527 10.0193 6.16761 10.0193 6.49311C10.3506 6.49311 10.6698 6.49311 10.9992 6.49311Z" fill="#C8DAF1" stroke="#C8DAF1" stroke-width="0.3"/>
<path d="M7.23444 10.7503C7.57703 10.7503 7.8887 10.7522 8.201 10.7491C8.3152 10.7478 8.41551 10.7674 8.47608 10.8759C8.5398 10.99 8.50132 11.0897 8.43444 11.1887C8.12214 11.6543 7.81299 12.1211 7.50069 12.5866C7.39091 12.7506 7.24895 12.791 7.11898 12.7014C6.98902 12.6112 6.97766 12.4718 7.08933 12.3034C7.29122 11.9987 7.49438 11.6953 7.6969 11.3906C7.72277 11.3515 7.74674 11.3105 7.7846 11.2493C7.48618 11.2493 7.2111 11.2493 6.93539 11.2493C6.88176 11.2493 6.82813 11.2518 6.7745 11.2487C6.54674 11.236 6.43823 11.0361 6.56378 10.8443C6.88428 10.3554 7.21047 9.86972 7.53665 9.38464C7.63003 9.24586 7.78208 9.2118 7.90195 9.29443C8.02056 9.37581 8.04454 9.51584 7.95305 9.65588C7.74548 9.97381 7.53286 10.2892 7.32214 10.6059C7.29627 10.645 7.27356 10.6866 7.23444 10.7503Z" fill="#C8DAF1" stroke="#C8DAF1" stroke-width="0.3"/>
</svg>
