<svg width="20" height="20" viewBox="0 0 20 20" fill="none" xmlns="http://www.w3.org/2000/svg">
<path d="M17.2687 15.3041C17.8307 15.3722 18.0606 15.6722 17.9865 16.2073C17.8375 17.2745 17.0213 17.997 15.9434 17.9977C11.9813 18.0008 8.01999 18.0008 4.0579 17.9977C2.99363 17.997 2.16535 17.279 2.01785 16.2443C1.93616 15.6722 2.12829 15.4107 2.72964 15.2943C2.72964 15.2248 2.72964 15.1515 2.72964 15.0782C2.72964 12.7851 2.73115 10.4928 2.72888 8.19979C2.72813 7.64202 2.93614 7.1946 3.43915 6.93687C3.64112 6.83333 3.88846 6.77287 4.11463 6.77211C8.03588 6.76229 11.9579 6.76304 15.8791 6.76682C16.7135 6.76758 17.2664 7.34575 17.2671 8.19601C17.2687 10.4891 17.2679 12.7813 17.2679 15.0744C17.2687 15.1484 17.2687 15.2218 17.2687 15.3041ZM16.597 15.3155C16.597 15.2399 16.597 15.184 16.597 15.128C16.597 12.8176 16.597 10.5079 16.597 8.19752C16.597 7.68661 16.3473 7.4372 15.8337 7.4372C11.9465 7.43645 8.05933 7.43645 4.17212 7.4372C3.64868 7.4372 3.40209 7.68434 3.40209 8.2081C3.40209 10.5125 3.40209 12.8169 3.40209 15.1212C3.40209 15.1817 3.40209 15.2429 3.40209 15.3155C3.49513 15.3155 3.56321 15.3155 3.63128 15.3155C4.87331 15.3155 6.11535 15.323 7.35738 15.3109C7.75828 15.3072 8.09185 15.4099 8.34676 15.7274C8.45947 15.868 8.60621 15.9163 8.787 15.9148C9.55778 15.9088 10.3286 15.9027 11.0986 15.9171C11.3565 15.9224 11.5517 15.8513 11.7189 15.6578C11.9352 15.4084 12.2181 15.3109 12.5486 15.3125C13.6696 15.3185 14.7914 15.3147 15.9124 15.3147C16.131 15.3155 16.3489 15.3155 16.597 15.3155ZM17.3088 15.9859C17.2392 15.9859 17.1658 15.9859 17.0932 15.9859C15.6265 15.9859 14.1598 15.9911 12.6931 15.9813C12.4435 15.9798 12.2491 16.0395 12.0834 16.2269C11.852 16.4877 11.5555 16.5905 11.2053 16.5859C10.4057 16.5761 9.60619 16.5754 8.80666 16.5867C8.43073 16.592 8.11833 16.4847 7.87703 16.1907C7.75147 16.038 7.59413 15.9821 7.39293 15.9828C5.8922 15.9896 4.39072 15.9866 2.89 15.9866C2.82268 15.9866 2.75536 15.9866 2.66307 15.9866C2.67745 16.1045 2.67971 16.2012 2.70165 16.2935C2.85672 16.9419 3.38772 17.3311 4.12144 17.3311C8.03815 17.3319 11.9549 17.3319 15.8716 17.3289C16.0365 17.3289 16.2074 17.3138 16.3655 17.2714C16.9374 17.1173 17.364 16.5383 17.3088 15.9859Z" fill="#838A9C" stroke="#838A9C" stroke-width="0.2"/>
<path d="M7.99122 3.4051C7.86717 3.52753 7.75749 3.63561 7.63268 3.7588C7.73707 3.9024 7.83767 4.04751 7.94584 4.18658C8.06233 4.33622 8.06687 4.48209 7.98063 4.64987C7.89819 4.81236 7.83086 4.98468 7.77186 5.15776C7.71967 5.30967 7.62966 5.40187 7.47005 5.42606C7.28322 5.45478 7.09714 5.48652 6.89518 5.51978C6.89518 5.61274 6.89972 5.6989 6.89442 5.78354C6.88232 5.9672 6.74768 6.09795 6.57219 6.10173C6.39141 6.10551 6.24315 5.97022 6.23786 5.77976C6.23408 5.63163 6.22651 5.4767 6.26358 5.33537C6.35586 4.98393 6.63195 4.85469 6.96553 4.83277C7.12437 4.82219 7.20682 4.76021 7.26204 4.6083C7.30289 4.49569 7.30516 4.4186 7.22573 4.33093C7.16825 4.26745 7.11984 4.19489 7.07294 4.12233C6.90274 3.85781 6.92544 3.54341 7.13723 3.31138C7.26507 3.17156 7.39971 3.03703 7.53964 2.9093C7.77338 2.69693 8.08578 2.67501 8.35128 2.84506C8.40423 2.87907 8.45415 2.91837 8.50559 2.95541C8.69242 3.09145 8.78773 3.09598 8.97986 2.96523C9.00784 2.94634 9.02751 2.90477 9.03507 2.87C9.05852 2.76344 9.06987 2.65461 9.09256 2.54804C9.16215 2.22381 9.40572 2.01673 9.73627 2.00463C9.90873 1.99859 10.0812 1.99859 10.2537 2.00388C10.5925 2.01446 10.8353 2.2223 10.9072 2.55635C10.9178 2.60699 10.9254 2.65839 10.9322 2.70902C10.9639 2.94105 11.0411 3.03023 11.2642 3.065C11.3111 3.07255 11.3754 3.04232 11.4148 3.00907C11.8565 2.62891 12.2324 2.61153 12.6749 3.11941C12.7392 3.19272 12.8149 3.25621 12.8777 3.33103C13.0652 3.55399 13.0872 3.85176 12.9367 4.10117C12.9011 4.16012 12.8587 4.21454 12.8179 4.27047C12.6719 4.46924 12.6651 4.53726 12.7975 4.74132C12.8209 4.7776 12.8769 4.80254 12.9223 4.81312C13.0168 4.83579 13.1152 4.8426 13.2112 4.86073C13.532 4.91968 13.7513 5.17212 13.7611 5.49635C13.7642 5.59989 13.7672 5.70419 13.7581 5.80622C13.7422 5.97702 13.5993 6.10097 13.4321 6.10097C13.2649 6.10097 13.1212 5.97627 13.1053 5.80697C13.097 5.71628 13.1038 5.62483 13.1038 5.51826C12.9283 5.49106 12.7657 5.46007 12.6023 5.44193C12.3867 5.4185 12.2627 5.31118 12.2052 5.09881C12.1636 4.94538 12.0963 4.79574 12.0206 4.65592C11.9268 4.48209 11.9352 4.33169 12.0577 4.17826C12.1613 4.04827 12.2551 3.91072 12.3625 3.76485C12.2339 3.65602 12.1091 3.55021 11.97 3.43231C11.8603 3.51242 11.715 3.61445 11.5744 3.72177C11.4359 3.82758 11.2998 3.83816 11.1409 3.76032C10.9662 3.67491 10.7847 3.60311 10.6016 3.5366C10.4518 3.48219 10.3611 3.38923 10.3391 3.229C10.3195 3.08087 10.3028 2.93198 10.2658 2.78762C10.2537 2.74077 10.1856 2.67879 10.1387 2.67501C9.73854 2.64025 9.72568 2.64251 9.69088 3.03401C9.66441 3.33405 9.55397 3.52905 9.23704 3.58875C9.11072 3.61218 8.9912 3.68398 8.87623 3.74822C8.71133 3.84043 8.56307 3.83438 8.4133 3.71648C8.28017 3.61143 8.13797 3.51317 7.99122 3.4051Z" fill="#838A9C" stroke="#838A9C" stroke-width="0.2"/>
<path d="M9.99047 4.10652C10.88 4.10274 11.6379 4.82603 11.6568 5.6982C11.6621 5.94383 11.5404 6.09725 11.3354 6.10179C11.1402 6.10556 11.0139 5.96726 10.9957 5.72843C10.9579 5.22508 10.6085 4.84568 10.1266 4.78521C9.6463 4.72475 9.20153 5.00212 9.05403 5.46013C9.02302 5.55687 9.01092 5.66116 9.00033 5.7632C8.97915 5.96952 8.84602 6.10556 8.65994 6.10103C8.4663 6.09649 8.33771 5.94912 8.33771 5.73145C8.33998 4.85474 9.09563 4.11106 9.99047 4.10652Z" fill="#838A9C" stroke="#838A9C" stroke-width="0.2"/>
<path d="M7.27339 13.7462C6.63497 13.7462 5.99656 13.747 5.35815 13.7462C4.85967 13.7455 4.57375 13.4636 4.57677 12.9678C4.57828 12.704 4.56618 12.4349 4.61308 12.1787C4.73335 11.5189 5.26208 11.0292 5.9247 10.94C6.01774 10.9279 6.1312 10.9612 6.21592 11.0088C6.93451 11.4116 7.64554 11.4063 8.36489 11.0073C8.4602 10.9544 8.59711 10.9347 8.70603 10.9528C9.44883 11.0798 9.98135 11.7071 9.99799 12.4584C10.0018 12.642 10.001 12.8264 9.99874 13.0101C9.9942 13.4462 9.69845 13.7432 9.25746 13.7455C8.59635 13.7492 7.93525 13.7462 7.27339 13.7462ZM5.2235 13.0789C5.32638 13.0789 5.3937 13.0789 5.46178 13.0789C6.67506 13.0789 7.88835 13.0789 9.10088 13.0789C9.13567 13.0789 9.16971 13.0766 9.20451 13.0789C9.29906 13.0864 9.33991 13.0494 9.33688 12.9504C9.33083 12.7894 9.34218 12.6284 9.33234 12.4682C9.30889 12.1001 9.13341 11.8288 8.79756 11.6648C8.70376 11.6187 8.6251 11.6232 8.52525 11.6724C7.73555 12.0616 6.92997 12.0858 6.13423 11.7086C5.90882 11.6021 5.73938 11.6308 5.59642 11.7827C5.46329 11.924 5.32713 12.0956 5.28099 12.2762C5.21821 12.5203 5.24015 12.7864 5.2235 13.0789Z" fill="#838A9C" stroke="#838A9C" stroke-width="0.1"/>
<path d="M8.59252 9.30751C8.59328 10.03 8.01462 10.6112 7.29224 10.6135C6.56306 10.6158 5.97079 10.0255 5.9776 9.30222C5.98365 8.58423 6.57516 7.99699 7.28922 8.00001C8.00857 8.00303 8.59101 8.58801 8.59252 9.30751ZM6.64702 9.29996C6.644 9.66122 6.92841 9.9522 7.28544 9.9522C7.63263 9.9522 7.92385 9.665 7.92839 9.31885C7.93293 8.95985 7.64851 8.67266 7.28695 8.6719C6.93143 8.67115 6.65081 8.94701 6.64702 9.29996Z" fill="#838A9C" stroke="#838A9C" stroke-width="0.1"/>
<path d="M13.2423 9.09296C13.8278 9.09296 14.414 9.09221 14.9995 9.09448C15.0728 9.09448 15.1508 9.10053 15.2181 9.12624C15.3701 9.18525 15.4367 9.3093 15.417 9.46966C15.3974 9.63077 15.2998 9.72608 15.1387 9.75256C15.0993 9.75861 15.0585 9.75861 15.0184 9.75861C13.8407 9.75861 12.6637 9.75936 11.4859 9.75861C11.2341 9.75861 11.0911 9.63455 11.0903 9.42881C11.0903 9.22382 11.2386 9.09448 11.4844 9.09372C12.0706 9.09221 12.6569 9.09296 13.2423 9.09296Z" fill="#838A9C" stroke="#838A9C" stroke-width="0.1"/>
<path d="M13.2604 12.2498C13.8292 12.2498 14.3973 12.2498 14.9661 12.2506C15.0289 12.2506 15.0932 12.2498 15.1544 12.2619C15.3072 12.2914 15.398 12.3875 15.4169 12.541C15.4358 12.7014 15.37 12.8247 15.218 12.8844C15.1507 12.9109 15.0728 12.917 14.9994 12.917C13.839 12.9192 12.6787 12.9185 11.5191 12.9185C11.473 12.9185 11.4268 12.9207 11.3815 12.9132C11.1999 12.8852 11.0827 12.7422 11.091 12.5652C11.0993 12.3935 11.2166 12.2702 11.3996 12.2559C11.5199 12.246 11.6409 12.2506 11.7612 12.2506C12.2612 12.249 12.7612 12.2498 13.2604 12.2498Z" fill="#838A9C" stroke="#838A9C" stroke-width="0.1"/>
<path d="M13.262 11.3365C12.6705 11.3365 12.079 11.3373 11.4875 11.3365C11.2401 11.3357 11.0918 11.2109 11.0903 11.0067C11.0896 10.8017 11.2371 10.6746 11.4844 10.6746C12.6675 10.6739 13.8505 10.6739 15.0335 10.6746C15.2816 10.6746 15.4246 10.8032 15.4208 11.0128C15.417 11.214 15.2756 11.3357 15.0365 11.3365C14.445 11.3373 13.8535 11.3365 13.262 11.3365Z" fill="#838A9C" stroke="#838A9C" stroke-width="0.1"/>
</svg>
