<svg width="20" height="20" viewBox="0 0 20 20" fill="none" xmlns="http://www.w3.org/2000/svg">
<path d="M18.0029 11.1873C17.8756 11.5614 17.6108 11.7118 17.2226 11.6899C16.9694 11.6758 16.7136 11.6873 16.4693 11.6873C16.3626 11.9856 16.2726 12.2722 16.1582 12.5499C16.0451 12.8237 15.9076 13.0859 15.7713 13.3713C15.7932 13.3945 15.8253 13.433 15.86 13.469C16.04 13.6503 16.2238 13.8277 16.3999 14.0115C16.6583 14.2802 16.666 14.6414 16.4063 14.9062C15.9101 15.4114 15.4101 15.9127 14.9036 16.4076C14.6439 16.6621 14.2827 16.6544 14.0205 16.4025C13.802 16.1942 13.5899 15.9796 13.3752 15.7674C13.3713 15.7636 13.3662 15.7636 13.4035 15.7803C12.8186 16.022 12.2632 16.2508 11.6899 16.4886C11.6899 16.747 11.6912 17.0375 11.6899 17.3293C11.6873 17.7407 11.4277 17.999 11.0138 17.999C10.3363 18.0003 9.66015 18.0003 8.98271 17.999C8.57778 17.9977 8.31812 17.7381 8.31554 17.3357C8.31426 17.0439 8.31554 16.7534 8.31554 16.4847C7.74865 16.2508 7.19461 16.0207 6.60843 15.779C6.44389 15.9448 6.24593 16.1428 6.04796 16.3408C5.71117 16.6763 5.36538 16.6763 5.02858 16.3408C4.56452 15.8767 4.10047 15.4139 3.63641 14.9486C3.32918 14.6401 3.33175 14.2853 3.63898 13.9755C3.83309 13.7801 4.02848 13.5847 4.22387 13.3893C4.23159 13.3816 4.23544 13.3726 4.23801 13.3675C4.1069 13.0937 3.96678 12.8276 3.85109 12.5499C3.73539 12.2722 3.64669 11.9843 3.54129 11.6886C3.25848 11.6886 2.96796 11.6899 2.67616 11.6886C2.26095 11.6873 2.00129 11.4303 2 11.0189C2 10.3402 2 9.66272 2.00129 8.98656C2.00257 8.57264 2.26095 8.31426 2.67359 8.31297C2.95511 8.31169 3.23663 8.31169 3.51686 8.3104C3.52715 8.3104 3.53743 8.30526 3.51172 8.31169C3.74953 7.73708 3.97963 7.18175 4.21873 6.602C4.04519 6.42846 3.8408 6.22793 3.63898 6.02483C3.33047 5.71503 3.32918 5.35895 3.63513 5.05172C4.10561 4.57995 4.57738 4.10818 5.04915 3.6377C5.35895 3.32918 5.71374 3.32918 6.02354 3.63641C6.22665 3.83823 6.42718 4.04134 6.62 4.23544C6.90666 4.09918 7.17404 3.95907 7.45042 3.84466C7.72808 3.73025 8.01474 3.63898 8.31169 3.53357C8.31169 3.28419 8.32197 3.02324 8.30912 2.76486C8.29112 2.3805 8.44795 2.12469 8.81431 2C9.60616 2 10.398 2 11.1899 2C11.5639 2.12726 11.7143 2.39207 11.6925 2.78028C11.6783 3.03352 11.6899 3.28933 11.6899 3.50272C12.271 3.74311 12.825 3.97321 13.4047 4.21359C13.5873 4.02977 13.7942 3.81766 14.0063 3.6107C14.2802 3.34332 14.6427 3.33304 14.9126 3.59785C15.4139 4.09018 15.9114 4.58766 16.4038 5.089C16.6686 5.35895 16.6596 5.72017 16.3935 5.99526C16.2122 6.18165 16.0258 6.36419 15.842 6.54801C15.8137 6.57629 15.7906 6.60972 15.7944 6.60458C16.0335 7.18433 16.2611 7.73451 16.4989 8.31169C16.7136 8.31169 16.9694 8.32326 17.2226 8.30912C17.6108 8.28726 17.8756 8.43766 18.0029 8.81174C18.0029 9.60359 18.0029 10.3954 18.0029 11.1873ZM14.4473 15.9461C14.9512 15.4422 15.4461 14.946 15.9474 14.4447C15.9204 14.4164 15.887 14.3791 15.8497 14.3419C15.6222 14.113 15.3921 13.8868 15.1658 13.6567C15.0283 13.5166 15.0142 13.3893 15.1119 13.2196C15.1581 13.1386 15.2096 13.0602 15.2558 12.978C15.5412 12.4779 15.7495 11.9483 15.8819 11.3865C15.9423 11.1295 16.031 11.0613 16.2958 11.06C16.3845 11.06 16.4732 11.06 16.5619 11.06C16.8305 11.06 17.0992 11.06 17.3666 11.06C17.3666 10.3415 17.3666 9.64087 17.3666 8.93514C17.0066 8.93514 16.6583 8.93514 16.3086 8.93514C16.031 8.93514 15.9436 8.86958 15.8819 8.60478C15.7353 7.97618 15.4911 7.38872 15.1556 6.83853C15.0013 6.58529 15.0142 6.49017 15.225 6.27935C15.4705 6.03382 15.716 5.7883 15.9448 5.56077C15.4371 5.05301 14.9422 4.55681 14.4408 4.05676C14.2056 4.292 13.9601 4.53882 13.7133 4.78563C13.5114 4.98745 13.4099 4.99902 13.1644 4.84861C12.6142 4.51182 12.0267 4.26629 11.3981 4.12104C11.132 4.05933 11.0652 3.97192 11.0652 3.69683C11.0652 3.34461 11.0652 2.9911 11.0652 2.63374C10.3505 2.63374 9.65115 2.63374 8.94029 2.63374C8.94029 3.01167 8.94157 3.3806 8.94029 3.74953C8.939 3.94493 8.86958 4.05419 8.69219 4.09661C8.00317 4.26115 7.35786 4.52596 6.75626 4.90132C6.60972 4.99259 6.47731 4.96559 6.34619 4.83705C6.13409 4.6288 5.92456 4.41927 5.71631 4.20716C5.65975 4.14932 5.61219 4.08247 5.58648 4.05033C5.062 4.57481 4.5671 5.06972 4.06705 5.56848C4.31257 5.81272 4.57481 6.07239 4.83447 6.33463C4.97588 6.47731 4.99773 6.60586 4.89489 6.7704C4.52853 7.35915 4.26629 7.98903 4.11204 8.66391C4.06833 8.85287 3.95907 8.93129 3.76367 8.93257C3.43588 8.93514 3.10679 8.93257 2.779 8.93257C2.73015 8.93257 2.68002 8.93257 2.63374 8.93257C2.63374 9.65244 2.63374 10.3479 2.63374 11.0575C3.01038 11.0575 3.37932 11.0562 3.74825 11.0575C3.97192 11.0588 4.07219 11.1359 4.12232 11.3544C4.27144 11.9984 4.52082 12.6013 4.8679 13.1631C5.0093 13.3932 4.99644 13.496 4.80619 13.6863C4.55296 13.9395 4.29843 14.1927 4.05419 14.437C4.5581 14.9396 5.05429 15.4358 5.55563 15.9371C5.58134 15.9127 5.61862 15.8793 5.65589 15.8433C5.88857 15.6119 6.11867 15.3779 6.35262 15.1478C6.48631 15.0167 6.611 14.9949 6.76269 15.0887C7.36044 15.4589 7.99932 15.7276 8.68448 15.8857C8.86187 15.9268 8.93643 16.0387 8.93771 16.2302C8.94029 16.558 8.93771 16.8858 8.93771 17.2149C8.93771 17.265 8.93771 17.3139 8.93771 17.3627C9.6563 17.3627 10.3517 17.3627 11.0626 17.3627C11.0626 16.9977 11.0626 16.639 11.0626 16.2816C11.0626 16.0168 11.1307 15.9307 11.3891 15.869C12.0164 15.7199 12.6052 15.4782 13.1554 15.1414C13.4073 14.9872 13.4999 15 13.7145 15.2134C13.9626 15.4628 14.2095 15.7096 14.4473 15.9461Z" fill="#C8DAF1" stroke="#C8DAF1" stroke-width="0.3"/>
<path d="M14.5758 10.0072C14.5668 12.3596 12.7671 14.3238 10.4173 14.5385C7.97101 14.7609 5.79855 13.0229 5.47847 10.5857C5.15581 8.13426 6.8565 5.87311 9.3079 5.49389C10.2861 5.34221 11.2143 5.50418 12.0974 5.94381C12.1437 5.96695 12.1899 5.99266 12.2336 6.01965C12.3853 6.11735 12.4342 6.29217 12.3532 6.44C12.2684 6.59297 12.0987 6.63282 11.92 6.55955C11.5883 6.42458 11.2631 6.26132 10.9186 6.17519C8.7243 5.6263 6.48114 7.11616 6.12506 9.34132C5.78441 11.4778 7.13673 13.433 9.25263 13.8623C11.4804 14.3148 13.6798 12.7003 13.9176 10.4443C13.9973 9.69483 13.8791 8.98267 13.559 8.30266C13.4947 8.1664 13.4664 8.03656 13.5654 7.90673C13.7132 7.71519 13.9832 7.75376 14.1002 7.98772C14.3277 8.44277 14.4717 8.92483 14.5334 9.43002C14.5539 9.62284 14.5604 9.81566 14.5758 10.0072Z" fill="#C8DAF1" stroke="#C8DAF1" stroke-width="0.3"/>
<path d="M9.55986 9.31184C10.0509 8.8195 10.5214 8.34773 10.9919 7.87596C11.2284 7.63815 11.3698 7.63943 11.6076 7.87725C11.9354 8.20504 12.2645 8.53155 12.591 8.86064C12.78 9.05089 12.7813 9.21028 12.5936 9.39925C11.6732 10.3209 10.7528 11.2413 9.8311 12.1605C9.64085 12.3494 9.48273 12.3507 9.29377 12.163C8.66389 11.5344 8.034 10.9045 7.4054 10.2734C7.22801 10.096 7.22544 9.93401 7.39898 9.7579C7.74734 9.40568 8.09699 9.05603 8.44793 8.70895C8.62275 8.5367 8.78858 8.5367 8.96469 8.71023C9.16008 8.90306 9.35162 9.10102 9.55986 9.31184ZM11.9418 9.13958C11.7259 8.92362 11.5048 8.70252 11.2734 8.47114C10.8081 8.93776 10.335 9.41339 9.86066 9.88902C9.62928 10.1217 9.49173 10.1204 9.25649 9.88516C9.07395 9.70262 8.89399 9.5188 8.72559 9.34912C8.48906 9.58564 8.26796 9.80546 8.07128 10.0021C8.57005 10.5022 9.07524 11.0087 9.57272 11.5074C10.3581 10.722 11.1564 9.92501 11.9418 9.13958Z" fill="#C8DAF1" stroke="#C8DAF1" stroke-width="0.3"/>
<path d="M13.3829 7.06219C13.3829 7.23445 13.2505 7.37199 13.0795 7.37456C12.906 7.37713 12.7582 7.22802 12.7633 7.05577C12.7672 6.88865 12.9111 6.74982 13.0783 6.75111C13.2492 6.75239 13.3829 6.88994 13.3829 7.06219Z" fill="#C8DAF1" stroke="#C8DAF1" stroke-width="0.3"/>
</svg>
