<svg width="14" height="17" viewBox="0 0 14 17" fill="none" xmlns="http://www.w3.org/2000/svg">
<path d="M11.9656 0.999638C12.0226 1.01916 12.0797 1.04002 12.1372 1.05822C12.6321 1.21577 12.9804 1.68176 12.9986 2.2121C13.0003 2.2658 12.9999 2.3195 12.9999 2.37319C12.9999 5.98039 12.9999 9.58714 12.999 13.1943C12.999 13.2764 12.9999 13.363 12.9774 13.4406C12.8776 13.7837 12.4955 13.8898 12.221 13.6461C11.9263 13.3843 11.641 13.1114 11.3514 12.8437C11.2952 12.7918 11.2386 12.7403 11.1867 12.6933C11.0186 12.7616 10.9637 12.8744 10.9667 13.0572C10.978 13.8037 10.9754 14.5506 10.9672 15.2975C10.9659 15.4129 10.9322 15.5429 10.8725 15.6392C10.7225 15.8807 10.4403 15.902 10.235 15.708C9.89268 15.3845 9.55037 15.0618 9.19984 14.7312C8.83549 15.0636 8.47761 15.3903 8.11931 15.7173C8.07652 15.7564 8.03503 15.7963 7.9918 15.8345C7.7489 16.0484 7.49043 16.0462 7.25012 15.8243C6.89657 15.4981 6.54475 15.1701 6.19163 14.8431C6.1536 14.8075 6.11383 14.7738 6.06888 14.7343C5.71879 15.0583 5.37302 15.3783 5.02725 15.6987C4.97408 15.7475 4.92308 15.7986 4.86819 15.8456C4.62745 16.0524 4.38627 16.0502 4.15071 15.8358C3.78765 15.5056 3.42676 15.1737 3.06456 14.8426C3.02609 14.8075 2.9859 14.7738 2.94138 14.7352C2.59388 15.0561 2.25502 15.3761 1.90795 15.6867C1.59676 15.965 1.15288 15.8318 1.02797 15.4275C1.00679 15.3596 1.00203 15.2837 1.00203 15.2114C0.999872 11.6171 0.999008 8.02497 1.00074 4.43242C1.00117 3.57278 1.64171 2.91685 2.48194 2.90753C2.65741 2.90575 2.83289 2.90708 3.02912 2.90708C3.02912 2.75797 3.02912 2.61817 3.02912 2.47838C3.02912 1.68841 3.44232 1.17494 4.19739 1.02538C4.21987 1.02094 4.24018 1.00851 4.26179 0.999638C6.82958 0.999638 9.39736 0.999638 11.9656 0.999638ZM10.2635 14.8852C10.2748 14.8812 10.2864 14.8772 10.2977 14.8732C10.2977 14.8209 10.2977 14.7685 10.2977 14.7166C10.2977 11.2998 10.2977 7.88296 10.2972 4.46659C10.2972 4.37917 10.2938 4.29041 10.283 4.20386C10.235 3.8182 9.99857 3.60607 9.62125 3.60607C7.24407 3.60607 4.86689 3.60562 2.48971 3.60651C2.0186 3.60651 1.67283 3.95312 1.6724 4.43109C1.6711 7.88207 1.67153 11.333 1.67197 14.7836C1.67197 14.8182 1.67931 14.8533 1.68536 14.9105C1.97754 14.6456 2.2507 14.3961 2.52559 14.1494C2.78838 13.9137 3.07148 13.9155 3.33167 14.1525C3.53092 14.334 3.72887 14.5164 3.92769 14.6979C4.12176 14.875 4.31625 15.0512 4.51291 15.23C4.55656 15.1919 4.58941 15.1644 4.62096 15.1355C4.97019 14.812 5.31899 14.4876 5.66865 14.164C5.92971 13.9226 6.20676 13.9226 6.47041 14.164C6.53783 14.2257 6.60353 14.2896 6.67009 14.3522C6.98215 14.6447 7.29421 14.9376 7.60929 15.2332C8.00693 14.8697 8.39679 14.512 8.78794 14.1556C9.06024 13.9075 9.2919 13.9133 9.54994 14.1716C9.78809 14.4095 10.0258 14.6473 10.2635 14.8852ZM12.3282 12.8739C12.3282 12.7821 12.3282 12.7346 12.3282 12.6871C12.3282 9.23077 12.3282 5.77491 12.3282 2.31861C12.3282 1.93073 12.1013 1.69685 11.7274 1.69685C9.34031 1.69685 6.95362 1.69685 4.5665 1.69729C4.49519 1.69729 4.42301 1.69285 4.35299 1.7035C4.08026 1.74478 3.82266 1.85084 3.74659 2.13843C3.68306 2.37896 3.70467 2.64302 3.68781 2.90708C3.78376 2.90708 3.84082 2.90708 3.89744 2.90708C5.80869 2.90708 7.72037 2.90664 9.63163 2.90753C10.2242 2.90797 10.6836 3.22618 10.8712 3.79779C10.9378 4.00149 10.9663 4.22739 10.9667 4.44307C10.9732 6.87908 10.9706 9.31465 10.9706 11.7507C10.9706 11.8132 10.9706 11.8758 10.9706 11.9615C11.2416 11.8603 11.4154 11.9948 11.5861 12.1692C11.8156 12.4026 12.0594 12.6201 12.3282 12.8739Z" fill="#C8DAF1" stroke="#C8DAF1" stroke-width="0.2"/>
<path d="M6.07381 9.08666C5.38054 9.08666 4.68683 9.08622 3.99356 9.08711C3.84617 9.08711 3.73596 9.02452 3.6707 8.89002C3.61019 8.76485 3.61451 8.62725 3.71132 8.5367C3.78826 8.46479 3.90409 8.41285 4.00826 8.40043C4.19108 8.37868 4.37823 8.39421 4.56322 8.39421C5.70772 8.39421 6.85266 8.39421 7.99716 8.39421C8.02569 8.39421 8.05421 8.39421 8.08274 8.39421C8.34769 8.39643 8.50545 8.52604 8.50545 8.74177C8.50545 8.95661 8.34682 9.08666 8.08317 9.08666C7.41324 9.08711 6.74374 9.08666 6.07381 9.08666Z" fill="#C8DAF1" stroke="#C8DAF1" stroke-width="0.2"/>
<path d="M6.05952 11.3434C5.371 11.3434 4.68205 11.3456 3.99353 11.342C3.72815 11.3407 3.55484 11.0926 3.67067 10.8662C3.71519 10.7792 3.82238 10.7193 3.91141 10.6651C3.95507 10.6385 4.02249 10.65 4.07954 10.65C5.40947 10.6496 6.73939 10.6505 8.06931 10.6487C8.24695 10.6487 8.40428 10.682 8.47992 10.8702C8.57284 11.1015 8.4112 11.3394 8.15489 11.342C7.69891 11.3469 7.24292 11.3438 6.78693 11.3438C6.5436 11.3438 6.30156 11.3438 6.05952 11.3434Z" fill="#C8DAF1" stroke="#C8DAF1" stroke-width="0.2"/>
<path d="M5.04985 6.83128C4.70754 6.83128 4.36566 6.83217 4.02334 6.83083C3.79211 6.82995 3.64127 6.69723 3.63565 6.49393C3.63003 6.28753 3.78346 6.13794 4.01989 6.13661C4.70884 6.1335 5.39779 6.1335 6.08717 6.13661C6.32575 6.1375 6.47832 6.28309 6.47486 6.49082C6.47141 6.69856 6.31797 6.83039 6.07636 6.83083C5.73448 6.83172 5.39217 6.83128 5.04985 6.83128Z" fill="#C8DAF1" stroke="#C8DAF1" stroke-width="0.2"/>
</svg>
