<svg width="15" height="15" viewBox="0 0 15 15" fill="none" xmlns="http://www.w3.org/2000/svg">
<path d="M10.3418 15.0002C10.2051 15.0002 10.0684 15.0002 9.93164 15.0002C9.91992 14.9924 9.90938 14.9799 9.89648 14.9775C9.40898 14.8848 9.09648 14.5784 8.93672 14.1303C8.85859 13.9104 8.725 13.7664 8.54609 13.6447C8.44141 13.5735 8.33633 13.5018 8.22461 13.4431C7.92031 13.2827 7.60117 13.1974 7.25312 13.269C6.86367 13.3488 6.5418 13.5539 6.24883 13.8098C6.19063 13.8607 6.1457 13.9374 6.11914 14.0113C5.98945 14.371 5.79687 14.6797 5.44648 14.8597C5.32773 14.9208 5.19453 14.9544 5.06836 15.0006C4.93164 15.0006 4.79492 15.0006 4.6582 15.0006C4.64648 14.9928 4.63555 14.9802 4.62305 14.9779C4.14648 14.8891 3.83086 14.5928 3.67422 14.1569C3.57852 13.89 3.40391 13.73 3.18906 13.584C2.69336 13.2475 2.17344 13.125 1.60313 13.3895C1.28945 13.5351 1.01719 13.7359 0.76875 13.9738C0.584375 14.1506 0.351172 14.1749 0.175 14.0266C0.103906 13.9667 0.0578125 13.8763 0.000390625 13.8C0 9.6004 0 5.40196 0 1.2035C0.0664063 1.11546 0.118359 1.00902 0.201953 0.942887C0.469531 0.732358 0.734766 0.51322 1.02695 0.341823C1.47266 0.0804224 1.96016 -0.0506691 2.48555 0.0205508C3.14023 0.108989 3.67305 0.437304 4.1543 0.868537C4.29961 0.998846 4.40273 1.14402 4.4418 1.34477C4.49297 1.61008 4.66523 1.76035 4.86562 1.75918C5.06445 1.758 5.22656 1.59952 5.29219 1.34242C5.2957 1.32834 5.29531 1.31229 5.30195 1.29977C5.36484 1.18198 5.4043 1.03876 5.49688 0.953061C5.70703 0.758576 5.93086 0.572309 6.17227 0.419695C6.69844 0.0866835 7.27148 -0.0831485 7.90078 0.0412906C8.46133 0.152425 8.93398 0.437304 9.36055 0.807491C9.53633 0.960105 9.69883 1.11859 9.72148 1.37021C9.72578 1.41677 9.75 1.46334 9.77227 1.50639C9.84883 1.65391 9.95859 1.75839 10.1359 1.75879C10.3129 1.75918 10.425 1.65626 10.5016 1.50912C10.5305 1.45356 10.5598 1.39251 10.5664 1.33186C10.5859 1.14872 10.6816 1.01411 10.8156 0.899842C10.9305 0.801621 11.0414 0.697531 11.1629 0.607919C11.948 0.0287684 12.7926 -0.206022 13.7266 0.216992C14.2262 0.443174 14.6891 0.728836 15.0008 1.2035C15.0008 5.39217 15.0008 9.58123 15.0008 13.7699C14.7656 14.1636 14.5203 14.1894 14.1641 13.8896C13.9605 13.7182 13.7363 13.5648 13.5035 13.4365C13.1941 13.2659 12.8566 13.1931 12.5008 13.2733C12.1242 13.3578 11.809 13.5582 11.5242 13.8086C11.466 13.8599 11.4203 13.9362 11.3937 14.0098C11.2645 14.3698 11.0715 14.6789 10.7211 14.8589C10.6016 14.92 10.4684 14.954 10.3418 15.0002ZM3.54492 6.59C3.54492 6.50665 3.54492 6.45343 3.54492 6.40021C3.54492 4.94646 3.54492 3.49232 3.54492 2.03858C3.54492 1.41756 3.53789 1.40073 2.99336 1.10215C2.67383 0.926843 2.33711 0.830188 1.96758 0.909234C1.56445 0.995324 1.23047 1.20937 0.924609 1.47312C0.892188 1.50091 0.880859 1.56743 0.880859 1.61595C0.878516 3.23562 0.878906 4.85568 0.879688 6.47534C0.879688 6.51017 0.887109 6.545 0.892578 6.59469C1.77461 6.06133 2.64727 6.04606 3.54492 6.59ZM14.1211 6.60017C14.1211 6.51369 14.1211 6.46008 14.1211 6.40647C14.1211 4.95742 14.1211 3.50837 14.1211 2.05932C14.1211 1.41795 14.1133 1.40308 13.5418 1.09863C13.4477 1.04854 13.348 1.00667 13.248 0.969497C12.9133 0.844666 12.5727 0.839579 12.2516 0.993758C12.0121 1.10841 11.7934 1.2669 11.566 1.4066C11.4793 1.45982 11.4527 1.53495 11.4527 1.63865C11.4563 3.23405 11.4551 4.82946 11.4555 6.42486C11.4555 6.47104 11.4598 6.51721 11.4629 6.58726C12.3527 6.04215 13.2297 6.0625 14.1211 6.60017ZM3.54492 12.7583C3.54492 12.6977 3.54492 12.6546 3.54492 12.6116C3.54492 11.143 3.54492 9.67476 3.54492 8.20614C3.54492 7.59686 3.54492 7.59686 3.00742 7.29085C2.96094 7.26424 2.91328 7.23919 2.86484 7.21689C2.57891 7.08736 2.28437 7.02162 1.96914 7.08932C1.56641 7.17619 1.23242 7.39024 0.926562 7.65321C0.891797 7.68334 0.880859 7.75612 0.880859 7.80934C0.878516 9.41922 0.878906 11.0291 0.879297 12.639C0.879297 12.6789 0.885547 12.7188 0.889063 12.7654C1.82578 12.2438 2.58984 12.2269 3.54492 12.7583ZM11.4551 12.772C12.3543 12.2222 13.2324 12.2481 14.1211 12.7677C14.1211 12.6871 14.1211 12.6339 14.1211 12.5811C14.1211 11.1324 14.1211 9.68376 14.1211 8.2351C14.1211 7.59373 14.1211 7.59373 13.5508 7.2838C13.5164 7.26502 13.4816 7.24819 13.4465 7.23098C12.9906 7.00518 12.5336 7.00284 12.0863 7.24506C11.9031 7.34407 11.7371 7.47516 11.5621 7.58981C11.4762 7.64616 11.4523 7.72169 11.4527 7.82421C11.4559 9.41923 11.4551 11.0142 11.4551 12.6092C11.4551 12.6527 11.4551 12.6961 11.4551 12.772ZM8.81836 6.58921C8.81836 6.50743 8.81836 6.45499 8.81836 6.40216C8.81836 4.94294 8.81836 3.48371 8.81836 2.02449C8.81836 1.42303 8.82031 1.4199 8.29219 1.11702C7.96719 0.930365 7.62148 0.827057 7.24102 0.908842C6.84766 0.993367 6.52227 1.20351 6.22891 1.46725C6.19414 1.49856 6.18359 1.57095 6.18359 1.62417C6.18125 3.23484 6.18164 4.84511 6.18203 6.45577C6.18203 6.49178 6.18672 6.52778 6.19102 6.5853C7.06602 6.05428 7.92969 6.05546 8.81836 6.58921ZM8.81836 12.7662C8.81836 12.6836 8.81836 12.63 8.81836 12.5768C8.81836 11.1175 8.81836 9.65832 8.81836 8.1991C8.81836 7.60508 8.81836 7.60468 8.3 7.30102C7.78047 6.99618 7.25625 6.97858 6.7332 7.28693C6.58242 7.37576 6.44375 7.48455 6.29844 7.58277C6.21055 7.64186 6.17852 7.71621 6.17891 7.82695C6.1832 9.41805 6.18164 11.0088 6.18164 12.5999C6.18164 12.6472 6.18164 12.6946 6.18164 12.7677C6.60156 12.5235 7.02695 12.3655 7.49687 12.3647C7.96758 12.3639 8.39336 12.5208 8.81836 12.7662ZM4.42813 2.60951C4.42852 2.60795 4.42461 2.62242 4.42461 2.63651C4.42422 4.22644 4.42109 5.81636 4.43008 7.40668C4.43086 7.53346 4.49219 7.67473 4.56484 7.78273C4.71367 8.00422 5.02656 8.00226 5.16719 7.7753C5.24258 7.6536 5.29687 7.4959 5.29766 7.35385C5.30664 5.81284 5.30352 4.27144 5.30352 2.73004C5.30352 2.6819 5.30352 2.63377 5.30352 2.60951C5.00781 2.60951 4.72422 2.60951 4.42813 2.60951ZM9.70078 2.60951C9.70039 2.61264 9.69766 2.63182 9.69766 2.65099C9.69727 4.23622 9.69414 5.82145 9.70312 7.40629C9.70391 7.53307 9.76523 7.67434 9.8375 7.78234C9.98633 8.00383 10.2988 8.00226 10.4398 7.7753C10.5152 7.6536 10.5695 7.4959 10.5703 7.35385C10.5793 5.81284 10.5762 4.27144 10.5762 2.73004C10.5762 2.6819 10.5762 2.63377 10.5762 2.60912C10.2812 2.60951 9.99805 2.60951 9.70078 2.60951ZM4.4293 8.79038C4.42969 8.78842 4.42422 8.8119 4.42422 8.83538C4.42383 10.4206 4.4207 12.0058 4.42969 13.5907C4.43047 13.7171 4.49336 13.8579 4.56641 13.9659C4.71211 14.1812 5.01953 14.1823 5.15977 13.9644C5.23711 13.8439 5.2957 13.6865 5.29648 13.5453C5.30586 11.9992 5.30234 10.4531 5.30234 8.90699C5.30234 8.85964 5.30234 8.81229 5.30234 8.79038C5.0043 8.79038 4.7207 8.79038 4.4293 8.79038ZM9.70195 8.78999C9.70234 8.78764 9.69805 8.80681 9.69805 8.82599C9.69766 10.4159 9.69492 12.0058 9.70312 13.5962C9.70391 13.7182 9.76406 13.8544 9.83398 13.9589C9.98516 14.1859 10.3035 14.1827 10.4461 13.9491C10.5184 13.8306 10.5703 13.6779 10.5711 13.5402C10.5797 11.9941 10.5766 10.448 10.5762 8.9019C10.5762 8.85573 10.5719 8.80955 10.5707 8.78999C10.2773 8.78999 9.99883 8.78999 9.70195 8.78999Z" fill="#C8DAF1"/>
</svg>
